<svg version="1.1" xmlns="http://www.w3.org/2000/svg" xmlns:xlink="http://www.w3.org/1999/xlink" width="2116" height="1012"><defs/><g><g><rect fill="#ffffff" stroke="none" x="16" y="48" width="2096" height="992" transform="matrix(1 0 0 1 -6 -38)"/></g><g><path fill="none" stroke="#000000" paint-order="fill stroke markers" d=" M 10 10 L 2106 10 L 2106 1002 L 10 1002 L 10 10 Z Z" stroke-miterlimit="10" stroke-dasharray=""/></g><g><rect fill="#ffffff" stroke="none" x="40" y="64" width="232" height="21" transform="matrix(1 0 0 1 -6 -38)"/></g><g><path fill="none" stroke="#000000" paint-order="fill stroke markers" d=" M 34 26 L 266 26 L 266 47 L 34 47 L 34 26 Z Z" stroke-miterlimit="10" stroke-width="2" stroke-dasharray=""/></g><g><path fill="none" stroke="#000000" paint-order="fill stroke markers" d=" M 34 970 L 34 26 L 266 26 L 266 970" stroke-miterlimit="10" stroke-width="2" stroke-dasharray=""/></g><g><g><path fill="none" stroke="none"/><text fill="#000000" stroke="none" font-family="Arial" font-size="13px" font-style="normal" font-weight="normal" text-decoration="undefined" x="156" y="68" text-anchor="middle" dominant-baseline="text-before-edge" transform="matrix(1 0 0 1 -6 -38)">IBKR Gateway</text></g></g><g><rect fill="#ffffff" stroke="none" x="272" y="64" width="480" height="21" transform="matrix(1 0 0 1 -6 -38)"/></g><g><path fill="none" stroke="#000000" paint-order="fill stroke markers" d=" M 266 26 L 746 26 L 746 47 L 266 47 L 266 26 Z Z" stroke-miterlimit="10" stroke-width="2" stroke-dasharray=""/></g><g><path fill="none" stroke="#000000" paint-order="fill stroke markers" d=" M 266 970 L 266 26 L 746 26 L 746 970" stroke-miterlimit="10" stroke-width="2" stroke-dasharray=""/></g><g><g><path fill="none" stroke="none"/><text fill="#000000" stroke="none" font-family="Arial" font-size="13px" font-style="normal" font-weight="normal" text-decoration="undefined" x="512" y="68" text-anchor="middle" dominant-baseline="text-before-edge" transform="matrix(1 0 0 1 -6 -38)">Live Data Hub</text></g></g><g><rect fill="#ffffff" stroke="none" x="1072" y="64" width="320" height="21" transform="matrix(1 0 0 1 -6 -38)"/></g><g><path fill="none" stroke="#000000" paint-order="fill stroke markers" d=" M 1066 26 L 1386 26 L 1386 47 L 1066 47 L 1066 26 Z Z" stroke-miterlimit="10" stroke-width="2" stroke-dasharray=""/></g><g><path fill="none" stroke="#000000" paint-order="fill stroke markers" d=" M 1066 970 L 1066 26 L 1386 26 L 1386 970" stroke-miterlimit="10" stroke-width="2" stroke-dasharray=""/></g><g><g><path fill="none" stroke="none"/><text fill="#000000" stroke="none" font-family="Arial" font-size="13px" font-style="normal" font-weight="normal" text-decoration="undefined" x="1232" y="68" text-anchor="middle" dominant-baseline="text-before-edge" transform="matrix(1 0 0 1 -6 -38)">Risk Monitor</text></g></g><g><rect fill="#ffffff" stroke="none" x="752" y="64" width="320" height="21" transform="matrix(1 0 0 1 -6 -38)"/></g><g><path fill="none" stroke="#000000" paint-order="fill stroke markers" d=" M 746 26 L 1066 26 L 1066 47 L 746 47 L 746 26 Z Z" stroke-miterlimit="10" stroke-width="2" stroke-dasharray=""/></g><g><path fill="none" stroke="#000000" paint-order="fill stroke markers" d=" M 746 970 L 746 26 L 1066 26 L 1066 970" stroke-miterlimit="10" stroke-width="2" stroke-dasharray=""/></g><g><g><path fill="none" stroke="none"/><text fill="#000000" stroke="none" font-family="Arial" font-size="13px" font-style="normal" font-weight="normal" text-decoration="undefined" x="912" y="68" text-anchor="middle" dominant-baseline="text-before-edge" transform="matrix(1 0 0 1 -6 -38)">Job Manager</text></g></g><g><rect fill="#ffffff" stroke="none" x="1392" y="64" width="352" height="21" transform="matrix(1 0 0 1 -6 -38)"/></g><g><path fill="none" stroke="#000000" paint-order="fill stroke markers" d=" M 1386 26 L 1738 26 L 1738 47 L 1386 47 L 1386 26 Z Z" stroke-miterlimit="10" stroke-width="2" stroke-dasharray=""/></g><g><path fill="none" stroke="#000000" paint-order="fill stroke markers" d=" M 1386 970 L 1386 26 L 1738 26 L 1738 970" stroke-miterlimit="10" stroke-width="2" stroke-dasharray=""/></g><g><g><path fill="none" stroke="none"/><text fill="#000000" stroke="none" font-family="Arial" font-size="13px" font-style="normal" font-weight="normal" text-decoration="undefined" x="1568" y="68" text-anchor="middle" dominant-baseline="text-before-edge" transform="matrix(1 0 0 1 -6 -38)">Thread Manager</text></g></g><g><rect fill="#ffffff" stroke="none" x="1744" y="64" width="336" height="21" transform="matrix(1 0 0 1 -6 -38)"/></g><g><path fill="none" stroke="#000000" paint-order="fill stroke markers" d=" M 1738 26 L 2074 26 L 2074 47 L 1738 47 L 1738 26 Z Z" stroke-miterlimit="10" stroke-width="2" stroke-dasharray=""/></g><g><path fill="none" stroke="#000000" paint-order="fill stroke markers" d=" M 1738 970 L 1738 26 L 2074 26 L 2074 970" stroke-miterlimit="10" stroke-width="2" stroke-dasharray=""/></g><g><g><path fill="none" stroke="none"/><text fill="#000000" stroke="none" font-family="Arial" font-size="13px" font-style="normal" font-weight="normal" text-decoration="undefined" x="1912" y="68" text-anchor="middle" dominant-baseline="text-before-edge" transform="matrix(1 0 0 1 -6 -38)">Data Ingestion Layer</text></g></g><g><path fill="#C0C0C0" stroke="none" paint-order="stroke fill markers" d=" M 137 79 C 137 71.2680128 143.2680128 65 151 65 C 158.7319872 65 165 71.2680128 165 79 C 165 86.7319872 158.7319872 93 151 93 C 143.2680128 93 137 86.7319872 137 79 Z" fill-opacity="0.2"/></g><g><path fill="#000000" stroke="none" paint-order="stroke fill markers" d=" M 130 72 C 130 64.2680128 136.2680128 58 144 58 C 151.7319872 58 158 64.2680128 158 72 C 158 79.7319872 151.7319872 86 144 86 C 136.2680128 86 130 79.7319872 130 72 Z"/></g><g><path fill="#C0C0C0" stroke="none" paint-order="stroke fill markers" d=" M 315 121 L 497.6640625 121 Q 507.6640625 121 507.6640625 131 L 507.6640625 152 Q 507.6640625 162 497.6640625 162 L 315 162 Q 305 162 305 152 L 305 131 Q 305 121 315 121 Z" fill-opacity="0.2"/></g><g><path fill="#ffffff" stroke="none" paint-order="stroke fill markers" d=" M 308 114 L 490.6640625 114 Q 500.6640625 114 500.6640625 124 L 500.6640625 145 Q 500.6640625 155 490.6640625 155 L 308 155 Q 298 155 298 145 L 298 124 Q 298 114 308 114 Z"/></g><g><path fill="none" stroke="#000000" paint-order="fill stroke markers" d=" M 308 114 L 490.6640625 114 Q 500.6640625 114 500.6640625 124 L 500.6640625 145 Q 500.6640625 155 490.6640625 155 L 308 155 Q 298 155 298 145 L 298 124 Q 298 114 308 114 Z" stroke-miterlimit="10" stroke-dasharray=""/></g><g><g><path fill="none" stroke="none"/><text fill="#000000" stroke="none" font-family="Arial" font-size="13px" font-style="normal" font-weight="bold" text-decoration="undefined" x="405.83203125" y="165.5" text-anchor="middle" dominant-baseline="central" transform="matrix(1 0 0 1 -6 -38)">Mise à jour du Cache des Ticks</text></g></g><g><path fill="none" stroke="#000000" paint-order="fill stroke markers" d=" M 224 138 L 298 138" stroke-miterlimit="10" stroke-dasharray=""/></g><g><path fill="none" stroke="#000000" paint-order="fill stroke markers" d=" M 287.83732514237585 142.209517756016 L 298 138 L 287.83732514237585 133.790482243984" stroke-miterlimit="10" stroke-dasharray=""/></g><g><path fill="none" stroke="#000000" paint-order="fill stroke markers" d=" M 338 227 L 338 338 L 386 338" stroke-miterlimit="10" stroke-dasharray=""/></g><g><path fill="none" stroke="#000000" paint-order="fill stroke markers" d=" M 375.83732514237585 342.209517756016 L 386 338 L 375.83732514237585 333.790482243984" stroke-miterlimit="10" stroke-dasharray=""/></g><g><path fill="#C0C0C0" stroke="none" paint-order="stroke fill markers" d=" M 396 289 L 396 289 Q 399 289 399 292 L 399 526 Q 399 529 396 529 L 396 529 Q 393 529 393 526 L 393 292 Q 393 289 396 289 Z" fill-opacity="0.2"/></g><g><path fill="#000000" stroke="none" paint-order="stroke fill markers" d=" M 389 282 L 389 282 Q 392 282 392 285 L 392 519 Q 392 522 389 522 L 389 522 Q 386 522 386 519 L 386 285 Q 386 282 389 282 Z"/></g><g><path fill="none" stroke="#000000" paint-order="fill stroke markers" d=" M 146 86 L 146 122" stroke-miterlimit="10" stroke-dasharray=""/></g><g><path fill="none" stroke="#000000" paint-order="fill stroke markers" d=" M 141.790482243984 111.83732514237585 L 146 122 L 150.209517756016 111.83732514237585" stroke-miterlimit="10" stroke-dasharray=""/></g><g><path fill="#C0C0C0" stroke="none" paint-order="stroke fill markers" d=" M 91 129 L 220.90234375 129 Q 230.90234375 129 230.90234375 139 L 230.90234375 160 Q 230.90234375 170 220.90234375 170 L 91 170 Q 81 170 81 160 L 81 139 Q 81 129 91 129 Z" fill-opacity="0.2"/></g><g><path fill="#ffffff" stroke="none" paint-order="stroke fill markers" d=" M 84 122 L 213.90234375 122 Q 223.90234375 122 223.90234375 132 L 223.90234375 153 Q 223.90234375 163 213.90234375 163 L 84 163 Q 74 163 74 153 L 74 132 Q 74 122 84 122 Z"/></g><g><path fill="none" stroke="#000000" paint-order="fill stroke markers" d=" M 84 122 L 213.90234375 122 Q 223.90234375 122 223.90234375 132 L 223.90234375 153 Q 223.90234375 163 213.90234375 163 L 84 163 Q 74 163 74 153 L 74 132 Q 74 122 84 122 Z" stroke-miterlimit="10" stroke-dasharray=""/></g><g><g><path fill="none" stroke="none"/><text fill="#000000" stroke="none" font-family="Arial" font-size="13px" font-style="normal" font-weight="bold" text-decoration="undefined" x="155.451171875" y="173.5" text-anchor="middle" dominant-baseline="central" transform="matrix(1 0 0 1 -6 -38)">Réception du TickData</text></g></g><g><path fill="#C0C0C0" stroke="none" paint-order="stroke fill markers" d=" M 1843 513 L 1952.68505859375 513 Q 1962.68505859375 513 1962.68505859375 523 L 1962.68505859375 544 Q 1962.68505859375 554 1952.68505859375 554 L 1843 554 Q 1833 554 1833 544 L 1833 523 Q 1833 513 1843 513 Z" fill-opacity="0.2"/></g><g><path fill="#ffffff" stroke="none" paint-order="stroke fill markers" d=" M 1836 506 L 1945.68505859375 506 Q 1955.68505859375 506 1955.68505859375 516 L 1955.68505859375 537 Q 1955.68505859375 547 1945.68505859375 547 L 1836 547 Q 1826 547 1826 537 L 1826 516 Q 1826 506 1836 506 Z"/></g><g><path fill="none" stroke="#000000" paint-order="fill stroke markers" d=" M 1836 506 L 1945.68505859375 506 Q 1955.68505859375 506 1955.68505859375 516 L 1955.68505859375 537 Q 1955.68505859375 547 1945.68505859375 547 L 1836 547 Q 1826 547 1826 537 L 1826 516 Q 1826 506 1836 506 Z" stroke-miterlimit="10" stroke-dasharray=""/></g><g><g><path fill="none" stroke="none"/><text fill="#000000" stroke="none" font-family="Arial" font-size="13px" font-style="normal" font-weight="bold" text-decoration="undefined" x="1897.342529296875" y="557.5" text-anchor="middle" dominant-baseline="central" transform="matrix(1 0 0 1 -6 -38)">Lire/Vider le Buffer </text></g></g><g><path fill="#C0C0C0" stroke="none" paint-order="stroke fill markers" d=" M 1897 697 C 1897 688.1634432 1904.1634432 681 1913 681 C 1921.8365568 681 1929 688.1634432 1929 697 C 1929 705.8365568 1921.8365568 713 1913 713 C 1904.1634432 713 1897 705.8365568 1897 697 Z" fill-opacity="0.2"/></g><g><path fill="#ffffff" stroke="none" paint-order="stroke fill markers" d=" M 1890 690 C 1890 681.1634432 1897.1634432 674 1906 674 C 1914.8365568 674 1922 681.1634432 1922 690 C 1922 698.8365568 1914.8365568 706 1906 706 C 1897.1634432 706 1890 698.8365568 1890 690 Z"/></g><g><path fill="none" stroke="#000000" paint-order="fill stroke markers" d=" M 1890 690 C 1890 681.1634432 1897.1634432 674 1906 674 C 1914.8365568 674 1922 681.1634432 1922 690 C 1922 698.8365568 1914.8365568 706 1906 706 C 1897.1634432 706 1890 698.8365568 1890 690 Z" stroke-miterlimit="10" stroke-dasharray=""/></g><g><path fill="none" stroke="#000000" paint-order="fill stroke markers" d=" M 1895 679 L 1917 701" stroke-miterlimit="10" stroke-dasharray=""/></g><g><path fill="none" stroke="#000000" paint-order="fill stroke markers" d=" M 1917 679 L 1895 701" stroke-miterlimit="10" stroke-dasharray=""/></g><g><path fill="none" stroke="#000000" paint-order="fill stroke markers" d=" M 392 290 L 442 290" stroke-miterlimit="10" stroke-dasharray=""/></g><g><path fill="none" stroke="#000000" paint-order="fill stroke markers" d=" M 431.83732514237585 294.209517756016 L 442 290 L 431.83732514237585 285.790482243984" stroke-miterlimit="10" stroke-dasharray=""/></g><g><path fill="#C0C0C0" stroke="none" paint-order="stroke fill markers" d=" M 459 273 L 727.865234375 273 Q 737.865234375 273 737.865234375 283 L 737.865234375 304 Q 737.865234375 314 727.865234375 314 L 459 314 Q 449 314 449 304 L 449 283 Q 449 273 459 273 Z" fill-opacity="0.2"/></g><g><path fill="#ffffff" stroke="none" paint-order="stroke fill markers" d=" M 452 266 L 720.865234375 266 Q 730.865234375 266 730.865234375 276 L 730.865234375 297 Q 730.865234375 307 720.865234375 307 L 452 307 Q 442 307 442 297 L 442 276 Q 442 266 452 266 Z"/></g><g><path fill="none" stroke="#000000" paint-order="fill stroke markers" d=" M 452 266 L 720.865234375 266 Q 730.865234375 266 730.865234375 276 L 730.865234375 297 Q 730.865234375 307 720.865234375 307 L 452 307 Q 442 307 442 297 L 442 276 Q 442 266 452 266 Z" stroke-miterlimit="10" stroke-dasharray=""/></g><g><g><path fill="none" stroke="none"/><text fill="#000000" stroke="none" font-family="Arial" font-size="13px" font-style="normal" font-weight="bold" text-decoration="undefined" x="592.9326171875" y="317.5" text-anchor="middle" dominant-baseline="central" transform="matrix(1 0 0 1 -6 -38)">Soumission Tâche Persistance (Asynchrone)</text></g></g><g><path fill="none" stroke="#000000" paint-order="fill stroke markers" d=" M 725 450 L 1450 450" stroke-miterlimit="10" stroke-dasharray=""/></g><g><path fill="none" stroke="#000000" paint-order="fill stroke markers" d=" M 1439.837325142376 454.209517756016 L 1450 450 L 1439.837325142376 445.790482243984" stroke-miterlimit="10" stroke-dasharray=""/></g><g><path fill="none" stroke="#000000" paint-order="fill stroke markers" d=" M 1635 522 L 1826 522" stroke-miterlimit="10" stroke-dasharray=""/></g><g><path fill="none" stroke="#000000" paint-order="fill stroke markers" d=" M 1815.837325142376 526.209517756016 L 1826 522 L 1815.837325142376 517.790482243984" stroke-miterlimit="10" stroke-dasharray=""/></g><g><path fill="none" stroke="#000000" paint-order="fill stroke markers" d=" M 1906 635 L 1906 674" stroke-miterlimit="10" stroke-dasharray=""/></g><g><path fill="none" stroke="#000000" paint-order="fill stroke markers" d=" M 1901.7904822439841 663.8373251423759 L 1906 674 L 1910.2095177560159 663.8373251423759" stroke-miterlimit="10" stroke-dasharray=""/></g><g><path fill="none" stroke="#000000" paint-order="fill stroke markers" d=" M 392 514 L 904 514 L 904 562" stroke-miterlimit="10" stroke-dasharray=""/></g><g><path fill="none" stroke="#000000" paint-order="fill stroke markers" d=" M 899.790482243984 551.8373251423759 L 904 562 L 908.209517756016 551.8373251423759" stroke-miterlimit="10" stroke-dasharray=""/></g><g><path fill="none" stroke="#000000" paint-order="fill stroke markers" d=" M 1048 586 L 1178 586 L 1178 626" stroke-miterlimit="10" stroke-dasharray=""/></g><g><path fill="none" stroke="#000000" paint-order="fill stroke markers" d=" M 1173.7904822439841 615.8373251423759 L 1178 626 L 1182.2095177560159 615.8373251423759" stroke-miterlimit="10" stroke-dasharray=""/></g><g><path fill="none" stroke="#000000" paint-order="fill stroke markers" d=" M 1178 667 L 1178 706" stroke-miterlimit="10" stroke-dasharray=""/></g><g><path fill="none" stroke="#000000" paint-order="fill stroke markers" d=" M 1173.7904822439841 695.8373251423759 L 1178 706 L 1182.2095177560159 695.8373251423759" stroke-miterlimit="10" stroke-dasharray=""/></g><g><path fill="#C0C0C0" stroke="none" paint-order="stroke fill markers" d=" M 1099 633 L 1369.97265625 633 Q 1379.97265625 633 1379.97265625 643 L 1379.97265625 664 Q 1379.97265625 674 1369.97265625 674 L 1099 674 Q 1089 674 1089 664 L 1089 643 Q 1089 633 1099 633 Z" fill-opacity="0.2"/></g><g><path fill="#ffffff" stroke="none" paint-order="stroke fill markers" d=" M 1092 626 L 1362.97265625 626 Q 1372.97265625 626 1372.97265625 636 L 1372.97265625 657 Q 1372.97265625 667 1362.97265625 667 L 1092 667 Q 1082 667 1082 657 L 1082 636 Q 1082 626 1092 626 Z"/></g><g><path fill="none" stroke="#000000" paint-order="fill stroke markers" d=" M 1092 626 L 1362.97265625 626 Q 1372.97265625 626 1372.97265625 636 L 1372.97265625 657 Q 1372.97265625 667 1362.97265625 667 L 1092 667 Q 1082 667 1082 657 L 1082 636 Q 1082 626 1092 626 Z" stroke-miterlimit="10" stroke-dasharray=""/></g><g><g><path fill="none" stroke="none"/><text fill="#000000" stroke="none" font-family="Arial" font-size="13px" font-style="normal" font-weight="bold" text-decoration="undefined" x="1233.986328125" y="677.5" text-anchor="middle" dominant-baseline="central" transform="matrix(1 0 0 1 -6 -38)">Lecture du Snapshot et Évaluation Stop-Loss</text></g></g><g><path fill="none" stroke="#000000" paint-order="fill stroke markers" d=" M 1202 802 L 1426 802" stroke-miterlimit="10" stroke-dasharray=""/></g><g><path fill="none" stroke="#000000" paint-order="fill stroke markers" d=" M 1415.837325142376 806.209517756016 L 1426 802 L 1415.837325142376 797.790482243984" stroke-miterlimit="10" stroke-dasharray=""/></g><g><rect fill="#ffffff" stroke="none" x="1221" y="818" width="159.67529296875" height="13" transform="matrix(1 0 0 1 -6 -38)"/></g><g><g><path fill="none" stroke="none"/><text fill="#000000" stroke="none" font-family="Arial" font-size="13px" font-style="normal" font-weight="normal" text-decoration="undefined" x="1300.837646484375" y="824.5" text-anchor="middle" dominant-baseline="central" transform="matrix(1 0 0 1 -6 -38)"> [Décision : Ordre Requis ?]</text></g></g><g><path fill="none" stroke="#000000" paint-order="fill stroke markers" d=" M 1570 819 L 1570 898" stroke-miterlimit="10" stroke-dasharray=""/></g><g><path fill="none" stroke="#000000" paint-order="fill stroke markers" d=" M 1565.7904822439841 887.8373251423759 L 1570 898 L 1574.2095177560159 887.8373251423759" stroke-miterlimit="10" stroke-dasharray=""/></g><g><path fill="none" stroke="#000000" paint-order="fill stroke markers" d=" M 1410 923 L 1012 923" stroke-miterlimit="10" stroke-dasharray=""/></g><g><path fill="none" stroke="#000000" paint-order="fill stroke markers" d=" M 1022.1626748576241 918.790482243984 L 1012 923 L 1022.1626748576241 927.209517756016" stroke-miterlimit="10" stroke-dasharray=""/></g><g><path fill="none" stroke="#000000" paint-order="fill stroke markers" d=" M 818 922 L 146 922" stroke-miterlimit="10" stroke-dasharray=""/></g><g><path fill="none" stroke="#000000" paint-order="fill stroke markers" d=" M 156.16267485762415 917.790482243984 L 146 922 L 156.16267485762415 926.209517756016" stroke-miterlimit="10" stroke-dasharray=""/></g><g><path fill="#C0C0C0" stroke="none" paint-order="stroke fill markers" d=" M 315 193 L 567.208984375 193 Q 577.208984375 193 577.208984375 203 L 577.208984375 224 Q 577.208984375 234 567.208984375 234 L 315 234 Q 305 234 305 224 L 305 203 Q 305 193 315 193 Z" fill-opacity="0.2"/></g><g><path fill="#ffffff" stroke="none" paint-order="stroke fill markers" d=" M 308 186 L 560.208984375 186 Q 570.208984375 186 570.208984375 196 L 570.208984375 217 Q 570.208984375 227 560.208984375 227 L 308 227 Q 298 227 298 217 L 298 196 Q 298 186 308 186 Z"/></g><g><path fill="none" stroke="#000000" paint-order="fill stroke markers" d=" M 308 186 L 560.208984375 186 Q 570.208984375 186 570.208984375 196 L 570.208984375 217 Q 570.208984375 227 560.208984375 227 L 308 227 Q 298 227 298 217 L 298 196 Q 298 186 308 186 Z" stroke-miterlimit="10" stroke-dasharray=""/></g><g><g><path fill="none" stroke="none"/><text fill="#000000" stroke="none" font-family="Arial" font-size="13px" font-style="normal" font-weight="bold" text-decoration="undefined" x="440.6044921875" y="237.5" text-anchor="middle" dominant-baseline="central" transform="matrix(1 0 0 1 -6 -38)">Création du SnapshotHeader/MarketQuote</text></g></g><g><path fill="none" stroke="#000000" paint-order="fill stroke markers" d=" M 399 155 L 399 186" stroke-miterlimit="10" stroke-dasharray=""/></g><g><path fill="none" stroke="#000000" paint-order="fill stroke markers" d=" M 394.790482243984 175.83732514237585 L 399 186 L 403.209517756016 175.83732514237585" stroke-miterlimit="10" stroke-dasharray=""/></g><g><path fill="#C0C0C0" stroke="none" paint-order="stroke fill markers" d=" M 1099 713 L 1272.8916015625 713 Q 1282.8916015625 713 1282.8916015625 723 L 1282.8916015625 744 Q 1282.8916015625 754 1272.8916015625 754 L 1099 754 Q 1089 754 1089 744 L 1089 723 Q 1089 713 1099 713 Z" fill-opacity="0.2"/></g><g><path fill="#ffffff" stroke="none" paint-order="stroke fill markers" d=" M 1092 706 L 1265.8916015625 706 Q 1275.8916015625 706 1275.8916015625 716 L 1275.8916015625 737 Q 1275.8916015625 747 1265.8916015625 747 L 1092 747 Q 1082 747 1082 737 L 1082 716 Q 1082 706 1092 706 Z"/></g><g><path fill="none" stroke="#000000" paint-order="fill stroke markers" d=" M 1092 706 L 1265.8916015625 706 Q 1275.8916015625 706 1275.8916015625 716 L 1275.8916015625 737 Q 1275.8916015625 747 1265.8916015625 747 L 1092 747 Q 1082 747 1082 737 L 1082 716 Q 1082 706 1092 706 Z" stroke-miterlimit="10" stroke-dasharray=""/></g><g><g><path fill="none" stroke="none"/><text fill="#000000" stroke="none" font-family="Arial" font-size="13px" font-style="normal" font-weight="bold" text-decoration="undefined" x="1185.44580078125" y="757.5" text-anchor="middle" dominant-baseline="central" transform="matrix(1 0 0 1 -6 -38)">Création de l'Ordre d'Urgence</text></g></g><g><path fill="#C0C0C0" stroke="none" paint-order="stroke fill markers" d=" M 459 353 L 725.80859375 353 Q 735.80859375 353 735.80859375 363 L 735.80859375 384 Q 735.80859375 394 725.80859375 394 L 459 394 Q 449 394 449 384 L 449 363 Q 449 353 459 353 Z" fill-opacity="0.2"/></g><g><path fill="#ffffff" stroke="none" paint-order="stroke fill markers" d=" M 452 346 L 718.80859375 346 Q 728.80859375 346 728.80859375 356 L 728.80859375 377 Q 728.80859375 387 718.80859375 387 L 452 387 Q 442 387 442 377 L 442 356 Q 442 346 452 346 Z"/></g><g><path fill="none" stroke="#000000" paint-order="fill stroke markers" d=" M 452 346 L 718.80859375 346 Q 728.80859375 346 728.80859375 356 L 728.80859375 377 Q 728.80859375 387 718.80859375 387 L 452 387 Q 442 387 442 377 L 442 356 Q 442 346 452 346 Z" stroke-miterlimit="10" stroke-dasharray=""/></g><g><g><path fill="none" stroke="none"/><text fill="#000000" stroke="none" font-family="Arial" font-size="13px" font-style="normal" font-weight="bold" text-decoration="undefined" x="591.904296875" y="397.5" text-anchor="middle" dominant-baseline="central" transform="matrix(1 0 0 1 -6 -38)">Ajout du Snapshot à la File d'Attente (Buffer)</text></g></g><g><path fill="#C0C0C0" stroke="none" paint-order="stroke fill markers" d=" M 475 433 L 722.4228515625 433 Q 732.4228515625 433 732.4228515625 443 L 732.4228515625 464 Q 732.4228515625 474 722.4228515625 474 L 475 474 Q 465 474 465 464 L 465 443 Q 465 433 475 433 Z" fill-opacity="0.2"/></g><g><path fill="#ffffff" stroke="none" paint-order="stroke fill markers" d=" M 468 426 L 715.4228515625 426 Q 725.4228515625 426 725.4228515625 436 L 725.4228515625 457 Q 725.4228515625 467 715.4228515625 467 L 468 467 Q 458 467 458 457 L 458 436 Q 458 426 468 426 Z"/></g><g><path fill="none" stroke="#000000" paint-order="fill stroke markers" d=" M 468 426 L 715.4228515625 426 Q 725.4228515625 426 725.4228515625 436 L 725.4228515625 457 Q 725.4228515625 467 715.4228515625 467 L 468 467 Q 458 467 458 457 L 458 436 Q 458 426 468 426 Z" stroke-miterlimit="10" stroke-dasharray=""/></g><g><g><path fill="none" stroke="none"/><text fill="#000000" stroke="none" font-family="Arial" font-size="13px" font-style="normal" font-weight="bold" text-decoration="undefined" x="598.21142578125" y="477.5" text-anchor="middle" dominant-baseline="central" transform="matrix(1 0 0 1 -6 -38)">Soumission Tâche de Vidage (Drain Task)</text></g></g><g><path fill="#C0C0C0" stroke="none" paint-order="stroke fill markers" d=" M 1467 433 L 1687.43896484375 433 Q 1697.43896484375 433 1697.43896484375 443 L 1697.43896484375 464 Q 1697.43896484375 474 1687.43896484375 474 L 1467 474 Q 1457 474 1457 464 L 1457 443 Q 1457 433 1467 433 Z" fill-opacity="0.2"/></g><g><path fill="#ffffff" stroke="none" paint-order="stroke fill markers" d=" M 1460 426 L 1680.43896484375 426 Q 1690.43896484375 426 1690.43896484375 436 L 1690.43896484375 457 Q 1690.43896484375 467 1680.43896484375 467 L 1460 467 Q 1450 467 1450 457 L 1450 436 Q 1450 426 1460 426 Z"/></g><g><path fill="none" stroke="#000000" paint-order="fill stroke markers" d=" M 1460 426 L 1680.43896484375 426 Q 1690.43896484375 426 1690.43896484375 436 L 1690.43896484375 457 Q 1690.43896484375 467 1680.43896484375 467 L 1460 467 Q 1450 467 1450 457 L 1450 436 Q 1450 426 1460 426 Z" stroke-miterlimit="10" stroke-dasharray=""/></g><g><g><path fill="none" stroke="none"/><text fill="#000000" stroke="none" font-family="Arial" font-size="13px" font-style="normal" font-weight="bold" text-decoration="undefined" x="1576.719482421875" y="477.5" text-anchor="middle" dominant-baseline="central" transform="matrix(1 0 0 1 -6 -38)">Affectation au Pool I/O Basse Priorité</text></g></g><g><path fill="none" stroke="#000000" paint-order="fill stroke markers" d=" M 586 307 L 586 346" stroke-miterlimit="10" stroke-dasharray=""/></g><g><path fill="none" stroke="#000000" paint-order="fill stroke markers" d=" M 581.790482243984 335.83732514237585 L 586 346 L 590.209517756016 335.83732514237585" stroke-miterlimit="10" stroke-dasharray=""/></g><g><path fill="none" stroke="#000000" paint-order="fill stroke markers" d=" M 586 387 L 586 426" stroke-miterlimit="10" stroke-dasharray=""/></g><g><path fill="none" stroke="#000000" paint-order="fill stroke markers" d=" M 581.790482243984 415.83732514237585 L 586 426 L 590.209517756016 415.83732514237585" stroke-miterlimit="10" stroke-dasharray=""/></g><g><path fill="#C0C0C0" stroke="none" paint-order="stroke fill markers" d=" M 1523 513 L 1631.97412109375 513 Q 1641.97412109375 513 1641.97412109375 523 L 1641.97412109375 544 Q 1641.97412109375 554 1631.97412109375 554 L 1523 554 Q 1513 554 1513 544 L 1513 523 Q 1513 513 1523 513 Z" fill-opacity="0.2"/></g><g><path fill="#ffffff" stroke="none" paint-order="stroke fill markers" d=" M 1516 506 L 1624.97412109375 506 Q 1634.97412109375 506 1634.97412109375 516 L 1634.97412109375 537 Q 1634.97412109375 547 1624.97412109375 547 L 1516 547 Q 1506 547 1506 537 L 1506 516 Q 1506 506 1516 506 Z"/></g><g><path fill="none" stroke="#000000" paint-order="fill stroke markers" d=" M 1516 506 L 1624.97412109375 506 Q 1634.97412109375 506 1634.97412109375 516 L 1634.97412109375 537 Q 1634.97412109375 547 1624.97412109375 547 L 1516 547 Q 1506 547 1506 537 L 1506 516 Q 1506 506 1516 506 Z" stroke-miterlimit="10" stroke-dasharray=""/></g><g><g><path fill="none" stroke="none"/><text fill="#000000" stroke="none" font-family="Arial" font-size="13px" font-style="normal" font-weight="bold" text-decoration="undefined" x="1576.987060546875" y="557.5" text-anchor="middle" dominant-baseline="central" transform="matrix(1 0 0 1 -6 -38)">execute(DrainTask)</text></g></g><g><path fill="none" stroke="#000000" paint-order="fill stroke markers" d=" M 1570 467 L 1570 506" stroke-miterlimit="10" stroke-dasharray=""/></g><g><path fill="none" stroke="#000000" paint-order="fill stroke markers" d=" M 1565.7904822439841 495.8373251423759 L 1570 506 L 1574.2095177560159 495.8373251423759" stroke-miterlimit="10" stroke-dasharray=""/></g><g><path fill="#C0C0C0" stroke="none" paint-order="stroke fill markers" d=" M 1771 601 L 2061.5107421875 601 Q 2071.5107421875 601 2071.5107421875 611 L 2071.5107421875 632 Q 2071.5107421875 642 2061.5107421875 642 L 1771 642 Q 1761 642 1761 632 L 1761 611 Q 1761 601 1771 601 Z" fill-opacity="0.2"/></g><g><path fill="#ffffff" stroke="none" paint-order="stroke fill markers" d=" M 1764 594 L 2054.5107421875 594 Q 2064.5107421875 594 2064.5107421875 604 L 2064.5107421875 625 Q 2064.5107421875 635 2054.5107421875 635 L 1764 635 Q 1754 635 1754 625 L 1754 604 Q 1754 594 1764 594 Z"/></g><g><path fill="none" stroke="#000000" paint-order="fill stroke markers" d=" M 1764 594 L 2054.5107421875 594 Q 2064.5107421875 594 2064.5107421875 604 L 2064.5107421875 625 Q 2064.5107421875 635 2054.5107421875 635 L 1764 635 Q 1754 635 1754 625 L 1754 604 Q 1754 594 1764 594 Z" stroke-miterlimit="10" stroke-dasharray=""/></g><g><g><path fill="none" stroke="none"/><text fill="#000000" stroke="none" font-family="Arial" font-size="13px" font-style="normal" font-weight="bold" text-decoration="undefined" x="1915.75537109375" y="645.5" text-anchor="middle" dominant-baseline="central" transform="matrix(1 0 0 1 -6 -38)">Persistance Atomique des Snapshots (I/O Lente)</text></g></g><g><path fill="none" stroke="#000000" paint-order="fill stroke markers" d=" M 1898 547 L 1898 594" stroke-miterlimit="10" stroke-dasharray=""/></g><g><path fill="none" stroke="#000000" paint-order="fill stroke markers" d=" M 1893.7904822439841 583.8373251423759 L 1898 594 L 1902.2095177560159 583.8373251423759" stroke-miterlimit="10" stroke-dasharray=""/></g><g><path fill="#C0C0C0" stroke="none" paint-order="stroke fill markers" d=" M 779 569 L 1044.9833984375 569 Q 1054.9833984375 569 1054.9833984375 579 L 1054.9833984375 600 Q 1054.9833984375 610 1044.9833984375 610 L 779 610 Q 769 610 769 600 L 769 579 Q 769 569 779 569 Z" fill-opacity="0.2"/></g><g><path fill="#ffffff" stroke="none" paint-order="stroke fill markers" d=" M 772 562 L 1037.9833984375 562 Q 1047.9833984375 562 1047.9833984375 572 L 1047.9833984375 593 Q 1047.9833984375 603 1037.9833984375 603 L 772 603 Q 762 603 762 593 L 762 572 Q 762 562 772 562 Z"/></g><g><path fill="none" stroke="#000000" paint-order="fill stroke markers" d=" M 772 562 L 1037.9833984375 562 Q 1047.9833984375 562 1047.9833984375 572 L 1047.9833984375 593 Q 1047.9833984375 603 1037.9833984375 603 L 772 603 Q 762 603 762 593 L 762 572 Q 762 562 772 562 Z" stroke-miterlimit="10" stroke-dasharray=""/></g><g><g><path fill="none" stroke="none"/><text fill="#000000" stroke="none" font-family="Arial" font-size="13px" font-style="normal" font-weight="bold" text-decoration="undefined" x="911.49169921875" y="613.5" text-anchor="middle" dominant-baseline="central" transform="matrix(1 0 0 1 -6 -38)">Déclenchement de la Surveillance du Risque</text></g></g><g><path fill="#C0C0C0" stroke="none" paint-order="stroke fill markers" d=" M 121 929 C 121 920.1634432 128.1634432 913 137 913 C 145.8365568 913 153 920.1634432 153 929 C 153 937.8365568 145.8365568 945 137 945 C 128.1634432 945 121 937.8365568 121 929 Z" fill-opacity="0.2"/></g><g><path fill="none" stroke="#000000" paint-order="fill stroke markers" d=" M 114 922 C 114 913.1634432 121.1634432 906 130 906 C 138.8365568 906 146 913.1634432 146 922 C 146 930.8365568 138.8365568 938 130 938 C 121.1634432 938 114 930.8365568 114 922 Z" stroke-miterlimit="10" stroke-dasharray=""/></g><g><path fill="#000000" stroke="none" paint-order="stroke fill markers" d=" M 119 922 C 119 915.9248672 123.9248672 911 130 911 C 136.0751328 911 141 915.9248672 141 922 C 141 928.0751328 136.0751328 933 130 933 C 123.9248672 933 119 928.0751328 119 922 Z"/></g><g><path fill="#C0C0C0" stroke="none" paint-order="stroke fill markers" d=" M 835 905 L 1009.40576171875 905 Q 1019.40576171875 905 1019.40576171875 915 L 1019.40576171875 936 Q 1019.40576171875 946 1009.40576171875 946 L 835 946 Q 825 946 825 936 L 825 915 Q 825 905 835 905 Z" fill-opacity="0.2"/></g><g><path fill="#ffffff" stroke="none" paint-order="stroke fill markers" d=" M 828 898 L 1002.40576171875 898 Q 1012.40576171875 898 1012.40576171875 908 L 1012.40576171875 929 Q 1012.40576171875 939 1002.40576171875 939 L 828 939 Q 818 939 818 929 L 818 908 Q 818 898 828 898 Z"/></g><g><path fill="none" stroke="#000000" paint-order="fill stroke markers" d=" M 828 898 L 1002.40576171875 898 Q 1012.40576171875 898 1012.40576171875 908 L 1012.40576171875 929 Q 1012.40576171875 939 1002.40576171875 939 L 828 939 Q 818 939 818 929 L 818 908 Q 818 898 828 898 Z" stroke-miterlimit="10" stroke-dasharray=""/></g><g><g><path fill="none" stroke="none"/><text fill="#000000" stroke="none" font-family="Arial" font-size="13px" font-style="normal" font-weight="bold" text-decoration="undefined" x="921.702880859375" y="949.5" text-anchor="middle" dominant-baseline="central" transform="matrix(1 0 0 1 -6 -38)">Soumission de l'Ordre à IBKR</text></g></g><g><path fill="#C0C0C0" stroke="none" paint-order="stroke fill markers" d=" M 1427 905 L 1718.919921875 905 Q 1728.919921875 905 1728.919921875 915 L 1728.919921875 936 Q 1728.919921875 946 1718.919921875 946 L 1427 946 Q 1417 946 1417 936 L 1417 915 Q 1417 905 1427 905 Z" fill-opacity="0.2"/></g><g><path fill="#ffffff" stroke="none" paint-order="stroke fill markers" d=" M 1420 898 L 1711.919921875 898 Q 1721.919921875 898 1721.919921875 908 L 1721.919921875 929 Q 1721.919921875 939 1711.919921875 939 L 1420 939 Q 1410 939 1410 929 L 1410 908 Q 1410 898 1420 898 Z"/></g><g><path fill="none" stroke="#000000" paint-order="fill stroke markers" d=" M 1420 898 L 1711.919921875 898 Q 1721.919921875 898 1721.919921875 908 L 1721.919921875 929 Q 1721.919921875 939 1711.919921875 939 L 1420 939 Q 1410 939 1410 929 L 1410 908 Q 1410 898 1420 898 Z" stroke-miterlimit="10" stroke-dasharray=""/></g><g><g><path fill="none" stroke="none"/><text fill="#000000" stroke="none" font-family="Arial" font-size="13px" font-style="normal" font-weight="bold" text-decoration="undefined" x="1572.4599609375" y="949.5" text-anchor="middle" dominant-baseline="central" transform="matrix(1 0 0 1 -6 -38)">Affectation au Pool I/O Haute Priorité (Fast-Lane)</text></g></g><g><path fill="#C0C0C0" stroke="none" paint-order="stroke fill markers" d=" M 1443 785 L 1684.38623046875 785 Q 1694.38623046875 785 1694.38623046875 795 L 1694.38623046875 816 Q 1694.38623046875 826 1684.38623046875 826 L 1443 826 Q 1433 826 1433 816 L 1433 795 Q 1433 785 1443 785 Z" fill-opacity="0.2"/></g><g><path fill="#ffffff" stroke="none" paint-order="stroke fill markers" d=" M 1436 778 L 1677.38623046875 778 Q 1687.38623046875 778 1687.38623046875 788 L 1687.38623046875 809 Q 1687.38623046875 819 1677.38623046875 819 L 1436 819 Q 1426 819 1426 809 L 1426 788 Q 1426 778 1436 778 Z"/></g><g><path fill="none" stroke="#000000" paint-order="fill stroke markers" d=" M 1436 778 L 1677.38623046875 778 Q 1687.38623046875 778 1687.38623046875 788 L 1687.38623046875 809 Q 1687.38623046875 819 1677.38623046875 819 L 1436 819 Q 1426 819 1426 809 L 1426 788 Q 1426 778 1436 778 Z" stroke-miterlimit="10" stroke-dasharray=""/></g><g><g><path fill="none" stroke="none"/><text fill="#000000" stroke="none" font-family="Arial" font-size="13px" font-style="normal" font-weight="bold" text-decoration="undefined" x="1563.193115234375" y="829.5" text-anchor="middle" dominant-baseline="central" transform="matrix(1 0 0 1 -6 -38)">Soumission Tâche Ordre (Haute Priorité)</text></g></g><g><path fill="#C0C0C0" stroke="none" paint-order="stroke fill markers" d=" M 1169 817 L 1189 801 L 1209 817 L 1189 833 L 1169 817" fill-opacity="0.2"/></g><g><path fill="#ffffff" stroke="none" paint-order="stroke fill markers" d=" M 1162 810 L 1182 794 L 1202 810 L 1182 826 L 1162 810"/></g><g><path fill="none" stroke="#000000" paint-order="fill stroke markers" d=" M 1162 810 L 1182 794 L 1202 810 L 1182 826 L 1162 810 L 1162 810" stroke-miterlimit="10" stroke-dasharray=""/></g><g><path fill="none" stroke="#000000" paint-order="fill stroke markers" d=" M 1178 747 L 1178 794" stroke-miterlimit="10" stroke-dasharray=""/></g><g><path fill="none" stroke="#000000" paint-order="fill stroke markers" d=" M 1173.7904822439841 783.8373251423759 L 1178 794 L 1182.2095177560159 783.8373251423759" stroke-miterlimit="10" stroke-dasharray=""/></g><g><path fill="#C0C0C0" stroke="none" paint-order="stroke fill markers" d=" M 1337 889 C 1337 880.1634432 1344.1634432 873 1353 873 C 1361.8365568 873 1369 880.1634432 1369 889 C 1369 897.8365568 1361.8365568 905 1353 905 C 1344.1634432 905 1337 897.8365568 1337 889 Z" fill-opacity="0.2"/></g><g><path fill="#ffffff" stroke="none" paint-order="stroke fill markers" d=" M 1330 882 C 1330 873.1634432 1337.1634432 866 1346 866 C 1354.8365568 866 1362 873.1634432 1362 882 C 1362 890.8365568 1354.8365568 898 1346 898 C 1337.1634432 898 1330 890.8365568 1330 882 Z"/></g><g><path fill="none" stroke="#000000" paint-order="fill stroke markers" d=" M 1330 882 C 1330 873.1634432 1337.1634432 866 1346 866 C 1354.8365568 866 1362 873.1634432 1362 882 C 1362 890.8365568 1354.8365568 898 1346 898 C 1337.1634432 898 1330 890.8365568 1330 882 Z" stroke-miterlimit="10" stroke-dasharray=""/></g><g><path fill="none" stroke="#000000" paint-order="fill stroke markers" d=" M 1335 871 L 1357 893" stroke-miterlimit="10" stroke-dasharray=""/></g><g><path fill="none" stroke="#000000" paint-order="fill stroke markers" d=" M 1357 871 L 1335 893" stroke-miterlimit="10" stroke-dasharray=""/></g><g><path fill="none" stroke="#000000" paint-order="fill stroke markers" d=" M 1182 826 L 1182 890 L 1330 890" stroke-miterlimit="10" stroke-dasharray=""/></g><g><path fill="none" stroke="#000000" paint-order="fill stroke markers" d=" M 1319.837325142376 894.209517756016 L 1330 890 L 1319.837325142376 885.790482243984" stroke-miterlimit="10" stroke-dasharray=""/></g><g><rect fill="#ffffff" stroke="none" x="1192" y="904" width="131.5107421875" height="13" transform="matrix(1 0 0 1 -6 -38)"/></g><g><g><path fill="none" stroke="none"/><text fill="#000000" stroke="none" font-family="Arial" font-size="13px" font-style="normal" font-weight="normal" text-decoration="undefined" x="1257.75537109375" y="910.5" text-anchor="middle" dominant-baseline="central" transform="matrix(1 0 0 1 -6 -38)"> [Aucun Ordre Généré]</text></g></g></g></svg>