<svg version="1.1" xmlns="http://www.w3.org/2000/svg" xmlns:xlink="http://www.w3.org/1999/xlink" width="2140" height="804"><defs/><g><g><rect fill="#ffffff" stroke="none" x="88" y="40" width="2120" height="784" transform="matrix(1 0 0 1 -78 -30)"/></g><g><path fill="none" stroke="#000000" paint-order="fill stroke markers" d=" M 10 10 L 2130 10 L 2130 794 L 10 794 L 10 10 Z Z" stroke-miterlimit="10" stroke-dasharray=""/></g><g><rect fill="#ffffff" stroke="none" x="112" y="64" width="224" height="21" transform="matrix(1 0 0 1 -78 -30)"/></g><g><path fill="none" stroke="#000000" paint-order="fill stroke markers" d=" M 34 34 L 258 34 L 258 55 L 34 55 L 34 34 Z Z" stroke-miterlimit="10" stroke-width="2" stroke-dasharray=""/></g><g><path fill="none" stroke="#000000" paint-order="fill stroke markers" d=" M 34 754 L 34 34 L 258 34 L 258 754" stroke-miterlimit="10" stroke-width="2" stroke-dasharray=""/></g><g><g><path fill="none" stroke="none"/><text fill="#000000" stroke="none" font-family="Arial" font-size="13px" font-style="normal" font-weight="normal" text-decoration="undefined" x="224" y="68" text-anchor="middle" dominant-baseline="text-before-edge" transform="matrix(1 0 0 1 -78 -30)">IBKR Gateway</text></g></g><g><rect fill="#ffffff" stroke="none" x="336" y="64" width="288" height="21" transform="matrix(1 0 0 1 -78 -30)"/></g><g><path fill="none" stroke="#000000" paint-order="fill stroke markers" d=" M 258 34 L 546 34 L 546 55 L 258 55 L 258 34 Z Z" stroke-miterlimit="10" stroke-width="2" stroke-dasharray=""/></g><g><path fill="none" stroke="#000000" paint-order="fill stroke markers" d=" M 258 754 L 258 34 L 546 34 L 546 754" stroke-miterlimit="10" stroke-width="2" stroke-dasharray=""/></g><g><g><path fill="none" stroke="none"/><text fill="#000000" stroke="none" font-family="Arial" font-size="13px" font-style="normal" font-weight="normal" text-decoration="undefined" x="480" y="68" text-anchor="middle" dominant-baseline="text-before-edge" transform="matrix(1 0 0 1 -78 -30)">Order Manager</text></g></g><g><rect fill="#ffffff" stroke="none" x="624" y="64" width="464" height="21" transform="matrix(1 0 0 1 -78 -30)"/></g><g><path fill="none" stroke="#000000" paint-order="fill stroke markers" d=" M 546 34 L 1010 34 L 1010 55 L 546 55 L 546 34 Z Z" stroke-miterlimit="10" stroke-width="2" stroke-dasharray=""/></g><g><path fill="none" stroke="#000000" paint-order="fill stroke markers" d=" M 546 754 L 546 34 L 1010 34 L 1010 754" stroke-miterlimit="10" stroke-width="2" stroke-dasharray=""/></g><g><g><path fill="none" stroke="none"/><text fill="#000000" stroke="none" font-family="Arial" font-size="13px" font-style="normal" font-weight="normal" text-decoration="undefined" x="856" y="68" text-anchor="middle" dominant-baseline="text-before-edge" transform="matrix(1 0 0 1 -78 -30)">Portfolio State Manager</text></g></g><g><rect fill="#ffffff" stroke="none" x="1808" y="64" width="376" height="21" transform="matrix(1 0 0 1 -78 -30)"/></g><g><path fill="none" stroke="#000000" paint-order="fill stroke markers" d=" M 1730 34 L 2106 34 L 2106 55 L 1730 55 L 1730 34 Z Z" stroke-miterlimit="10" stroke-width="2" stroke-dasharray=""/></g><g><path fill="none" stroke="#000000" paint-order="fill stroke markers" d=" M 1730 762 L 1730 34 L 2106 34 L 2106 762" stroke-miterlimit="10" stroke-width="2" stroke-dasharray=""/></g><g><g><path fill="none" stroke="none"/><text fill="#000000" stroke="none" font-family="Arial" font-size="13px" font-style="normal" font-weight="normal" text-decoration="undefined" x="1996" y="68" text-anchor="middle" dominant-baseline="text-before-edge" transform="matrix(1 0 0 1 -78 -30)">Thread Manager</text></g></g><g><rect fill="#ffffff" stroke="none" x="1456" y="64" width="352" height="21" transform="matrix(1 0 0 1 -78 -30)"/></g><g><path fill="none" stroke="#000000" paint-order="fill stroke markers" d=" M 1378 34 L 1730 34 L 1730 55 L 1378 55 L 1378 34 Z Z" stroke-miterlimit="10" stroke-width="2" stroke-dasharray=""/></g><g><path fill="none" stroke="#000000" paint-order="fill stroke markers" d=" M 1378 746 L 1378 34 L 1730 34 L 1730 746" stroke-miterlimit="10" stroke-width="2" stroke-dasharray=""/></g><g><g><path fill="none" stroke="none"/><text fill="#000000" stroke="none" font-family="Arial" font-size="13px" font-style="normal" font-weight="normal" text-decoration="undefined" x="1632" y="68" text-anchor="middle" dominant-baseline="text-before-edge" transform="matrix(1 0 0 1 -78 -30)">Data Ingestion Layer</text></g></g><g><rect fill="#ffffff" stroke="none" x="1088" y="64" width="368" height="21" transform="matrix(1 0 0 1 -78 -30)"/></g><g><path fill="none" stroke="#000000" paint-order="fill stroke markers" d=" M 1010 34 L 1378 34 L 1378 55 L 1010 55 L 1010 34 Z Z" stroke-miterlimit="10" stroke-width="2" stroke-dasharray=""/></g><g><path fill="none" stroke="#000000" paint-order="fill stroke markers" d=" M 1010 754 L 1010 34 L 1378 34 L 1378 754" stroke-miterlimit="10" stroke-width="2" stroke-dasharray=""/></g><g><g><path fill="none" stroke="none"/><text fill="#000000" stroke="none" font-family="Arial" font-size="13px" font-style="normal" font-weight="normal" text-decoration="undefined" x="1272" y="68" text-anchor="middle" dominant-baseline="text-before-edge" transform="matrix(1 0 0 1 -78 -30)">Log Service</text></g></g><g><path fill="#C0C0C0" stroke="none" paint-order="stroke fill markers" d=" M 115 153 L 209.7236328125 153 Q 219.7236328125 153 219.7236328125 163 L 219.7236328125 184 Q 219.7236328125 194 209.7236328125 194 L 115 194 Q 105 194 105 184 L 105 163 Q 105 153 115 153 Z" fill-opacity="0.2"/></g><g><path fill="#ffffff" stroke="none" paint-order="stroke fill markers" d=" M 108 146 L 202.7236328125 146 Q 212.7236328125 146 212.7236328125 156 L 212.7236328125 177 Q 212.7236328125 187 202.7236328125 187 L 108 187 Q 98 187 98 177 L 98 156 Q 98 146 108 146 Z"/></g><g><path fill="none" stroke="#000000" paint-order="fill stroke markers" d=" M 108 146 L 202.7236328125 146 Q 212.7236328125 146 212.7236328125 156 L 212.7236328125 177 Q 212.7236328125 187 202.7236328125 187 L 108 187 Q 98 187 98 177 L 98 156 Q 98 146 108 146 Z" stroke-miterlimit="10" stroke-dasharray=""/></g><g><g><path fill="none" stroke="none"/><text fill="#000000" stroke="none" font-family="Arial" font-size="13px" font-style="normal" font-weight="bold" text-decoration="undefined" x="233.86181640625" y="189.5" text-anchor="middle" dominant-baseline="central" transform="matrix(1 0 0 1 -78 -30)">Fill Reçu</text></g></g><g><path fill="#C0C0C0" stroke="none" paint-order="stroke fill markers" d=" M 145 89 C 145 80.1634432 152.1634432 73 161 73 C 169.8365568 73 177 80.1634432 177 89 C 177 97.8365568 169.8365568 105 161 105 C 152.1634432 105 145 97.8365568 145 89 Z" fill-opacity="0.2"/></g><g><path fill="#000000" stroke="none" paint-order="stroke fill markers" d=" M 138 82 C 138 73.1634432 145.1634432 66 154 66 C 162.8365568 66 170 73.1634432 170 82 C 170 90.8365568 162.8365568 98 154 98 C 145.1634432 98 138 90.8365568 138 82 Z"/></g><g><path fill="none" stroke="#000000" paint-order="fill stroke markers" d=" M 154 98 L 154 146" stroke-miterlimit="10" stroke-dasharray=""/></g><g><path fill="none" stroke="#000000" paint-order="fill stroke markers" d=" M 149.790482243984 135.83732514237585 L 154 146 L 158.209517756016 135.83732514237585" stroke-miterlimit="10" stroke-dasharray=""/></g><g><path fill="#C0C0C0" stroke="none" paint-order="stroke fill markers" d=" M 291 153 L 531.10400390625 153 Q 541.10400390625 153 541.10400390625 163 L 541.10400390625 184 Q 541.10400390625 194 531.10400390625 194 L 291 194 Q 281 194 281 184 L 281 163 Q 281 153 291 153 Z" fill-opacity="0.2"/></g><g><path fill="#ffffff" stroke="none" paint-order="stroke fill markers" d=" M 284 146 L 524.10400390625 146 Q 534.10400390625 146 534.10400390625 156 L 534.10400390625 177 Q 534.10400390625 187 524.10400390625 187 L 284 187 Q 274 187 274 177 L 274 156 Q 274 146 284 146 Z"/></g><g><path fill="none" stroke="#000000" paint-order="fill stroke markers" d=" M 284 146 L 524.10400390625 146 Q 534.10400390625 146 534.10400390625 156 L 534.10400390625 177 Q 534.10400390625 187 524.10400390625 187 L 284 187 Q 274 187 274 177 L 274 156 Q 274 146 284 146 Z" stroke-miterlimit="10" stroke-dasharray=""/></g><g><g><path fill="none" stroke="none"/><text fill="#000000" stroke="none" font-family="Arial" font-size="13px" font-style="normal" font-weight="bold" text-decoration="undefined" x="482.552001953125" y="189.5" text-anchor="middle" dominant-baseline="central" transform="matrix(1 0 0 1 -78 -30)">Mise à jour du Statut de l'Ordre (FILLED)</text></g></g><g><path fill="#C0C0C0" stroke="none" paint-order="stroke fill markers" d=" M 291 249 L 509.99169921875 249 Q 519.99169921875 249 519.99169921875 259 L 519.99169921875 280 Q 519.99169921875 290 509.99169921875 290 L 291 290 Q 281 290 281 280 L 281 259 Q 281 249 291 249 Z" fill-opacity="0.2"/></g><g><path fill="#ffffff" stroke="none" paint-order="stroke fill markers" d=" M 284 242 L 502.99169921875 242 Q 512.99169921875 242 512.99169921875 252 L 512.99169921875 273 Q 512.99169921875 283 502.99169921875 283 L 284 283 Q 274 283 274 273 L 274 252 Q 274 242 284 242 Z"/></g><g><path fill="none" stroke="#000000" paint-order="fill stroke markers" d=" M 284 242 L 502.99169921875 242 Q 512.99169921875 242 512.99169921875 252 L 512.99169921875 273 Q 512.99169921875 283 502.99169921875 283 L 284 283 Q 274 283 274 273 L 274 252 Q 274 242 284 242 Z" stroke-miterlimit="10" stroke-dasharray=""/></g><g><g><path fill="none" stroke="none"/><text fill="#000000" stroke="none" font-family="Arial" font-size="13px" font-style="normal" font-weight="bold" text-decoration="undefined" x="471.995849609375" y="285.5" text-anchor="middle" dominant-baseline="central" transform="matrix(1 0 0 1 -78 -30)">Notifier la Mise à Jour du Portefeuille</text></g></g><g><path fill="#C0C0C0" stroke="none" paint-order="stroke fill markers" d=" M 587 249 L 812.47900390625 249 Q 822.47900390625 249 822.47900390625 259 L 822.47900390625 280 Q 822.47900390625 290 812.47900390625 290 L 587 290 Q 577 290 577 280 L 577 259 Q 577 249 587 249 Z" fill-opacity="0.2"/></g><g><path fill="#ffffff" stroke="none" paint-order="stroke fill markers" d=" M 580 242 L 805.47900390625 242 Q 815.47900390625 242 815.47900390625 252 L 815.47900390625 273 Q 815.47900390625 283 805.47900390625 283 L 580 283 Q 570 283 570 273 L 570 252 Q 570 242 580 242 Z"/></g><g><path fill="none" stroke="#000000" paint-order="fill stroke markers" d=" M 580 242 L 805.47900390625 242 Q 815.47900390625 242 815.47900390625 252 L 815.47900390625 273 Q 815.47900390625 283 805.47900390625 283 L 580 283 Q 570 283 570 273 L 570 252 Q 570 242 580 242 Z" stroke-miterlimit="10" stroke-dasharray=""/></g><g><g><path fill="none" stroke="none"/><text fill="#000000" stroke="none" font-family="Arial" font-size="13px" font-style="normal" font-weight="bold" text-decoration="undefined" x="771.239501953125" y="285.5" text-anchor="middle" dominant-baseline="central" transform="matrix(1 0 0 1 -78 -30)">Calcul PnL, Clôture/Ouverture de Lots</text></g></g><g><path fill="#C0C0C0" stroke="none" paint-order="stroke fill markers" d=" M 636 329 L 636 329 Q 639 329 639 332 L 639 494 Q 639 497 636 497 L 636 497 Q 633 497 633 494 L 633 332 Q 633 329 636 329 Z" fill-opacity="0.2"/></g><g><path fill="#000000" stroke="none" paint-order="stroke fill markers" d=" M 629 322 L 629 322 Q 632 322 632 325 L 632 487 Q 632 490 629 490 L 629 490 Q 626 490 626 487 L 626 325 Q 626 322 629 322 Z"/></g><g><path fill="#C0C0C0" stroke="none" paint-order="stroke fill markers" d=" M 683 337 L 984.37158203125 337 Q 994.37158203125 337 994.37158203125 347 L 994.37158203125 368 Q 994.37158203125 378 984.37158203125 378 L 683 378 Q 673 378 673 368 L 673 347 Q 673 337 683 337 Z" fill-opacity="0.2"/></g><g><path fill="#ffffff" stroke="none" paint-order="stroke fill markers" d=" M 676 330 L 977.37158203125 330 Q 987.37158203125 330 987.37158203125 340 L 987.37158203125 361 Q 987.37158203125 371 977.37158203125 371 L 676 371 Q 666 371 666 361 L 666 340 Q 666 330 676 330 Z"/></g><g><path fill="none" stroke="#000000" paint-order="fill stroke markers" d=" M 676 330 L 977.37158203125 330 Q 987.37158203125 330 987.37158203125 340 L 987.37158203125 361 Q 987.37158203125 371 977.37158203125 371 L 676 371 Q 666 371 666 361 L 666 340 Q 666 330 676 330 Z" stroke-miterlimit="10" stroke-dasharray=""/></g><g><g><path fill="none" stroke="none"/><text fill="#000000" stroke="none" font-family="Arial" font-size="13px" font-style="normal" font-weight="bold" text-decoration="undefined" x="905.185791015625" y="373.5" text-anchor="middle" dominant-baseline="central" transform="matrix(1 0 0 1 -78 -30)">Soumission de la Tâche de Persistance Critique</text></g></g><g><path fill="#C0C0C0" stroke="none" paint-order="stroke fill markers" d=" M 1779 545 L 1999.43896484375 545 Q 2009.43896484375 545 2009.43896484375 555 L 2009.43896484375 576 Q 2009.43896484375 586 1999.43896484375 586 L 1779 586 Q 1769 586 1769 576 L 1769 555 Q 1769 545 1779 545 Z" fill-opacity="0.2"/></g><g><path fill="#ffffff" stroke="none" paint-order="stroke fill markers" d=" M 1772 538 L 1992.43896484375 538 Q 2002.43896484375 538 2002.43896484375 548 L 2002.43896484375 569 Q 2002.43896484375 579 1992.43896484375 579 L 1772 579 Q 1762 579 1762 569 L 1762 548 Q 1762 538 1772 538 Z"/></g><g><path fill="none" stroke="#000000" paint-order="fill stroke markers" d=" M 1772 538 L 1992.43896484375 538 Q 2002.43896484375 538 2002.43896484375 548 L 2002.43896484375 569 Q 2002.43896484375 579 1992.43896484375 579 L 1772 579 Q 1762 579 1762 569 L 1762 548 Q 1762 538 1772 538 Z" stroke-miterlimit="10" stroke-dasharray=""/></g><g><g><path fill="none" stroke="none"/><text fill="#000000" stroke="none" font-family="Arial" font-size="13px" font-style="normal" font-weight="bold" text-decoration="undefined" x="1960.719482421875" y="581.5" text-anchor="middle" dominant-baseline="central" transform="matrix(1 0 0 1 -78 -30)">Affectation au Pool I/O Basse Priorité</text></g></g><g><path fill="#C0C0C0" stroke="none" paint-order="stroke fill markers" d=" M 1435 337 L 1695.89892578125 337 Q 1705.89892578125 337 1705.89892578125 347 L 1705.89892578125 368 Q 1705.89892578125 378 1695.89892578125 378 L 1435 378 Q 1425 378 1425 368 L 1425 347 Q 1425 337 1435 337 Z" fill-opacity="0.2"/></g><g><path fill="#ffffff" stroke="none" paint-order="stroke fill markers" d=" M 1428 330 L 1688.89892578125 330 Q 1698.89892578125 330 1698.89892578125 340 L 1698.89892578125 361 Q 1698.89892578125 371 1688.89892578125 371 L 1428 371 Q 1418 371 1418 361 L 1418 340 Q 1418 330 1428 330 Z"/></g><g><path fill="none" stroke="#000000" paint-order="fill stroke markers" d=" M 1428 330 L 1688.89892578125 330 Q 1698.89892578125 330 1698.89892578125 340 L 1698.89892578125 361 Q 1698.89892578125 371 1688.89892578125 371 L 1428 371 Q 1418 371 1418 361 L 1418 340 Q 1418 330 1428 330 Z" stroke-miterlimit="10" stroke-dasharray=""/></g><g><g><path fill="none" stroke="none"/><text fill="#000000" stroke="none" font-family="Arial" font-size="13px" font-style="normal" font-weight="bold" text-decoration="undefined" x="1636.949462890625" y="373.5" text-anchor="middle" dominant-baseline="central" transform="matrix(1 0 0 1 -78 -30)">Persistance Atomique des Positions et Lots</text></g></g><g><path fill="#C0C0C0" stroke="none" paint-order="stroke fill markers" d=" M 1537 422 C 1537 414.8202976 1542.8202976 409 1550 409 C 1557.1797024 409 1563 414.8202976 1563 422 C 1563 429.1797024 1557.1797024 435 1550 435 C 1542.8202976 435 1537 429.1797024 1537 422 Z" fill-opacity="0.2"/></g><g><path fill="#ffffff" stroke="none" paint-order="stroke fill markers" d=" M 1530 415 C 1530 407.8202976 1535.8202976 402 1543 402 C 1550.1797024 402 1556 407.8202976 1556 415 C 1556 422.1797024 1550.1797024 428 1543 428 C 1535.8202976 428 1530 422.1797024 1530 415 Z"/></g><g><path fill="none" stroke="#000000" paint-order="fill stroke markers" d=" M 1530 415 C 1530 407.8202976 1535.8202976 402 1543 402 C 1550.1797024 402 1556 407.8202976 1556 415 C 1556 422.1797024 1550.1797024 428 1543 428 C 1535.8202976 428 1530 422.1797024 1530 415 Z" stroke-miterlimit="10" stroke-dasharray=""/></g><g><path fill="none" stroke="#000000" paint-order="fill stroke markers" d=" M 1534 406 L 1552 424" stroke-miterlimit="10" stroke-dasharray=""/></g><g><path fill="none" stroke="#000000" paint-order="fill stroke markers" d=" M 1552 406 L 1534 424" stroke-miterlimit="10" stroke-dasharray=""/></g><g><path fill="#C0C0C0" stroke="none" paint-order="stroke fill markers" d=" M 1075 465 L 1324.0478515625 465 Q 1334.0478515625 465 1334.0478515625 475 L 1334.0478515625 496 Q 1334.0478515625 506 1324.0478515625 506 L 1075 506 Q 1065 506 1065 496 L 1065 475 Q 1065 465 1075 465 Z" fill-opacity="0.2"/></g><g><path fill="#ffffff" stroke="none" paint-order="stroke fill markers" d=" M 1068 458 L 1317.0478515625 458 Q 1327.0478515625 458 1327.0478515625 468 L 1327.0478515625 489 Q 1327.0478515625 499 1317.0478515625 499 L 1068 499 Q 1058 499 1058 489 L 1058 468 Q 1058 458 1068 458 Z"/></g><g><path fill="none" stroke="#000000" paint-order="fill stroke markers" d=" M 1068 458 L 1317.0478515625 458 Q 1327.0478515625 458 1327.0478515625 468 L 1327.0478515625 489 Q 1327.0478515625 499 1317.0478515625 499 L 1068 499 Q 1058 499 1058 489 L 1058 468 Q 1058 458 1068 458 Z" stroke-miterlimit="10" stroke-dasharray=""/></g><g><g><path fill="none" stroke="none"/><text fill="#000000" stroke="none" font-family="Arial" font-size="13px" font-style="normal" font-weight="bold" text-decoration="undefined" x="1271.02392578125" y="501.5" text-anchor="middle" dominant-baseline="central" transform="matrix(1 0 0 1 -78 -30)">Génération de EventLog (FILL_CREATED)</text></g></g><g><path fill="#C0C0C0" stroke="none" paint-order="stroke fill markers" d=" M 1051 545 L 1354.50439453125 545 Q 1364.50439453125 545 1364.50439453125 555 L 1364.50439453125 576 Q 1364.50439453125 586 1354.50439453125 586 L 1051 586 Q 1041 586 1041 576 L 1041 555 Q 1041 545 1051 545 Z" fill-opacity="0.2"/></g><g><path fill="#ffffff" stroke="none" paint-order="stroke fill markers" d=" M 1044 538 L 1347.50439453125 538 Q 1357.50439453125 538 1357.50439453125 548 L 1357.50439453125 569 Q 1357.50439453125 579 1347.50439453125 579 L 1044 579 Q 1034 579 1034 569 L 1034 548 Q 1034 538 1044 538 Z"/></g><g><path fill="none" stroke="#000000" paint-order="fill stroke markers" d=" M 1044 538 L 1347.50439453125 538 Q 1357.50439453125 538 1357.50439453125 548 L 1357.50439453125 569 Q 1357.50439453125 579 1347.50439453125 579 L 1044 579 Q 1034 579 1034 569 L 1034 548 Q 1034 538 1044 538 Z" stroke-miterlimit="10" stroke-dasharray=""/></g><g><g><path fill="none" stroke="none"/><text fill="#000000" stroke="none" font-family="Arial" font-size="13px" font-style="normal" font-weight="bold" text-decoration="undefined" x="1274.252197265625" y="581.5" text-anchor="middle" dominant-baseline="central" transform="matrix(1 0 0 1 -78 -30)">Soumission Tâche de Journalisation (Asynchrone)</text></g></g><g><path fill="none" stroke="#000000" paint-order="fill stroke markers" d=" M 213 162 L 274 162" stroke-miterlimit="10" stroke-dasharray=""/></g><g><path fill="none" stroke="#000000" paint-order="fill stroke markers" d=" M 263.83732514237585 166.209517756016 L 274 162 L 263.83732514237585 157.790482243984" stroke-miterlimit="10" stroke-dasharray=""/></g><g><path fill="none" stroke="#000000" paint-order="fill stroke markers" d=" M 386 187 L 386 242" stroke-miterlimit="10" stroke-dasharray=""/></g><g><path fill="none" stroke="#000000" paint-order="fill stroke markers" d=" M 381.790482243984 231.83732514237585 L 386 242 L 390.209517756016 231.83732514237585" stroke-miterlimit="10" stroke-dasharray=""/></g><g><path fill="none" stroke="#000000" paint-order="fill stroke markers" d=" M 513 258 L 570 258" stroke-miterlimit="10" stroke-dasharray=""/></g><g><path fill="none" stroke="#000000" paint-order="fill stroke markers" d=" M 559.8373251423759 262.209517756016 L 570 258 L 559.8373251423758 253.790482243984" stroke-miterlimit="10" stroke-dasharray=""/></g><g><path fill="none" stroke="#000000" paint-order="fill stroke markers" d=" M 594 283 L 594 406 L 626 406" stroke-miterlimit="10" stroke-dasharray=""/></g><g><path fill="none" stroke="#000000" paint-order="fill stroke markers" d=" M 615.8373251423759 410.209517756016 L 626 406 L 615.8373251423758 401.790482243984" stroke-miterlimit="10" stroke-dasharray=""/></g><g><path fill="#C0C0C0" stroke="none" paint-order="stroke fill markers" d=" M 763 457 L 977.66259765625 457 Q 987.66259765625 457 987.66259765625 467 L 987.66259765625 488 Q 987.66259765625 498 977.66259765625 498 L 763 498 Q 753 498 753 488 L 753 467 Q 753 457 763 457 Z" fill-opacity="0.2"/></g><g><path fill="#ffffff" stroke="none" paint-order="stroke fill markers" d=" M 756 450 L 970.66259765625 450 Q 980.66259765625 450 980.66259765625 460 L 980.66259765625 481 Q 980.66259765625 491 970.66259765625 491 L 756 491 Q 746 491 746 481 L 746 460 Q 746 450 756 450 Z"/></g><g><path fill="none" stroke="#000000" paint-order="fill stroke markers" d=" M 756 450 L 970.66259765625 450 Q 980.66259765625 450 980.66259765625 460 L 980.66259765625 481 Q 980.66259765625 491 970.66259765625 491 L 756 491 Q 746 491 746 481 L 746 460 Q 746 450 756 450 Z" stroke-miterlimit="10" stroke-dasharray=""/></g><g><g><path fill="none" stroke="none"/><text fill="#000000" stroke="none" font-family="Arial" font-size="13px" font-style="normal" font-weight="bold" text-decoration="undefined" x="941.831298828125" y="493.5" text-anchor="middle" dominant-baseline="central" transform="matrix(1 0 0 1 -78 -30)">Notifier le Log Service (Asynchrone)</text></g></g><g><path fill="none" stroke="#000000" paint-order="fill stroke markers" d=" M 632 354 L 666 354" stroke-miterlimit="10" stroke-dasharray=""/></g><g><path fill="none" stroke="#000000" paint-order="fill stroke markers" d=" M 655.8373251423759 358.209517756016 L 666 354 L 655.8373251423758 349.790482243984" stroke-miterlimit="10" stroke-dasharray=""/></g><g><path fill="none" stroke="#000000" paint-order="fill stroke markers" d=" M 632 474 L 746 474" stroke-miterlimit="10" stroke-dasharray=""/></g><g><path fill="none" stroke="#000000" paint-order="fill stroke markers" d=" M 735.8373251423759 478.209517756016 L 746 474 L 735.8373251423758 469.790482243984" stroke-miterlimit="10" stroke-dasharray=""/></g><g><path fill="none" stroke="#000000" paint-order="fill stroke markers" d=" M 987 346 L 1418 346" stroke-miterlimit="10" stroke-dasharray=""/></g><g><path fill="none" stroke="#000000" paint-order="fill stroke markers" d=" M 1407.837325142376 350.209517756016 L 1418 346 L 1407.837325142376 341.790482243984" stroke-miterlimit="10" stroke-dasharray=""/></g><g><path fill="none" stroke="#000000" paint-order="fill stroke markers" d=" M 1546 371 L 1546 402" stroke-miterlimit="10" stroke-dasharray=""/></g><g><path fill="none" stroke="#000000" paint-order="fill stroke markers" d=" M 1541.7904822439841 391.83732514237585 L 1546 402 L 1550.2095177560159 391.83732514237585" stroke-miterlimit="10" stroke-dasharray=""/></g><g><path fill="none" stroke="#000000" paint-order="fill stroke markers" d=" M 981 474 L 1058 474" stroke-miterlimit="10" stroke-dasharray=""/></g><g><path fill="none" stroke="#000000" paint-order="fill stroke markers" d=" M 1047.837325142376 478.209517756016 L 1058 474 L 1047.837325142376 469.790482243984" stroke-miterlimit="10" stroke-dasharray=""/></g><g><path fill="none" stroke="#000000" paint-order="fill stroke markers" d=" M 1186 499 L 1186 538" stroke-miterlimit="10" stroke-dasharray=""/></g><g><path fill="none" stroke="#000000" paint-order="fill stroke markers" d=" M 1181.7904822439841 527.8373251423759 L 1186 538 L 1190.2095177560159 527.8373251423759" stroke-miterlimit="10" stroke-dasharray=""/></g><g><path fill="none" stroke="#000000" paint-order="fill stroke markers" d=" M 1358 558 L 1762 558" stroke-miterlimit="10" stroke-dasharray=""/></g><g><path fill="none" stroke="#000000" paint-order="fill stroke markers" d=" M 1751.837325142376 562.209517756016 L 1762 558 L 1751.837325142376 553.790482243984" stroke-miterlimit="10" stroke-dasharray=""/></g><g><path fill="#C0C0C0" stroke="none" paint-order="stroke fill markers" d=" M 1537 705 C 1537 696.1634432 1544.1634432 689 1553 689 C 1561.8365568 689 1569 696.1634432 1569 705 C 1569 713.8365568 1561.8365568 721 1553 721 C 1544.1634432 721 1537 713.8365568 1537 705 Z" fill-opacity="0.2"/></g><g><path fill="none" stroke="#000000" paint-order="fill stroke markers" d=" M 1530 698 C 1530 689.1634432 1537.1634432 682 1546 682 C 1554.8365568 682 1562 689.1634432 1562 698 C 1562 706.8365568 1554.8365568 714 1546 714 C 1537.1634432 714 1530 706.8365568 1530 698 Z" stroke-miterlimit="10" stroke-dasharray=""/></g><g><path fill="#000000" stroke="none" paint-order="stroke fill markers" d=" M 1535 698 C 1535 691.9248672 1539.9248672 687 1546 687 C 1552.0751328 687 1557 691.9248672 1557 698 C 1557 704.0751328 1552.0751328 709 1546 709 C 1539.9248672 709 1535 704.0751328 1535 698 Z"/></g><g><path fill="none" stroke="#000000" paint-order="fill stroke markers" d=" M 1890 579 L 1890 610" stroke-miterlimit="10" stroke-dasharray=""/></g><g><path fill="none" stroke="#000000" paint-order="fill stroke markers" d=" M 1885.7904822439841 599.8373251423759 L 1890 610 L 1894.2095177560159 599.8373251423759" stroke-miterlimit="10" stroke-dasharray=""/></g><g><path fill="none" stroke="#000000" paint-order="fill stroke markers" d=" M 1746 626 L 1654 626" stroke-miterlimit="10" stroke-dasharray=""/></g><g><path fill="none" stroke="#000000" paint-order="fill stroke markers" d=" M 1664.162674857624 621.790482243984 L 1654 626 L 1664.162674857624 630.209517756016" stroke-miterlimit="10" stroke-dasharray=""/></g><g><path fill="none" stroke="#000000" paint-order="fill stroke markers" d=" M 1546 651 L 1546 682" stroke-miterlimit="10" stroke-dasharray=""/></g><g><path fill="none" stroke="#000000" paint-order="fill stroke markers" d=" M 1541.7904822439841 671.8373251423759 L 1546 682 L 1550.2095177560159 671.8373251423759" stroke-miterlimit="10" stroke-dasharray=""/></g><g><path fill="#C0C0C0" stroke="none" paint-order="stroke fill markers" d=" M 1763 617 L 2084.8046875 617 Q 2094.8046875 617 2094.8046875 627 L 2094.8046875 648 Q 2094.8046875 658 2084.8046875 658 L 1763 658 Q 1753 658 1753 648 L 1753 627 Q 1753 617 1763 617 Z" fill-opacity="0.2"/></g><g><path fill="#ffffff" stroke="none" paint-order="stroke fill markers" d=" M 1756 610 L 2077.8046875 610 Q 2087.8046875 610 2087.8046875 620 L 2087.8046875 641 Q 2087.8046875 651 2077.8046875 651 L 1756 651 Q 1746 651 1746 641 L 1746 620 Q 1746 610 1756 610 Z"/></g><g><path fill="none" stroke="#000000" paint-order="fill stroke markers" d=" M 1756 610 L 2077.8046875 610 Q 2087.8046875 610 2087.8046875 620 L 2087.8046875 641 Q 2087.8046875 651 2077.8046875 651 L 1756 651 Q 1746 651 1746 641 L 1746 620 Q 1746 610 1756 610 Z" stroke-miterlimit="10" stroke-dasharray=""/></g><g><g><path fill="none" stroke="none"/><text fill="#000000" stroke="none" font-family="Arial" font-size="13px" font-style="normal" font-weight="bold" text-decoration="undefined" x="1995.40234375" y="653.5" text-anchor="middle" dominant-baseline="central" transform="matrix(1 0 0 1 -78 -30)">Soumission de la Tâche de Persistance de EventLog</text></g></g><g><path fill="#C0C0C0" stroke="none" paint-order="stroke fill markers" d=" M 1443 617 L 1651.16259765625 617 Q 1661.16259765625 617 1661.16259765625 627 L 1661.16259765625 648 Q 1661.16259765625 658 1651.16259765625 658 L 1443 658 Q 1433 658 1433 648 L 1433 627 Q 1433 617 1443 617 Z" fill-opacity="0.2"/></g><g><path fill="#ffffff" stroke="none" paint-order="stroke fill markers" d=" M 1436 610 L 1644.16259765625 610 Q 1654.16259765625 610 1654.16259765625 620 L 1654.16259765625 641 Q 1654.16259765625 651 1644.16259765625 651 L 1436 651 Q 1426 651 1426 641 L 1426 620 Q 1426 610 1436 610 Z"/></g><g><path fill="none" stroke="#000000" paint-order="fill stroke markers" d=" M 1436 610 L 1644.16259765625 610 Q 1654.16259765625 610 1654.16259765625 620 L 1654.16259765625 641 Q 1654.16259765625 651 1644.16259765625 651 L 1436 651 Q 1426 651 1426 641 L 1426 620 Q 1426 610 1436 610 Z" stroke-miterlimit="10" stroke-dasharray=""/></g><g><g><path fill="none" stroke="none"/><text fill="#000000" stroke="none" font-family="Arial" font-size="13px" font-style="normal" font-weight="bold" text-decoration="undefined" x="1618.581298828125" y="653.5" text-anchor="middle" dominant-baseline="central" transform="matrix(1 0 0 1 -78 -30)">Persistance Atomique de EventLog</text></g></g></g></svg>