<svg version="1.1" xmlns="http://www.w3.org/2000/svg" xmlns:xlink="http://www.w3.org/1999/xlink" width="2092" height="748"><defs/><g><g><rect fill="#ffffff" stroke="none" x="112" y="64" width="224" height="21" transform="matrix(1 0 0 1 -102 -54)"/></g><g><path fill="none" stroke="#000000" paint-order="fill stroke markers" d=" M 10 10 L 234 10 L 234 31 L 10 31 L 10 10 Z Z" stroke-miterlimit="10" stroke-width="2" stroke-dasharray=""/></g><g><path fill="none" stroke="#000000" paint-order="fill stroke markers" d=" M 10 730 L 10 10 L 234 10 L 234 730" stroke-miterlimit="10" stroke-width="2" stroke-dasharray=""/></g><g><g><path fill="none" stroke="none"/><text fill="#000000" stroke="none" font-family="Arial" font-size="13px" font-style="normal" font-weight="normal" text-decoration="undefined" x="224" y="68" text-anchor="middle" dominant-baseline="text-before-edge" transform="matrix(1 0 0 1 -102 -54)">IBKR Gateway</text></g></g><g><rect fill="#ffffff" stroke="none" x="336" y="64" width="288" height="21" transform="matrix(1 0 0 1 -102 -54)"/></g><g><path fill="none" stroke="#000000" paint-order="fill stroke markers" d=" M 234 10 L 522 10 L 522 31 L 234 31 L 234 10 Z Z" stroke-miterlimit="10" stroke-width="2" stroke-dasharray=""/></g><g><path fill="none" stroke="#000000" paint-order="fill stroke markers" d=" M 234 730 L 234 10 L 522 10 L 522 730" stroke-miterlimit="10" stroke-width="2" stroke-dasharray=""/></g><g><g><path fill="none" stroke="none"/><text fill="#000000" stroke="none" font-family="Arial" font-size="13px" font-style="normal" font-weight="normal" text-decoration="undefined" x="480" y="68" text-anchor="middle" dominant-baseline="text-before-edge" transform="matrix(1 0 0 1 -102 -54)">Order Manager</text></g></g><g><rect fill="#ffffff" stroke="none" x="624" y="64" width="464" height="21" transform="matrix(1 0 0 1 -102 -54)"/></g><g><path fill="none" stroke="#000000" paint-order="fill stroke markers" d=" M 522 10 L 986 10 L 986 31 L 522 31 L 522 10 Z Z" stroke-miterlimit="10" stroke-width="2" stroke-dasharray=""/></g><g><path fill="none" stroke="#000000" paint-order="fill stroke markers" d=" M 522 730 L 522 10 L 986 10 L 986 730" stroke-miterlimit="10" stroke-width="2" stroke-dasharray=""/></g><g><g><path fill="none" stroke="none"/><text fill="#000000" stroke="none" font-family="Arial" font-size="13px" font-style="normal" font-weight="normal" text-decoration="undefined" x="856" y="68" text-anchor="middle" dominant-baseline="text-before-edge" transform="matrix(1 0 0 1 -102 -54)">Portfolio State Manager</text></g></g><g><rect fill="#ffffff" stroke="none" x="1808" y="64" width="376" height="21" transform="matrix(1 0 0 1 -102 -54)"/></g><g><path fill="none" stroke="#000000" paint-order="fill stroke markers" d=" M 1706 10 L 2082 10 L 2082 31 L 1706 31 L 1706 10 Z Z" stroke-miterlimit="10" stroke-width="2" stroke-dasharray=""/></g><g><path fill="none" stroke="#000000" paint-order="fill stroke markers" d=" M 1706 738 L 1706 10 L 2082 10 L 2082 738" stroke-miterlimit="10" stroke-width="2" stroke-dasharray=""/></g><g><g><path fill="none" stroke="none"/><text fill="#000000" stroke="none" font-family="Arial" font-size="13px" font-style="normal" font-weight="normal" text-decoration="undefined" x="1996" y="68" text-anchor="middle" dominant-baseline="text-before-edge" transform="matrix(1 0 0 1 -102 -54)">Thread Manager</text></g></g><g><rect fill="#ffffff" stroke="none" x="1456" y="64" width="352" height="21" transform="matrix(1 0 0 1 -102 -54)"/></g><g><path fill="none" stroke="#000000" paint-order="fill stroke markers" d=" M 1354 10 L 1706 10 L 1706 31 L 1354 31 L 1354 10 Z Z" stroke-miterlimit="10" stroke-width="2" stroke-dasharray=""/></g><g><path fill="none" stroke="#000000" paint-order="fill stroke markers" d=" M 1354 722 L 1354 10 L 1706 10 L 1706 722" stroke-miterlimit="10" stroke-width="2" stroke-dasharray=""/></g><g><g><path fill="none" stroke="none"/><text fill="#000000" stroke="none" font-family="Arial" font-size="13px" font-style="normal" font-weight="normal" text-decoration="undefined" x="1632" y="68" text-anchor="middle" dominant-baseline="text-before-edge" transform="matrix(1 0 0 1 -102 -54)">Data Ingestion Layer</text></g></g><g><rect fill="#ffffff" stroke="none" x="1088" y="64" width="368" height="21" transform="matrix(1 0 0 1 -102 -54)"/></g><g><path fill="none" stroke="#000000" paint-order="fill stroke markers" d=" M 986 10 L 1354 10 L 1354 31 L 986 31 L 986 10 Z Z" stroke-miterlimit="10" stroke-width="2" stroke-dasharray=""/></g><g><path fill="none" stroke="#000000" paint-order="fill stroke markers" d=" M 986 730 L 986 10 L 1354 10 L 1354 730" stroke-miterlimit="10" stroke-width="2" stroke-dasharray=""/></g><g><g><path fill="none" stroke="none"/><text fill="#000000" stroke="none" font-family="Arial" font-size="13px" font-style="normal" font-weight="normal" text-decoration="undefined" x="1272" y="68" text-anchor="middle" dominant-baseline="text-before-edge" transform="matrix(1 0 0 1 -102 -54)">Log Service</text></g></g><g><path fill="#C0C0C0" stroke="none" paint-order="stroke fill markers" d=" M 91 129 L 185.7236328125 129 Q 195.7236328125 129 195.7236328125 139 L 195.7236328125 160 Q 195.7236328125 170 185.7236328125 170 L 91 170 Q 81 170 81 160 L 81 139 Q 81 129 91 129 Z" fill-opacity="0.2"/></g><g><path fill="#ffffff" stroke="none" paint-order="stroke fill markers" d=" M 84 122 L 178.7236328125 122 Q 188.7236328125 122 188.7236328125 132 L 188.7236328125 153 Q 188.7236328125 163 178.7236328125 163 L 84 163 Q 74 163 74 153 L 74 132 Q 74 122 84 122 Z"/></g><g><path fill="none" stroke="#000000" paint-order="fill stroke markers" d=" M 84 122 L 178.7236328125 122 Q 188.7236328125 122 188.7236328125 132 L 188.7236328125 153 Q 188.7236328125 163 178.7236328125 163 L 84 163 Q 74 163 74 153 L 74 132 Q 74 122 84 122 Z" stroke-miterlimit="10" stroke-dasharray=""/></g><g><g><path fill="none" stroke="none"/><text fill="#000000" stroke="none" font-family="Arial" font-size="13px" font-style="normal" font-weight="bold" text-decoration="undefined" x="233.86181640625" y="189.5" text-anchor="middle" dominant-baseline="central" transform="matrix(1 0 0 1 -102 -54)">Fill Reçu</text></g></g><g><path fill="#C0C0C0" stroke="none" paint-order="stroke fill markers" d=" M 121 65 C 121 56.1634432 128.1634432 49 137 49 C 145.8365568 49 153 56.1634432 153 65 C 153 73.8365568 145.8365568 81 137 81 C 128.1634432 81 121 73.8365568 121 65 Z" fill-opacity="0.2"/></g><g><path fill="#000000" stroke="none" paint-order="stroke fill markers" d=" M 114 58 C 114 49.1634432 121.16344319999999 42 130 42 C 138.8365568 42 146 49.1634432 146 58 C 146 66.8365568 138.8365568 74 130 74 C 121.16344319999999 74 114 66.8365568 114 58 Z"/></g><g><path fill="none" stroke="#000000" paint-order="fill stroke markers" d=" M 130 74 L 130 122" stroke-miterlimit="10" stroke-dasharray=""/></g><g><path fill="none" stroke="#000000" paint-order="fill stroke markers" d=" M 125.790482243984 111.83732514237585 L 130 122 L 134.209517756016 111.83732514237585" stroke-miterlimit="10" stroke-dasharray=""/></g><g><path fill="#C0C0C0" stroke="none" paint-order="stroke fill markers" d=" M 267 129 L 507.10400390625 129 Q 517.10400390625 129 517.10400390625 139 L 517.10400390625 160 Q 517.10400390625 170 507.10400390625 170 L 267 170 Q 257 170 257 160 L 257 139 Q 257 129 267 129 Z" fill-opacity="0.2"/></g><g><path fill="#ffffff" stroke="none" paint-order="stroke fill markers" d=" M 260 122 L 500.10400390625 122 Q 510.10400390625 122 510.10400390625 132 L 510.10400390625 153 Q 510.10400390625 163 500.10400390625 163 L 260 163 Q 250 163 250 153 L 250 132 Q 250 122 260 122 Z"/></g><g><path fill="none" stroke="#000000" paint-order="fill stroke markers" d=" M 260 122 L 500.10400390625 122 Q 510.10400390625 122 510.10400390625 132 L 510.10400390625 153 Q 510.10400390625 163 500.10400390625 163 L 260 163 Q 250 163 250 153 L 250 132 Q 250 122 260 122 Z" stroke-miterlimit="10" stroke-dasharray=""/></g><g><g><path fill="none" stroke="none"/><text fill="#000000" stroke="none" font-family="Arial" font-size="13px" font-style="normal" font-weight="bold" text-decoration="undefined" x="482.552001953125" y="189.5" text-anchor="middle" dominant-baseline="central" transform="matrix(1 0 0 1 -102 -54)">Mise à jour du Statut de l'Ordre (FILLED)</text></g></g><g><path fill="#C0C0C0" stroke="none" paint-order="stroke fill markers" d=" M 267 225 L 485.99169921875 225 Q 495.99169921875 225 495.99169921875 235 L 495.99169921875 256 Q 495.99169921875 266 485.99169921875 266 L 267 266 Q 257 266 257 256 L 257 235 Q 257 225 267 225 Z" fill-opacity="0.2"/></g><g><path fill="#ffffff" stroke="none" paint-order="stroke fill markers" d=" M 260 218 L 478.99169921875 218 Q 488.99169921875 218 488.99169921875 228 L 488.99169921875 249 Q 488.99169921875 259 478.99169921875 259 L 260 259 Q 250 259 250 249 L 250 228 Q 250 218 260 218 Z"/></g><g><path fill="none" stroke="#000000" paint-order="fill stroke markers" d=" M 260 218 L 478.99169921875 218 Q 488.99169921875 218 488.99169921875 228 L 488.99169921875 249 Q 488.99169921875 259 478.99169921875 259 L 260 259 Q 250 259 250 249 L 250 228 Q 250 218 260 218 Z" stroke-miterlimit="10" stroke-dasharray=""/></g><g><g><path fill="none" stroke="none"/><text fill="#000000" stroke="none" font-family="Arial" font-size="13px" font-style="normal" font-weight="bold" text-decoration="undefined" x="471.995849609375" y="285.5" text-anchor="middle" dominant-baseline="central" transform="matrix(1 0 0 1 -102 -54)">Notifier la Mise à Jour du Portefeuille</text></g></g><g><path fill="#C0C0C0" stroke="none" paint-order="stroke fill markers" d=" M 563 225 L 788.47900390625 225 Q 798.47900390625 225 798.47900390625 235 L 798.47900390625 256 Q 798.47900390625 266 788.47900390625 266 L 563 266 Q 553 266 553 256 L 553 235 Q 553 225 563 225 Z" fill-opacity="0.2"/></g><g><path fill="#ffffff" stroke="none" paint-order="stroke fill markers" d=" M 556 218 L 781.47900390625 218 Q 791.47900390625 218 791.47900390625 228 L 791.47900390625 249 Q 791.47900390625 259 781.47900390625 259 L 556 259 Q 546 259 546 249 L 546 228 Q 546 218 556 218 Z"/></g><g><path fill="none" stroke="#000000" paint-order="fill stroke markers" d=" M 556 218 L 781.47900390625 218 Q 791.47900390625 218 791.47900390625 228 L 791.47900390625 249 Q 791.47900390625 259 781.47900390625 259 L 556 259 Q 546 259 546 249 L 546 228 Q 546 218 556 218 Z" stroke-miterlimit="10" stroke-dasharray=""/></g><g><g><path fill="none" stroke="none"/><text fill="#000000" stroke="none" font-family="Arial" font-size="13px" font-style="normal" font-weight="bold" text-decoration="undefined" x="771.239501953125" y="285.5" text-anchor="middle" dominant-baseline="central" transform="matrix(1 0 0 1 -102 -54)">Calcul PnL, Clôture/Ouverture de Lots</text></g></g><g><path fill="#C0C0C0" stroke="none" paint-order="stroke fill markers" d=" M 612 305 L 612 305 Q 615 305 615 308 L 615 470 Q 615 473 612 473 L 612 473 Q 609 473 609 470 L 609 308 Q 609 305 612 305 Z" fill-opacity="0.2"/></g><g><path fill="#000000" stroke="none" paint-order="stroke fill markers" d=" M 605 298 L 605 298 Q 608 298 608 301 L 608 463 Q 608 466 605 466 L 605 466 Q 602 466 602 463 L 602 301 Q 602 298 605 298 Z"/></g><g><path fill="#C0C0C0" stroke="none" paint-order="stroke fill markers" d=" M 659 313 L 960.37158203125 313 Q 970.37158203125 313 970.37158203125 323 L 970.37158203125 344 Q 970.37158203125 354 960.37158203125 354 L 659 354 Q 649 354 649 344 L 649 323 Q 649 313 659 313 Z" fill-opacity="0.2"/></g><g><path fill="#ffffff" stroke="none" paint-order="stroke fill markers" d=" M 652 306 L 953.37158203125 306 Q 963.37158203125 306 963.37158203125 316 L 963.37158203125 337 Q 963.37158203125 347 953.37158203125 347 L 652 347 Q 642 347 642 337 L 642 316 Q 642 306 652 306 Z"/></g><g><path fill="none" stroke="#000000" paint-order="fill stroke markers" d=" M 652 306 L 953.37158203125 306 Q 963.37158203125 306 963.37158203125 316 L 963.37158203125 337 Q 963.37158203125 347 953.37158203125 347 L 652 347 Q 642 347 642 337 L 642 316 Q 642 306 652 306 Z" stroke-miterlimit="10" stroke-dasharray=""/></g><g><g><path fill="none" stroke="none"/><text fill="#000000" stroke="none" font-family="Arial" font-size="13px" font-style="normal" font-weight="bold" text-decoration="undefined" x="905.185791015625" y="373.5" text-anchor="middle" dominant-baseline="central" transform="matrix(1 0 0 1 -102 -54)">Soumission de la Tâche de Persistance Critique</text></g></g><g><path fill="#C0C0C0" stroke="none" paint-order="stroke fill markers" d=" M 1755 521 L 1975.43896484375 521 Q 1985.43896484375 521 1985.43896484375 531 L 1985.43896484375 552 Q 1985.43896484375 562 1975.43896484375 562 L 1755 562 Q 1745 562 1745 552 L 1745 531 Q 1745 521 1755 521 Z" fill-opacity="0.2"/></g><g><path fill="#ffffff" stroke="none" paint-order="stroke fill markers" d=" M 1748 514 L 1968.43896484375 514 Q 1978.43896484375 514 1978.43896484375 524 L 1978.43896484375 545 Q 1978.43896484375 555 1968.43896484375 555 L 1748 555 Q 1738 555 1738 545 L 1738 524 Q 1738 514 1748 514 Z"/></g><g><path fill="none" stroke="#000000" paint-order="fill stroke markers" d=" M 1748 514 L 1968.43896484375 514 Q 1978.43896484375 514 1978.43896484375 524 L 1978.43896484375 545 Q 1978.43896484375 555 1968.43896484375 555 L 1748 555 Q 1738 555 1738 545 L 1738 524 Q 1738 514 1748 514 Z" stroke-miterlimit="10" stroke-dasharray=""/></g><g><g><path fill="none" stroke="none"/><text fill="#000000" stroke="none" font-family="Arial" font-size="13px" font-style="normal" font-weight="bold" text-decoration="undefined" x="1960.719482421875" y="581.5" text-anchor="middle" dominant-baseline="central" transform="matrix(1 0 0 1 -102 -54)">Affectation au Pool I/O Basse Priorité</text></g></g><g><path fill="#C0C0C0" stroke="none" paint-order="stroke fill markers" d=" M 1411 313 L 1671.89892578125 313 Q 1681.89892578125 313 1681.89892578125 323 L 1681.89892578125 344 Q 1681.89892578125 354 1671.89892578125 354 L 1411 354 Q 1401 354 1401 344 L 1401 323 Q 1401 313 1411 313 Z" fill-opacity="0.2"/></g><g><path fill="#ffffff" stroke="none" paint-order="stroke fill markers" d=" M 1404 306 L 1664.89892578125 306 Q 1674.89892578125 306 1674.89892578125 316 L 1674.89892578125 337 Q 1674.89892578125 347 1664.89892578125 347 L 1404 347 Q 1394 347 1394 337 L 1394 316 Q 1394 306 1404 306 Z"/></g><g><path fill="none" stroke="#000000" paint-order="fill stroke markers" d=" M 1404 306 L 1664.89892578125 306 Q 1674.89892578125 306 1674.89892578125 316 L 1674.89892578125 337 Q 1674.89892578125 347 1664.89892578125 347 L 1404 347 Q 1394 347 1394 337 L 1394 316 Q 1394 306 1404 306 Z" stroke-miterlimit="10" stroke-dasharray=""/></g><g><g><path fill="none" stroke="none"/><text fill="#000000" stroke="none" font-family="Arial" font-size="13px" font-style="normal" font-weight="bold" text-decoration="undefined" x="1636.949462890625" y="373.5" text-anchor="middle" dominant-baseline="central" transform="matrix(1 0 0 1 -102 -54)">Persistance Atomique des Positions et Lots</text></g></g><g><path fill="#C0C0C0" stroke="none" paint-order="stroke fill markers" d=" M 1513 398 C 1513 390.8202976 1518.8202976 385 1526 385 C 1533.1797024 385 1539 390.8202976 1539 398 C 1539 405.1797024 1533.1797024 411 1526 411 C 1518.8202976 411 1513 405.1797024 1513 398 Z" fill-opacity="0.2"/></g><g><path fill="#ffffff" stroke="none" paint-order="stroke fill markers" d=" M 1506 391 C 1506 383.8202976 1511.8202976 378 1519 378 C 1526.1797024 378 1532 383.8202976 1532 391 C 1532 398.1797024 1526.1797024 404 1519 404 C 1511.8202976 404 1506 398.1797024 1506 391 Z"/></g><g><path fill="none" stroke="#000000" paint-order="fill stroke markers" d=" M 1506 391 C 1506 383.8202976 1511.8202976 378 1519 378 C 1526.1797024 378 1532 383.8202976 1532 391 C 1532 398.1797024 1526.1797024 404 1519 404 C 1511.8202976 404 1506 398.1797024 1506 391 Z" stroke-miterlimit="10" stroke-dasharray=""/></g><g><path fill="none" stroke="#000000" paint-order="fill stroke markers" d=" M 1510 382 L 1528 400" stroke-miterlimit="10" stroke-dasharray=""/></g><g><path fill="none" stroke="#000000" paint-order="fill stroke markers" d=" M 1528 382 L 1510 400" stroke-miterlimit="10" stroke-dasharray=""/></g><g><path fill="#C0C0C0" stroke="none" paint-order="stroke fill markers" d=" M 1051 441 L 1300.0478515625 441 Q 1310.0478515625 441 1310.0478515625 451 L 1310.0478515625 472 Q 1310.0478515625 482 1300.0478515625 482 L 1051 482 Q 1041 482 1041 472 L 1041 451 Q 1041 441 1051 441 Z" fill-opacity="0.2"/></g><g><path fill="#ffffff" stroke="none" paint-order="stroke fill markers" d=" M 1044 434 L 1293.0478515625 434 Q 1303.0478515625 434 1303.0478515625 444 L 1303.0478515625 465 Q 1303.0478515625 475 1293.0478515625 475 L 1044 475 Q 1034 475 1034 465 L 1034 444 Q 1034 434 1044 434 Z"/></g><g><path fill="none" stroke="#000000" paint-order="fill stroke markers" d=" M 1044 434 L 1293.0478515625 434 Q 1303.0478515625 434 1303.0478515625 444 L 1303.0478515625 465 Q 1303.0478515625 475 1293.0478515625 475 L 1044 475 Q 1034 475 1034 465 L 1034 444 Q 1034 434 1044 434 Z" stroke-miterlimit="10" stroke-dasharray=""/></g><g><g><path fill="none" stroke="none"/><text fill="#000000" stroke="none" font-family="Arial" font-size="13px" font-style="normal" font-weight="bold" text-decoration="undefined" x="1271.02392578125" y="501.5" text-anchor="middle" dominant-baseline="central" transform="matrix(1 0 0 1 -102 -54)">Génération de EventLog (FILL_CREATED)</text></g></g><g><path fill="#C0C0C0" stroke="none" paint-order="stroke fill markers" d=" M 1027 521 L 1330.50439453125 521 Q 1340.50439453125 521 1340.50439453125 531 L 1340.50439453125 552 Q 1340.50439453125 562 1330.50439453125 562 L 1027 562 Q 1017 562 1017 552 L 1017 531 Q 1017 521 1027 521 Z" fill-opacity="0.2"/></g><g><path fill="#ffffff" stroke="none" paint-order="stroke fill markers" d=" M 1020 514 L 1323.50439453125 514 Q 1333.50439453125 514 1333.50439453125 524 L 1333.50439453125 545 Q 1333.50439453125 555 1323.50439453125 555 L 1020 555 Q 1010 555 1010 545 L 1010 524 Q 1010 514 1020 514 Z"/></g><g><path fill="none" stroke="#000000" paint-order="fill stroke markers" d=" M 1020 514 L 1323.50439453125 514 Q 1333.50439453125 514 1333.50439453125 524 L 1333.50439453125 545 Q 1333.50439453125 555 1323.50439453125 555 L 1020 555 Q 1010 555 1010 545 L 1010 524 Q 1010 514 1020 514 Z" stroke-miterlimit="10" stroke-dasharray=""/></g><g><g><path fill="none" stroke="none"/><text fill="#000000" stroke="none" font-family="Arial" font-size="13px" font-style="normal" font-weight="bold" text-decoration="undefined" x="1274.252197265625" y="581.5" text-anchor="middle" dominant-baseline="central" transform="matrix(1 0 0 1 -102 -54)">Soumission Tâche de Journalisation (Asynchrone)</text></g></g><g><path fill="none" stroke="#000000" paint-order="fill stroke markers" d=" M 189 138 L 250 138" stroke-miterlimit="10" stroke-dasharray=""/></g><g><path fill="none" stroke="#000000" paint-order="fill stroke markers" d=" M 239.83732514237585 142.209517756016 L 250 138 L 239.83732514237585 133.790482243984" stroke-miterlimit="10" stroke-dasharray=""/></g><g><path fill="none" stroke="#000000" paint-order="fill stroke markers" d=" M 362 163 L 362 218" stroke-miterlimit="10" stroke-dasharray=""/></g><g><path fill="none" stroke="#000000" paint-order="fill stroke markers" d=" M 357.790482243984 207.83732514237585 L 362 218 L 366.209517756016 207.83732514237585" stroke-miterlimit="10" stroke-dasharray=""/></g><g><path fill="none" stroke="#000000" paint-order="fill stroke markers" d=" M 489 234 L 546 234" stroke-miterlimit="10" stroke-dasharray=""/></g><g><path fill="none" stroke="#000000" paint-order="fill stroke markers" d=" M 535.8373251423759 238.209517756016 L 546 234 L 535.8373251423758 229.790482243984" stroke-miterlimit="10" stroke-dasharray=""/></g><g><path fill="none" stroke="#000000" paint-order="fill stroke markers" d=" M 570 259 L 570 382 L 602 382" stroke-miterlimit="10" stroke-dasharray=""/></g><g><path fill="none" stroke="#000000" paint-order="fill stroke markers" d=" M 591.8373251423759 386.209517756016 L 602 382 L 591.8373251423758 377.790482243984" stroke-miterlimit="10" stroke-dasharray=""/></g><g><path fill="#C0C0C0" stroke="none" paint-order="stroke fill markers" d=" M 739 433 L 953.66259765625 433 Q 963.66259765625 433 963.66259765625 443 L 963.66259765625 464 Q 963.66259765625 474 953.66259765625 474 L 739 474 Q 729 474 729 464 L 729 443 Q 729 433 739 433 Z" fill-opacity="0.2"/></g><g><path fill="#ffffff" stroke="none" paint-order="stroke fill markers" d=" M 732 426 L 946.66259765625 426 Q 956.66259765625 426 956.66259765625 436 L 956.66259765625 457 Q 956.66259765625 467 946.66259765625 467 L 732 467 Q 722 467 722 457 L 722 436 Q 722 426 732 426 Z"/></g><g><path fill="none" stroke="#000000" paint-order="fill stroke markers" d=" M 732 426 L 946.66259765625 426 Q 956.66259765625 426 956.66259765625 436 L 956.66259765625 457 Q 956.66259765625 467 946.66259765625 467 L 732 467 Q 722 467 722 457 L 722 436 Q 722 426 732 426 Z" stroke-miterlimit="10" stroke-dasharray=""/></g><g><g><path fill="none" stroke="none"/><text fill="#000000" stroke="none" font-family="Arial" font-size="13px" font-style="normal" font-weight="bold" text-decoration="undefined" x="941.831298828125" y="493.5" text-anchor="middle" dominant-baseline="central" transform="matrix(1 0 0 1 -102 -54)">Notifier le Log Service (Asynchrone)</text></g></g><g><path fill="none" stroke="#000000" paint-order="fill stroke markers" d=" M 608 330 L 642 330" stroke-miterlimit="10" stroke-dasharray=""/></g><g><path fill="none" stroke="#000000" paint-order="fill stroke markers" d=" M 631.8373251423759 334.209517756016 L 642 330 L 631.8373251423758 325.790482243984" stroke-miterlimit="10" stroke-dasharray=""/></g><g><path fill="none" stroke="#000000" paint-order="fill stroke markers" d=" M 608 450 L 722 450" stroke-miterlimit="10" stroke-dasharray=""/></g><g><path fill="none" stroke="#000000" paint-order="fill stroke markers" d=" M 711.8373251423759 454.209517756016 L 722 450 L 711.8373251423758 445.790482243984" stroke-miterlimit="10" stroke-dasharray=""/></g><g><path fill="none" stroke="#000000" paint-order="fill stroke markers" d=" M 963 322 L 1394 322" stroke-miterlimit="10" stroke-dasharray=""/></g><g><path fill="none" stroke="#000000" paint-order="fill stroke markers" d=" M 1383.837325142376 326.209517756016 L 1394 322 L 1383.837325142376 317.790482243984" stroke-miterlimit="10" stroke-dasharray=""/></g><g><path fill="none" stroke="#000000" paint-order="fill stroke markers" d=" M 1522 347 L 1522 378" stroke-miterlimit="10" stroke-dasharray=""/></g><g><path fill="none" stroke="#000000" paint-order="fill stroke markers" d=" M 1517.7904822439841 367.83732514237585 L 1522 378 L 1526.2095177560159 367.83732514237585" stroke-miterlimit="10" stroke-dasharray=""/></g><g><path fill="none" stroke="#000000" paint-order="fill stroke markers" d=" M 957 450 L 1034 450" stroke-miterlimit="10" stroke-dasharray=""/></g><g><path fill="none" stroke="#000000" paint-order="fill stroke markers" d=" M 1023.8373251423759 454.209517756016 L 1034 450 L 1023.8373251423759 445.790482243984" stroke-miterlimit="10" stroke-dasharray=""/></g><g><path fill="none" stroke="#000000" paint-order="fill stroke markers" d=" M 1162 475 L 1162 514" stroke-miterlimit="10" stroke-dasharray=""/></g><g><path fill="none" stroke="#000000" paint-order="fill stroke markers" d=" M 1157.7904822439841 503.8373251423759 L 1162 514 L 1166.2095177560159 503.8373251423759" stroke-miterlimit="10" stroke-dasharray=""/></g><g><path fill="none" stroke="#000000" paint-order="fill stroke markers" d=" M 1334 534 L 1738 534" stroke-miterlimit="10" stroke-dasharray=""/></g><g><path fill="none" stroke="#000000" paint-order="fill stroke markers" d=" M 1727.837325142376 538.209517756016 L 1738 534 L 1727.837325142376 529.790482243984" stroke-miterlimit="10" stroke-dasharray=""/></g><g><path fill="#C0C0C0" stroke="none" paint-order="stroke fill markers" d=" M 1513 681 C 1513 672.1634432 1520.1634432 665 1529 665 C 1537.8365568 665 1545 672.1634432 1545 681 C 1545 689.8365568 1537.8365568 697 1529 697 C 1520.1634432 697 1513 689.8365568 1513 681 Z" fill-opacity="0.2"/></g><g><path fill="none" stroke="#000000" paint-order="fill stroke markers" d=" M 1506 674 C 1506 665.1634432 1513.1634432 658 1522 658 C 1530.8365568 658 1538 665.1634432 1538 674 C 1538 682.8365568 1530.8365568 690 1522 690 C 1513.1634432 690 1506 682.8365568 1506 674 Z" stroke-miterlimit="10" stroke-dasharray=""/></g><g><path fill="#000000" stroke="none" paint-order="stroke fill markers" d=" M 1511 674 C 1511 667.9248672 1515.9248672 663 1522 663 C 1528.0751328 663 1533 667.9248672 1533 674 C 1533 680.0751328 1528.0751328 685 1522 685 C 1515.9248672 685 1511 680.0751328 1511 674 Z"/></g><g><path fill="none" stroke="#000000" paint-order="fill stroke markers" d=" M 1866 555 L 1866 586" stroke-miterlimit="10" stroke-dasharray=""/></g><g><path fill="none" stroke="#000000" paint-order="fill stroke markers" d=" M 1861.7904822439841 575.8373251423759 L 1866 586 L 1870.2095177560159 575.8373251423759" stroke-miterlimit="10" stroke-dasharray=""/></g><g><path fill="none" stroke="#000000" paint-order="fill stroke markers" d=" M 1722 602 L 1630 602" stroke-miterlimit="10" stroke-dasharray=""/></g><g><path fill="none" stroke="#000000" paint-order="fill stroke markers" d=" M 1640.162674857624 597.790482243984 L 1630 602 L 1640.162674857624 606.209517756016" stroke-miterlimit="10" stroke-dasharray=""/></g><g><path fill="none" stroke="#000000" paint-order="fill stroke markers" d=" M 1522 627 L 1522 658" stroke-miterlimit="10" stroke-dasharray=""/></g><g><path fill="none" stroke="#000000" paint-order="fill stroke markers" d=" M 1517.7904822439841 647.8373251423759 L 1522 658 L 1526.2095177560159 647.8373251423759" stroke-miterlimit="10" stroke-dasharray=""/></g><g><path fill="#C0C0C0" stroke="none" paint-order="stroke fill markers" d=" M 1739 593 L 2060.8046875 593 Q 2070.8046875 593 2070.8046875 603 L 2070.8046875 624 Q 2070.8046875 634 2060.8046875 634 L 1739 634 Q 1729 634 1729 624 L 1729 603 Q 1729 593 1739 593 Z" fill-opacity="0.2"/></g><g><path fill="#ffffff" stroke="none" paint-order="stroke fill markers" d=" M 1732 586 L 2053.8046875 586 Q 2063.8046875 586 2063.8046875 596 L 2063.8046875 617 Q 2063.8046875 627 2053.8046875 627 L 1732 627 Q 1722 627 1722 617 L 1722 596 Q 1722 586 1732 586 Z"/></g><g><path fill="none" stroke="#000000" paint-order="fill stroke markers" d=" M 1732 586 L 2053.8046875 586 Q 2063.8046875 586 2063.8046875 596 L 2063.8046875 617 Q 2063.8046875 627 2053.8046875 627 L 1732 627 Q 1722 627 1722 617 L 1722 596 Q 1722 586 1732 586 Z" stroke-miterlimit="10" stroke-dasharray=""/></g><g><g><path fill="none" stroke="none"/><text fill="#000000" stroke="none" font-family="Arial" font-size="13px" font-style="normal" font-weight="bold" text-decoration="undefined" x="1995.40234375" y="653.5" text-anchor="middle" dominant-baseline="central" transform="matrix(1 0 0 1 -102 -54)">Soumission de la Tâche de Persistance de EventLog</text></g></g><g><path fill="#C0C0C0" stroke="none" paint-order="stroke fill markers" d=" M 1419 593 L 1627.16259765625 593 Q 1637.16259765625 593 1637.16259765625 603 L 1637.16259765625 624 Q 1637.16259765625 634 1627.16259765625 634 L 1419 634 Q 1409 634 1409 624 L 1409 603 Q 1409 593 1419 593 Z" fill-opacity="0.2"/></g><g><path fill="#ffffff" stroke="none" paint-order="stroke fill markers" d=" M 1412 586 L 1620.16259765625 586 Q 1630.16259765625 586 1630.16259765625 596 L 1630.16259765625 617 Q 1630.16259765625 627 1620.16259765625 627 L 1412 627 Q 1402 627 1402 617 L 1402 596 Q 1402 586 1412 586 Z"/></g><g><path fill="none" stroke="#000000" paint-order="fill stroke markers" d=" M 1412 586 L 1620.16259765625 586 Q 1630.16259765625 586 1630.16259765625 596 L 1630.16259765625 617 Q 1630.16259765625 627 1620.16259765625 627 L 1412 627 Q 1402 627 1402 617 L 1402 596 Q 1402 586 1412 586 Z" stroke-miterlimit="10" stroke-dasharray=""/></g><g><g><path fill="none" stroke="none"/><text fill="#000000" stroke="none" font-family="Arial" font-size="13px" font-style="normal" font-weight="bold" text-decoration="undefined" x="1618.581298828125" y="653.5" text-anchor="middle" dominant-baseline="central" transform="matrix(1 0 0 1 -102 -54)">Persistance Atomique de EventLog</text></g></g></g></svg>