<svg version="1.1" xmlns="http://www.w3.org/2000/svg" xmlns:xlink="http://www.w3.org/1999/xlink" width="1412" height="1004"><defs/><g><g><rect fill="#ffffff" stroke="none" x="40" y="40" width="1392" height="984" transform="matrix(1 0 0 1 -30 -30)"/></g><g><path fill="none" stroke="#000000" paint-order="fill stroke markers" d=" M 10 10 L 1402 10 L 1402 994 L 10 994 L 10 10 Z Z" stroke-miterlimit="10" stroke-dasharray=""/></g><g><rect fill="#ffffff" stroke="none" x="64" y="64" width="240" height="21" transform="matrix(1 0 0 1 -30 -30)"/></g><g><path fill="none" stroke="#000000" paint-order="fill stroke markers" d=" M 34 34 L 274 34 L 274 55 L 34 55 L 34 34 Z Z" stroke-miterlimit="10" stroke-width="2" stroke-dasharray=""/></g><g><path fill="none" stroke="#000000" paint-order="fill stroke markers" d=" M 34 962 L 34 34 L 274 34 L 274 962" stroke-miterlimit="10" stroke-width="2" stroke-dasharray=""/></g><g><g><path fill="none" stroke="none"/><text fill="#000000" stroke="none" font-family="Arial" font-size="13px" font-style="normal" font-weight="normal" text-decoration="undefined" x="184" y="68" text-anchor="middle" dominant-baseline="text-before-edge" transform="matrix(1 0 0 1 -30 -30)">Market Clock</text></g></g><g><rect fill="#ffffff" stroke="none" x="304" y="64" width="240" height="21" transform="matrix(1 0 0 1 -30 -30)"/></g><g><path fill="none" stroke="#000000" paint-order="fill stroke markers" d=" M 274 34 L 514 34 L 514 55 L 274 55 L 274 34 Z Z" stroke-miterlimit="10" stroke-width="2" stroke-dasharray=""/></g><g><path fill="none" stroke="#000000" paint-order="fill stroke markers" d=" M 274 962 L 274 34 L 514 34 L 514 962" stroke-miterlimit="10" stroke-width="2" stroke-dasharray=""/></g><g><g><path fill="none" stroke="none"/><text fill="#000000" stroke="none" font-family="Arial" font-size="13px" font-style="normal" font-weight="normal" text-decoration="undefined" x="424" y="68" text-anchor="middle" dominant-baseline="text-before-edge" transform="matrix(1 0 0 1 -30 -30)">System Manager</text></g></g><g><rect fill="#ffffff" stroke="none" x="1264" y="64" width="144" height="21" transform="matrix(1 0 0 1 -30 -30)"/></g><g><path fill="none" stroke="#000000" paint-order="fill stroke markers" d=" M 1234 34 L 1378 34 L 1378 55 L 1234 55 L 1234 34 Z Z" stroke-miterlimit="10" stroke-width="2" stroke-dasharray=""/></g><g><path fill="none" stroke="#000000" paint-order="fill stroke markers" d=" M 1234 962 L 1234 34 L 1378 34 L 1378 962" stroke-miterlimit="10" stroke-width="2" stroke-dasharray=""/></g><g><g><path fill="none" stroke="none"/><text fill="#000000" stroke="none" font-family="Arial" font-size="13px" font-style="normal" font-weight="normal" text-decoration="undefined" x="1336" y="68" text-anchor="middle" dominant-baseline="text-before-edge" transform="matrix(1 0 0 1 -30 -30)">Session Manager</text></g></g><g><rect fill="#ffffff" stroke="none" x="544" y="64" width="240" height="21" transform="matrix(1 0 0 1 -30 -30)"/></g><g><path fill="none" stroke="#000000" paint-order="fill stroke markers" d=" M 514 34 L 754 34 L 754 55 L 514 55 L 514 34 Z Z" stroke-miterlimit="10" stroke-width="2" stroke-dasharray=""/></g><g><path fill="none" stroke="#000000" paint-order="fill stroke markers" d=" M 514 962 L 514 34 L 754 34 L 754 962" stroke-miterlimit="10" stroke-width="2" stroke-dasharray=""/></g><g><g><path fill="none" stroke="none"/><text fill="#000000" stroke="none" font-family="Arial" font-size="13px" font-style="normal" font-weight="normal" text-decoration="undefined" x="664" y="68" text-anchor="middle" dominant-baseline="text-before-edge" transform="matrix(1 0 0 1 -30 -30)">Connectivity</text></g></g><g><rect fill="#ffffff" stroke="none" x="784" y="64" width="240" height="21" transform="matrix(1 0 0 1 -30 -30)"/></g><g><path fill="none" stroke="#000000" paint-order="fill stroke markers" d=" M 754 34 L 994 34 L 994 55 L 754 55 L 754 34 Z Z" stroke-miterlimit="10" stroke-width="2" stroke-dasharray=""/></g><g><path fill="none" stroke="#000000" paint-order="fill stroke markers" d=" M 754 962 L 754 34 L 994 34 L 994 962" stroke-miterlimit="10" stroke-width="2" stroke-dasharray=""/></g><g><g><path fill="none" stroke="none"/><text fill="#000000" stroke="none" font-family="Arial" font-size="13px" font-style="normal" font-weight="normal" text-decoration="undefined" x="904" y="68" text-anchor="middle" dominant-baseline="text-before-edge" transform="matrix(1 0 0 1 -30 -30)">Database Layer</text></g></g><g><rect fill="#ffffff" stroke="none" x="1024" y="64" width="240" height="21" transform="matrix(1 0 0 1 -30 -30)"/></g><g><path fill="none" stroke="#000000" paint-order="fill stroke markers" d=" M 994 34 L 1234 34 L 1234 55 L 994 55 L 994 34 Z Z" stroke-miterlimit="10" stroke-width="2" stroke-dasharray=""/></g><g><path fill="none" stroke="#000000" paint-order="fill stroke markers" d=" M 994 962 L 994 34 L 1234 34 L 1234 962" stroke-miterlimit="10" stroke-width="2" stroke-dasharray=""/></g><g><g><path fill="none" stroke="none"/><text fill="#000000" stroke="none" font-family="Arial" font-size="13px" font-style="normal" font-weight="normal" text-decoration="undefined" x="1144" y="68" text-anchor="middle" dominant-baseline="text-before-edge" transform="matrix(1 0 0 1 -30 -30)">Core Components</text></g></g><g><path fill="#000000" stroke="none" paint-order="stroke fill markers" d=" M 138 76 C 138 70.477152 142.477152 66 148 66 C 153.522848 66 158 70.477152 158 76 C 158 81.522848 153.522848 86 148 86 C 142.477152 86 138 81.522848 138 76 Z"/></g><g><path fill="#ffffff" stroke="none" paint-order="stroke fill markers" d=" M 68 114 L 227.76171875 114 Q 237.76171875 114 237.76171875 124 L 237.76171875 145 Q 237.76171875 155 227.76171875 155 L 68 155 Q 58 155 58 145 L 58 124 Q 58 114 68 114 Z"/></g><g><path fill="none" stroke="#000000" paint-order="fill stroke markers" d=" M 68 114 L 227.76171875 114 Q 237.76171875 114 237.76171875 124 L 237.76171875 145 Q 237.76171875 155 227.76171875 155 L 68 155 Q 58 155 58 145 L 58 124 Q 58 114 68 114 Z" stroke-miterlimit="10" stroke-dasharray=""/></g><g><g><path fill="none" stroke="none"/><text fill="#000000" stroke="none" font-family="Arial" font-size="13px" font-style="normal" font-weight="bold" text-decoration="undefined" x="178.380859375" y="157.5" text-anchor="middle" dominant-baseline="central" transform="matrix(1 0 0 1 -30 -30)">Émettre SYSTEM_WAKEUP</text></g></g><g><path fill="#ffffff" stroke="none" paint-order="stroke fill markers" d=" M 308 114 L 463.38818359375 114 Q 473.38818359375 114 473.38818359375 124 L 473.38818359375 145 Q 473.38818359375 155 463.38818359375 155 L 308 155 Q 298 155 298 145 L 298 124 Q 298 114 308 114 Z"/></g><g><path fill="none" stroke="#000000" paint-order="fill stroke markers" d=" M 308 114 L 463.38818359375 114 Q 473.38818359375 114 473.38818359375 124 L 473.38818359375 145 Q 473.38818359375 155 463.38818359375 155 L 308 155 Q 298 155 298 145 L 298 124 Q 298 114 308 114 Z" stroke-miterlimit="10" stroke-dasharray=""/></g><g><g><path fill="none" stroke="none"/><text fill="#000000" stroke="none" font-family="Arial" font-size="13px" font-style="normal" font-weight="bold" text-decoration="undefined" x="416.194091796875" y="157.5" text-anchor="middle" dominant-baseline="central" transform="matrix(1 0 0 1 -30 -30)">Contrôle de Connexion DB</text></g></g><g><path fill="#ffffff" stroke="none" paint-order="stroke fill markers" d=" M 564 114 L 702.09716796875 114 Q 712.09716796875 114 712.09716796875 124 L 712.09716796875 145 Q 712.09716796875 155 702.09716796875 155 L 564 155 Q 554 155 554 145 L 554 124 Q 554 114 564 114 Z"/></g><g><path fill="none" stroke="#000000" paint-order="fill stroke markers" d=" M 564 114 L 702.09716796875 114 Q 712.09716796875 114 712.09716796875 124 L 712.09716796875 145 Q 712.09716796875 155 702.09716796875 155 L 564 155 Q 554 155 554 145 L 554 124 Q 554 114 564 114 Z" stroke-miterlimit="10" stroke-dasharray=""/></g><g><g><path fill="none" stroke="none"/><text fill="#000000" stroke="none" font-family="Arial" font-size="13px" font-style="normal" font-weight="bold" text-decoration="undefined" x="663.548583984375" y="157.5" text-anchor="middle" dominant-baseline="central" transform="matrix(1 0 0 1 -30 -30)">Vérifier db_conn_status</text></g></g><g><path fill="#ffffff" stroke="none" paint-order="stroke fill markers" d=" M 308 250 L 476.38818359375 250 Q 486.38818359375 250 486.38818359375 260 L 486.38818359375 281 Q 486.38818359375 291 476.38818359375 291 L 308 291 Q 298 291 298 281 L 298 260 Q 298 250 308 250 Z"/></g><g><path fill="none" stroke="#000000" paint-order="fill stroke markers" d=" M 308 250 L 476.38818359375 250 Q 486.38818359375 250 486.38818359375 260 L 486.38818359375 281 Q 486.38818359375 291 476.38818359375 291 L 308 291 Q 298 291 298 281 L 298 260 Q 298 250 308 250 Z" stroke-miterlimit="10" stroke-dasharray=""/></g><g><g><path fill="none" stroke="none"/><text fill="#000000" stroke="none" font-family="Arial" font-size="13px" font-style="normal" font-weight="bold" text-decoration="undefined" x="422.694091796875" y="293.5" text-anchor="middle" dominant-baseline="central" transform="matrix(1 0 0 1 -30 -30)">Contrôle de Connexion IBKR</text></g></g><g><path fill="#ffffff" stroke="none" paint-order="stroke fill markers" d=" M 572 250 L 718.05712890625 250 Q 728.05712890625 250 728.05712890625 260 L 728.05712890625 281 Q 728.05712890625 291 718.05712890625 291 L 572 291 Q 562 291 562 281 L 562 260 Q 562 250 572 250 Z"/></g><g><path fill="none" stroke="#000000" paint-order="fill stroke markers" d=" M 572 250 L 718.05712890625 250 Q 728.05712890625 250 728.05712890625 260 L 728.05712890625 281 Q 728.05712890625 291 718.05712890625 291 L 572 291 Q 562 291 562 281 L 562 260 Q 562 250 572 250 Z" stroke-miterlimit="10" stroke-dasharray=""/></g><g><g><path fill="none" stroke="none"/><text fill="#000000" stroke="none" font-family="Arial" font-size="13px" font-style="normal" font-weight="bold" text-decoration="undefined" x="675.528564453125" y="293.5" text-anchor="middle" dominant-baseline="central" transform="matrix(1 0 0 1 -30 -30)">Vérifier ibkr_conn_status</text></g></g><g><path fill="none" stroke="#000000" paint-order="fill stroke markers" d=" M 238 130 L 298 130" stroke-miterlimit="10" stroke-dasharray=""/></g><g><path fill="none" stroke="#000000" paint-order="fill stroke markers" d=" M 287.83732514237585 134.209517756016 L 298 130 L 287.83732514237585 125.790482243984" stroke-miterlimit="10" stroke-dasharray=""/></g><g><path fill="none" stroke="#000000" paint-order="fill stroke markers" d=" M 473 122 L 554 122" stroke-miterlimit="10" stroke-dasharray=""/></g><g><path fill="none" stroke="#000000" paint-order="fill stroke markers" d=" M 543.8373251423759 126.209517756016 L 554 122 L 543.8373251423758 117.790482243984" stroke-miterlimit="10" stroke-dasharray=""/></g><g><path fill="none" stroke="#000000" paint-order="fill stroke markers" d=" M 486 258 L 562 258" stroke-miterlimit="10" stroke-dasharray=""/></g><g><path fill="none" stroke="#000000" paint-order="fill stroke markers" d=" M 551.8373251423759 262.209517756016 L 562 258 L 551.8373251423758 253.790482243984" stroke-miterlimit="10" stroke-dasharray=""/></g><g><path fill="none" stroke="#000000" paint-order="fill stroke markers" d=" M 594 155 L 594 178" stroke-miterlimit="10" stroke-dasharray=""/></g><g><path fill="none" stroke="#000000" paint-order="fill stroke markers" d=" M 589.790482243984 167.83732514237585 L 594 178 L 598.209517756016 167.83732514237585" stroke-miterlimit="10" stroke-dasharray=""/></g><g><path fill="none" stroke="#000000" paint-order="fill stroke markers" d=" M 386 155 L 386 250" stroke-miterlimit="10" stroke-dasharray=""/></g><g><path fill="none" stroke="#000000" paint-order="fill stroke markers" d=" M 381.790482243984 239.83732514237585 L 386 250 L 390.209517756016 239.83732514237585" stroke-miterlimit="10" stroke-dasharray=""/></g><g><path fill="none" stroke="#000000" paint-order="fill stroke markers" d=" M 594 291 L 594 322" stroke-miterlimit="10" stroke-dasharray=""/></g><g><path fill="none" stroke="#000000" paint-order="fill stroke markers" d=" M 589.790482243984 311.83732514237585 L 594 322 L 598.209517756016 311.83732514237585" stroke-miterlimit="10" stroke-dasharray=""/></g><g><path fill="#ffffff" stroke="none" paint-order="stroke fill markers" d=" M 578 338 L 594 322 L 610 338 L 594 354 L 578 338"/></g><g><path fill="none" stroke="#000000" paint-order="fill stroke markers" d=" M 578 338 L 594 322 L 610 338 L 594 354 L 578 338 L 578 338" stroke-miterlimit="10" stroke-dasharray=""/></g><g><path fill="#ffffff" stroke="none" paint-order="stroke fill markers" d=" M 578 194 L 594 178 L 610 194 L 594 210 L 578 194"/></g><g><path fill="none" stroke="#000000" paint-order="fill stroke markers" d=" M 578 194 L 594 178 L 610 194 L 594 210 L 578 194 L 578 194" stroke-miterlimit="10" stroke-dasharray=""/></g><g><path fill="none" stroke="#000000" paint-order="fill stroke markers" d=" M 610 338 L 690 338 L 690 291" stroke-miterlimit="10" stroke-dasharray=""/></g><g><path fill="none" stroke="#000000" paint-order="fill stroke markers" d=" M 694.209517756016 301.16267485762415 L 690 291 L 685.790482243984 301.16267485762415" stroke-miterlimit="10" stroke-dasharray=""/></g><g><rect fill="#ffffff" stroke="none" x="647" y="352" width="54.65966796875" height="13" transform="matrix(1 0 0 1 -30 -30)"/></g><g><g><path fill="none" stroke="none"/><text fill="#000000" stroke="none" font-family="Arial" font-size="13px" font-style="normal" font-weight="normal" text-decoration="undefined" x="674.329833984375" y="358.5" text-anchor="middle" dominant-baseline="central" transform="matrix(1 0 0 1 -30 -30)"> [RETRY]</text></g></g><g><path fill="none" stroke="#000000" paint-order="fill stroke markers" d=" M 610 194 L 690 194 L 690 155" stroke-miterlimit="10" stroke-dasharray=""/></g><g><path fill="none" stroke="#000000" paint-order="fill stroke markers" d=" M 694.209517756016 165.16267485762415 L 690 155 L 685.790482243984 165.16267485762415" stroke-miterlimit="10" stroke-dasharray=""/></g><g><rect fill="#ffffff" stroke="none" x="646" y="208" width="54.65966796875" height="13" transform="matrix(1 0 0 1 -30 -30)"/></g><g><g><path fill="none" stroke="none"/><text fill="#000000" stroke="none" font-family="Arial" font-size="13px" font-style="normal" font-weight="normal" text-decoration="undefined" x="673.329833984375" y="214.5" text-anchor="middle" dominant-baseline="central" transform="matrix(1 0 0 1 -30 -30)"> [RETRY]</text></g></g><g><path fill="#ffffff" stroke="none" paint-order="stroke fill markers" d=" M 706 335 C 706 327.8202976 711.8202976 322 719 322 C 726.1797024 322 732 327.8202976 732 335 C 732 342.1797024 726.1797024 348 719 348 C 711.8202976 348 706 342.1797024 706 335 Z"/></g><g><path fill="none" stroke="#000000" paint-order="fill stroke markers" d=" M 706 335 C 706 327.8202976 711.8202976 322 719 322 C 726.1797024 322 732 327.8202976 732 335 C 732 342.1797024 726.1797024 348 719 348 C 711.8202976 348 706 342.1797024 706 335 Z" stroke-miterlimit="10" stroke-dasharray=""/></g><g><path fill="none" stroke="#000000" paint-order="fill stroke markers" d=" M 710 326 L 728 344" stroke-miterlimit="10" stroke-dasharray=""/></g><g><path fill="none" stroke="#000000" paint-order="fill stroke markers" d=" M 728 326 L 710 344" stroke-miterlimit="10" stroke-dasharray=""/></g><g><path fill="none" stroke="#000000" paint-order="fill stroke markers" d=" M 594 354 L 594 370 L 722 370 L 722 348" stroke-miterlimit="10" stroke-dasharray=""/></g><g><path fill="none" stroke="#000000" paint-order="fill stroke markers" d=" M 726.209517756016 358.16267485762415 L 722 348 L 717.790482243984 358.16267485762415" stroke-miterlimit="10" stroke-dasharray=""/></g><g><rect fill="#ffffff" stroke="none" x="672" y="384" width="37.57177734375" height="13" transform="matrix(1 0 0 1 -30 -30)"/></g><g><g><path fill="none" stroke="none"/><text fill="#000000" stroke="none" font-family="Arial" font-size="13px" font-style="normal" font-weight="normal" text-decoration="undefined" x="690.785888671875" y="390.5" text-anchor="middle" dominant-baseline="central" transform="matrix(1 0 0 1 -30 -30)"> [FAIL]</text></g></g><g><path fill="none" stroke="#000000" paint-order="fill stroke markers" d=" M 594 210 L 594 226 L 722 226 L 722 196" stroke-miterlimit="10" stroke-dasharray=""/></g><g><path fill="none" stroke="#000000" paint-order="fill stroke markers" d=" M 726.209517756016 206.16267485762415 L 722 196 L 717.790482243984 206.16267485762415" stroke-miterlimit="10" stroke-dasharray=""/></g><g><rect fill="#ffffff" stroke="none" x="668" y="239" width="37.57177734375" height="13" transform="matrix(1 0 0 1 -30 -30)"/></g><g><g><path fill="none" stroke="none"/><text fill="#000000" stroke="none" font-family="Arial" font-size="13px" font-style="normal" font-weight="normal" text-decoration="undefined" x="686.785888671875" y="245.5" text-anchor="middle" dominant-baseline="central" transform="matrix(1 0 0 1 -30 -30)"> [FAIL]</text></g></g><g><path fill="none" stroke="#000000" paint-order="fill stroke markers" d=" M 578 338 L 538 338 L 538 282 L 486 282" stroke-miterlimit="10" stroke-dasharray=""/></g><g><path fill="none" stroke="#000000" paint-order="fill stroke markers" d=" M 496.1626748576241 277.790482243984 L 486 282 L 496.1626748576241 286.209517756016" stroke-miterlimit="10" stroke-dasharray=""/></g><g><path fill="none" stroke="#000000" paint-order="fill stroke markers" d=" M 578 194 L 538 194 L 538 138 L 473 138" stroke-miterlimit="10" stroke-dasharray=""/></g><g><path fill="none" stroke="#000000" paint-order="fill stroke markers" d=" M 483.1626748576241 133.790482243984 L 473 138 L 483.1626748576241 142.209517756016" stroke-miterlimit="10" stroke-dasharray=""/></g><g><path fill="#ffffff" stroke="none" paint-order="stroke fill markers" d=" M 706 183 C 706 175.8202976 711.8202976 170 719 170 C 726.1797024 170 732 175.8202976 732 183 C 732 190.1797024 726.1797024 196 719 196 C 711.8202976 196 706 190.1797024 706 183 Z"/></g><g><path fill="none" stroke="#000000" paint-order="fill stroke markers" d=" M 706 183 C 706 175.8202976 711.8202976 170 719 170 C 726.1797024 170 732 175.8202976 732 183 C 732 190.1797024 726.1797024 196 719 196 C 711.8202976 196 706 190.1797024 706 183 Z" stroke-miterlimit="10" stroke-dasharray=""/></g><g><path fill="none" stroke="#000000" paint-order="fill stroke markers" d=" M 710 174 L 728 192" stroke-miterlimit="10" stroke-dasharray=""/></g><g><path fill="none" stroke="#000000" paint-order="fill stroke markers" d=" M 728 174 L 710 192" stroke-miterlimit="10" stroke-dasharray=""/></g><g><path fill="#ffffff" stroke="none" paint-order="stroke fill markers" d=" M 308 330 L 464 330 Q 474 330 474 340 L 474 374 Q 474 384 464 384 L 308 384 Q 298 384 298 374 L 298 340 Q 298 330 308 330 Z"/></g><g><path fill="none" stroke="#000000" paint-order="fill stroke markers" d=" M 308 330 L 464 330 Q 474 330 474 340 L 474 374 Q 474 384 464 384 L 308 384 Q 298 384 298 374 L 298 340 Q 298 330 308 330 Z" stroke-miterlimit="10" stroke-dasharray=""/></g><g><g><path fill="none" stroke="none"/><text fill="#000000" stroke="none" font-family="Arial" font-size="13px" font-style="normal" font-weight="bold" text-decoration="undefined" x="416.5" y="373.5" text-anchor="middle" dominant-baseline="central" transform="matrix(1 0 0 1 -30 -30)">Determiner et Persistance</text><text fill="#000000" stroke="none" font-family="Arial" font-size="13px" font-style="normal" font-weight="bold" text-decoration="undefined" x="416.5" y="386.5" text-anchor="middle" dominant-baseline="central" transform="matrix(1 0 0 1 -30 -30)">MarketDayStatus</text></g></g><g><path fill="none" stroke="#000000" paint-order="fill stroke markers" d=" M 306 384 L 306 418" stroke-miterlimit="10" stroke-dasharray=""/></g><g><path fill="none" stroke="#000000" paint-order="fill stroke markers" d=" M 301.790482243984 407.83732514237585 L 306 418 L 310.209517756016 407.83732514237585" stroke-miterlimit="10" stroke-dasharray=""/></g><g><path fill="#ffffff" stroke="none" paint-order="stroke fill markers" d=" M 290 434 L 306 418 L 322 434 L 306 450 L 290 434"/></g><g><path fill="none" stroke="#000000" paint-order="fill stroke markers" d=" M 290 434 L 306 418 L 322 434 L 306 450 L 290 434 L 290 434" stroke-miterlimit="10" stroke-dasharray=""/></g><g><path fill="none" stroke="#000000" paint-order="fill stroke markers" d=" M 322 434 L 354 434" stroke-miterlimit="10" stroke-dasharray=""/></g><g><path fill="none" stroke="#000000" paint-order="fill stroke markers" d=" M 343.83732514237585 438.209517756016 L 354 434 L 343.83732514237585 429.790482243984" stroke-miterlimit="10" stroke-dasharray=""/></g><g><rect fill="#ffffff" stroke="none" x="340" y="423" width="47.68994140625" height="13" transform="matrix(1 0 0 1 -30 -30)"/></g><g><g><path fill="none" stroke="none"/><text fill="#000000" stroke="none" font-family="Arial" font-size="13px" font-style="normal" font-weight="normal" text-decoration="undefined" x="363.844970703125" y="429.5" text-anchor="middle" dominant-baseline="central" transform="matrix(1 0 0 1 -30 -30)"> [ELSE ]</text></g></g><g><path fill="none" stroke="#000000" paint-order="fill stroke markers" d=" M 306 450 L 306 482 L 786 482" stroke-miterlimit="10" stroke-dasharray=""/></g><g><path fill="none" stroke="#000000" paint-order="fill stroke markers" d=" M 775.8373251423759 486.209517756016 L 786 482 L 775.8373251423758 477.790482243984" stroke-miterlimit="10" stroke-dasharray=""/></g><g><rect fill="#ffffff" stroke="none" x="344" y="496" width="110.55712890625" height="13" transform="matrix(1 0 0 1 -30 -30)"/></g><g><g><path fill="none" stroke="none"/><text fill="#000000" stroke="none" font-family="Arial" font-size="13px" font-style="normal" font-weight="normal" text-decoration="undefined" x="399.278564453125" y="502.5" text-anchor="middle" dominant-baseline="central" transform="matrix(1 0 0 1 -30 -30)"> [IF is_trading_day]</text></g></g><g><path fill="none" stroke="#000000" paint-order="fill stroke markers" d=" M 386 291 L 386 330" stroke-miterlimit="10" stroke-dasharray=""/></g><g><path fill="none" stroke="#000000" paint-order="fill stroke markers" d=" M 381.790482243984 319.83732514237585 L 386 330 L 390.209517756016 319.83732514237585" stroke-miterlimit="10" stroke-dasharray=""/></g><g><path fill="#ffffff" stroke="none" paint-order="stroke fill markers" d=" M 364 410 L 489.103515625 410 Q 499.103515625 410 499.103515625 420 L 499.103515625 441 Q 499.103515625 451 489.103515625 451 L 364 451 Q 354 451 354 441 L 354 420 Q 354 410 364 410 Z"/></g><g><path fill="none" stroke="#000000" paint-order="fill stroke markers" d=" M 364 410 L 489.103515625 410 Q 499.103515625 410 499.103515625 420 L 499.103515625 441 Q 499.103515625 451 489.103515625 451 L 364 451 Q 354 451 354 441 L 354 420 Q 354 410 364 410 Z" stroke-miterlimit="10" stroke-dasharray=""/></g><g><g><path fill="none" stroke="none"/><text fill="#000000" stroke="none" font-family="Arial" font-size="13px" font-style="normal" font-weight="bold" text-decoration="undefined" x="457.0517578125" y="453.5" text-anchor="middle" dominant-baseline="central" transform="matrix(1 0 0 1 -30 -30)">Basculer en Off-Cycle</text></g></g><g><path fill="#ffffff" stroke="none" paint-order="stroke fill markers" d=" M 796 474 L 960 474 Q 970 474 970 484 L 970 518 Q 970 528 960 528 L 796 528 Q 786 528 786 518 L 786 484 Q 786 474 796 474 Z"/></g><g><path fill="none" stroke="#000000" paint-order="fill stroke markers" d=" M 796 474 L 960 474 Q 970 474 970 484 L 970 518 Q 970 528 960 528 L 796 528 Q 786 528 786 518 L 786 484 Q 786 474 796 474 Z" stroke-miterlimit="10" stroke-dasharray=""/></g><g><g><path fill="none" stroke="none"/><text fill="#000000" stroke="none" font-family="Arial" font-size="13px" font-style="normal" font-weight="bold" text-decoration="undefined" x="908.5" y="517.5" text-anchor="middle" dominant-baseline="central" transform="matrix(1 0 0 1 -30 -30)">Lecture Configs : Sessions</text><text fill="#000000" stroke="none" font-family="Arial" font-size="13px" font-style="normal" font-weight="bold" text-decoration="undefined" x="908.5" y="530.5" text-anchor="middle" dominant-baseline="central" transform="matrix(1 0 0 1 -30 -30)">&amp; Managers (PM, RM, OM)</text></g></g><g><path fill="#ffffff" stroke="none" paint-order="stroke fill markers" d=" M 300 498 L 424 498 Q 434 498 434 508 L 434 542 Q 434 552 424 552 L 300 552 Q 290 552 290 542 L 290 508 Q 290 498 300 498 Z"/></g><g><path fill="none" stroke="#000000" paint-order="fill stroke markers" d=" M 300 498 L 424 498 Q 434 498 434 508 L 434 542 Q 434 552 424 552 L 300 552 Q 290 552 290 542 L 290 508 Q 290 498 300 498 Z" stroke-miterlimit="10" stroke-dasharray=""/></g><g><g><path fill="none" stroke="none"/><text fill="#000000" stroke="none" font-family="Arial" font-size="13px" font-style="normal" font-weight="bold" text-decoration="undefined" x="392.5" y="541.5" text-anchor="middle" dominant-baseline="central" transform="matrix(1 0 0 1 -30 -30)">Requêter toutes les</text><text fill="#000000" stroke="none" font-family="Arial" font-size="13px" font-style="normal" font-weight="bold" text-decoration="undefined" x="392.5" y="554.5" text-anchor="middle" dominant-baseline="central" transform="matrix(1 0 0 1 -30 -30)">Métadonnées d'Init</text></g></g><g><path fill="none" stroke="#000000" paint-order="fill stroke markers" d=" M 786 514 L 434 514" stroke-miterlimit="10" stroke-dasharray=""/></g><g><path fill="none" stroke="#000000" paint-order="fill stroke markers" d=" M 444.16267485762415 509.790482243984 L 434 514 L 444.16267485762415 518.209517756016" stroke-miterlimit="10" stroke-dasharray=""/></g><g><path fill="#ffffff" stroke="none" paint-order="stroke fill markers" d=" M 1052 418 L 1184 418 Q 1194 418 1194 428 L 1194 462 Q 1194 472 1184 472 L 1052 472 Q 1042 472 1042 462 L 1042 428 Q 1042 418 1052 418 Z"/></g><g><path fill="none" stroke="#000000" paint-order="fill stroke markers" d=" M 1052 418 L 1184 418 Q 1194 418 1194 428 L 1194 462 Q 1194 472 1184 472 L 1052 472 Q 1042 472 1042 462 L 1042 428 Q 1042 418 1052 418 Z" stroke-miterlimit="10" stroke-dasharray=""/></g><g><g><path fill="none" stroke="none"/><text fill="#000000" stroke="none" font-family="Arial" font-size="13px" font-style="normal" font-weight="bold" text-decoration="undefined" x="1148.5" y="461.5" text-anchor="middle" dominant-baseline="central" transform="matrix(1 0 0 1 -30 -30)">Instancier RM (Config)</text><text fill="#000000" stroke="none" font-family="Arial" font-size="13px" font-style="normal" font-weight="bold" text-decoration="undefined" x="1148.5" y="474.5" text-anchor="middle" dominant-baseline="central" transform="matrix(1 0 0 1 -30 -30)">et Health-Check</text></g></g><g><path fill="#ffffff" stroke="none" paint-order="stroke fill markers" d=" M 1052 498 L 1184 498 Q 1194 498 1194 508 L 1194 542 Q 1194 552 1184 552 L 1052 552 Q 1042 552 1042 542 L 1042 508 Q 1042 498 1052 498 Z"/></g><g><path fill="none" stroke="#000000" paint-order="fill stroke markers" d=" M 1052 498 L 1184 498 Q 1194 498 1194 508 L 1194 542 Q 1194 552 1184 552 L 1052 552 Q 1042 552 1042 542 L 1042 508 Q 1042 498 1052 498 Z" stroke-miterlimit="10" stroke-dasharray=""/></g><g><g><path fill="none" stroke="none"/><text fill="#000000" stroke="none" font-family="Arial" font-size="13px" font-style="normal" font-weight="bold" text-decoration="undefined" x="1148.5" y="541.5" text-anchor="middle" dominant-baseline="central" transform="matrix(1 0 0 1 -30 -30)">Instancier PM (Config)</text><text fill="#000000" stroke="none" font-family="Arial" font-size="13px" font-style="normal" font-weight="bold" text-decoration="undefined" x="1148.5" y="554.5" text-anchor="middle" dominant-baseline="central" transform="matrix(1 0 0 1 -30 -30)">et Health-Check</text></g></g><g><path fill="#ffffff" stroke="none" paint-order="stroke fill markers" d=" M 1052 250 L 1192 250 Q 1202 250 1202 260 L 1202 294 Q 1202 304 1192 304 L 1052 304 Q 1042 304 1042 294 L 1042 260 Q 1042 250 1052 250 Z"/></g><g><path fill="none" stroke="#000000" paint-order="fill stroke markers" d=" M 1052 250 L 1192 250 Q 1202 250 1202 260 L 1202 294 Q 1202 304 1192 304 L 1052 304 Q 1042 304 1042 294 L 1042 260 Q 1042 250 1052 250 Z" stroke-miterlimit="10" stroke-dasharray=""/></g><g><g><path fill="none" stroke="none"/><text fill="#000000" stroke="none" font-family="Arial" font-size="13px" font-style="normal" font-weight="bold" text-decoration="undefined" x="1152.5" y="293.5" text-anchor="middle" dominant-baseline="central" transform="matrix(1 0 0 1 -30 -30)">Instancier LDH (Config)</text><text fill="#000000" stroke="none" font-family="Arial" font-size="13px" font-style="normal" font-weight="bold" text-decoration="undefined" x="1152.5" y="306.5" text-anchor="middle" dominant-baseline="central" transform="matrix(1 0 0 1 -30 -30)">et Health-Check</text></g></g><g><path fill="#ffffff" stroke="none" paint-order="stroke fill markers" d=" M 300 578 L 456 578 Q 466 578 466 588 L 466 622 Q 466 632 456 632 L 300 632 Q 290 632 290 622 L 290 588 Q 290 578 300 578 Z"/></g><g><path fill="none" stroke="#000000" paint-order="fill stroke markers" d=" M 300 578 L 456 578 Q 466 578 466 588 L 466 622 Q 466 632 456 632 L 300 632 Q 290 632 290 622 L 290 588 Q 290 578 300 578 Z" stroke-miterlimit="10" stroke-dasharray=""/></g><g><g><path fill="none" stroke="none"/><text fill="#000000" stroke="none" font-family="Arial" font-size="13px" font-style="normal" font-weight="bold" text-decoration="undefined" x="408.5" y="621.5" text-anchor="middle" dominant-baseline="central" transform="matrix(1 0 0 1 -30 -30)">Instancier Sessions</text><text fill="#000000" stroke="none" font-family="Arial" font-size="13px" font-style="normal" font-weight="bold" text-decoration="undefined" x="408.5" y="634.5" text-anchor="middle" dominant-baseline="central" transform="matrix(1 0 0 1 -30 -30)">(Injection Config Session)</text></g></g><g><path fill="none" stroke="#000000" paint-order="fill stroke markers" d=" M 728 266 L 1042 266" stroke-miterlimit="10" stroke-dasharray=""/></g><g><path fill="none" stroke="#000000" paint-order="fill stroke markers" d=" M 1031.837325142376 270.209517756016 L 1042 266 L 1031.837325142376 261.790482243984" stroke-miterlimit="10" stroke-dasharray=""/></g><g><path fill="#ffffff" stroke="none" paint-order="stroke fill markers" d=" M 1268 570 L 1354.8017578125 570 Q 1364.8017578125 570 1364.8017578125 580 L 1364.8017578125 614 Q 1364.8017578125 624 1354.8017578125 624 L 1268 624 Q 1258 624 1258 614 L 1258 580 Q 1258 570 1268 570 Z"/></g><g><path fill="none" stroke="#000000" paint-order="fill stroke markers" d=" M 1268 570 L 1354.8017578125 570 Q 1364.8017578125 570 1364.8017578125 580 L 1364.8017578125 614 Q 1364.8017578125 624 1354.8017578125 624 L 1268 624 Q 1258 624 1258 614 L 1258 580 Q 1258 570 1268 570 Z" stroke-miterlimit="10" stroke-dasharray=""/></g><g><g><path fill="none" stroke="none"/><text fill="#000000" stroke="none" font-family="Arial" font-size="13px" font-style="normal" font-weight="bold" text-decoration="undefined" x="1341.90087890625" y="613.5" text-anchor="middle" dominant-baseline="central" transform="matrix(1 0 0 1 -30 -30)">Instancier les</text><text fill="#000000" stroke="none" font-family="Arial" font-size="13px" font-style="normal" font-weight="bold" text-decoration="undefined" x="1341.90087890625" y="626.5" text-anchor="middle" dominant-baseline="central" transform="matrix(1 0 0 1 -30 -30)">TradingSession</text></g></g><g><path fill="none" stroke="#000000" paint-order="fill stroke markers" d=" M 378 552 L 378 578" stroke-miterlimit="10" stroke-dasharray=""/></g><g><path fill="none" stroke="#000000" paint-order="fill stroke markers" d=" M 373.790482243984 567.8373251423759 L 378 578 L 382.209517756016 567.8373251423759" stroke-miterlimit="10" stroke-dasharray=""/></g><g><path fill="none" stroke="#000000" paint-order="fill stroke markers" d=" M 466 602 L 1258 602" stroke-miterlimit="10" stroke-dasharray=""/></g><g><path fill="none" stroke="#000000" paint-order="fill stroke markers" d=" M 1247.837325142376 606.209517756016 L 1258 602 L 1247.837325142376 597.790482243984" stroke-miterlimit="10" stroke-dasharray=""/></g><g><path fill="#ffffff" stroke="none" paint-order="stroke fill markers" d=" M 1052 338 L 1184 338 Q 1194 338 1194 348 L 1194 382 Q 1194 392 1184 392 L 1052 392 Q 1042 392 1042 382 L 1042 348 Q 1042 338 1052 338 Z"/></g><g><path fill="none" stroke="#000000" paint-order="fill stroke markers" d=" M 1052 338 L 1184 338 Q 1194 338 1194 348 L 1194 382 Q 1194 392 1184 392 L 1052 392 Q 1042 392 1042 382 L 1042 348 Q 1042 338 1052 338 Z" stroke-miterlimit="10" stroke-dasharray=""/></g><g><g><path fill="none" stroke="none"/><text fill="#000000" stroke="none" font-family="Arial" font-size="13px" font-style="normal" font-weight="bold" text-decoration="undefined" x="1148.5" y="381.5" text-anchor="middle" dominant-baseline="central" transform="matrix(1 0 0 1 -30 -30)">Instancier OM (Config)</text><text fill="#000000" stroke="none" font-family="Arial" font-size="13px" font-style="normal" font-weight="bold" text-decoration="undefined" x="1148.5" y="394.5" text-anchor="middle" dominant-baseline="central" transform="matrix(1 0 0 1 -30 -30)">et Health-Check</text></g></g><g><path fill="none" stroke="#000000" paint-order="fill stroke markers" d=" M 1258 578 L 1114 578 L 1114 552" stroke-miterlimit="10" stroke-dasharray=""/></g><g><path fill="none" stroke="#000000" paint-order="fill stroke markers" d=" M 1118.2095177560159 562.1626748576241 L 1114 552 L 1109.7904822439841 562.1626748576241" stroke-miterlimit="10" stroke-dasharray=""/></g><g><path fill="none" stroke="#000000" paint-order="fill stroke markers" d=" M 1114 498 L 1114 472" stroke-miterlimit="10" stroke-dasharray=""/></g><g><path fill="none" stroke="#000000" paint-order="fill stroke markers" d=" M 1118.2095177560159 482.1626748576241 L 1114 472 L 1109.7904822439841 482.1626748576241" stroke-miterlimit="10" stroke-dasharray=""/></g><g><path fill="none" stroke="#000000" paint-order="fill stroke markers" d=" M 1114 418 L 1114 392" stroke-miterlimit="10" stroke-dasharray=""/></g><g><path fill="none" stroke="#000000" paint-order="fill stroke markers" d=" M 1118.2095177560159 402.16267485762415 L 1114 392 L 1109.7904822439841 402.16267485762415" stroke-miterlimit="10" stroke-dasharray=""/></g><g><path fill="none" stroke="#000000" paint-order="fill stroke markers" d=" M 1194 362 L 1314 362 L 1314 570" stroke-miterlimit="10" stroke-dasharray=""/></g><g><path fill="none" stroke="#000000" paint-order="fill stroke markers" d=" M 1309.7904822439841 559.8373251423759 L 1314 570 L 1318.2095177560159 559.8373251423759" stroke-miterlimit="10" stroke-dasharray=""/></g><g><path fill="none" stroke="#000000" paint-order="fill stroke markers" d=" M 378 632 L 378 674 L 410 674" stroke-miterlimit="10" stroke-dasharray=""/></g><g><path fill="none" stroke="#000000" paint-order="fill stroke markers" d=" M 399.83732514237585 678.209517756016 L 410 674 L 399.83732514237585 669.790482243984" stroke-miterlimit="10" stroke-dasharray=""/></g><g><path fill="#000000" stroke="none" paint-order="stroke fill markers" d=" M 413 650 L 413 650 Q 416 650 416 653 L 416 717 Q 416 720 413 720 L 413 720 Q 410 720 410 717 L 410 653 Q 410 650 413 650 Z"/></g><g><path fill="none" stroke="#000000" paint-order="fill stroke markers" d=" M 416 666 L 1018 666" stroke-miterlimit="10" stroke-dasharray=""/></g><g><path fill="none" stroke="#000000" paint-order="fill stroke markers" d=" M 1007.8373251423759 670.209517756016 L 1018 666 L 1007.8373251423759 661.790482243984" stroke-miterlimit="10" stroke-dasharray=""/></g><g><path fill="#ffffff" stroke="none" paint-order="stroke fill markers" d=" M 1028 650 L 1200 650 Q 1210 650 1210 660 L 1210 694 Q 1210 704 1200 704 L 1028 704 Q 1018 704 1018 694 L 1018 660 Q 1018 650 1028 650 Z"/></g><g><path fill="none" stroke="#000000" paint-order="fill stroke markers" d=" M 1028 650 L 1200 650 Q 1210 650 1210 660 L 1210 694 Q 1210 704 1200 704 L 1028 704 Q 1018 704 1018 694 L 1018 660 Q 1018 650 1028 650 Z" stroke-miterlimit="10" stroke-dasharray=""/></g><g><g><path fill="none" stroke="none"/><text fill="#000000" stroke="none" font-family="Arial" font-size="13px" font-style="normal" font-weight="bold" text-decoration="undefined" x="1144.5" y="693.5" text-anchor="middle" dominant-baseline="central" transform="matrix(1 0 0 1 -30 -30)">Requête &amp; Mettre en</text><text fill="#000000" stroke="none" font-family="Arial" font-size="13px" font-style="normal" font-weight="bold" text-decoration="undefined" x="1144.5" y="706.5" text-anchor="middle" dominant-baseline="central" transform="matrix(1 0 0 1 -30 -30)">mémoire Ordres/Risques</text></g></g><g><path fill="#ffffff" stroke="none" paint-order="stroke fill markers" d=" M 548 674 L 728 674 Q 738 674 738 684 L 738 731 Q 738 741 728 741 L 548 741 Q 538 741 538 731 L 538 684 Q 538 674 548 674 Z"/></g><g><path fill="none" stroke="#000000" paint-order="fill stroke markers" d=" M 548 674 L 728 674 Q 738 674 738 684 L 738 731 Q 738 741 728 741 L 548 741 Q 538 741 538 731 L 538 684 Q 538 674 548 674 Z" stroke-miterlimit="10" stroke-dasharray=""/></g><g><g><path fill="none" stroke="none"/><text fill="#000000" stroke="none" font-family="Arial" font-size="13px" font-style="normal" font-weight="bold" text-decoration="undefined" x="668.5" y="717.5" text-anchor="middle" dominant-baseline="central" transform="matrix(1 0 0 1 -30 -30)">Validation de la reception</text><text fill="#000000" stroke="none" font-family="Arial" font-size="13px" font-style="normal" font-weight="bold" text-decoration="undefined" x="668.5" y="730.5" text-anchor="middle" dominant-baseline="central" transform="matrix(1 0 0 1 -30 -30)">TickData de IBKR Gateway</text><text fill="#000000" stroke="none" font-family="Arial" font-size="13px" font-style="normal" font-weight="bold" text-decoration="undefined" x="668.5" y="743.5" text-anchor="middle" dominant-baseline="central" transform="matrix(1 0 0 1 -30 -30)">vers LIve Hub Data</text></g></g><g><path fill="none" stroke="#000000" paint-order="fill stroke markers" d=" M 416 706 L 538 706" stroke-miterlimit="10" stroke-dasharray=""/></g><g><path fill="none" stroke="#000000" paint-order="fill stroke markers" d=" M 527.8373251423759 710.209517756016 L 538 706 L 527.8373251423758 701.790482243984" stroke-miterlimit="10" stroke-dasharray=""/></g><g><path fill="#ffffff" stroke="none" paint-order="stroke fill markers" d=" M 1036 722 L 1192 722 Q 1202 722 1202 732 L 1202 779 Q 1202 789 1192 789 L 1036 789 Q 1026 789 1026 779 L 1026 732 Q 1026 722 1036 722 Z"/></g><g><path fill="none" stroke="#000000" paint-order="fill stroke markers" d=" M 1036 722 L 1192 722 Q 1202 722 1202 732 L 1202 779 Q 1202 789 1192 789 L 1036 789 Q 1026 789 1026 779 L 1026 732 Q 1026 722 1036 722 Z" stroke-miterlimit="10" stroke-dasharray=""/></g><g><g><path fill="none" stroke="none"/><text fill="#000000" stroke="none" font-family="Arial" font-size="13px" font-style="normal" font-weight="bold" text-decoration="undefined" x="1144.5" y="765.5" text-anchor="middle" dominant-baseline="central" transform="matrix(1 0 0 1 -30 -30)">HEART CHECK CROISÉ</text><text fill="#000000" stroke="none" font-family="Arial" font-size="13px" font-style="normal" font-weight="bold" text-decoration="undefined" x="1144.5" y="778.5" text-anchor="middle" dominant-baseline="central" transform="matrix(1 0 0 1 -30 -30)">(Validation des Liens entre</text><text fill="#000000" stroke="none" font-family="Arial" font-size="13px" font-style="normal" font-weight="bold" text-decoration="undefined" x="1144.5" y="791.5" text-anchor="middle" dominant-baseline="central" transform="matrix(1 0 0 1 -30 -30)">composants)</text></g></g><g><path fill="none" stroke="#000000" paint-order="fill stroke markers" d=" M 410 698 L 378 698 L 378 754 L 1026 754" stroke-miterlimit="10" stroke-dasharray=""/></g><g><path fill="none" stroke="#000000" paint-order="fill stroke markers" d=" M 1015.8373251423759 758.209517756016 L 1026 754 L 1015.8373251423759 749.790482243984" stroke-miterlimit="10" stroke-dasharray=""/></g><g><path fill="#ffffff" stroke="none" paint-order="stroke fill markers" d=" M 316 778 L 472 778 Q 482 778 482 788 L 482 835 Q 482 845 472 845 L 316 845 Q 306 845 306 835 L 306 788 Q 306 778 316 778 Z"/></g><g><path fill="none" stroke="#000000" paint-order="fill stroke markers" d=" M 316 778 L 472 778 Q 482 778 482 788 L 482 835 Q 482 845 472 845 L 316 845 Q 306 845 306 835 L 306 788 Q 306 778 316 778 Z" stroke-miterlimit="10" stroke-dasharray=""/></g><g><g><path fill="none" stroke="none"/><text fill="#000000" stroke="none" font-family="Arial" font-size="13px" font-style="normal" font-weight="bold" text-decoration="undefined" x="424.5" y="821.5" text-anchor="middle" dominant-baseline="central" transform="matrix(1 0 0 1 -30 -30)">Vérifier : IBKR(Flux Actif),</text><text fill="#000000" stroke="none" font-family="Arial" font-size="13px" font-style="normal" font-weight="bold" text-decoration="undefined" x="424.5" y="834.5" text-anchor="middle" dominant-baseline="central" transform="matrix(1 0 0 1 -30 -30)">LDH(Abonné), RM(Prêt</text><text fill="#000000" stroke="none" font-family="Arial" font-size="13px" font-style="normal" font-weight="bold" text-decoration="undefined" x="424.5" y="847.5" text-anchor="middle" dominant-baseline="central" transform="matrix(1 0 0 1 -30 -30)">Prix), PM(Prêt Fills)</text></g></g><g><path fill="none" stroke="#000000" paint-order="fill stroke markers" d=" M 1106 789 L 1106 803 L 482 803" stroke-miterlimit="10" stroke-dasharray=""/></g><g><path fill="none" stroke="#000000" paint-order="fill stroke markers" d=" M 492.1626748576241 798.790482243984 L 482 803 L 492.1626748576241 807.209517756016" stroke-miterlimit="10" stroke-dasharray=""/></g><g><path fill="#ffffff" stroke="none" paint-order="stroke fill markers" d=" M 52 866 L 193.6962890625 866 Q 203.6962890625 866 203.6962890625 876 L 203.6962890625 897 Q 203.6962890625 907 193.6962890625 907 L 52 907 Q 42 907 42 897 L 42 876 Q 42 866 52 866 Z"/></g><g><path fill="none" stroke="#000000" paint-order="fill stroke markers" d=" M 52 866 L 193.6962890625 866 Q 203.6962890625 866 203.6962890625 876 L 203.6962890625 897 Q 203.6962890625 907 193.6962890625 907 L 52 907 Q 42 907 42 897 L 42 876 Q 42 866 52 866 Z" stroke-miterlimit="10" stroke-dasharray=""/></g><g><g><path fill="none" stroke="none"/><text fill="#000000" stroke="none" font-family="Arial" font-size="13px" font-style="normal" font-weight="bold" text-decoration="undefined" x="153.34814453125" y="909.5" text-anchor="middle" dominant-baseline="central" transform="matrix(1 0 0 1 -30 -30)">Émettre MARKET_OPEN</text></g></g><g><path fill="#ffffff" stroke="none" paint-order="stroke fill markers" d=" M 52 786 L 231.24267578125 786 Q 241.24267578125 786 241.24267578125 796 L 241.24267578125 817 Q 241.24267578125 827 231.24267578125 827 L 52 827 Q 42 827 42 817 L 42 796 Q 42 786 52 786 Z"/></g><g><path fill="none" stroke="#000000" paint-order="fill stroke markers" d=" M 52 786 L 231.24267578125 786 Q 241.24267578125 786 241.24267578125 796 L 241.24267578125 817 Q 241.24267578125 827 231.24267578125 827 L 52 827 Q 42 827 42 817 L 42 796 Q 42 786 52 786 Z" stroke-miterlimit="10" stroke-dasharray=""/></g><g><g><path fill="none" stroke="none"/><text fill="#000000" stroke="none" font-family="Arial" font-size="13px" font-style="normal" font-weight="bold" text-decoration="undefined" x="172.121337890625" y="829.5" text-anchor="middle" dominant-baseline="central" transform="matrix(1 0 0 1 -30 -30)">Attente signal MARKET_OPEN</text></g></g><g><path fill="#ffffff" stroke="none" paint-order="stroke fill markers" d=" M 308 866 L 467.0634765625 866 Q 477.0634765625 866 477.0634765625 876 L 477.0634765625 897 Q 477.0634765625 907 467.0634765625 907 L 308 907 Q 298 907 298 897 L 298 876 Q 298 866 308 866 Z"/></g><g><path fill="none" stroke="#000000" paint-order="fill stroke markers" d=" M 308 866 L 467.0634765625 866 Q 477.0634765625 866 477.0634765625 876 L 477.0634765625 897 Q 477.0634765625 907 467.0634765625 907 L 308 907 Q 298 907 298 897 L 298 876 Q 298 866 308 866 Z" stroke-miterlimit="10" stroke-dasharray=""/></g><g><g><path fill="none" stroke="none"/><text fill="#000000" stroke="none" font-family="Arial" font-size="13px" font-style="normal" font-weight="bold" text-decoration="undefined" x="418.03173828125" y="909.5" text-anchor="middle" dominant-baseline="central" transform="matrix(1 0 0 1 -30 -30)">Basculer en phase In-Trade</text></g></g><g><path fill="none" stroke="#000000" paint-order="fill stroke markers" d=" M 306 802 L 241 802" stroke-miterlimit="10" stroke-dasharray=""/></g><g><path fill="none" stroke="#000000" paint-order="fill stroke markers" d=" M 251.16267485762415 797.790482243984 L 241 802 L 251.16267485762415 806.209517756016" stroke-miterlimit="10" stroke-dasharray=""/></g><g><path fill="none" stroke="#000000" paint-order="fill stroke markers" d=" M 138 827 L 138 866" stroke-miterlimit="10" stroke-dasharray=""/></g><g><path fill="none" stroke="#000000" paint-order="fill stroke markers" d=" M 133.790482243984 855.8373251423759 L 138 866 L 142.209517756016 855.8373251423759" stroke-miterlimit="10" stroke-dasharray=""/></g><g><path fill="none" stroke="#000000" paint-order="fill stroke markers" d=" M 204 890 L 298 890" stroke-miterlimit="10" stroke-dasharray=""/></g><g><path fill="none" stroke="#000000" paint-order="fill stroke markers" d=" M 287.83732514237585 894.209517756016 L 298 890 L 287.83732514237585 885.790482243984" stroke-miterlimit="10" stroke-dasharray=""/></g><g><path fill="none" stroke="#000000" paint-order="fill stroke markers" d=" M 354 943 C 354 935.8202976 359.8202976 930 367 930 C 374.1797024 930 380 935.8202976 380 943 C 380 950.1797024 374.1797024 956 367 956 C 359.8202976 956 354 950.1797024 354 943 Z" stroke-miterlimit="10" stroke-dasharray=""/></g><g><path fill="#000000" stroke="none" paint-order="stroke fill markers" d=" M 359 943 C 359 938.5817216 362.5817216 935 367 935 C 371.4182784 935 375 938.5817216 375 943 C 375 947.4182784 371.4182784 951 367 951 C 362.5817216 951 359 947.4182784 359 943 Z"/></g><g><path fill="none" stroke="#000000" paint-order="fill stroke markers" d=" M 370 907 L 370 930" stroke-miterlimit="10" stroke-dasharray=""/></g><g><path fill="none" stroke="#000000" paint-order="fill stroke markers" d=" M 365.790482243984 919.8373251423759 L 370 930 L 374.209517756016 919.8373251423759" stroke-miterlimit="10" stroke-dasharray=""/></g><g><path fill="none" stroke="#000000" paint-order="fill stroke markers" d=" M 148 86 L 148 114" stroke-miterlimit="10" stroke-dasharray=""/></g><g><path fill="none" stroke="#000000" paint-order="fill stroke markers" d=" M 143.790482243984 103.83732514237585 L 148 114 L 152.209517756016 103.83732514237585" stroke-miterlimit="10" stroke-dasharray=""/></g></g></svg>