<svg version="1.1" xmlns="http://www.w3.org/2000/svg" xmlns:xlink="http://www.w3.org/1999/xlink" width="1396" height="876"><defs/><g><g><rect fill="#ffffff" stroke="none" x="48" y="40" width="1376" height="856" transform="matrix(1 0 0 1 -38 -30)"/></g><g><path fill="none" stroke="#000000" paint-order="fill stroke markers" d=" M 10 10 L 1386 10 L 1386 866 L 10 866 L 10 10 Z Z" stroke-miterlimit="10" stroke-dasharray=""/></g><g><rect fill="#ffffff" stroke="none" x="72" y="88" width="21" height="344" transform="matrix(1 0 0 1 -38 -30)"/></g><g><path fill="none" stroke="#000000" paint-order="fill stroke markers" d=" M 34 58 L 55 58 L 55 402 L 34 402 L 34 58 Z Z" stroke-miterlimit="10" stroke-width="2" stroke-dasharray=""/></g><g><path fill="none" stroke="#000000" paint-order="fill stroke markers" d=" M 1362 58 L 34 58 L 34 402 L 1362 402" stroke-miterlimit="10" stroke-width="2" stroke-dasharray=""/></g><g><g><path fill="none" stroke="none"/><text fill="#000000" stroke="none" font-family="Arial" font-size="13px" font-style="normal" font-weight="normal" text-decoration="undefined" x="0" y="0" text-anchor="middle" dominant-baseline="text-before-edge" transform="matrix(6.123233995736766e-17 -1 1 6.123233995736766e-17 38 230)">System Core</text></g></g><g><rect fill="#ffffff" stroke="none" x="944" y="64" width="312" height="21" transform="matrix(1 0 0 1 -38 -30)"/></g><g><path fill="none" stroke="#000000" paint-order="fill stroke markers" d=" M 906 34 L 1218 34 L 1218 55 L 906 55 L 906 34 Z Z" stroke-miterlimit="10" stroke-width="2" stroke-dasharray=""/></g><g><path fill="none" stroke="#000000" paint-order="fill stroke markers" d=" M 906 842 L 906 34 L 1218 34 L 1218 842" stroke-miterlimit="10" stroke-width="2" stroke-dasharray=""/></g><g><g><path fill="none" stroke="none"/><text fill="#000000" stroke="none" font-family="Arial" font-size="13px" font-style="normal" font-weight="normal" text-decoration="undefined" x="1100" y="68" text-anchor="middle" dominant-baseline="text-before-edge" transform="matrix(1 0 0 1 -38 -30)">Post-Market</text></g></g><g><rect fill="#ffffff" stroke="none" x="560" y="64" width="384" height="21" transform="matrix(1 0 0 1 -38 -30)"/></g><g><path fill="none" stroke="#000000" paint-order="fill stroke markers" d=" M 522 34 L 906 34 L 906 55 L 522 55 L 522 34 Z Z" stroke-miterlimit="10" stroke-width="2" stroke-dasharray=""/></g><g><path fill="none" stroke="#000000" paint-order="fill stroke markers" d=" M 522 842 L 522 34 L 906 34 L 906 842" stroke-miterlimit="10" stroke-width="2" stroke-dasharray=""/></g><g><g><path fill="none" stroke="none"/><text fill="#000000" stroke="none" font-family="Arial" font-size="13px" font-style="normal" font-weight="normal" text-decoration="undefined" x="752" y="68" text-anchor="middle" dominant-baseline="text-before-edge" transform="matrix(1 0 0 1 -38 -30)">In-Market</text></g></g><g><rect fill="#ffffff" stroke="none" x="96" y="64" width="464" height="21" transform="matrix(1 0 0 1 -38 -30)"/></g><g><path fill="none" stroke="#000000" paint-order="fill stroke markers" d=" M 58 34 L 522 34 L 522 55 L 58 55 L 58 34 Z Z" stroke-miterlimit="10" stroke-width="2" stroke-dasharray=""/></g><g><path fill="none" stroke="#000000" paint-order="fill stroke markers" d=" M 58 842 L 58 34 L 522 34 L 522 842" stroke-miterlimit="10" stroke-width="2" stroke-dasharray=""/></g><g><g><path fill="none" stroke="none"/><text fill="#000000" stroke="none" font-family="Arial" font-size="13px" font-style="normal" font-weight="normal" text-decoration="undefined" x="328" y="68" text-anchor="middle" dominant-baseline="text-before-edge" transform="matrix(1 0 0 1 -38 -30)">Pre-Market</text></g></g><g><rect fill="#ffffff" stroke="none" x="1256" y="64" width="144" height="21" transform="matrix(1 0 0 1 -38 -30)"/></g><g><path fill="none" stroke="#000000" paint-order="fill stroke markers" d=" M 1218 34 L 1362 34 L 1362 55 L 1218 55 L 1218 34 Z Z" stroke-miterlimit="10" stroke-width="2" stroke-dasharray=""/></g><g><path fill="none" stroke="#000000" paint-order="fill stroke markers" d=" M 1218 842 L 1218 34 L 1362 34 L 1362 842" stroke-miterlimit="10" stroke-width="2" stroke-dasharray=""/></g><g><g><path fill="none" stroke="none"/><text fill="#000000" stroke="none" font-family="Arial" font-size="13px" font-style="normal" font-weight="normal" text-decoration="undefined" x="1328" y="68" text-anchor="middle" dominant-baseline="text-before-edge" transform="matrix(1 0 0 1 -38 -30)">Off-Cycle</text></g></g><g><rect fill="#ffffff" stroke="none" x="72" y="432" width="21" height="176" transform="matrix(1 0 0 1 -38 -30)"/></g><g><path fill="none" stroke="#000000" paint-order="fill stroke markers" d=" M 34 402 L 55 402 L 55 578 L 34 578 L 34 402 Z Z" stroke-miterlimit="10" stroke-width="2" stroke-dasharray=""/></g><g><path fill="none" stroke="#000000" paint-order="fill stroke markers" d=" M 1362 402 L 34 402 L 34 578 L 1362 578" stroke-miterlimit="10" stroke-width="2" stroke-dasharray=""/></g><g><g><path fill="none" stroke="none"/><text fill="#000000" stroke="none" font-family="Arial" font-size="13px" font-style="normal" font-weight="normal" text-decoration="undefined" x="0" y="0" text-anchor="middle" dominant-baseline="text-before-edge" transform="matrix(6.123233995736766e-17 -1 1 6.123233995736766e-17 38 490)">Trading / Risk Core</text></g></g><g><rect fill="#ffffff" stroke="none" x="72" y="608" width="21" height="264" transform="matrix(1 0 0 1 -38 -30)"/></g><g><path fill="none" stroke="#000000" paint-order="fill stroke markers" d=" M 34 578 L 55 578 L 55 842 L 34 842 L 34 578 Z Z" stroke-miterlimit="10" stroke-width="2" stroke-dasharray=""/></g><g><path fill="none" stroke="#000000" paint-order="fill stroke markers" d=" M 1362 578 L 34 578 L 34 842 L 1362 842" stroke-miterlimit="10" stroke-width="2" stroke-dasharray=""/></g><g><g><path fill="none" stroke="none"/><text fill="#000000" stroke="none" font-family="Arial" font-size="13px" font-style="normal" font-weight="normal" text-decoration="undefined" x="0" y="0" text-anchor="middle" dominant-baseline="text-before-edge" transform="matrix(6.123233995736766e-17 -1 1 6.123233995736766e-17 38 710)">Data Core</text></g></g><g><path fill="#C0C0C0" stroke="none" paint-order="stroke fill markers" d=" M 91 73 L 367.8125 73 Q 377.8125 73 377.8125 83 L 377.8125 104 Q 377.8125 114 367.8125 114 L 91 114 Q 81 114 81 104 L 81 83 Q 81 73 91 73 Z" fill-opacity="0.2"/></g><g><path fill="#ffffff" stroke="none" paint-order="stroke fill markers" d=" M 84 66 L 360.8125 66 Q 370.8125 66 370.8125 76 L 370.8125 97 Q 370.8125 107 360.8125 107 L 84 107 Q 74 107 74 97 L 74 76 Q 74 66 84 66 Z"/></g><g><path fill="none" stroke="#000000" paint-order="fill stroke markers" d=" M 84 66 L 360.8125 66 Q 370.8125 66 370.8125 76 L 370.8125 97 Q 370.8125 107 360.8125 107 L 84 107 Q 74 107 74 97 L 74 76 Q 74 66 84 66 Z" stroke-miterlimit="10" stroke-dasharray=""/></g><g><g><path fill="none" stroke="none"/><text fill="#000000" stroke="none" font-family="Arial" font-size="13px" font-style="normal" font-weight="bold" text-decoration="undefined" x="260.90625" y="109.5" text-anchor="middle" dominant-baseline="central" transform="matrix(1 0 0 1 -38 -30)">Déclenchement : Réveil (Market Clock Trigger)</text></g></g><g><path fill="#C0C0C0" stroke="none" paint-order="stroke fill markers" d=" M 91 273 L 263.00634765625 273 Q 273.00634765625 273 273.00634765625 283 L 273.00634765625 304 Q 273.00634765625 314 263.00634765625 314 L 91 314 Q 81 314 81 304 L 81 283 Q 81 273 91 273 Z" fill-opacity="0.2"/></g><g><path fill="#ffffff" stroke="none" paint-order="stroke fill markers" d=" M 84 266 L 256.00634765625 266 Q 266.00634765625 266 266.00634765625 276 L 266.00634765625 297 Q 266.00634765625 307 256.00634765625 307 L 84 307 Q 74 307 74 297 L 74 276 Q 74 266 84 266 Z"/></g><g><path fill="none" stroke="#000000" paint-order="fill stroke markers" d=" M 84 266 L 256.00634765625 266 Q 266.00634765625 266 266.00634765625 276 L 266.00634765625 297 Q 266.00634765625 307 256.00634765625 307 L 84 307 Q 74 307 74 297 L 74 276 Q 74 266 84 266 Z" stroke-miterlimit="10" stroke-dasharray=""/></g><g><g><path fill="none" stroke="none"/><text fill="#000000" stroke="none" font-family="Arial" font-size="13px" font-style="normal" font-weight="bold" text-decoration="undefined" x="208.503173828125" y="309.5" text-anchor="middle" dominant-baseline="central" transform="matrix(1 0 0 1 -38 -30)">Vérification du Statut du Jour</text></g></g><g><path fill="#C0C0C0" stroke="none" paint-order="stroke fill markers" d=" M 91 209 L 418.30810546875 209 Q 428.30810546875 209 428.30810546875 219 L 428.30810546875 240 Q 428.30810546875 250 418.30810546875 250 L 91 250 Q 81 250 81 240 L 81 219 Q 81 209 91 209 Z" fill-opacity="0.2"/></g><g><path fill="#ffffff" stroke="none" paint-order="stroke fill markers" d=" M 84 202 L 411.30810546875 202 Q 421.30810546875 202 421.30810546875 212 L 421.30810546875 233 Q 421.30810546875 243 411.30810546875 243 L 84 243 Q 74 243 74 233 L 74 212 Q 74 202 84 202 Z"/></g><g><path fill="none" stroke="#000000" paint-order="fill stroke markers" d=" M 84 202 L 411.30810546875 202 Q 421.30810546875 202 421.30810546875 212 L 421.30810546875 233 Q 421.30810546875 243 411.30810546875 243 L 84 243 Q 74 243 74 233 L 74 212 Q 74 202 84 202 Z" stroke-miterlimit="10" stroke-dasharray=""/></g><g><g><path fill="none" stroke="none"/><text fill="#000000" stroke="none" font-family="Arial" font-size="13px" font-style="normal" font-weight="bold" text-decoration="undefined" x="286.154052734375" y="245.5" text-anchor="middle" dominant-baseline="central" transform="matrix(1 0 0 1 -38 -30)">Vérification des Connexions Critiques (DB, TWS/IBKR)</text></g></g><g><path fill="none" stroke="#000000" paint-order="fill stroke markers" d=" M 154 107 L 154 138" stroke-miterlimit="10" stroke-dasharray=""/></g><g><path fill="none" stroke="#000000" paint-order="fill stroke markers" d=" M 149.790482243984 127.83732514237585 L 154 138 L 158.209517756016 127.83732514237585" stroke-miterlimit="10" stroke-dasharray=""/></g><g><path fill="none" stroke="#000000" paint-order="fill stroke markers" d=" M 154 179 L 154 202" stroke-miterlimit="10" stroke-dasharray=""/></g><g><path fill="none" stroke="#000000" paint-order="fill stroke markers" d=" M 149.790482243984 191.83732514237585 L 154 202 L 158.209517756016 191.83732514237585" stroke-miterlimit="10" stroke-dasharray=""/></g><g><path fill="none" stroke="#000000" paint-order="fill stroke markers" d=" M 154 243 L 154 266" stroke-miterlimit="10" stroke-dasharray=""/></g><g><path fill="none" stroke="#000000" paint-order="fill stroke markers" d=" M 149.790482243984 255.83732514237585 L 154 266 L 158.209517756016 255.83732514237585" stroke-miterlimit="10" stroke-dasharray=""/></g><g><path fill="#C0C0C0" stroke="none" paint-order="stroke fill markers" d=" M 84 353 L 238 353 Q 241 353 241 356 L 241 356 Q 241 359 238 359 L 84 359 Q 81 359 81 356 L 81 356 Q 81 353 84 353 Z" fill-opacity="0.2"/></g><g><path fill="#000000" stroke="none" paint-order="stroke fill markers" d=" M 77 346 L 231 346 Q 234 346 234 349 L 234 349 Q 234 352 231 352 L 77 352 Q 74 352 74 349 L 74 349 Q 74 346 77 346 Z"/></g><g><path fill="none" stroke="#000000" paint-order="fill stroke markers" d=" M 154 307 L 154 346" stroke-miterlimit="10" stroke-dasharray=""/></g><g><path fill="none" stroke="#000000" paint-order="fill stroke markers" d=" M 149.790482243984 335.83732514237585 L 154 346 L 158.209517756016 335.83732514237585" stroke-miterlimit="10" stroke-dasharray=""/></g><g><path fill="#C0C0C0" stroke="none" paint-order="stroke fill markers" d=" M 131 425 L 365.9052734375 425 Q 375.9052734375 425 375.9052734375 435 L 375.9052734375 456 Q 375.9052734375 466 365.9052734375 466 L 131 466 Q 121 466 121 456 L 121 435 Q 121 425 131 425 Z" fill-opacity="0.2"/></g><g><path fill="#ffffff" stroke="none" paint-order="stroke fill markers" d=" M 124 418 L 358.9052734375 418 Q 368.9052734375 418 368.9052734375 428 L 368.9052734375 449 Q 368.9052734375 459 358.9052734375 459 L 124 459 Q 114 459 114 449 L 114 428 Q 114 418 124 418 Z"/></g><g><path fill="none" stroke="#000000" paint-order="fill stroke markers" d=" M 124 418 L 358.9052734375 418 Q 368.9052734375 418 368.9052734375 428 L 368.9052734375 449 Q 368.9052734375 459 358.9052734375 459 L 124 459 Q 114 459 114 449 L 114 428 Q 114 418 124 418 Z" stroke-miterlimit="10" stroke-dasharray=""/></g><g><g><path fill="none" stroke="none"/><text fill="#000000" stroke="none" font-family="Arial" font-size="13px" font-style="normal" font-weight="bold" text-decoration="undefined" x="279.95263671875" y="461.5" text-anchor="middle" dominant-baseline="central" transform="matrix(1 0 0 1 -38 -30)">Mise en mémoire des Ordres/Stop-Loss</text></g></g><g><path fill="#C0C0C0" stroke="none" paint-order="stroke fill markers" d=" M 91 601 L 336.7216796875 601 Q 346.7216796875 601 346.7216796875 611 L 346.7216796875 632 Q 346.7216796875 642 336.7216796875 642 L 91 642 Q 81 642 81 632 L 81 611 Q 81 601 91 601 Z" fill-opacity="0.2"/></g><g><path fill="#ffffff" stroke="none" paint-order="stroke fill markers" d=" M 84 594 L 329.7216796875 594 Q 339.7216796875 594 339.7216796875 604 L 339.7216796875 625 Q 339.7216796875 635 329.7216796875 635 L 84 635 Q 74 635 74 625 L 74 604 Q 74 594 84 594 Z"/></g><g><path fill="none" stroke="#000000" paint-order="fill stroke markers" d=" M 84 594 L 329.7216796875 594 Q 339.7216796875 594 339.7216796875 604 L 339.7216796875 625 Q 339.7216796875 635 329.7216796875 635 L 84 635 Q 74 635 74 625 L 74 604 Q 74 594 84 594 Z" stroke-miterlimit="10" stroke-dasharray=""/></g><g><g><path fill="none" stroke="none"/><text fill="#000000" stroke="none" font-family="Arial" font-size="13px" font-style="normal" font-weight="bold" text-decoration="undefined" x="245.36083984375" y="637.5" text-anchor="middle" dominant-baseline="central" transform="matrix(1 0 0 1 -38 -30)">Démarrage de l'IBKR Gateway (Tick Data)</text></g></g><g><path fill="none" stroke="#000000" paint-order="fill stroke markers" d=" M 201 352 L 201 418" stroke-miterlimit="10" stroke-dasharray=""/></g><g><path fill="none" stroke="#000000" paint-order="fill stroke markers" d=" M 196.790482243984 407.83732514237585 L 201 418 L 205.209517756016 407.83732514237585" stroke-miterlimit="10" stroke-dasharray=""/></g><g><path fill="none" stroke="#000000" paint-order="fill stroke markers" d=" M 106 352 L 106 594" stroke-miterlimit="10" stroke-dasharray=""/></g><g><path fill="none" stroke="#000000" paint-order="fill stroke markers" d=" M 101.790482243984 583.8373251423759 L 106 594 L 110.209517756016 583.8373251423759" stroke-miterlimit="10" stroke-dasharray=""/></g><g><path fill="#C0C0C0" stroke="none" paint-order="stroke fill markers" d=" M 91 145 L 450.9033203125 145 Q 460.9033203125 145 460.9033203125 155 L 460.9033203125 176 Q 460.9033203125 186 450.9033203125 186 L 91 186 Q 81 186 81 176 L 81 155 Q 81 145 91 145 Z" fill-opacity="0.2"/></g><g><path fill="#ffffff" stroke="none" paint-order="stroke fill markers" d=" M 84 138 L 443.9033203125 138 Q 453.9033203125 138 453.9033203125 148 L 453.9033203125 169 Q 453.9033203125 179 443.9033203125 179 L 84 179 Q 74 179 74 169 L 74 148 Q 74 138 84 138 Z"/></g><g><path fill="none" stroke="#000000" paint-order="fill stroke markers" d=" M 84 138 L 443.9033203125 138 Q 453.9033203125 138 453.9033203125 148 L 453.9033203125 169 Q 453.9033203125 179 443.9033203125 179 L 84 179 Q 74 179 74 169 L 74 148 Q 74 138 84 138 Z" stroke-miterlimit="10" stroke-dasharray=""/></g><g><g><path fill="none" stroke="none"/><text fill="#000000" stroke="none" font-family="Arial" font-size="13px" font-style="normal" font-weight="bold" text-decoration="undefined" x="302.45166015625" y="181.5" text-anchor="middle" dominant-baseline="central" transform="matrix(1 0 0 1 -38 -30)">Instanciation des Sessions et Vérification des Jours Ouvrés</text></g></g><g><path fill="none" stroke="#000000" paint-order="fill stroke markers" d=" M 369 438 L 406 438 L 406 376" stroke-miterlimit="10" stroke-dasharray=""/></g><g><path fill="none" stroke="#000000" paint-order="fill stroke markers" d=" M 410.209517756016 386.16267485762415 L 406 376 L 401.790482243984 386.16267485762415" stroke-miterlimit="10" stroke-dasharray=""/></g><g><path fill="none" stroke="#000000" paint-order="fill stroke markers" d=" M 340 614 L 466 614 L 466 376" stroke-miterlimit="10" stroke-dasharray=""/></g><g><path fill="none" stroke="#000000" paint-order="fill stroke markers" d=" M 470.209517756016 386.16267485762415 L 466 376 L 461.790482243984 386.16267485762415" stroke-miterlimit="10" stroke-dasharray=""/></g><g><path fill="none" stroke="#000000" paint-order="fill stroke markers" d=" M 434 370 L 434 338" stroke-miterlimit="10" stroke-dasharray=""/></g><g><path fill="none" stroke="#000000" paint-order="fill stroke markers" d=" M 438.209517756016 348.16267485762415 L 434 338 L 429.790482243984 348.16267485762415" stroke-miterlimit="10" stroke-dasharray=""/></g><g><path fill="none" stroke="#000000" paint-order="fill stroke markers" d=" M 430 298 L 430 278 L 370 278 L 370 322 L 410 322" stroke-miterlimit="10" stroke-dasharray=""/></g><g><path fill="none" stroke="#000000" paint-order="fill stroke markers" d=" M 399.83732514237585 326.209517756016 L 410 322 L 399.83732514237585 317.790482243984" stroke-miterlimit="10" stroke-dasharray=""/></g><g><rect fill="#ffffff" stroke="none" x="416" y="288" width="44.078125" height="13" transform="matrix(1 0 0 1 -38 -30)"/></g><g><g><path fill="none" stroke="none"/><text fill="#000000" stroke="none" font-family="Arial" font-size="13px" font-style="normal" font-weight="normal" text-decoration="undefined" x="438.0390625" y="294.5" text-anchor="middle" dominant-baseline="central" transform="matrix(1 0 0 1 -38 -30)"> [ELSE]</text></g></g><g><path fill="none" stroke="#000000" paint-order="fill stroke markers" d=" M 450 326 L 498 326 L 498 86 L 546 86" stroke-miterlimit="10" stroke-dasharray=""/></g><g><path fill="none" stroke="#000000" paint-order="fill stroke markers" d=" M 535.8373251423759 90.20951775601598 L 546 86 L 535.8373251423758 81.79048224398402" stroke-miterlimit="10" stroke-dasharray=""/></g><g><rect fill="#ffffff" stroke="none" x="623" y="151" width="220.2763671875" height="13" transform="matrix(1 0 0 1 -38 -30)"/></g><g><g><path fill="none" stroke="none"/><text fill="#000000" stroke="none" font-family="Arial" font-size="13px" font-style="normal" font-weight="normal" text-decoration="undefined" x="733.13818359375" y="157.5" text-anchor="middle" dominant-baseline="central" transform="matrix(1 0 0 1 -38 -30)"> [IF current_time ≥ market_open_time]</text></g></g><g><path fill="#C0C0C0" stroke="none" paint-order="stroke fill markers" d=" M 555 609 L 788.90869140625 609 Q 798.90869140625 609 798.90869140625 619 L 798.90869140625 640 Q 798.90869140625 650 788.90869140625 650 L 555 650 Q 545 650 545 640 L 545 619 Q 545 609 555 609 Z" fill-opacity="0.2"/></g><g><path fill="#ffffff" stroke="none" paint-order="stroke fill markers" d=" M 548 602 L 781.90869140625 602 Q 791.90869140625 602 791.90869140625 612 L 791.90869140625 633 Q 791.90869140625 643 781.90869140625 643 L 548 643 Q 538 643 538 633 L 538 612 Q 538 602 548 602 Z"/></g><g><path fill="none" stroke="#000000" paint-order="fill stroke markers" d=" M 548 602 L 781.90869140625 602 Q 791.90869140625 602 791.90869140625 612 L 791.90869140625 633 Q 791.90869140625 643 781.90869140625 643 L 548 643 Q 538 643 538 633 L 538 612 Q 538 602 548 602 Z" stroke-miterlimit="10" stroke-dasharray=""/></g><g><g><path fill="none" stroke="none"/><text fill="#000000" stroke="none" font-family="Arial" font-size="13px" font-style="normal" font-weight="bold" text-decoration="undefined" x="703.454345703125" y="645.5" text-anchor="middle" dominant-baseline="central" transform="matrix(1 0 0 1 -38 -30)">Activation du Flux Tick Data / Snapshot</text></g></g><g><path fill="none" stroke="#000000" paint-order="fill stroke markers" d=" M 858 682 L 858 541 L 802 541" stroke-miterlimit="10" stroke-dasharray=""/></g><g><path fill="none" stroke="#000000" paint-order="fill stroke markers" d=" M 812.1626748576241 536.790482243984 L 802 541 L 812.1626748576241 545.209517756016" stroke-miterlimit="10" stroke-dasharray=""/></g><g><path fill="none" stroke="#000000" paint-order="fill stroke markers" d=" M 632 698 L 706 698" stroke-miterlimit="10" stroke-dasharray=""/></g><g><path fill="none" stroke="#000000" paint-order="fill stroke markers" d=" M 695.8373251423759 702.209517756016 L 706 698 L 695.8373251423758 693.790482243984" stroke-miterlimit="10" stroke-dasharray=""/></g><g><path fill="none" stroke="#000000" paint-order="fill stroke markers" d=" M 632 762 L 706 762" stroke-miterlimit="10" stroke-dasharray=""/></g><g><path fill="none" stroke="#000000" paint-order="fill stroke markers" d=" M 695.8373251423759 766.209517756016 L 706 762 L 695.8373251423758 757.790482243984" stroke-miterlimit="10" stroke-dasharray=""/></g><g><path fill="#C0C0C0" stroke="none" paint-order="stroke fill markers" d=" M 723 753 L 888.5380859375 753 Q 898.5380859375 753 898.5380859375 763 L 898.5380859375 784 Q 898.5380859375 794 888.5380859375 794 L 723 794 Q 713 794 713 784 L 713 763 Q 713 753 723 753 Z" fill-opacity="0.2"/></g><g><path fill="#ffffff" stroke="none" paint-order="stroke fill markers" d=" M 716 746 L 881.5380859375 746 Q 891.5380859375 746 891.5380859375 756 L 891.5380859375 777 Q 891.5380859375 787 881.5380859375 787 L 716 787 Q 706 787 706 777 L 706 756 Q 706 746 716 746 Z"/></g><g><path fill="none" stroke="#000000" paint-order="fill stroke markers" d=" M 716 746 L 881.5380859375 746 Q 891.5380859375 746 891.5380859375 756 L 891.5380859375 777 Q 891.5380859375 787 881.5380859375 787 L 716 787 Q 706 787 706 777 L 706 756 Q 706 746 716 746 Z" stroke-miterlimit="10" stroke-dasharray=""/></g><g><g><path fill="none" stroke="none"/><text fill="#000000" stroke="none" font-family="Arial" font-size="13px" font-style="normal" font-weight="bold" text-decoration="undefined" x="837.26904296875" y="789.5" text-anchor="middle" dominant-baseline="central" transform="matrix(1 0 0 1 -38 -30)">Buffer I/O Lent (Persistance)</text></g></g><g><path fill="#C0C0C0" stroke="none" paint-order="stroke fill markers" d=" M 723 689 L 889.99169921875 689 Q 899.99169921875 689 899.99169921875 699 L 899.99169921875 720 Q 899.99169921875 730 889.99169921875 730 L 723 730 Q 713 730 713 720 L 713 699 Q 713 689 723 689 Z" fill-opacity="0.2"/></g><g><path fill="#ffffff" stroke="none" paint-order="stroke fill markers" d=" M 716 682 L 882.99169921875 682 Q 892.99169921875 682 892.99169921875 692 L 892.99169921875 713 Q 892.99169921875 723 882.99169921875 723 L 716 723 Q 706 723 706 713 L 706 692 Q 706 682 716 682 Z"/></g><g><path fill="none" stroke="#000000" paint-order="fill stroke markers" d=" M 716 682 L 882.99169921875 682 Q 892.99169921875 682 892.99169921875 692 L 892.99169921875 713 Q 892.99169921875 723 882.99169921875 723 L 716 723 Q 706 723 706 713 L 706 692 Q 706 682 716 682 Z" stroke-miterlimit="10" stroke-dasharray=""/></g><g><g><path fill="none" stroke="none"/><text fill="#000000" stroke="none" font-family="Arial" font-size="13px" font-style="normal" font-weight="bold" text-decoration="undefined" x="837.995849609375" y="725.5" text-anchor="middle" dominant-baseline="central" transform="matrix(1 0 0 1 -38 -30)">Cache I/O Rapide (Live Data)</text></g></g><g><path fill="#C0C0C0" stroke="none" paint-order="stroke fill markers" d=" M 636 681 L 636 681 Q 639 681 639 684 L 639 790 Q 639 793 636 793 L 636 793 Q 633 793 633 790 L 633 684 Q 633 681 636 681 Z" fill-opacity="0.2"/></g><g><path fill="#000000" stroke="none" paint-order="stroke fill markers" d=" M 629 674 L 629 674 Q 632 674 632 677 L 632 783 Q 632 786 629 786 L 629 786 Q 626 786 626 783 L 626 677 Q 626 674 629 674 Z"/></g><g><path fill="#C0C0C0" stroke="none" paint-order="stroke fill markers" d=" M 611 521 L 799 521 Q 809 521 809 531 L 809 565 Q 809 575 799 575 L 611 575 Q 601 575 601 565 L 601 531 Q 601 521 611 521 Z" fill-opacity="0.2"/></g><g><path fill="#ffffff" stroke="none" paint-order="stroke fill markers" d=" M 604 514 L 792 514 Q 802 514 802 524 L 802 558 Q 802 568 792 568 L 604 568 Q 594 568 594 558 L 594 524 Q 594 514 604 514 Z"/></g><g><path fill="none" stroke="#000000" paint-order="fill stroke markers" d=" M 604 514 L 792 514 Q 802 514 802 524 L 802 558 Q 802 568 792 568 L 604 568 Q 594 568 594 558 L 594 524 Q 594 514 604 514 Z" stroke-miterlimit="10" stroke-dasharray=""/></g><g><g><path fill="none" stroke="none"/><text fill="#000000" stroke="none" font-family="Arial" font-size="13px" font-style="normal" font-weight="bold" text-decoration="undefined" x="736.5" y="557.5" text-anchor="middle" dominant-baseline="central" transform="matrix(1 0 0 1 -38 -30)">Lancement de la Boucle de</text><text fill="#000000" stroke="none" font-family="Arial" font-size="13px" font-style="normal" font-weight="bold" text-decoration="undefined" x="736.5" y="570.5" text-anchor="middle" dominant-baseline="central" transform="matrix(1 0 0 1 -38 -30)">Surveillance et Décision</text></g></g><g><path fill="none" stroke="#000000" paint-order="fill stroke markers" d=" M 570 643 L 570 714" stroke-miterlimit="10" stroke-dasharray=""/></g><g><path fill="none" stroke="#000000" paint-order="fill stroke markers" d=" M 565.790482243984 703.8373251423759 L 570 714 L 574.209517756016 703.8373251423759" stroke-miterlimit="10" stroke-dasharray=""/></g><g><path fill="#C0C0C0" stroke="none" paint-order="stroke fill markers" d=" M 561 737 L 577 721 L 593 737 L 577 753 L 561 737" fill-opacity="0.2"/></g><g><path fill="#ffffff" stroke="none" paint-order="stroke fill markers" d=" M 554 730 L 570 714 L 586 730 L 570 746 L 554 730"/></g><g><path fill="none" stroke="#000000" paint-order="fill stroke markers" d=" M 554 730 L 570 714 L 586 730 L 570 746 L 554 730 L 554 730" stroke-miterlimit="10" stroke-dasharray=""/></g><g><path fill="none" stroke="#000000" paint-order="fill stroke markers" d=" M 586 730 L 626 730" stroke-miterlimit="10" stroke-dasharray=""/></g><g><path fill="none" stroke="#000000" paint-order="fill stroke markers" d=" M 615.8373251423759 734.209517756016 L 626 730 L 615.8373251423758 725.790482243984" stroke-miterlimit="10" stroke-dasharray=""/></g><g><rect fill="#ffffff" stroke="none" x="616" y="738" width="44.078125" height="13" transform="matrix(1 0 0 1 -38 -30)"/></g><g><g><path fill="none" stroke="none"/><text fill="#000000" stroke="none" font-family="Arial" font-size="13px" font-style="normal" font-weight="normal" text-decoration="undefined" x="638.0390625" y="744.5" text-anchor="middle" dominant-baseline="central" transform="matrix(1 0 0 1 -38 -30)"> [ELSE]</text></g></g><g><path fill="#C0C0C0" stroke="none" paint-order="stroke fill markers" d=" M 947 73 L 1087 73 Q 1097 73 1097 83 L 1097 117 Q 1097 127 1087 127 L 947 127 Q 937 127 937 117 L 937 83 Q 937 73 947 73 Z" fill-opacity="0.2"/></g><g><path fill="#ffffff" stroke="none" paint-order="stroke fill markers" d=" M 940 66 L 1080 66 Q 1090 66 1090 76 L 1090 110 Q 1090 120 1080 120 L 940 120 Q 930 120 930 110 L 930 76 Q 930 66 940 66 Z"/></g><g><path fill="none" stroke="#000000" paint-order="fill stroke markers" d=" M 940 66 L 1080 66 Q 1090 66 1090 76 L 1090 110 Q 1090 120 1080 120 L 940 120 Q 930 120 930 110 L 930 76 Q 930 66 940 66 Z" stroke-miterlimit="10" stroke-dasharray=""/></g><g><g><path fill="none" stroke="none"/><text fill="#000000" stroke="none" font-family="Arial" font-size="13px" font-style="normal" font-weight="bold" text-decoration="undefined" x="1048.5" y="109.5" text-anchor="middle" dominant-baseline="central" transform="matrix(1 0 0 1 -38 -30)">Signal de Fermeture du</text><text fill="#000000" stroke="none" font-family="Arial" font-size="13px" font-style="normal" font-weight="bold" text-decoration="undefined" x="1048.5" y="122.5" text-anchor="middle" dominant-baseline="central" transform="matrix(1 0 0 1 -38 -30)">Marché (Market Clock)</text></g></g><g><path fill="none" stroke="#000000" paint-order="fill stroke markers" d=" M 570 107 L 570 602" stroke-miterlimit="10" stroke-dasharray=""/></g><g><path fill="none" stroke="#000000" paint-order="fill stroke markers" d=" M 565.790482243984 591.8373251423759 L 570 602 L 574.209517756016 591.8373251423759" stroke-miterlimit="10" stroke-dasharray=""/></g><g><path fill="none" stroke="#000000" paint-order="fill stroke markers" d=" M 578 746 L 578 802 L 914 802 L 914 106 L 930 106" stroke-miterlimit="10" stroke-dasharray=""/></g><g><path fill="none" stroke="#000000" paint-order="fill stroke markers" d=" M 919.8373251423759 110.209517756016 L 930 106 L 919.8373251423758 101.790482243984" stroke-miterlimit="10" stroke-dasharray=""/></g><g><rect fill="#ffffff" stroke="none" x="656" y="848" width="221.70458984375" height="13" transform="matrix(1 0 0 1 -38 -30)"/></g><g><g><path fill="none" stroke="none"/><text fill="#000000" stroke="none" font-family="Arial" font-size="13px" font-style="normal" font-weight="normal" text-decoration="undefined" x="766.852294921875" y="854.5" text-anchor="middle" dominant-baseline="central" transform="matrix(1 0 0 1 -38 -30)"> [IF current_time ≥ market_close_time]</text></g></g><g><path fill="#C0C0C0" stroke="none" paint-order="stroke fill markers" d=" M 939 425 L 1103 425 Q 1113 425 1113 435 L 1113 469 Q 1113 479 1103 479 L 939 479 Q 929 479 929 469 L 929 435 Q 929 425 939 425 Z" fill-opacity="0.2"/></g><g><path fill="#ffffff" stroke="none" paint-order="stroke fill markers" d=" M 932 418 L 1096 418 Q 1106 418 1106 428 L 1106 462 Q 1106 472 1096 472 L 932 472 Q 922 472 922 462 L 922 428 Q 922 418 932 418 Z"/></g><g><path fill="none" stroke="#000000" paint-order="fill stroke markers" d=" M 932 418 L 1096 418 Q 1106 418 1106 428 L 1106 462 Q 1106 472 1096 472 L 932 472 Q 922 472 922 462 L 922 428 Q 922 418 932 418 Z" stroke-miterlimit="10" stroke-dasharray=""/></g><g><g><path fill="none" stroke="none"/><text fill="#000000" stroke="none" font-family="Arial" font-size="13px" font-style="normal" font-weight="bold" text-decoration="undefined" x="1052.5" y="461.5" text-anchor="middle" dominant-baseline="central" transform="matrix(1 0 0 1 -38 -30)">Arrêt des Opérations et</text><text fill="#000000" stroke="none" font-family="Arial" font-size="13px" font-style="normal" font-weight="bold" text-decoration="undefined" x="1052.5" y="474.5" text-anchor="middle" dominant-baseline="central" transform="matrix(1 0 0 1 -38 -30)">Traitement des Fills Tardifs</text></g></g><g><path fill="none" stroke="#000000" paint-order="fill stroke markers" d=" M 1002 120 L 1002 418" stroke-miterlimit="10" stroke-dasharray=""/></g><g><path fill="none" stroke="#000000" paint-order="fill stroke markers" d=" M 997.7904822439841 407.83732514237585 L 1002 418 L 1006.2095177560159 407.83732514237585" stroke-miterlimit="10" stroke-dasharray=""/></g><g><path fill="none" stroke="#000000" paint-order="fill stroke markers" d=" M 1002 472 L 1002 498" stroke-miterlimit="10" stroke-dasharray=""/></g><g><path fill="none" stroke="#000000" paint-order="fill stroke markers" d=" M 997.7904822439841 487.8373251423759 L 1002 498 L 1006.2095177560159 487.8373251423759" stroke-miterlimit="10" stroke-dasharray=""/></g><g><path fill="none" stroke="#000000" paint-order="fill stroke markers" d=" M 1002 565 L 1002 610" stroke-miterlimit="10" stroke-dasharray=""/></g><g><path fill="none" stroke="#000000" paint-order="fill stroke markers" d=" M 997.7904822439841 599.8373251423759 L 1002 610 L 1006.2095177560159 599.8373251423759" stroke-miterlimit="10" stroke-dasharray=""/></g><g><path fill="#C0C0C0" stroke="none" paint-order="stroke fill markers" d=" M 939 617 L 1095 617 Q 1105 617 1105 627 L 1105 661 Q 1105 671 1095 671 L 939 671 Q 929 671 929 661 L 929 627 Q 929 617 939 617 Z" fill-opacity="0.2"/></g><g><path fill="#ffffff" stroke="none" paint-order="stroke fill markers" d=" M 932 610 L 1088 610 Q 1098 610 1098 620 L 1098 654 Q 1098 664 1088 664 L 932 664 Q 922 664 922 654 L 922 620 Q 922 610 932 610 Z"/></g><g><path fill="none" stroke="#000000" paint-order="fill stroke markers" d=" M 932 610 L 1088 610 Q 1098 610 1098 620 L 1098 654 Q 1098 664 1088 664 L 932 664 Q 922 664 922 654 L 922 620 Q 922 610 932 610 Z" stroke-miterlimit="10" stroke-dasharray=""/></g><g><g><path fill="none" stroke="none"/><text fill="#000000" stroke="none" font-family="Arial" font-size="13px" font-style="normal" font-weight="bold" text-decoration="undefined" x="1048.5" y="653.5" text-anchor="middle" dominant-baseline="central" transform="matrix(1 0 0 1 -38 -30)">Mise à Jour des Données</text><text fill="#000000" stroke="none" font-family="Arial" font-size="13px" font-style="normal" font-weight="bold" text-decoration="undefined" x="1048.5" y="666.5" text-anchor="middle" dominant-baseline="central" transform="matrix(1 0 0 1 -38 -30)">Historiques (via API)</text></g></g><g><path fill="#C0C0C0" stroke="none" paint-order="stroke fill markers" d=" M 939 697 L 1095 697 Q 1105 697 1105 707 L 1105 741 Q 1105 751 1095 751 L 939 751 Q 929 751 929 741 L 929 707 Q 929 697 939 697 Z" fill-opacity="0.2"/></g><g><path fill="#ffffff" stroke="none" paint-order="stroke fill markers" d=" M 932 690 L 1088 690 Q 1098 690 1098 700 L 1098 734 Q 1098 744 1088 744 L 932 744 Q 922 744 922 734 L 922 700 Q 922 690 932 690 Z"/></g><g><path fill="none" stroke="#000000" paint-order="fill stroke markers" d=" M 932 690 L 1088 690 Q 1098 690 1098 700 L 1098 734 Q 1098 744 1088 744 L 932 744 Q 922 744 922 734 L 922 700 Q 922 690 932 690 Z" stroke-miterlimit="10" stroke-dasharray=""/></g><g><g><path fill="none" stroke="none"/><text fill="#000000" stroke="none" font-family="Arial" font-size="13px" font-style="normal" font-weight="bold" text-decoration="undefined" x="1048.5" y="733.5" text-anchor="middle" dominant-baseline="central" transform="matrix(1 0 0 1 -38 -30)">Génération et Persistance</text><text fill="#000000" stroke="none" font-family="Arial" font-size="13px" font-style="normal" font-weight="bold" text-decoration="undefined" x="1048.5" y="746.5" text-anchor="middle" dominant-baseline="central" transform="matrix(1 0 0 1 -38 -30)">du Rapport de Journée</text></g></g><g><path fill="none" stroke="#000000" paint-order="fill stroke markers" d=" M 1002 664 L 1002 690" stroke-miterlimit="10" stroke-dasharray=""/></g><g><path fill="none" stroke="#000000" paint-order="fill stroke markers" d=" M 997.7904822439841 679.8373251423759 L 1002 690 L 1006.2095177560159 679.8373251423759" stroke-miterlimit="10" stroke-dasharray=""/></g><g><path fill="none" stroke="#000000" paint-order="fill stroke markers" d=" M 1098 717 L 1146 717 L 1146 195" stroke-miterlimit="10" stroke-dasharray=""/></g><g><path fill="none" stroke="#000000" paint-order="fill stroke markers" d=" M 1150.2095177560159 205.16267485762415 L 1146 195 L 1141.7904822439841 205.16267485762415" stroke-miterlimit="10" stroke-dasharray=""/></g><g><path fill="#C0C0C0" stroke="none" paint-order="stroke fill markers" d=" M 1035 161 L 1197.63720703125 161 Q 1207.63720703125 161 1207.63720703125 171 L 1207.63720703125 192 Q 1207.63720703125 202 1197.63720703125 202 L 1035 202 Q 1025 202 1025 192 L 1025 171 Q 1025 161 1035 161 Z" fill-opacity="0.2"/></g><g><path fill="#ffffff" stroke="none" paint-order="stroke fill markers" d=" M 1028 154 L 1190.63720703125 154 Q 1200.63720703125 154 1200.63720703125 164 L 1200.63720703125 185 Q 1200.63720703125 195 1190.63720703125 195 L 1028 195 Q 1018 195 1018 185 L 1018 164 Q 1018 154 1028 154 Z"/></g><g><path fill="none" stroke="#000000" paint-order="fill stroke markers" d=" M 1028 154 L 1190.63720703125 154 Q 1200.63720703125 154 1200.63720703125 164 L 1200.63720703125 185 Q 1200.63720703125 195 1190.63720703125 195 L 1028 195 Q 1018 195 1018 185 L 1018 164 Q 1018 154 1028 154 Z" stroke-miterlimit="10" stroke-dasharray=""/></g><g><g><path fill="none" stroke="none"/><text fill="#000000" stroke="none" font-family="Arial" font-size="13px" font-style="normal" font-weight="bold" text-decoration="undefined" x="1147.818603515625" y="197.5" text-anchor="middle" dominant-baseline="central" transform="matrix(1 0 0 1 -38 -30)">Vérification du Jour Suivant</text></g></g><g><path fill="#C0C0C0" stroke="none" paint-order="stroke fill markers" d=" M 939 505 L 1095 505 Q 1105 505 1105 515 L 1105 562 Q 1105 572 1095 572 L 939 572 Q 929 572 929 562 L 929 515 Q 929 505 939 505 Z" fill-opacity="0.2"/></g><g><path fill="#ffffff" stroke="none" paint-order="stroke fill markers" d=" M 932 498 L 1088 498 Q 1098 498 1098 508 L 1098 555 Q 1098 565 1088 565 L 932 565 Q 922 565 922 555 L 922 508 Q 922 498 932 498 Z"/></g><g><path fill="none" stroke="#000000" paint-order="fill stroke markers" d=" M 932 498 L 1088 498 Q 1098 498 1098 508 L 1098 555 Q 1098 565 1088 565 L 932 565 Q 922 565 922 555 L 922 508 Q 922 498 932 498 Z" stroke-miterlimit="10" stroke-dasharray=""/></g><g><g><path fill="none" stroke="none"/><text fill="#000000" stroke="none" font-family="Arial" font-size="13px" font-style="normal" font-weight="bold" text-decoration="undefined" x="1048.5" y="548" text-anchor="middle" dominant-baseline="central" transform="matrix(1 0 0 1 -38 -30)">Réconciliation Finale</text><text fill="#000000" stroke="none" font-family="Arial" font-size="13px" font-style="normal" font-weight="bold" text-decoration="undefined" x="1048.5" y="561" text-anchor="middle" dominant-baseline="central" transform="matrix(1 0 0 1 -38 -30)">(Portefeuille Live vs. IBKR)</text></g></g><g><path fill="#C0C0C0" stroke="none" paint-order="stroke fill markers" d=" M 1169 337 L 1185 321 L 1201 337 L 1185 353 L 1169 337" fill-opacity="0.2"/></g><g><path fill="#ffffff" stroke="none" paint-order="stroke fill markers" d=" M 1162 330 L 1178 314 L 1194 330 L 1178 346 L 1162 330"/></g><g><path fill="none" stroke="#000000" paint-order="fill stroke markers" d=" M 1162 330 L 1178 314 L 1194 330 L 1178 346 L 1162 330 L 1162 330" stroke-miterlimit="10" stroke-dasharray=""/></g><g><path fill="none" stroke="#000000" paint-order="fill stroke markers" d=" M 1178 195 L 1178 314" stroke-miterlimit="10" stroke-dasharray=""/></g><g><path fill="none" stroke="#000000" paint-order="fill stroke markers" d=" M 1173.7904822439841 303.83732514237585 L 1178 314 L 1182.2095177560159 303.83732514237585" stroke-miterlimit="10" stroke-dasharray=""/></g><g><path fill="#C0C0C0" stroke="none" paint-order="stroke fill markers" d=" M 1243 81 L 1343 81 Q 1353 81 1353 91 L 1353 151 Q 1353 161 1343 161 L 1243 161 Q 1233 161 1233 151 L 1233 91 Q 1233 81 1243 81 Z" fill-opacity="0.2"/></g><g><path fill="#ffffff" stroke="none" paint-order="stroke fill markers" d=" M 1236 74 L 1336 74 Q 1346 74 1346 84 L 1346 144 Q 1346 154 1336 154 L 1236 154 Q 1226 154 1226 144 L 1226 84 Q 1226 74 1236 74 Z"/></g><g><path fill="none" stroke="#000000" paint-order="fill stroke markers" d=" M 1236 74 L 1336 74 Q 1346 74 1346 84 L 1346 144 Q 1346 154 1336 154 L 1236 154 Q 1226 154 1226 144 L 1226 84 Q 1226 74 1236 74 Z" stroke-miterlimit="10" stroke-dasharray=""/></g><g><g><path fill="none" stroke="none"/><text fill="#000000" stroke="none" font-family="Arial" font-size="13px" font-style="normal" font-weight="bold" text-decoration="undefined" x="1324.5" y="117.5" text-anchor="middle" dominant-baseline="central" transform="matrix(1 0 0 1 -38 -30)">Déclenchement :</text><text fill="#000000" stroke="none" font-family="Arial" font-size="13px" font-style="normal" font-weight="bold" text-decoration="undefined" x="1324.5" y="130.5" text-anchor="middle" dominant-baseline="central" transform="matrix(1 0 0 1 -38 -30)">Mise en veille </text><text fill="#000000" stroke="none" font-family="Arial" font-size="13px" font-style="normal" font-weight="bold" text-decoration="undefined" x="1324.5" y="143.5" text-anchor="middle" dominant-baseline="central" transform="matrix(1 0 0 1 -38 -30)">(Market Clock</text><text fill="#000000" stroke="none" font-family="Arial" font-size="13px" font-style="normal" font-weight="bold" text-decoration="undefined" x="1324.5" y="156.5" text-anchor="middle" dominant-baseline="central" transform="matrix(1 0 0 1 -38 -30)">Trigger)</text></g></g><g><path fill="none" stroke="#000000" paint-order="fill stroke markers" d=" M 1194 314 L 1306 314 L 1306 154" stroke-miterlimit="10" stroke-dasharray=""/></g><g><path fill="none" stroke="#000000" paint-order="fill stroke markers" d=" M 1310.2095177560159 164.16267485762415 L 1306 154 L 1301.7904822439841 164.16267485762415" stroke-miterlimit="10" stroke-dasharray=""/></g><g><rect fill="#ffffff" stroke="none" x="1264" y="352" width="44.078125" height="13" transform="matrix(1 0 0 1 -38 -30)"/></g><g><g><path fill="none" stroke="none"/><text fill="#000000" stroke="none" font-family="Arial" font-size="13px" font-style="normal" font-weight="normal" text-decoration="undefined" x="1286.0390625" y="358.5" text-anchor="middle" dominant-baseline="central" transform="matrix(1 0 0 1 -38 -30)"> [ELSE]</text></g></g><g><path fill="#C0C0C0" stroke="none" paint-order="stroke fill markers" d=" M 939 777 L 1113.1962890625 777 Q 1123.1962890625 777 1123.1962890625 787 L 1123.1962890625 808 Q 1123.1962890625 818 1113.1962890625 818 L 939 818 Q 929 818 929 808 L 929 787 Q 929 777 939 777 Z" fill-opacity="0.2"/></g><g><path fill="#ffffff" stroke="none" paint-order="stroke fill markers" d=" M 932 770 L 1106.1962890625 770 Q 1116.1962890625 770 1116.1962890625 780 L 1116.1962890625 801 Q 1116.1962890625 811 1106.1962890625 811 L 932 811 Q 922 811 922 801 L 922 780 Q 922 770 932 770 Z"/></g><g><path fill="none" stroke="#000000" paint-order="fill stroke markers" d=" M 932 770 L 1106.1962890625 770 Q 1116.1962890625 770 1116.1962890625 780 L 1116.1962890625 801 Q 1116.1962890625 811 1106.1962890625 811 L 932 811 Q 922 811 922 801 L 922 780 Q 922 770 932 770 Z" stroke-miterlimit="10" stroke-dasharray=""/></g><g><g><path fill="none" stroke="none"/><text fill="#000000" stroke="none" font-family="Arial" font-size="13px" font-style="normal" font-weight="bold" text-decoration="undefined" x="1057.59814453125" y="813.5" text-anchor="middle" dominant-baseline="central" transform="matrix(1 0 0 1 -38 -30)">Exécution du Strategy Engine</text></g></g><g><path fill="none" stroke="#000000" paint-order="fill stroke markers" d=" M 1178 346 L 1178 786 L 1116 786" stroke-miterlimit="10" stroke-dasharray=""/></g><g><path fill="none" stroke="#000000" paint-order="fill stroke markers" d=" M 1126.162674857624 781.790482243984 L 1116 786 L 1126.162674857624 790.209517756016" stroke-miterlimit="10" stroke-dasharray=""/></g><g><rect fill="#ffffff" stroke="none" x="960" y="848" width="214" height="13" transform="matrix(1 0 0 1 -38 -30)"/></g><g><g><path fill="none" stroke="none"/><text fill="#000000" stroke="none" font-family="Arial" font-size="13px" font-style="normal" font-weight="normal" text-decoration="undefined" x="1067" y="854.5" text-anchor="middle" dominant-baseline="central" transform="matrix(1 0 0 1 -38 -30)"> [Prochain Jour = Rebalancement ?]</text></g></g><g><path fill="none" stroke="#000000" paint-order="fill stroke markers" d=" M 1116 802 L 1286 802 L 1286 154" stroke-miterlimit="10" stroke-dasharray=""/></g><g><path fill="none" stroke="#000000" paint-order="fill stroke markers" d=" M 1290.2095177560159 164.16267485762415 L 1286 154 L 1281.7904822439841 164.16267485762415" stroke-miterlimit="10" stroke-dasharray=""/></g><g><path fill="#C0C0C0" stroke="none" paint-order="stroke fill markers" d=" M 388 377 L 502 377 Q 505 377 505 380 L 505 380 Q 505 383 502 383 L 388 383 Q 385 383 385 380 L 385 380 Q 385 377 388 377 Z" fill-opacity="0.2"/></g><g><path fill="#000000" stroke="none" paint-order="stroke fill markers" d=" M 381 370 L 495 370 Q 498 370 498 373 L 498 373 Q 498 376 495 376 L 381 376 Q 378 376 378 373 L 378 373 Q 378 370 381 370 Z"/></g><g><path fill="#C0C0C0" stroke="none" paint-order="stroke fill markers" d=" M 417 325 L 437 305 L 457 325 L 437 345 L 417 325" fill-opacity="0.2"/></g><g><path fill="#ffffff" stroke="none" paint-order="stroke fill markers" d=" M 410 318 L 430 298 L 450 318 L 430 338 L 410 318"/></g><g><path fill="none" stroke="#000000" paint-order="fill stroke markers" d=" M 410 318 L 430 298 L 450 318 L 430 338 L 410 318 L 410 318" stroke-miterlimit="10" stroke-dasharray=""/></g><g><path fill="#C0C0C0" stroke="none" paint-order="stroke fill markers" d=" M 563 73 L 830.595703125 73 Q 840.595703125 73 840.595703125 83 L 840.595703125 104 Q 840.595703125 114 830.595703125 114 L 563 114 Q 553 114 553 104 L 553 83 Q 553 73 563 73 Z" fill-opacity="0.2"/></g><g><path fill="#ffffff" stroke="none" paint-order="stroke fill markers" d=" M 556 66 L 823.595703125 66 Q 833.595703125 66 833.595703125 76 L 833.595703125 97 Q 833.595703125 107 823.595703125 107 L 556 107 Q 546 107 546 97 L 546 76 Q 546 66 556 66 Z"/></g><g><path fill="none" stroke="#000000" paint-order="fill stroke markers" d=" M 556 66 L 823.595703125 66 Q 833.595703125 66 833.595703125 76 L 833.595703125 97 Q 833.595703125 107 823.595703125 107 L 556 107 Q 546 107 546 97 L 546 76 Q 546 66 556 66 Z" stroke-miterlimit="10" stroke-dasharray=""/></g><g><g><path fill="none" stroke="none"/><text fill="#000000" stroke="none" font-family="Arial" font-size="13px" font-style="normal" font-weight="bold" text-decoration="undefined" x="728.2978515625" y="109.5" text-anchor="middle" dominant-baseline="central" transform="matrix(1 0 0 1 -38 -30)">Signal d'Ouverture du Marché (Market Clock)</text></g></g></g></svg>