<svg version="1.1" xmlns="http://www.w3.org/2000/svg" xmlns:xlink="http://www.w3.org/1999/xlink" width="1396" height="876"><defs/><g><g><rect fill="#ffffff" stroke="none" x="48" y="40" width="1376" height="856" transform="matrix(1 0 0 1 -38 -30)"/></g><g><path fill="none" stroke="#000000" paint-order="fill stroke markers" d=" M 10 10 L 1386 10 L 1386 866 L 10 866 L 10 10 Z Z" stroke-miterlimit="10" stroke-dasharray=""/></g><g><rect fill="#ffffff" stroke="none" x="72" y="88" width="21" height="344" transform="matrix(1 0 0 1 -38 -30)"/></g><g><path fill="none" stroke="#000000" paint-order="fill stroke markers" d=" M 34 58 L 55 58 L 55 402 L 34 402 L 34 58 Z Z" stroke-miterlimit="10" stroke-width="2" stroke-dasharray=""/></g><g><path fill="none" stroke="#000000" paint-order="fill stroke markers" d=" M 1362 58 L 34 58 L 34 402 L 1362 402" stroke-miterlimit="10" stroke-width="2" stroke-dasharray=""/></g><g><g><path fill="none" stroke="none"/><text fill="#000000" stroke="none" font-family="Arial" font-size="13px" font-style="normal" font-weight="normal" text-decoration="undefined" x="0" y="0" text-anchor="middle" dominant-baseline="text-before-edge" transform="matrix(6.123233995736766e-17 -1 1 6.123233995736766e-17 38 230)">System Core</text></g></g><g><rect fill="#ffffff" stroke="none" x="944" y="64" width="312" height="21" transform="matrix(1 0 0 1 -38 -30)"/></g><g><path fill="none" stroke="#000000" paint-order="fill stroke markers" d=" M 906 34 L 1218 34 L 1218 55 L 906 55 L 906 34 Z Z" stroke-miterlimit="10" stroke-width="2" stroke-dasharray=""/></g><g><path fill="none" stroke="#000000" paint-order="fill stroke markers" d=" M 906 842 L 906 34 L 1218 34 L 1218 842" stroke-miterlimit="10" stroke-width="2" stroke-dasharray=""/></g><g><g><path fill="none" stroke="none"/><text fill="#000000" stroke="none" font-family="Arial" font-size="13px" font-style="normal" font-weight="normal" text-decoration="undefined" x="1100" y="68" text-anchor="middle" dominant-baseline="text-before-edge" transform="matrix(1 0 0 1 -38 -30)">Post-Market</text></g></g><g><rect fill="#ffffff" stroke="none" x="560" y="64" width="384" height="21" transform="matrix(1 0 0 1 -38 -30)"/></g><g><path fill="none" stroke="#000000" paint-order="fill stroke markers" d=" M 522 34 L 906 34 L 906 55 L 522 55 L 522 34 Z Z" stroke-miterlimit="10" stroke-width="2" stroke-dasharray=""/></g><g><path fill="none" stroke="#000000" paint-order="fill stroke markers" d=" M 522 842 L 522 34 L 906 34 L 906 842" stroke-miterlimit="10" stroke-width="2" stroke-dasharray=""/></g><g><g><path fill="none" stroke="none"/><text fill="#000000" stroke="none" font-family="Arial" font-size="13px" font-style="normal" font-weight="normal" text-decoration="undefined" x="752" y="68" text-anchor="middle" dominant-baseline="text-before-edge" transform="matrix(1 0 0 1 -38 -30)">In-Market</text></g></g><g><rect fill="#ffffff" stroke="none" x="96" y="64" width="464" height="21" transform="matrix(1 0 0 1 -38 -30)"/></g><g><path fill="none" stroke="#000000" paint-order="fill stroke markers" d=" M 58 34 L 522 34 L 522 55 L 58 55 L 58 34 Z Z" stroke-miterlimit="10" stroke-width="2" stroke-dasharray=""/></g><g><path fill="none" stroke="#000000" paint-order="fill stroke markers" d=" M 58 842 L 58 34 L 522 34 L 522 842" stroke-miterlimit="10" stroke-width="2" stroke-dasharray=""/></g><g><g><path fill="none" stroke="none"/><text fill="#000000" stroke="none" font-family="Arial" font-size="13px" font-style="normal" font-weight="normal" text-decoration="undefined" x="328" y="68" text-anchor="middle" dominant-baseline="text-before-edge" transform="matrix(1 0 0 1 -38 -30)">Pre-Market</text></g></g><g><rect fill="#ffffff" stroke="none" x="1256" y="64" width="144" height="21" transform="matrix(1 0 0 1 -38 -30)"/></g><g><path fill="none" stroke="#000000" paint-order="fill stroke markers" d=" M 1218 34 L 1362 34 L 1362 55 L 1218 55 L 1218 34 Z Z" stroke-miterlimit="10" stroke-width="2" stroke-dasharray=""/></g><g><path fill="none" stroke="#000000" paint-order="fill stroke markers" d=" M 1218 842 L 1218 34 L 1362 34 L 1362 842" stroke-miterlimit="10" stroke-width="2" stroke-dasharray=""/></g><g><g><path fill="none" stroke="none"/><text fill="#000000" stroke="none" font-family="Arial" font-size="13px" font-style="normal" font-weight="normal" text-decoration="undefined" x="1328" y="68" text-anchor="middle" dominant-baseline="text-before-edge" transform="matrix(1 0 0 1 -38 -30)">Off-Cycle</text></g></g><g><rect fill="#ffffff" stroke="none" x="72" y="432" width="21" height="176" transform="matrix(1 0 0 1 -38 -30)"/></g><g><path fill="none" stroke="#000000" paint-order="fill stroke markers" d=" M 34 402 L 55 402 L 55 578 L 34 578 L 34 402 Z Z" stroke-miterlimit="10" stroke-width="2" stroke-dasharray=""/></g><g><path fill="none" stroke="#000000" paint-order="fill stroke markers" d=" M 1362 402 L 34 402 L 34 578 L 1362 578" stroke-miterlimit="10" stroke-width="2" stroke-dasharray=""/></g><g><g><path fill="none" stroke="none"/><text fill="#000000" stroke="none" font-family="Arial" font-size="13px" font-style="normal" font-weight="normal" text-decoration="undefined" x="0" y="0" text-anchor="middle" dominant-baseline="text-before-edge" transform="matrix(6.123233995736766e-17 -1 1 6.123233995736766e-17 38 490)">Trading / Risk Core</text></g></g><g><rect fill="#ffffff" stroke="none" x="72" y="608" width="21" height="264" transform="matrix(1 0 0 1 -38 -30)"/></g><g><path fill="none" stroke="#000000" paint-order="fill stroke markers" d=" M 34 578 L 55 578 L 55 842 L 34 842 L 34 578 Z Z" stroke-miterlimit="10" stroke-width="2" stroke-dasharray=""/></g><g><path fill="none" stroke="#000000" paint-order="fill stroke markers" d=" M 1362 578 L 34 578 L 34 842 L 1362 842" stroke-miterlimit="10" stroke-width="2" stroke-dasharray=""/></g><g><g><path fill="none" stroke="none"/><text fill="#000000" stroke="none" font-family="Arial" font-size="13px" font-style="normal" font-weight="normal" text-decoration="undefined" x="0" y="0" text-anchor="middle" dominant-baseline="text-before-edge" transform="matrix(6.123233995736766e-17 -1 1 6.123233995736766e-17 38 710)">Data Core</text></g></g><g><path fill="#ffffff" stroke="none" paint-order="stroke fill markers" d=" M 84 74 L 360.8125 74 Q 370.8125 74 370.8125 84 L 370.8125 105 Q 370.8125 115 360.8125 115 L 84 115 Q 74 115 74 105 L 74 84 Q 74 74 84 74 Z"/></g><g><path fill="none" stroke="#000000" paint-order="fill stroke markers" d=" M 84 74 L 360.8125 74 Q 370.8125 74 370.8125 84 L 370.8125 105 Q 370.8125 115 360.8125 115 L 84 115 Q 74 115 74 105 L 74 84 Q 74 74 84 74 Z" stroke-miterlimit="10" stroke-dasharray=""/></g><g><g><path fill="none" stroke="none"/><text fill="#000000" stroke="none" font-family="Arial" font-size="13px" font-style="normal" font-weight="bold" text-decoration="undefined" x="260.90625" y="117.5" text-anchor="middle" dominant-baseline="central" transform="matrix(1 0 0 1 -38 -30)">Déclenchement : Réveil (Market Clock)</text></g></g><g><path fill="#ffffff" stroke="none" paint-order="stroke fill markers" d=" M 84 266 L 304 266 Q 314 266 314 276 L 314 310 Q 314 320 304 320 L 84 320 Q 74 320 74 310 L 74 276 Q 74 266 84 266 Z"/></g><g><path fill="none" stroke="#000000" paint-order="fill stroke markers" d=" M 84 266 L 304 266 Q 314 266 314 276 L 314 310 Q 314 320 304 320 L 84 320 Q 74 320 74 310 L 74 276 Q 74 266 84 266 Z" stroke-miterlimit="10" stroke-dasharray=""/></g><g><g><path fill="none" stroke="none"/><text fill="#000000" stroke="none" font-family="Arial" font-size="13px" font-style="normal" font-weight="bold" text-decoration="undefined" x="232.5" y="309.5" text-anchor="middle" dominant-baseline="central" transform="matrix(1 0 0 1 -38 -30)">Vérification du status de la journée</text><text fill="#000000" stroke="none" font-family="Arial" font-size="13px" font-style="normal" font-weight="bold" text-decoration="undefined" x="232.5" y="322.5" text-anchor="middle" dominant-baseline="central" transform="matrix(1 0 0 1 -38 -30)">(System Manager)</text></g></g><g><path fill="#ffffff" stroke="none" paint-order="stroke fill markers" d=" M 84 202 L 443.09716796875 202 Q 453.09716796875 202 453.09716796875 212 L 453.09716796875 233 Q 453.09716796875 243 443.09716796875 243 L 84 243 Q 74 243 74 233 L 74 212 Q 74 202 84 202 Z"/></g><g><path fill="none" stroke="#000000" paint-order="fill stroke markers" d=" M 84 202 L 443.09716796875 202 Q 453.09716796875 202 453.09716796875 212 L 453.09716796875 233 Q 453.09716796875 243 443.09716796875 243 L 84 243 Q 74 243 74 233 L 74 212 Q 74 202 84 202 Z" stroke-miterlimit="10" stroke-dasharray=""/></g><g><g><path fill="none" stroke="none"/><text fill="#000000" stroke="none" font-family="Arial" font-size="13px" font-style="normal" font-weight="bold" text-decoration="undefined" x="302.048583984375" y="245.5" text-anchor="middle" dominant-baseline="central" transform="matrix(1 0 0 1 -38 -30)">Vérification du status des connexions (DB, TWS, IBKR API)</text></g></g><g><path fill="none" stroke="#000000" paint-order="fill stroke markers" d=" M 154 115 L 154 138" stroke-miterlimit="10" stroke-dasharray=""/></g><g><path fill="none" stroke="#000000" paint-order="fill stroke markers" d=" M 149.790482243984 127.83732514237585 L 154 138 L 158.209517756016 127.83732514237585" stroke-miterlimit="10" stroke-dasharray=""/></g><g><path fill="none" stroke="#000000" paint-order="fill stroke markers" d=" M 154 179 L 154 202" stroke-miterlimit="10" stroke-dasharray=""/></g><g><path fill="none" stroke="#000000" paint-order="fill stroke markers" d=" M 149.790482243984 191.83732514237585 L 154 202 L 158.209517756016 191.83732514237585" stroke-miterlimit="10" stroke-dasharray=""/></g><g><path fill="none" stroke="#000000" paint-order="fill stroke markers" d=" M 154 243 L 154 266" stroke-miterlimit="10" stroke-dasharray=""/></g><g><path fill="none" stroke="#000000" paint-order="fill stroke markers" d=" M 149.790482243984 255.83732514237585 L 154 266 L 158.209517756016 255.83732514237585" stroke-miterlimit="10" stroke-dasharray=""/></g><g><path fill="#000000" stroke="none" paint-order="stroke fill markers" d=" M 77 346 L 231 346 Q 234 346 234 349 L 234 349 Q 234 352 231 352 L 77 352 Q 74 352 74 349 L 74 349 Q 74 346 77 346 Z"/></g><g><path fill="none" stroke="#000000" paint-order="fill stroke markers" d=" M 154 320 L 154 346" stroke-miterlimit="10" stroke-dasharray=""/></g><g><path fill="none" stroke="#000000" paint-order="fill stroke markers" d=" M 149.790482243984 335.83732514237585 L 154 346 L 158.209517756016 335.83732514237585" stroke-miterlimit="10" stroke-dasharray=""/></g><g><path fill="#ffffff" stroke="none" paint-order="stroke fill markers" d=" M 140 418 L 374.9052734375 418 Q 384.9052734375 418 384.9052734375 428 L 384.9052734375 449 Q 384.9052734375 459 374.9052734375 459 L 140 459 Q 130 459 130 449 L 130 428 Q 130 418 140 418 Z"/></g><g><path fill="none" stroke="#000000" paint-order="fill stroke markers" d=" M 140 418 L 374.9052734375 418 Q 384.9052734375 418 384.9052734375 428 L 384.9052734375 449 Q 384.9052734375 459 374.9052734375 459 L 140 459 Q 130 459 130 449 L 130 428 Q 130 418 140 418 Z" stroke-miterlimit="10" stroke-dasharray=""/></g><g><g><path fill="none" stroke="none"/><text fill="#000000" stroke="none" font-family="Arial" font-size="13px" font-style="normal" font-weight="bold" text-decoration="undefined" x="295.95263671875" y="461.5" text-anchor="middle" dominant-baseline="central" transform="matrix(1 0 0 1 -38 -30)">Mise en mémoire des Ordres/Stop-Loss</text></g></g><g><path fill="#ffffff" stroke="none" paint-order="stroke fill markers" d=" M 84 594 L 329.7216796875 594 Q 339.7216796875 594 339.7216796875 604 L 339.7216796875 625 Q 339.7216796875 635 329.7216796875 635 L 84 635 Q 74 635 74 625 L 74 604 Q 74 594 84 594 Z"/></g><g><path fill="none" stroke="#000000" paint-order="fill stroke markers" d=" M 84 594 L 329.7216796875 594 Q 339.7216796875 594 339.7216796875 604 L 339.7216796875 625 Q 339.7216796875 635 329.7216796875 635 L 84 635 Q 74 635 74 625 L 74 604 Q 74 594 84 594 Z" stroke-miterlimit="10" stroke-dasharray=""/></g><g><g><path fill="none" stroke="none"/><text fill="#000000" stroke="none" font-family="Arial" font-size="13px" font-style="normal" font-weight="bold" text-decoration="undefined" x="245.36083984375" y="637.5" text-anchor="middle" dominant-baseline="central" transform="matrix(1 0 0 1 -38 -30)">Démarrage de l'IBKR Gateway</text></g></g><g><path fill="none" stroke="#000000" paint-order="fill stroke markers" d=" M 201 352 L 201 418" stroke-miterlimit="10" stroke-dasharray=""/></g><g><path fill="none" stroke="#000000" paint-order="fill stroke markers" d=" M 196.790482243984 407.83732514237585 L 201 418 L 205.209517756016 407.83732514237585" stroke-miterlimit="10" stroke-dasharray=""/></g><g><path fill="none" stroke="#000000" paint-order="fill stroke markers" d=" M 106 352 L 106 594" stroke-miterlimit="10" stroke-dasharray=""/></g><g><path fill="none" stroke="#000000" paint-order="fill stroke markers" d=" M 101.790482243984 583.8373251423759 L 106 594 L 110.209517756016 583.8373251423759" stroke-miterlimit="10" stroke-dasharray=""/></g><g><path fill="#ffffff" stroke="none" paint-order="stroke fill markers" d=" M 84 138 L 376 138 Q 386 138 386 148 L 386 169 Q 386 179 376 179 L 84 179 Q 74 179 74 169 L 74 148 Q 74 138 84 138 Z"/></g><g><path fill="none" stroke="#000000" paint-order="fill stroke markers" d=" M 84 138 L 376 138 Q 386 138 386 148 L 386 169 Q 386 179 376 179 L 84 179 Q 74 179 74 169 L 74 148 Q 74 138 84 138 Z" stroke-miterlimit="10" stroke-dasharray=""/></g><g><g><path fill="none" stroke="none"/><text fill="#000000" stroke="none" font-family="Arial" font-size="13px" font-style="normal" font-weight="bold" text-decoration="undefined" x="268.5" y="181.5" text-anchor="middle" dominant-baseline="central" transform="matrix(1 0 0 1 -38 -30)">Instanciation des sessions (Session Manager)</text></g></g><g><path fill="none" stroke="#000000" paint-order="fill stroke markers" d=" M 385 438 L 406 438 L 406 376" stroke-miterlimit="10" stroke-dasharray=""/></g><g><path fill="none" stroke="#000000" paint-order="fill stroke markers" d=" M 410.209517756016 386.16267485762415 L 406 376 L 401.790482243984 386.16267485762415" stroke-miterlimit="10" stroke-dasharray=""/></g><g><path fill="none" stroke="#000000" paint-order="fill stroke markers" d=" M 340 614 L 466 614 L 466 376" stroke-miterlimit="10" stroke-dasharray=""/></g><g><path fill="none" stroke="#000000" paint-order="fill stroke markers" d=" M 470.209517756016 386.16267485762415 L 466 376 L 461.790482243984 386.16267485762415" stroke-miterlimit="10" stroke-dasharray=""/></g><g><path fill="none" stroke="#000000" paint-order="fill stroke markers" d=" M 434 370 L 434 338" stroke-miterlimit="10" stroke-dasharray=""/></g><g><path fill="none" stroke="#000000" paint-order="fill stroke markers" d=" M 438.209517756016 348.16267485762415 L 434 338 L 429.790482243984 348.16267485762415" stroke-miterlimit="10" stroke-dasharray=""/></g><g><path fill="none" stroke="#000000" paint-order="fill stroke markers" d=" M 426 298 L 426 278 L 370 278 L 370 322 L 410 322" stroke-miterlimit="10" stroke-dasharray=""/></g><g><path fill="none" stroke="#000000" paint-order="fill stroke markers" d=" M 399.83732514237585 326.209517756016 L 410 322 L 399.83732514237585 317.790482243984" stroke-miterlimit="10" stroke-dasharray=""/></g><g><rect fill="#ffffff" stroke="none" x="416" y="288" width="44.078125" height="13" transform="matrix(1 0 0 1 -38 -30)"/></g><g><g><path fill="none" stroke="none"/><text fill="#000000" stroke="none" font-family="Arial" font-size="13px" font-style="normal" font-weight="normal" text-decoration="undefined" x="438.0390625" y="294.5" text-anchor="middle" dominant-baseline="central" transform="matrix(1 0 0 1 -38 -30)"> [ELSE]</text></g></g><g><path fill="none" stroke="#000000" paint-order="fill stroke markers" d=" M 450 326 L 498 326 L 498 86 L 546 86" stroke-miterlimit="10" stroke-dasharray=""/></g><g><path fill="none" stroke="#000000" paint-order="fill stroke markers" d=" M 535.8373251423759 90.20951775601598 L 546 86 L 535.8373251423758 81.79048224398402" stroke-miterlimit="10" stroke-dasharray=""/></g><g><rect fill="#ffffff" stroke="none" x="623" y="151" width="220.2763671875" height="13" transform="matrix(1 0 0 1 -38 -30)"/></g><g><g><path fill="none" stroke="none"/><text fill="#000000" stroke="none" font-family="Arial" font-size="13px" font-style="normal" font-weight="normal" text-decoration="undefined" x="733.13818359375" y="157.5" text-anchor="middle" dominant-baseline="central" transform="matrix(1 0 0 1 -38 -30)"> [IF current_time ≥ market_open_time]</text></g></g><g><path fill="#ffffff" stroke="none" paint-order="stroke fill markers" d=" M 548 602 L 800 602 Q 810 602 810 612 L 810 646 Q 810 656 800 656 L 548 656 Q 538 656 538 646 L 538 612 Q 538 602 548 602 Z"/></g><g><path fill="none" stroke="#000000" paint-order="fill stroke markers" d=" M 548 602 L 800 602 Q 810 602 810 612 L 810 646 Q 810 656 800 656 L 548 656 Q 538 656 538 646 L 538 612 Q 538 602 548 602 Z" stroke-miterlimit="10" stroke-dasharray=""/></g><g><g><path fill="none" stroke="none"/><text fill="#000000" stroke="none" font-family="Arial" font-size="13px" font-style="normal" font-weight="bold" text-decoration="undefined" x="712.5" y="645.5" text-anchor="middle" dominant-baseline="central" transform="matrix(1 0 0 1 -38 -30)">Traitement du flux Tick Data / Snapshot</text><text fill="#000000" stroke="none" font-family="Arial" font-size="13px" font-style="normal" font-weight="bold" text-decoration="undefined" x="712.5" y="658.5" text-anchor="middle" dominant-baseline="central" transform="matrix(1 0 0 1 -38 -30)">(Live Data Hub)</text></g></g><g><path fill="none" stroke="#000000" paint-order="fill stroke markers" d=" M 858 682 L 858 522 L 834 522" stroke-miterlimit="10" stroke-dasharray=""/></g><g><path fill="none" stroke="#000000" paint-order="fill stroke markers" d=" M 844.1626748576241 517.790482243984 L 834 522 L 844.1626748576241 526.209517756016" stroke-miterlimit="10" stroke-dasharray=""/></g><g><path fill="none" stroke="#000000" paint-order="fill stroke markers" d=" M 632 698 L 690 698" stroke-miterlimit="10" stroke-dasharray=""/></g><g><path fill="none" stroke="#000000" paint-order="fill stroke markers" d=" M 679.8373251423759 702.209517756016 L 690 698 L 679.8373251423758 693.790482243984" stroke-miterlimit="10" stroke-dasharray=""/></g><g><path fill="none" stroke="#000000" paint-order="fill stroke markers" d=" M 632 762 L 690 762" stroke-miterlimit="10" stroke-dasharray=""/></g><g><path fill="none" stroke="#000000" paint-order="fill stroke markers" d=" M 679.8373251423759 766.209517756016 L 690 762 L 679.8373251423758 757.790482243984" stroke-miterlimit="10" stroke-dasharray=""/></g><g><path fill="#ffffff" stroke="none" paint-order="stroke fill markers" d=" M 700 746 L 865.5380859375 746 Q 875.5380859375 746 875.5380859375 756 L 875.5380859375 777 Q 875.5380859375 787 865.5380859375 787 L 700 787 Q 690 787 690 777 L 690 756 Q 690 746 700 746 Z"/></g><g><path fill="none" stroke="#000000" paint-order="fill stroke markers" d=" M 700 746 L 865.5380859375 746 Q 875.5380859375 746 875.5380859375 756 L 875.5380859375 777 Q 875.5380859375 787 865.5380859375 787 L 700 787 Q 690 787 690 777 L 690 756 Q 690 746 700 746 Z" stroke-miterlimit="10" stroke-dasharray=""/></g><g><g><path fill="none" stroke="none"/><text fill="#000000" stroke="none" font-family="Arial" font-size="13px" font-style="normal" font-weight="bold" text-decoration="undefined" x="821.26904296875" y="789.5" text-anchor="middle" dominant-baseline="central" transform="matrix(1 0 0 1 -38 -30)">Buffer I/O Lent (Persistance)</text></g></g><g><path fill="#ffffff" stroke="none" paint-order="stroke fill markers" d=" M 700 682 L 866.99169921875 682 Q 876.99169921875 682 876.99169921875 692 L 876.99169921875 713 Q 876.99169921875 723 866.99169921875 723 L 700 723 Q 690 723 690 713 L 690 692 Q 690 682 700 682 Z"/></g><g><path fill="none" stroke="#000000" paint-order="fill stroke markers" d=" M 700 682 L 866.99169921875 682 Q 876.99169921875 682 876.99169921875 692 L 876.99169921875 713 Q 876.99169921875 723 866.99169921875 723 L 700 723 Q 690 723 690 713 L 690 692 Q 690 682 700 682 Z" stroke-miterlimit="10" stroke-dasharray=""/></g><g><g><path fill="none" stroke="none"/><text fill="#000000" stroke="none" font-family="Arial" font-size="13px" font-style="normal" font-weight="bold" text-decoration="undefined" x="821.995849609375" y="725.5" text-anchor="middle" dominant-baseline="central" transform="matrix(1 0 0 1 -38 -30)">Cache I/O Rapide (Live Data)</text></g></g><g><path fill="#000000" stroke="none" paint-order="stroke fill markers" d=" M 629 674 L 629 674 Q 632 674 632 677 L 632 783 Q 632 786 629 786 L 629 786 Q 626 786 626 783 L 626 677 Q 626 674 629 674 Z"/></g><g><path fill="#ffffff" stroke="none" paint-order="stroke fill markers" d=" M 604 490 L 824 490 Q 834 490 834 500 L 834 547 Q 834 557 824 557 L 604 557 Q 594 557 594 547 L 594 500 Q 594 490 604 490 Z"/></g><g><path fill="none" stroke="#000000" paint-order="fill stroke markers" d=" M 604 490 L 824 490 Q 834 490 834 500 L 834 547 Q 834 557 824 557 L 604 557 Q 594 557 594 547 L 594 500 Q 594 490 604 490 Z" stroke-miterlimit="10" stroke-dasharray=""/></g><g><g><path fill="none" stroke="none"/><text fill="#000000" stroke="none" font-family="Arial" font-size="13px" font-style="normal" font-weight="bold" text-decoration="undefined" x="752.5" y="533.5" text-anchor="middle" dominant-baseline="central" transform="matrix(1 0 0 1 -38 -30)">Execution de la boucle (asynchrone)</text><text fill="#000000" stroke="none" font-family="Arial" font-size="13px" font-style="normal" font-weight="bold" text-decoration="undefined" x="752.5" y="546.5" text-anchor="middle" dominant-baseline="central" transform="matrix(1 0 0 1 -38 -30)">de surveillance (Risk Monitor) et</text><text fill="#000000" stroke="none" font-family="Arial" font-size="13px" font-style="normal" font-weight="bold" text-decoration="undefined" x="752.5" y="559.5" text-anchor="middle" dominant-baseline="central" transform="matrix(1 0 0 1 -38 -30)">décision (Order Manager)</text></g></g><g><path fill="none" stroke="#000000" paint-order="fill stroke markers" d=" M 570 656 L 570 714" stroke-miterlimit="10" stroke-dasharray=""/></g><g><path fill="none" stroke="#000000" paint-order="fill stroke markers" d=" M 565.790482243984 703.8373251423759 L 570 714 L 574.209517756016 703.8373251423759" stroke-miterlimit="10" stroke-dasharray=""/></g><g><path fill="#ffffff" stroke="none" paint-order="stroke fill markers" d=" M 554 730 L 570 714 L 586 730 L 570 746 L 554 730"/></g><g><path fill="none" stroke="#000000" paint-order="fill stroke markers" d=" M 554 730 L 570 714 L 586 730 L 570 746 L 554 730 L 554 730" stroke-miterlimit="10" stroke-dasharray=""/></g><g><path fill="none" stroke="#000000" paint-order="fill stroke markers" d=" M 586 730 L 626 730" stroke-miterlimit="10" stroke-dasharray=""/></g><g><path fill="none" stroke="#000000" paint-order="fill stroke markers" d=" M 615.8373251423759 734.209517756016 L 626 730 L 615.8373251423758 725.790482243984" stroke-miterlimit="10" stroke-dasharray=""/></g><g><rect fill="#ffffff" stroke="none" x="616" y="738" width="44.078125" height="13" transform="matrix(1 0 0 1 -38 -30)"/></g><g><g><path fill="none" stroke="none"/><text fill="#000000" stroke="none" font-family="Arial" font-size="13px" font-style="normal" font-weight="normal" text-decoration="undefined" x="638.0390625" y="744.5" text-anchor="middle" dominant-baseline="central" transform="matrix(1 0 0 1 -38 -30)"> [ELSE]</text></g></g><g><path fill="#ffffff" stroke="none" paint-order="stroke fill markers" d=" M 940 66 L 1080 66 Q 1090 66 1090 76 L 1090 110 Q 1090 120 1080 120 L 940 120 Q 930 120 930 110 L 930 76 Q 930 66 940 66 Z"/></g><g><path fill="none" stroke="#000000" paint-order="fill stroke markers" d=" M 940 66 L 1080 66 Q 1090 66 1090 76 L 1090 110 Q 1090 120 1080 120 L 940 120 Q 930 120 930 110 L 930 76 Q 930 66 940 66 Z" stroke-miterlimit="10" stroke-dasharray=""/></g><g><g><path fill="none" stroke="none"/><text fill="#000000" stroke="none" font-family="Arial" font-size="13px" font-style="normal" font-weight="bold" text-decoration="undefined" x="1048.5" y="109.5" text-anchor="middle" dominant-baseline="central" transform="matrix(1 0 0 1 -38 -30)">Signal de Fermeture du</text><text fill="#000000" stroke="none" font-family="Arial" font-size="13px" font-style="normal" font-weight="bold" text-decoration="undefined" x="1048.5" y="122.5" text-anchor="middle" dominant-baseline="central" transform="matrix(1 0 0 1 -38 -30)">Marché (Market Clock)</text></g></g><g><path fill="none" stroke="#000000" paint-order="fill stroke markers" d=" M 570 107 L 570 602" stroke-miterlimit="10" stroke-dasharray=""/></g><g><path fill="none" stroke="#000000" paint-order="fill stroke markers" d=" M 565.790482243984 591.8373251423759 L 570 602 L 574.209517756016 591.8373251423759" stroke-miterlimit="10" stroke-dasharray=""/></g><g><path fill="none" stroke="#000000" paint-order="fill stroke markers" d=" M 578 746 L 578 802 L 890 802 L 890 98 L 930 98" stroke-miterlimit="10" stroke-dasharray=""/></g><g><path fill="none" stroke="#000000" paint-order="fill stroke markers" d=" M 919.8373251423759 102.209517756016 L 930 98 L 919.8373251423758 93.79048224398402" stroke-miterlimit="10" stroke-dasharray=""/></g><g><rect fill="#ffffff" stroke="none" x="632" y="848" width="221.70458984375" height="13" transform="matrix(1 0 0 1 -38 -30)"/></g><g><g><path fill="none" stroke="none"/><text fill="#000000" stroke="none" font-family="Arial" font-size="13px" font-style="normal" font-weight="normal" text-decoration="undefined" x="742.852294921875" y="854.5" text-anchor="middle" dominant-baseline="central" transform="matrix(1 0 0 1 -38 -30)"> [IF current_time ≥ market_close_time]</text></g></g><g><path fill="#ffffff" stroke="none" paint-order="stroke fill markers" d=" M 932 418 L 1096 418 Q 1106 418 1106 428 L 1106 462 Q 1106 472 1096 472 L 932 472 Q 922 472 922 462 L 922 428 Q 922 418 932 418 Z"/></g><g><path fill="none" stroke="#000000" paint-order="fill stroke markers" d=" M 932 418 L 1096 418 Q 1106 418 1106 428 L 1106 462 Q 1106 472 1096 472 L 932 472 Q 922 472 922 462 L 922 428 Q 922 418 932 418 Z" stroke-miterlimit="10" stroke-dasharray=""/></g><g><g><path fill="none" stroke="none"/><text fill="#000000" stroke="none" font-family="Arial" font-size="13px" font-style="normal" font-weight="bold" text-decoration="undefined" x="1052.5" y="461.5" text-anchor="middle" dominant-baseline="central" transform="matrix(1 0 0 1 -38 -30)">Arrêt des Opérations et</text><text fill="#000000" stroke="none" font-family="Arial" font-size="13px" font-style="normal" font-weight="bold" text-decoration="undefined" x="1052.5" y="474.5" text-anchor="middle" dominant-baseline="central" transform="matrix(1 0 0 1 -38 -30)">Traitement des Fills Tardifs</text></g></g><g><path fill="none" stroke="#000000" paint-order="fill stroke markers" d=" M 1002 120 L 1002 418" stroke-miterlimit="10" stroke-dasharray=""/></g><g><path fill="none" stroke="#000000" paint-order="fill stroke markers" d=" M 997.7904822439841 407.83732514237585 L 1002 418 L 1006.2095177560159 407.83732514237585" stroke-miterlimit="10" stroke-dasharray=""/></g><g><path fill="none" stroke="#000000" paint-order="fill stroke markers" d=" M 1002 472 L 1002 498" stroke-miterlimit="10" stroke-dasharray=""/></g><g><path fill="none" stroke="#000000" paint-order="fill stroke markers" d=" M 997.7904822439841 487.8373251423759 L 1002 498 L 1006.2095177560159 487.8373251423759" stroke-miterlimit="10" stroke-dasharray=""/></g><g><path fill="none" stroke="#000000" paint-order="fill stroke markers" d=" M 1002 565 L 1002 602" stroke-miterlimit="10" stroke-dasharray=""/></g><g><path fill="none" stroke="#000000" paint-order="fill stroke markers" d=" M 997.7904822439841 591.8373251423759 L 1002 602 L 1006.2095177560159 591.8373251423759" stroke-miterlimit="10" stroke-dasharray=""/></g><g><path fill="#ffffff" stroke="none" paint-order="stroke fill markers" d=" M 932 602 L 1088 602 Q 1098 602 1098 612 L 1098 646 Q 1098 656 1088 656 L 932 656 Q 922 656 922 646 L 922 612 Q 922 602 932 602 Z"/></g><g><path fill="none" stroke="#000000" paint-order="fill stroke markers" d=" M 932 602 L 1088 602 Q 1098 602 1098 612 L 1098 646 Q 1098 656 1088 656 L 932 656 Q 922 656 922 646 L 922 612 Q 922 602 932 602 Z" stroke-miterlimit="10" stroke-dasharray=""/></g><g><g><path fill="none" stroke="none"/><text fill="#000000" stroke="none" font-family="Arial" font-size="13px" font-style="normal" font-weight="bold" text-decoration="undefined" x="1048.5" y="645.5" text-anchor="middle" dominant-baseline="central" transform="matrix(1 0 0 1 -38 -30)">Mise à Jour des Données</text><text fill="#000000" stroke="none" font-family="Arial" font-size="13px" font-style="normal" font-weight="bold" text-decoration="undefined" x="1048.5" y="658.5" text-anchor="middle" dominant-baseline="central" transform="matrix(1 0 0 1 -38 -30)">Historiques (via API)</text></g></g><g><path fill="#ffffff" stroke="none" paint-order="stroke fill markers" d=" M 932 682 L 1120 682 Q 1130 682 1130 692 L 1130 726 Q 1130 736 1120 736 L 932 736 Q 922 736 922 726 L 922 692 Q 922 682 932 682 Z"/></g><g><path fill="none" stroke="#000000" paint-order="fill stroke markers" d=" M 932 682 L 1120 682 Q 1130 682 1130 692 L 1130 726 Q 1130 736 1120 736 L 932 736 Q 922 736 922 726 L 922 692 Q 922 682 932 682 Z" stroke-miterlimit="10" stroke-dasharray=""/></g><g><g><path fill="none" stroke="none"/><text fill="#000000" stroke="none" font-family="Arial" font-size="13px" font-style="normal" font-weight="bold" text-decoration="undefined" x="1064.5" y="725.5" text-anchor="middle" dominant-baseline="central" transform="matrix(1 0 0 1 -38 -30)">Génération et Persistance du</text><text fill="#000000" stroke="none" font-family="Arial" font-size="13px" font-style="normal" font-weight="bold" text-decoration="undefined" x="1064.5" y="738.5" text-anchor="middle" dominant-baseline="central" transform="matrix(1 0 0 1 -38 -30)">reporting (Reporting Manager)</text></g></g><g><path fill="none" stroke="#000000" paint-order="fill stroke markers" d=" M 1002 656 L 1002 682" stroke-miterlimit="10" stroke-dasharray=""/></g><g><path fill="none" stroke="#000000" paint-order="fill stroke markers" d=" M 997.7904822439841 671.8373251423759 L 1002 682 L 1006.2095177560159 671.8373251423759" stroke-miterlimit="10" stroke-dasharray=""/></g><g><path fill="none" stroke="#000000" paint-order="fill stroke markers" d=" M 1130 717 L 1146 717 L 1146 226" stroke-miterlimit="10" stroke-dasharray=""/></g><g><path fill="none" stroke="#000000" paint-order="fill stroke markers" d=" M 1150.2095177560159 236.16267485762415 L 1146 226 L 1141.7904822439841 236.16267485762415" stroke-miterlimit="10" stroke-dasharray=""/></g><g><path fill="#ffffff" stroke="none" paint-order="stroke fill markers" d=" M 1044 154 L 1192 154 Q 1202 154 1202 164 L 1202 216 Q 1202 226 1192 226 L 1044 226 Q 1034 226 1034 216 L 1034 164 Q 1034 154 1044 154 Z"/></g><g><path fill="none" stroke="#000000" paint-order="fill stroke markers" d=" M 1044 154 L 1192 154 Q 1202 154 1202 164 L 1202 216 Q 1202 226 1192 226 L 1044 226 Q 1034 226 1034 216 L 1034 164 Q 1034 154 1044 154 Z" stroke-miterlimit="10" stroke-dasharray=""/></g><g><g><path fill="none" stroke="none"/><text fill="#000000" stroke="none" font-family="Arial" font-size="13px" font-style="normal" font-weight="bold" text-decoration="undefined" x="1156.5" y="197.5" text-anchor="middle" dominant-baseline="central" transform="matrix(1 0 0 1 -38 -30)">Vérification du status de</text><text fill="#000000" stroke="none" font-family="Arial" font-size="13px" font-style="normal" font-weight="bold" text-decoration="undefined" x="1156.5" y="210.5" text-anchor="middle" dominant-baseline="central" transform="matrix(1 0 0 1 -38 -30)">la journée suivante </text><text fill="#000000" stroke="none" font-family="Arial" font-size="13px" font-style="normal" font-weight="bold" text-decoration="undefined" x="1156.5" y="223.5" text-anchor="middle" dominant-baseline="central" transform="matrix(1 0 0 1 -38 -30)">(System Manager)</text></g></g><g><path fill="#ffffff" stroke="none" paint-order="stroke fill markers" d=" M 932 498 L 1088 498 Q 1098 498 1098 508 L 1098 555 Q 1098 565 1088 565 L 932 565 Q 922 565 922 555 L 922 508 Q 922 498 932 498 Z"/></g><g><path fill="none" stroke="#000000" paint-order="fill stroke markers" d=" M 932 498 L 1088 498 Q 1098 498 1098 508 L 1098 555 Q 1098 565 1088 565 L 932 565 Q 922 565 922 555 L 922 508 Q 922 498 932 498 Z" stroke-miterlimit="10" stroke-dasharray=""/></g><g><g><path fill="none" stroke="none"/><text fill="#000000" stroke="none" font-family="Arial" font-size="13px" font-style="normal" font-weight="bold" text-decoration="undefined" x="1048.5" y="541.5" text-anchor="middle" dominant-baseline="central" transform="matrix(1 0 0 1 -38 -30)">Réconciliation du</text><text fill="#000000" stroke="none" font-family="Arial" font-size="13px" font-style="normal" font-weight="bold" text-decoration="undefined" x="1048.5" y="554.5" text-anchor="middle" dominant-baseline="central" transform="matrix(1 0 0 1 -38 -30)">Portefeuille Live vs. IBKR</text><text fill="#000000" stroke="none" font-family="Arial" font-size="13px" font-style="normal" font-weight="bold" text-decoration="undefined" x="1048.5" y="567.5" text-anchor="middle" dominant-baseline="central" transform="matrix(1 0 0 1 -38 -30)">(Portfolio State Manager)</text></g></g><g><path fill="#ffffff" stroke="none" paint-order="stroke fill markers" d=" M 1162 330 L 1178 314 L 1194 330 L 1178 346 L 1162 330"/></g><g><path fill="none" stroke="#000000" paint-order="fill stroke markers" d=" M 1162 330 L 1178 314 L 1194 330 L 1178 346 L 1162 330 L 1162 330" stroke-miterlimit="10" stroke-dasharray=""/></g><g><path fill="none" stroke="#000000" paint-order="fill stroke markers" d=" M 1178 226 L 1178 314" stroke-miterlimit="10" stroke-dasharray=""/></g><g><path fill="none" stroke="#000000" paint-order="fill stroke markers" d=" M 1173.7904822439841 303.83732514237585 L 1178 314 L 1182.2095177560159 303.83732514237585" stroke-miterlimit="10" stroke-dasharray=""/></g><g><path fill="#ffffff" stroke="none" paint-order="stroke fill markers" d=" M 1236 74 L 1336 74 Q 1346 74 1346 84 L 1346 131 Q 1346 141 1336 141 L 1236 141 Q 1226 141 1226 131 L 1226 84 Q 1226 74 1236 74 Z"/></g><g><path fill="none" stroke="#000000" paint-order="fill stroke markers" d=" M 1236 74 L 1336 74 Q 1346 74 1346 84 L 1346 131 Q 1346 141 1336 141 L 1236 141 Q 1226 141 1226 131 L 1226 84 Q 1226 74 1236 74 Z" stroke-miterlimit="10" stroke-dasharray=""/></g><g><g><path fill="none" stroke="none"/><text fill="#000000" stroke="none" font-family="Arial" font-size="13px" font-style="normal" font-weight="bold" text-decoration="undefined" x="1324.5" y="117.5" text-anchor="middle" dominant-baseline="central" transform="matrix(1 0 0 1 -38 -30)">Déclenchement :</text><text fill="#000000" stroke="none" font-family="Arial" font-size="13px" font-style="normal" font-weight="bold" text-decoration="undefined" x="1324.5" y="130.5" text-anchor="middle" dominant-baseline="central" transform="matrix(1 0 0 1 -38 -30)">Mise en veille </text><text fill="#000000" stroke="none" font-family="Arial" font-size="13px" font-style="normal" font-weight="bold" text-decoration="undefined" x="1324.5" y="143.5" text-anchor="middle" dominant-baseline="central" transform="matrix(1 0 0 1 -38 -30)">(Market Clock)</text></g></g><g><path fill="none" stroke="#000000" paint-order="fill stroke markers" d=" M 1194 330 L 1258 330 L 1258 141" stroke-miterlimit="10" stroke-dasharray=""/></g><g><path fill="none" stroke="#000000" paint-order="fill stroke markers" d=" M 1262.2095177560159 151.16267485762415 L 1258 141 L 1253.7904822439841 151.16267485762415" stroke-miterlimit="10" stroke-dasharray=""/></g><g><rect fill="#ffffff" stroke="none" x="1264" y="368" width="44.078125" height="13" transform="matrix(1 0 0 1 -38 -30)"/></g><g><g><path fill="none" stroke="none"/><text fill="#000000" stroke="none" font-family="Arial" font-size="13px" font-style="normal" font-weight="normal" text-decoration="undefined" x="1286.0390625" y="374.5" text-anchor="middle" dominant-baseline="central" transform="matrix(1 0 0 1 -38 -30)"> [ELSE]</text></g></g><g><path fill="#ffffff" stroke="none" paint-order="stroke fill markers" d=" M 932 754 L 1128 754 Q 1138 754 1138 764 L 1138 798 Q 1138 808 1128 808 L 932 808 Q 922 808 922 798 L 922 764 Q 922 754 932 754 Z"/></g><g><path fill="none" stroke="#000000" paint-order="fill stroke markers" d=" M 932 754 L 1128 754 Q 1138 754 1138 764 L 1138 798 Q 1138 808 1128 808 L 932 808 Q 922 808 922 798 L 922 764 Q 922 754 932 754 Z" stroke-miterlimit="10" stroke-dasharray=""/></g><g><g><path fill="none" stroke="none"/><text fill="#000000" stroke="none" font-family="Arial" font-size="13px" font-style="normal" font-weight="bold" text-decoration="undefined" x="1068.5" y="797.5" text-anchor="middle" dominant-baseline="central" transform="matrix(1 0 0 1 -38 -30)">Exécution de la stratégie de</text><text fill="#000000" stroke="none" font-family="Arial" font-size="13px" font-style="normal" font-weight="bold" text-decoration="undefined" x="1068.5" y="810.5" text-anchor="middle" dominant-baseline="central" transform="matrix(1 0 0 1 -38 -30)">rebalancement (Strategy Engine)</text></g></g><g><path fill="none" stroke="#000000" paint-order="fill stroke markers" d=" M 1178 346 L 1178 778 L 1138 778" stroke-miterlimit="10" stroke-dasharray=""/></g><g><path fill="none" stroke="#000000" paint-order="fill stroke markers" d=" M 1148.162674857624 773.790482243984 L 1138 778 L 1148.162674857624 782.209517756016" stroke-miterlimit="10" stroke-dasharray=""/></g><g><rect fill="#ffffff" stroke="none" x="955" y="848" width="224" height="13" transform="matrix(1 0 0 1 -38 -30)"/></g><g><g><path fill="none" stroke="none"/><text fill="#000000" stroke="none" font-family="Arial" font-size="13px" font-style="normal" font-weight="normal" text-decoration="undefined" x="1067" y="854.5" text-anchor="middle" dominant-baseline="central" transform="matrix(1 0 0 1 -38 -30)"> [IF Prochain Jour = Rebalancement ?]</text></g></g><g><path fill="none" stroke="#000000" paint-order="fill stroke markers" d=" M 1138 794 L 1286 794 L 1286 141" stroke-miterlimit="10" stroke-dasharray=""/></g><g><path fill="none" stroke="#000000" paint-order="fill stroke markers" d=" M 1290.2095177560159 151.16267485762415 L 1286 141 L 1281.7904822439841 151.16267485762415" stroke-miterlimit="10" stroke-dasharray=""/></g><g><path fill="#000000" stroke="none" paint-order="stroke fill markers" d=" M 381 370 L 495 370 Q 498 370 498 373 L 498 373 Q 498 376 495 376 L 381 376 Q 378 376 378 373 L 378 373 Q 378 370 381 370 Z"/></g><g><path fill="#ffffff" stroke="none" paint-order="stroke fill markers" d=" M 410 318 L 430 298 L 450 318 L 430 338 L 410 318"/></g><g><path fill="none" stroke="#000000" paint-order="fill stroke markers" d=" M 410 318 L 430 298 L 450 318 L 430 338 L 410 318 L 410 318" stroke-miterlimit="10" stroke-dasharray=""/></g><g><path fill="#ffffff" stroke="none" paint-order="stroke fill markers" d=" M 556 66 L 823.595703125 66 Q 833.595703125 66 833.595703125 76 L 833.595703125 97 Q 833.595703125 107 823.595703125 107 L 556 107 Q 546 107 546 97 L 546 76 Q 546 66 556 66 Z"/></g><g><path fill="none" stroke="#000000" paint-order="fill stroke markers" d=" M 556 66 L 823.595703125 66 Q 833.595703125 66 833.595703125 76 L 833.595703125 97 Q 833.595703125 107 823.595703125 107 L 556 107 Q 546 107 546 97 L 546 76 Q 546 66 556 66 Z" stroke-miterlimit="10" stroke-dasharray=""/></g><g><g><path fill="none" stroke="none"/><text fill="#000000" stroke="none" font-family="Arial" font-size="13px" font-style="normal" font-weight="bold" text-decoration="undefined" x="728.2978515625" y="109.5" text-anchor="middle" dominant-baseline="central" transform="matrix(1 0 0 1 -38 -30)">Signal d'Ouverture du Marché (Market Clock)</text></g></g></g></svg>