<svg version="1.1" xmlns="http://www.w3.org/2000/svg" xmlns:xlink="http://www.w3.org/1999/xlink" width="1732" height="764"><defs/><g><g><rect fill="#ffffff" stroke="none" x="192" y="24" width="1712" height="744" transform="matrix(1 0 0 1 -182 -14)"/></g><g><path fill="none" stroke="#000000" paint-order="fill stroke markers" d=" M 10 10 L 1722 10 L 1722 754 L 10 754 L 10 10 Z Z" stroke-miterlimit="10" stroke-dasharray=""/></g><g><rect fill="#ffffff" stroke="none" x="352" y="48" width="176" height="21" transform="matrix(1 0 0 1 -182 -14)"/></g><g><path fill="none" stroke="#000000" paint-order="fill stroke markers" d=" M 170 34 L 346 34 L 346 55 L 170 55 L 170 34 Z Z" stroke-miterlimit="10" stroke-width="2" stroke-dasharray=""/></g><g><path fill="none" stroke="#000000" paint-order="fill stroke markers" d=" M 170 730 L 170 34 L 346 34 L 346 730" stroke-miterlimit="10" stroke-width="2" stroke-dasharray=""/></g><g><g><path fill="none" stroke="none"/><text fill="#000000" stroke="none" font-family="Arial" font-size="13px" font-style="normal" font-weight="normal" text-decoration="undefined" x="440" y="52" text-anchor="middle" dominant-baseline="text-before-edge" transform="matrix(1 0 0 1 -182 -14)">IBKR Gateway</text></g></g><g><rect fill="#ffffff" stroke="none" x="528" y="48" width="240" height="21" transform="matrix(1 0 0 1 -182 -14)"/></g><g><path fill="none" stroke="#000000" paint-order="fill stroke markers" d=" M 346 34 L 586 34 L 586 55 L 346 55 L 346 34 Z Z" stroke-miterlimit="10" stroke-width="2" stroke-dasharray=""/></g><g><path fill="none" stroke="#000000" paint-order="fill stroke markers" d=" M 346 730 L 346 34 L 586 34 L 586 730" stroke-miterlimit="10" stroke-width="2" stroke-dasharray=""/></g><g><g><path fill="none" stroke="none"/><text fill="#000000" stroke="none" font-family="Arial" font-size="13px" font-style="normal" font-weight="normal" text-decoration="undefined" x="648" y="52" text-anchor="middle" dominant-baseline="text-before-edge" transform="matrix(1 0 0 1 -182 -14)">Live Data Hub</text></g></g><g><rect fill="#ffffff" stroke="none" x="768" y="48" width="192" height="21" transform="matrix(1 0 0 1 -182 -14)"/></g><g><path fill="none" stroke="#000000" paint-order="fill stroke markers" d=" M 586 34 L 778 34 L 778 55 L 586 55 L 586 34 Z Z" stroke-miterlimit="10" stroke-width="2" stroke-dasharray=""/></g><g><path fill="none" stroke="#000000" paint-order="fill stroke markers" d=" M 586 730 L 586 34 L 778 34 L 778 730" stroke-miterlimit="10" stroke-width="2" stroke-dasharray=""/></g><g><g><path fill="none" stroke="none"/><text fill="#000000" stroke="none" font-family="Arial" font-size="13px" font-style="normal" font-weight="normal" text-decoration="undefined" x="864" y="52" text-anchor="middle" dominant-baseline="text-before-edge" transform="matrix(1 0 0 1 -182 -14)">Risk Monitor</text></g></g><g><rect fill="#ffffff" stroke="none" x="960" y="48" width="176" height="21" transform="matrix(1 0 0 1 -182 -14)"/></g><g><path fill="none" stroke="#000000" paint-order="fill stroke markers" d=" M 778 34 L 954 34 L 954 55 L 778 55 L 778 34 Z Z" stroke-miterlimit="10" stroke-width="2" stroke-dasharray=""/></g><g><path fill="none" stroke="#000000" paint-order="fill stroke markers" d=" M 778 730 L 778 34 L 954 34 L 954 730" stroke-miterlimit="10" stroke-width="2" stroke-dasharray=""/></g><g><g><path fill="none" stroke="none"/><text fill="#000000" stroke="none" font-family="Arial" font-size="13px" font-style="normal" font-weight="normal" text-decoration="undefined" x="1048" y="52" text-anchor="middle" dominant-baseline="text-before-edge" transform="matrix(1 0 0 1 -182 -14)">Portfolio Manager</text></g></g><g><rect fill="#ffffff" stroke="none" x="1552" y="48" width="160" height="21" transform="matrix(1 0 0 1 -182 -14)"/></g><g><path fill="none" stroke="#000000" paint-order="fill stroke markers" d=" M 1370 34 L 1530 34 L 1530 55 L 1370 55 L 1370 34 Z Z" stroke-miterlimit="10" stroke-width="2" stroke-dasharray=""/></g><g><path fill="none" stroke="#000000" paint-order="fill stroke markers" d=" M 1370 730 L 1370 34 L 1530 34 L 1530 730" stroke-miterlimit="10" stroke-width="2" stroke-dasharray=""/></g><g><g><path fill="none" stroke="none"/><text fill="#000000" stroke="none" font-family="Arial" font-size="13px" font-style="normal" font-weight="normal" text-decoration="undefined" x="1632" y="52" text-anchor="middle" dominant-baseline="text-before-edge" transform="matrix(1 0 0 1 -182 -14)">Job Manager</text></g></g><g><rect fill="#ffffff" stroke="none" x="1384" y="48" width="168" height="21" transform="matrix(1 0 0 1 -182 -14)"/></g><g><path fill="none" stroke="#000000" paint-order="fill stroke markers" d=" M 1202 34 L 1370 34 L 1370 55 L 1202 55 L 1202 34 Z Z" stroke-miterlimit="10" stroke-width="2" stroke-dasharray=""/></g><g><path fill="none" stroke="#000000" paint-order="fill stroke markers" d=" M 1202 730 L 1202 34 L 1370 34 L 1370 730" stroke-miterlimit="10" stroke-width="2" stroke-dasharray=""/></g><g><g><path fill="none" stroke="none"/><text fill="#000000" stroke="none" font-family="Arial" font-size="13px" font-style="normal" font-weight="normal" text-decoration="undefined" x="1468" y="52" text-anchor="middle" dominant-baseline="text-before-edge" transform="matrix(1 0 0 1 -182 -14)">Data Ingestion Layer</text></g></g><g><rect fill="#ffffff" stroke="none" x="216" y="48" width="136" height="21" transform="matrix(1 0 0 1 -182 -14)"/></g><g><path fill="none" stroke="#000000" paint-order="fill stroke markers" d=" M 34 34 L 170 34 L 170 55 L 34 55 L 34 34 Z Z" stroke-miterlimit="10" stroke-width="2" stroke-dasharray=""/></g><g><path fill="none" stroke="#000000" paint-order="fill stroke markers" d=" M 34 730 L 34 34 L 170 34 L 170 730" stroke-miterlimit="10" stroke-width="2" stroke-dasharray=""/></g><g><g><path fill="none" stroke="none"/><text fill="#000000" stroke="none" font-family="Arial" font-size="13px" font-style="normal" font-weight="normal" text-decoration="undefined" x="284" y="52" text-anchor="middle" dominant-baseline="text-before-edge" transform="matrix(1 0 0 1 -182 -14)">System Manager</text></g></g><g><path fill="none" stroke="#000000" paint-order="fill stroke markers" d=" M 378 170 L 370 170 L 370 250 L 394 250" stroke-miterlimit="10" stroke-dasharray=""/></g><g><path fill="none" stroke="#000000" paint-order="fill stroke markers" d=" M 383.8373251423759 254.209517756016 L 394 250 L 383.8373251423758 245.790482243984" stroke-miterlimit="10" stroke-dasharray=""/></g><g><path fill="#000000" stroke="none" paint-order="stroke fill markers" d=" M 397 202 L 397 202 Q 400 202 400 205 L 400 303 Q 400 306 397 306 L 397 306 Q 394 306 394 303 L 394 205 Q 394 202 397 202 Z"/></g><g><path fill="none" stroke="#000000" paint-order="fill stroke markers" d=" M 400 290 L 426 290" stroke-miterlimit="10" stroke-dasharray=""/></g><g><path fill="none" stroke="#000000" paint-order="fill stroke markers" d=" M 415.8373251423759 294.209517756016 L 426 290 L 415.8373251423758 285.790482243984" stroke-miterlimit="10" stroke-dasharray=""/></g><g><path fill="none" stroke="#000000" paint-order="fill stroke markers" d=" M 400 218 L 426 218" stroke-miterlimit="10" stroke-dasharray=""/></g><g><path fill="none" stroke="#000000" paint-order="fill stroke markers" d=" M 415.8373251423759 222.209517756016 L 426 218 L 415.8373251423758 213.790482243984" stroke-miterlimit="10" stroke-dasharray=""/></g><g><path fill="none" stroke="#000000" paint-order="fill stroke markers" d=" M 265 150 L 330 150 L 330 98 L 362 98" stroke-miterlimit="10" stroke-dasharray=""/></g><g><path fill="none" stroke="#000000" paint-order="fill stroke markers" d=" M 351.8373251423759 102.20951775601598 L 362 98 L 351.8373251423758 93.79048224398402" stroke-miterlimit="10" stroke-dasharray=""/></g><g><rect fill="#ffffff" stroke="none" x="456" y="144" width="44.078125" height="13" transform="matrix(1 0 0 1 -182 -14)"/></g><g><g><path fill="none" stroke="none"/><text fill="#000000" stroke="none" font-family="Arial" font-size="13px" font-style="normal" font-weight="normal" text-decoration="undefined" x="478.0390625" y="150.5" text-anchor="middle" dominant-baseline="central" transform="matrix(1 0 0 1 -182 -14)"> [ELSE]</text></g></g><g><path fill="#ffffff" stroke="none" paint-order="stroke fill markers" d=" M 436 266 L 552 266 Q 562 266 562 276 L 562 310 Q 562 320 552 320 L 436 320 Q 426 320 426 310 L 426 276 Q 426 266 436 266 Z"/></g><g><path fill="none" stroke="#000000" paint-order="fill stroke markers" d=" M 436 266 L 552 266 Q 562 266 562 276 L 562 310 Q 562 320 552 320 L 436 320 Q 426 320 426 310 L 426 276 Q 426 266 436 266 Z" stroke-miterlimit="10" stroke-dasharray=""/></g><g><g><path fill="none" stroke="none"/><text fill="#000000" stroke="none" font-family="Arial" font-size="13px" font-style="normal" font-weight="bold" text-decoration="undefined" x="676.5" y="293.5" text-anchor="middle" dominant-baseline="central" transform="matrix(1 0 0 1 -182 -14)">Écriture dans Cache</text><text fill="#000000" stroke="none" font-family="Arial" font-size="13px" font-style="normal" font-weight="bold" text-decoration="undefined" x="676.5" y="306.5" text-anchor="middle" dominant-baseline="central" transform="matrix(1 0 0 1 -182 -14)">(Fast-Lane)</text></g></g><g><path fill="#ffffff" stroke="none" paint-order="stroke fill markers" d=" M 436 202 L 568 202 Q 578 202 578 212 L 578 246 Q 578 256 568 256 L 436 256 Q 426 256 426 246 L 426 212 Q 426 202 436 202 Z"/></g><g><path fill="none" stroke="#000000" paint-order="fill stroke markers" d=" M 436 202 L 568 202 Q 578 202 578 212 L 578 246 Q 578 256 568 256 L 436 256 Q 426 256 426 246 L 426 212 Q 426 202 436 202 Z" stroke-miterlimit="10" stroke-dasharray=""/></g><g><g><path fill="none" stroke="none"/><text fill="#000000" stroke="none" font-family="Arial" font-size="13px" font-style="normal" font-weight="bold" text-decoration="undefined" x="684.5" y="229.5" text-anchor="middle" dominant-baseline="central" transform="matrix(1 0 0 1 -182 -14)">Mise en File d'Attente</text><text fill="#000000" stroke="none" font-family="Arial" font-size="13px" font-style="normal" font-weight="bold" text-decoration="undefined" x="684.5" y="242.5" text-anchor="middle" dominant-baseline="central" transform="matrix(1 0 0 1 -182 -14)">(Buffer)</text></g></g><g><path fill="none" stroke="#000000" paint-order="fill stroke markers" d=" M 578 227 L 1226 227" stroke-miterlimit="10" stroke-dasharray=""/></g><g><path fill="none" stroke="#000000" paint-order="fill stroke markers" d=" M 1215.837325142376 231.209517756016 L 1226 227 L 1215.837325142376 222.790482243984" stroke-miterlimit="10" stroke-dasharray=""/></g><g><path fill="#ffffff" stroke="none" paint-order="stroke fill markers" d=" M 188 66 L 280 66 Q 290 66 290 76 L 290 97 Q 290 107 280 107 L 188 107 Q 178 107 178 97 L 178 76 Q 178 66 188 66 Z"/></g><g><path fill="none" stroke="#000000" paint-order="fill stroke markers" d=" M 188 66 L 280 66 Q 290 66 290 76 L 290 97 Q 290 107 280 107 L 188 107 Q 178 107 178 97 L 178 76 Q 178 66 188 66 Z" stroke-miterlimit="10" stroke-dasharray=""/></g><g><g><path fill="none" stroke="none"/><text fill="#000000" stroke="none" font-family="Arial" font-size="13px" font-style="normal" font-weight="bold" text-decoration="undefined" x="416.5" y="93.5" text-anchor="middle" dominant-baseline="central" transform="matrix(1 0 0 1 -182 -14)">Réception Ticks</text></g></g><g><path fill="#ffffff" stroke="none" paint-order="stroke fill markers" d=" M 612 274 L 748.65625 274 Q 758.65625 274 758.65625 284 L 758.65625 305 Q 758.65625 315 748.65625 315 L 612 315 Q 602 315 602 305 L 602 284 Q 602 274 612 274 Z"/></g><g><path fill="none" stroke="#000000" paint-order="fill stroke markers" d=" M 612 274 L 748.65625 274 Q 758.65625 274 758.65625 284 L 758.65625 305 Q 758.65625 315 748.65625 315 L 612 315 Q 602 315 602 305 L 602 284 Q 602 274 612 274 Z" stroke-miterlimit="10" stroke-dasharray=""/></g><g><g><path fill="none" stroke="none"/><text fill="#000000" stroke="none" font-family="Arial" font-size="13px" font-style="normal" font-weight="bold" text-decoration="undefined" x="862.828125" y="301.5" text-anchor="middle" dominant-baseline="central" transform="matrix(1 0 0 1 -182 -14)">Lire Prix et État (Cache)</text></g></g><g><path fill="none" stroke="#000000" paint-order="fill stroke markers" d=" M 562 290 L 602 290" stroke-miterlimit="10" stroke-dasharray=""/></g><g><path fill="none" stroke="#000000" paint-order="fill stroke markers" d=" M 591.8373251423759 294.209517756016 L 602 290 L 591.8373251423758 285.790482243984" stroke-miterlimit="10" stroke-dasharray=""/></g><g><path fill="#ffffff" stroke="none" paint-order="stroke fill markers" d=" M 612 346 L 739.9599609375 346 Q 749.9599609375 346 749.9599609375 356 L 749.9599609375 377 Q 749.9599609375 387 739.9599609375 387 L 612 387 Q 602 387 602 377 L 602 356 Q 602 346 612 346 Z"/></g><g><path fill="none" stroke="#000000" paint-order="fill stroke markers" d=" M 612 346 L 739.9599609375 346 Q 749.9599609375 346 749.9599609375 356 L 749.9599609375 377 Q 749.9599609375 387 739.9599609375 387 L 612 387 Q 602 387 602 377 L 602 356 Q 602 346 612 346 Z" stroke-miterlimit="10" stroke-dasharray=""/></g><g><g><path fill="none" stroke="none"/><text fill="#000000" stroke="none" font-family="Arial" font-size="13px" font-style="normal" font-weight="bold" text-decoration="undefined" x="858.47998046875" y="373.5" text-anchor="middle" dominant-baseline="central" transform="matrix(1 0 0 1 -182 -14)">Vérification Stop-Loss</text></g></g><g><path fill="none" stroke="#000000" paint-order="fill stroke markers" d=" M 682 315 L 682 346" stroke-miterlimit="10" stroke-dasharray=""/></g><g><path fill="none" stroke="#000000" paint-order="fill stroke markers" d=" M 677.790482243984 335.83732514237585 L 682 346 L 686.209517756016 335.83732514237585" stroke-miterlimit="10" stroke-dasharray=""/></g><g><path fill="#ffffff" stroke="none" paint-order="stroke fill markers" d=" M 618 434 L 634 418 L 650 434 L 634 450 L 618 434"/></g><g><path fill="none" stroke="#000000" paint-order="fill stroke markers" d=" M 618 434 L 634 418 L 650 434 L 634 450 L 618 434 L 618 434" stroke-miterlimit="10" stroke-dasharray=""/></g><g><path fill="none" stroke="#000000" paint-order="fill stroke markers" d=" M 634 387 L 634 418" stroke-miterlimit="10" stroke-dasharray=""/></g><g><path fill="none" stroke="#000000" paint-order="fill stroke markers" d=" M 629.790482243984 407.83732514237585 L 634 418 L 638.209517756016 407.83732514237585" stroke-miterlimit="10" stroke-dasharray=""/></g><g><path fill="#ffffff" stroke="none" paint-order="stroke fill markers" d=" M 620 474 L 749.64208984375 474 Q 759.64208984375 474 759.64208984375 484 L 759.64208984375 505 Q 759.64208984375 515 749.64208984375 515 L 620 515 Q 610 515 610 505 L 610 484 Q 610 474 620 474 Z"/></g><g><path fill="none" stroke="#000000" paint-order="fill stroke markers" d=" M 620 474 L 749.64208984375 474 Q 759.64208984375 474 759.64208984375 484 L 759.64208984375 505 Q 759.64208984375 515 749.64208984375 515 L 620 515 Q 610 515 610 505 L 610 484 Q 610 474 620 474 Z" stroke-miterlimit="10" stroke-dasharray=""/></g><g><g><path fill="none" stroke="none"/><text fill="#000000" stroke="none" font-family="Arial" font-size="13px" font-style="normal" font-weight="bold" text-decoration="undefined" x="867.321044921875" y="501.5" text-anchor="middle" dominant-baseline="central" transform="matrix(1 0 0 1 -182 -14)">Créer Ordre d'Urgence</text></g></g><g><path fill="none" stroke="#000000" paint-order="fill stroke markers" d=" M 634 450 L 634 474" stroke-miterlimit="10" stroke-dasharray=""/></g><g><path fill="none" stroke="#000000" paint-order="fill stroke markers" d=" M 629.790482243984 463.83732514237585 L 634 474 L 638.209517756016 463.83732514237585" stroke-miterlimit="10" stroke-dasharray=""/></g><g><rect fill="#ffffff" stroke="none" x="840" y="440" width="99.455078125" height="13" transform="matrix(1 0 0 1 -182 -14)"/></g><g><g><path fill="none" stroke="none"/><text fill="#000000" stroke="none" font-family="Arial" font-size="13px" font-style="normal" font-weight="normal" text-decoration="undefined" x="889.7275390625" y="446.5" text-anchor="middle" dominant-baseline="central" transform="matrix(1 0 0 1 -182 -14)"> [IF STOPLOSS ]</text></g></g><g><rect fill="#ffffff" stroke="none" x="1136" y="48" width="248" height="21" transform="matrix(1 0 0 1 -182 -14)"/></g><g><path fill="none" stroke="#000000" paint-order="fill stroke markers" d=" M 954 34 L 1202 34 L 1202 55 L 954 55 L 954 34 Z Z" stroke-miterlimit="10" stroke-width="2" stroke-dasharray=""/></g><g><path fill="none" stroke="#000000" paint-order="fill stroke markers" d=" M 954 730 L 954 34 L 1202 34 L 1202 730" stroke-miterlimit="10" stroke-width="2" stroke-dasharray=""/></g><g><g><path fill="none" stroke="none"/><text fill="#000000" stroke="none" font-family="Arial" font-size="13px" font-style="normal" font-weight="normal" text-decoration="undefined" x="1260" y="52" text-anchor="middle" dominant-baseline="text-before-edge" transform="matrix(1 0 0 1 -182 -14)">Order Manager</text></g></g><g><path fill="#ffffff" stroke="none" paint-order="stroke fill markers" d=" M 1004 474 L 1105 474 Q 1115 474 1115 484 L 1115 518 Q 1115 528 1105 528 L 1004 528 Q 994 528 994 518 L 994 484 Q 994 474 1004 474 Z"/></g><g><path fill="none" stroke="#000000" paint-order="fill stroke markers" d=" M 1004 474 L 1105 474 Q 1115 474 1115 484 L 1115 518 Q 1115 528 1105 528 L 1004 528 Q 994 528 994 518 L 994 484 Q 994 474 1004 474 Z" stroke-miterlimit="10" stroke-dasharray=""/></g><g><g><path fill="none" stroke="none"/><text fill="#000000" stroke="none" font-family="Arial" font-size="13px" font-style="normal" font-weight="bold" text-decoration="undefined" x="1237" y="501.5" text-anchor="middle" dominant-baseline="central" transform="matrix(1 0 0 1 -182 -14)">Soumettre Ordre</text><text fill="#000000" stroke="none" font-family="Arial" font-size="13px" font-style="normal" font-weight="bold" text-decoration="undefined" x="1237" y="514.5" text-anchor="middle" dominant-baseline="central" transform="matrix(1 0 0 1 -182 -14)">(Centralisation)</text></g></g><g><path fill="none" stroke="#000000" paint-order="fill stroke markers" d=" M 760 498 L 994 498" stroke-miterlimit="10" stroke-dasharray=""/></g><g><path fill="none" stroke="#000000" paint-order="fill stroke markers" d=" M 983.8373251423759 502.209517756016 L 994 498 L 983.8373251423759 493.790482243984" stroke-miterlimit="10" stroke-dasharray=""/></g><g><path fill="#ffffff" stroke="none" paint-order="stroke fill markers" d=" M 1396 466 L 1512 466 Q 1522 466 1522 476 L 1522 523 Q 1522 533 1512 533 L 1396 533 Q 1386 533 1386 523 L 1386 476 Q 1386 466 1396 466 Z"/></g><g><path fill="none" stroke="#000000" paint-order="fill stroke markers" d=" M 1396 466 L 1512 466 Q 1522 466 1522 476 L 1522 523 Q 1522 533 1512 533 L 1396 533 Q 1386 533 1386 523 L 1386 476 Q 1386 466 1396 466 Z" stroke-miterlimit="10" stroke-dasharray=""/></g><g><g><path fill="none" stroke="none"/><text fill="#000000" stroke="none" font-family="Arial" font-size="13px" font-style="normal" font-weight="bold" text-decoration="undefined" x="1636.5" y="493.5" text-anchor="middle" dominant-baseline="central" transform="matrix(1 0 0 1 -182 -14)">Traiter File d'Attente</text><text fill="#000000" stroke="none" font-family="Arial" font-size="13px" font-style="normal" font-weight="bold" text-decoration="undefined" x="1636.5" y="506.5" text-anchor="middle" dominant-baseline="central" transform="matrix(1 0 0 1 -182 -14)">Prioritaire Pool I/O</text><text fill="#000000" stroke="none" font-family="Arial" font-size="13px" font-style="normal" font-weight="bold" text-decoration="undefined" x="1636.5" y="519.5" text-anchor="middle" dominant-baseline="central" transform="matrix(1 0 0 1 -182 -14)">Critical</text></g></g><g><path fill="none" stroke="#000000" paint-order="fill stroke markers" d=" M 1610 528 L 1610 554 L 296 554" stroke-miterlimit="10" stroke-dasharray=""/></g><g><path fill="none" stroke="#000000" paint-order="fill stroke markers" d=" M 306.16267485762415 549.790482243984 L 296 554 L 306.16267485762415 558.209517756016" stroke-miterlimit="10" stroke-dasharray=""/></g><g><path fill="#ffffff" stroke="none" paint-order="stroke fill markers" d=" M 188 530 L 286.34814453125 530 Q 296.34814453125 530 296.34814453125 540 L 296.34814453125 561 Q 296.34814453125 571 286.34814453125 571 L 188 571 Q 178 571 178 561 L 178 540 Q 178 530 188 530 Z"/></g><g><path fill="none" stroke="#000000" paint-order="fill stroke markers" d=" M 188 530 L 286.34814453125 530 Q 296.34814453125 530 296.34814453125 540 L 296.34814453125 561 Q 296.34814453125 571 286.34814453125 571 L 188 571 Q 178 571 178 561 L 178 540 Q 178 530 188 530 Z" stroke-miterlimit="10" stroke-dasharray=""/></g><g><g><path fill="none" stroke="none"/><text fill="#000000" stroke="none" font-family="Arial" font-size="13px" font-style="normal" font-weight="bold" text-decoration="undefined" x="419.674072265625" y="557.5" text-anchor="middle" dominant-baseline="central" transform="matrix(1 0 0 1 -182 -14)">Envoi à IBKR</text></g></g><g><path fill="none" stroke="#000000" paint-order="fill stroke markers" d=" M 1115 498 L 1386 498" stroke-miterlimit="10" stroke-dasharray=""/></g><g><path fill="none" stroke="#000000" paint-order="fill stroke markers" d=" M 1375.837325142376 502.209517756016 L 1386 498 L 1375.837325142376 493.790482243984" stroke-miterlimit="10" stroke-dasharray=""/></g><g><path fill="none" stroke="#000000" paint-order="fill stroke markers" d=" M 1522 498 L 1554 498" stroke-miterlimit="10" stroke-dasharray=""/></g><g><path fill="none" stroke="#000000" paint-order="fill stroke markers" d=" M 1543.837325142376 502.209517756016 L 1554 498 L 1543.837325142376 493.790482243984" stroke-miterlimit="10" stroke-dasharray=""/></g><g><path fill="#ffffff" stroke="none" paint-order="stroke fill markers" d=" M 188 618 L 296 618 Q 306 618 306 628 L 306 662 Q 306 672 296 672 L 188 672 Q 178 672 178 662 L 178 628 Q 178 618 188 618 Z"/></g><g><path fill="none" stroke="#000000" paint-order="fill stroke markers" d=" M 188 618 L 296 618 Q 306 618 306 628 L 306 662 Q 306 672 296 672 L 188 672 Q 178 672 178 662 L 178 628 Q 178 618 188 618 Z" stroke-miterlimit="10" stroke-dasharray=""/></g><g><g><path fill="none" stroke="none"/><text fill="#000000" stroke="none" font-family="Arial" font-size="13px" font-style="normal" font-weight="bold" text-decoration="undefined" x="424.5" y="645.5" text-anchor="middle" dominant-baseline="central" transform="matrix(1 0 0 1 -182 -14)">Réception</text><text fill="#000000" stroke="none" font-family="Arial" font-size="13px" font-style="normal" font-weight="bold" text-decoration="undefined" x="424.5" y="658.5" text-anchor="middle" dominant-baseline="central" transform="matrix(1 0 0 1 -182 -14)">Asynchrone (Fill)</text></g></g><g><path fill="none" stroke="#000000" paint-order="fill stroke markers" d=" M 237 571 L 237 618" stroke-miterlimit="10" stroke-dasharray=""/></g><g><path fill="none" stroke="#000000" paint-order="fill stroke markers" d=" M 232.790482243984 607.8373251423759 L 237 618 L 241.209517756016 607.8373251423759" stroke-miterlimit="10" stroke-dasharray=""/></g><g><path fill="#ffffff" stroke="none" paint-order="stroke fill markers" d=" M 812 650 L 936 650 Q 946 650 946 660 L 946 707 Q 946 717 936 717 L 812 717 Q 802 717 802 707 L 802 660 Q 802 650 812 650 Z"/></g><g><path fill="none" stroke="#000000" paint-order="fill stroke markers" d=" M 812 650 L 936 650 Q 946 650 946 660 L 946 707 Q 946 717 936 717 L 812 717 Q 802 717 802 707 L 802 660 Q 802 650 812 650 Z" stroke-miterlimit="10" stroke-dasharray=""/></g><g><g><path fill="none" stroke="none"/><text fill="#000000" stroke="none" font-family="Arial" font-size="13px" font-style="normal" font-weight="bold" text-decoration="undefined" x="1056.5" y="677.5" text-anchor="middle" dominant-baseline="central" transform="matrix(1 0 0 1 -182 -14)">Traiter Lot/PnL &amp;</text><text fill="#000000" stroke="none" font-family="Arial" font-size="13px" font-style="normal" font-weight="bold" text-decoration="undefined" x="1056.5" y="690.5" text-anchor="middle" dominant-baseline="central" transform="matrix(1 0 0 1 -182 -14)">Mise à Jour Position</text><text fill="#000000" stroke="none" font-family="Arial" font-size="13px" font-style="normal" font-weight="bold" text-decoration="undefined" x="1056.5" y="703.5" text-anchor="middle" dominant-baseline="central" transform="matrix(1 0 0 1 -182 -14)">(PM)</text></g></g><g><path fill="none" stroke="#000000" paint-order="fill stroke markers" d=" M 306 642 L 330 642" stroke-miterlimit="10" stroke-dasharray=""/></g><g><path fill="none" stroke="#000000" paint-order="fill stroke markers" d=" M 319.83732514237585 646.209517756016 L 330 642 L 319.83732514237585 637.790482243984" stroke-miterlimit="10" stroke-dasharray=""/></g><g><path fill="none" stroke="#000000" paint-order="fill stroke markers" d=" M 250 107 L 250 130" stroke-miterlimit="10" stroke-dasharray=""/></g><g><path fill="none" stroke="#000000" paint-order="fill stroke markers" d=" M 245.790482243984 119.83732514237585 L 250 130 L 254.209517756016 119.83732514237585" stroke-miterlimit="10" stroke-dasharray=""/></g><g><path fill="none" stroke="#000000" paint-order="fill stroke markers" d=" M 759 298 L 794 298" stroke-miterlimit="10" stroke-dasharray=""/></g><g><path fill="none" stroke="#000000" paint-order="fill stroke markers" d=" M 783.8373251423759 302.209517756016 L 794 298 L 783.8373251423758 293.790482243984" stroke-miterlimit="10" stroke-dasharray=""/></g><g><path fill="#ffffff" stroke="none" paint-order="stroke fill markers" d=" M 804 274 L 937.76171875 274 Q 947.76171875 274 947.76171875 284 L 947.76171875 318 Q 947.76171875 328 937.76171875 328 L 804 328 Q 794 328 794 318 L 794 284 Q 794 274 804 274 Z"/></g><g><path fill="none" stroke="#000000" paint-order="fill stroke markers" d=" M 804 274 L 937.76171875 274 Q 947.76171875 274 947.76171875 284 L 947.76171875 318 Q 947.76171875 328 937.76171875 328 L 804 328 Q 794 328 794 318 L 794 284 Q 794 274 804 274 Z" stroke-miterlimit="10" stroke-dasharray=""/></g><g><g><path fill="none" stroke="none"/><text fill="#000000" stroke="none" font-family="Arial" font-size="13px" font-style="normal" font-weight="bold" text-decoration="undefined" x="1053.380859375" y="301.5" text-anchor="middle" dominant-baseline="central" transform="matrix(1 0 0 1 -182 -14)">Évaluation de Stratégie</text><text fill="#000000" stroke="none" font-family="Arial" font-size="13px" font-style="normal" font-weight="bold" text-decoration="undefined" x="1053.380859375" y="314.5" text-anchor="middle" dominant-baseline="central" transform="matrix(1 0 0 1 -182 -14)">(Optionnel)</text></g></g><g><path fill="none" stroke="#000000" paint-order="fill stroke markers" d=" M 866 328 L 866 354" stroke-miterlimit="10" stroke-dasharray=""/></g><g><path fill="none" stroke="#000000" paint-order="fill stroke markers" d=" M 861.7904822439841 343.83732514237585 L 866 354 L 870.2095177560159 343.83732514237585" stroke-miterlimit="10" stroke-dasharray=""/></g><g><path fill="none" stroke="#000000" paint-order="fill stroke markers" d=" M 938 386 L 1018 386 L 1018 474" stroke-miterlimit="10" stroke-dasharray=""/></g><g><path fill="none" stroke="#000000" paint-order="fill stroke markers" d=" M 1013.7904822439841 463.83732514237585 L 1018 474 L 1022.2095177560159 463.83732514237585" stroke-miterlimit="10" stroke-dasharray=""/></g><g><path fill="#ffffff" stroke="none" paint-order="stroke fill markers" d=" M 804 354 L 928 354 Q 938 354 938 364 L 938 398 Q 938 408 928 408 L 804 408 Q 794 408 794 398 L 794 364 Q 794 354 804 354 Z"/></g><g><path fill="none" stroke="#000000" paint-order="fill stroke markers" d=" M 804 354 L 928 354 Q 938 354 938 364 L 938 398 Q 938 408 928 408 L 804 408 Q 794 408 794 398 L 794 364 Q 794 354 804 354 Z" stroke-miterlimit="10" stroke-dasharray=""/></g><g><g><path fill="none" stroke="none"/><text fill="#000000" stroke="none" font-family="Arial" font-size="13px" font-style="normal" font-weight="bold" text-decoration="undefined" x="1048.5" y="381.5" text-anchor="middle" dominant-baseline="central" transform="matrix(1 0 0 1 -182 -14)">Créer Ordre Standard</text><text fill="#000000" stroke="none" font-family="Arial" font-size="13px" font-style="normal" font-weight="bold" text-decoration="undefined" x="1048.5" y="394.5" text-anchor="middle" dominant-baseline="central" transform="matrix(1 0 0 1 -182 -14)">(Si Requis)</text></g></g><g><path fill="#ffffff" stroke="none" paint-order="stroke fill markers" d=" M 226 150 L 245.5 130 L 265 150 L 245.5 170 L 226 150"/></g><g><path fill="none" stroke="#000000" paint-order="fill stroke markers" d=" M 226 150 L 245.5 130 L 265 150 L 245.5 170 L 226 150 L 226 150" stroke-miterlimit="10" stroke-dasharray=""/></g><g><path fill="none" stroke="#000000" paint-order="fill stroke markers" d=" M 226 157 L 154 157" stroke-miterlimit="10" stroke-dasharray=""/></g><g><path fill="none" stroke="#000000" paint-order="fill stroke markers" d=" M 164.16267485762415 152.790482243984 L 154 157 L 164.16267485762415 161.209517756016" stroke-miterlimit="10" stroke-dasharray=""/></g><g><rect fill="#ffffff" stroke="none" x="360" y="190" width="131.47265625" height="13" transform="matrix(1 0 0 1 -182 -14)"/></g><g><g><path fill="none" stroke="none"/><text fill="#000000" stroke="none" font-family="Arial" font-size="13px" font-style="normal" font-weight="normal" text-decoration="undefined" x="425.736328125" y="196.5" text-anchor="middle" dominant-baseline="central" transform="matrix(1 0 0 1 -182 -14)"> [IF MARKET_CLOSE]</text></g></g><g><path fill="#ffffff" stroke="none" paint-order="stroke fill markers" d=" M 52 114 L 144 114 Q 154 114 154 124 L 154 158 Q 154 168 144 168 L 52 168 Q 42 168 42 158 L 42 124 Q 42 114 52 114 Z"/></g><g><path fill="none" stroke="#000000" paint-order="fill stroke markers" d=" M 52 114 L 144 114 Q 154 114 154 124 L 154 158 Q 154 168 144 168 L 52 168 Q 42 168 42 158 L 42 124 Q 42 114 52 114 Z" stroke-miterlimit="10" stroke-dasharray=""/></g><g><g><path fill="none" stroke="none"/><text fill="#000000" stroke="none" font-family="Arial" font-size="13px" font-style="normal" font-weight="bold" text-decoration="undefined" x="280.5" y="141.5" text-anchor="middle" dominant-baseline="central" transform="matrix(1 0 0 1 -182 -14)">Transition vers</text><text fill="#000000" stroke="none" font-family="Arial" font-size="13px" font-style="normal" font-weight="bold" text-decoration="undefined" x="280.5" y="154.5" text-anchor="middle" dominant-baseline="central" transform="matrix(1 0 0 1 -182 -14)">Post-Trade</text></g></g><g><path fill="#000000" stroke="none" paint-order="stroke fill markers" d=" M 333 610 L 333 610 Q 336 610 336 613 L 336 687 Q 336 690 333 690 L 333 690 Q 330 690 330 687 L 330 613 Q 330 610 333 610 Z"/></g><g><path fill="none" stroke="#000000" paint-order="fill stroke markers" d=" M 336 674 L 802 674" stroke-miterlimit="10" stroke-dasharray=""/></g><g><path fill="none" stroke="#000000" paint-order="fill stroke markers" d=" M 791.8373251423759 678.209517756016 L 802 674 L 791.8373251423758 669.790482243984" stroke-miterlimit="10" stroke-dasharray=""/></g><g><path fill="#ffffff" stroke="none" paint-order="stroke fill markers" d=" M 980 594 L 1136 594 Q 1146 594 1146 604 L 1146 638 Q 1146 648 1136 648 L 980 648 Q 970 648 970 638 L 970 604 Q 970 594 980 594 Z"/></g><g><path fill="none" stroke="#000000" paint-order="fill stroke markers" d=" M 980 594 L 1136 594 Q 1146 594 1146 604 L 1146 638 Q 1146 648 1136 648 L 980 648 Q 970 648 970 638 L 970 604 Q 970 594 980 594 Z" stroke-miterlimit="10" stroke-dasharray=""/></g><g><g><path fill="none" stroke="none"/><text fill="#000000" stroke="none" font-family="Arial" font-size="13px" font-style="normal" font-weight="bold" text-decoration="undefined" x="1240.5" y="621.5" text-anchor="middle" dominant-baseline="central" transform="matrix(1 0 0 1 -182 -14)">Mettre à Jour Statut de</text><text fill="#000000" stroke="none" font-family="Arial" font-size="13px" font-style="normal" font-weight="bold" text-decoration="undefined" x="1240.5" y="634.5" text-anchor="middle" dominant-baseline="central" transform="matrix(1 0 0 1 -182 -14)">l'Ordre (OM)</text></g></g><g><path fill="none" stroke="#000000" paint-order="fill stroke markers" d=" M 336 626 L 970 626" stroke-miterlimit="10" stroke-dasharray=""/></g><g><path fill="none" stroke="#000000" paint-order="fill stroke markers" d=" M 959.8373251423759 630.209517756016 L 970 626 L 959.8373251423759 621.790482243984" stroke-miterlimit="10" stroke-dasharray=""/></g><g><path fill="#ffffff" stroke="none" paint-order="stroke fill markers" d=" M 1404 194 L 1504 194 Q 1514 194 1514 204 L 1514 251 Q 1514 261 1504 261 L 1404 261 Q 1394 261 1394 251 L 1394 204 Q 1394 194 1404 194 Z"/></g><g><path fill="none" stroke="#000000" paint-order="fill stroke markers" d=" M 1404 194 L 1504 194 Q 1514 194 1514 204 L 1514 251 Q 1514 261 1504 261 L 1404 261 Q 1394 261 1394 251 L 1394 204 Q 1394 194 1404 194 Z" stroke-miterlimit="10" stroke-dasharray=""/></g><g><g><path fill="none" stroke="none"/><text fill="#000000" stroke="none" font-family="Arial" font-size="13px" font-style="normal" font-weight="bold" text-decoration="undefined" x="1636.5" y="221.5" text-anchor="middle" dominant-baseline="central" transform="matrix(1 0 0 1 -182 -14)">Déléguer au</text><text fill="#000000" stroke="none" font-family="Arial" font-size="13px" font-style="normal" font-weight="bold" text-decoration="undefined" x="1636.5" y="234.5" text-anchor="middle" dominant-baseline="central" transform="matrix(1 0 0 1 -182 -14)">Thread Manager</text><text fill="#000000" stroke="none" font-family="Arial" font-size="13px" font-style="normal" font-weight="bold" text-decoration="undefined" x="1636.5" y="247.5" text-anchor="middle" dominant-baseline="central" transform="matrix(1 0 0 1 -182 -14)">Pool I/O Bulk</text></g></g><g><rect fill="#ffffff" stroke="none" x="1712" y="48" width="168" height="21" transform="matrix(1 0 0 1 -182 -14)"/></g><g><path fill="none" stroke="#000000" paint-order="fill stroke markers" d=" M 1530 34 L 1698 34 L 1698 55 L 1530 55 L 1530 34 Z Z" stroke-miterlimit="10" stroke-width="2" stroke-dasharray=""/></g><g><path fill="none" stroke="#000000" paint-order="fill stroke markers" d=" M 1530 730 L 1530 34 L 1698 34 L 1698 730" stroke-miterlimit="10" stroke-width="2" stroke-dasharray=""/></g><g><g><path fill="none" stroke="none"/><text fill="#000000" stroke="none" font-family="Arial" font-size="13px" font-style="normal" font-weight="normal" text-decoration="undefined" x="1796" y="52" text-anchor="middle" dominant-baseline="text-before-edge" transform="matrix(1 0 0 1 -182 -14)">Thread Manager</text></g></g><g><path fill="none" stroke="#000000" paint-order="fill stroke markers" d=" M 1514 222 L 1554 222" stroke-miterlimit="10" stroke-dasharray=""/></g><g><path fill="none" stroke="#000000" paint-order="fill stroke markers" d=" M 1543.837325142376 226.209517756016 L 1554 222 L 1543.837325142376 217.790482243984" stroke-miterlimit="10" stroke-dasharray=""/></g><g><path fill="#ffffff" stroke="none" paint-order="stroke fill markers" d=" M 1564 202 L 1664 202 Q 1674 202 1674 212 L 1674 246 Q 1674 256 1664 256 L 1564 256 Q 1554 256 1554 246 L 1554 212 Q 1554 202 1564 202 Z"/></g><g><path fill="none" stroke="#000000" paint-order="fill stroke markers" d=" M 1564 202 L 1664 202 Q 1674 202 1674 212 L 1674 246 Q 1674 256 1664 256 L 1564 256 Q 1554 256 1554 246 L 1554 212 Q 1554 202 1564 202 Z" stroke-miterlimit="10" stroke-dasharray=""/></g><g><g><path fill="none" stroke="none"/><text fill="#000000" stroke="none" font-family="Arial" font-size="13px" font-style="normal" font-weight="bold" text-decoration="undefined" x="1796.5" y="229.5" text-anchor="middle" dominant-baseline="central" transform="matrix(1 0 0 1 -182 -14)">Persistance en</text><text fill="#000000" stroke="none" font-family="Arial" font-size="13px" font-style="normal" font-weight="bold" text-decoration="undefined" x="1796.5" y="242.5" text-anchor="middle" dominant-baseline="central" transform="matrix(1 0 0 1 -182 -14)">Base de données</text></g></g><g><path fill="#ffffff" stroke="none" paint-order="stroke fill markers" d=" M 1564 474 L 1664 474 Q 1674 474 1674 484 L 1674 518 Q 1674 528 1664 528 L 1564 528 Q 1554 528 1554 518 L 1554 484 Q 1554 474 1564 474 Z"/></g><g><path fill="none" stroke="#000000" paint-order="fill stroke markers" d=" M 1564 474 L 1664 474 Q 1674 474 1674 484 L 1674 518 Q 1674 528 1664 528 L 1564 528 Q 1554 528 1554 518 L 1554 484 Q 1554 474 1564 474 Z" stroke-miterlimit="10" stroke-dasharray=""/></g><g><g><path fill="none" stroke="none"/><text fill="#000000" stroke="none" font-family="Arial" font-size="13px" font-style="normal" font-weight="bold" text-decoration="undefined" x="1796.5" y="501.5" text-anchor="middle" dominant-baseline="central" transform="matrix(1 0 0 1 -182 -14)">Soumission à</text><text fill="#000000" stroke="none" font-family="Arial" font-size="13px" font-style="normal" font-weight="bold" text-decoration="undefined" x="1796.5" y="514.5" text-anchor="middle" dominant-baseline="central" transform="matrix(1 0 0 1 -182 -14)">l'Exécution</text></g></g><g><path fill="none" stroke="#000000" paint-order="fill stroke markers" d=" M 946 674 L 1170 674" stroke-miterlimit="10" stroke-dasharray=""/></g><g><path fill="none" stroke="#000000" paint-order="fill stroke markers" d=" M 1159.837325142376 678.209517756016 L 1170 674 L 1159.837325142376 669.790482243984" stroke-miterlimit="10" stroke-dasharray=""/></g><g><path fill="none" stroke="#000000" paint-order="fill stroke markers" d=" M 1146 626 L 1170 626" stroke-miterlimit="10" stroke-dasharray=""/></g><g><path fill="none" stroke="#000000" paint-order="fill stroke markers" d=" M 1159.837325142376 630.209517756016 L 1170 626 L 1159.837325142376 621.790482243984" stroke-miterlimit="10" stroke-dasharray=""/></g><g><path fill="none" stroke="#000000" paint-order="fill stroke markers" d=" M 1522 626 L 1546 626" stroke-miterlimit="10" stroke-dasharray=""/></g><g><path fill="none" stroke="#000000" paint-order="fill stroke markers" d=" M 1535.837325142376 630.209517756016 L 1546 626 L 1535.837325142376 621.790482243984" stroke-miterlimit="10" stroke-dasharray=""/></g><g><path fill="#ffffff" stroke="none" paint-order="stroke fill markers" d=" M 1556 602 L 1680 602 Q 1690 602 1690 612 L 1690 659 Q 1690 669 1680 669 L 1556 669 Q 1546 669 1546 659 L 1546 612 Q 1546 602 1556 602 Z"/></g><g><path fill="none" stroke="#000000" paint-order="fill stroke markers" d=" M 1556 602 L 1680 602 Q 1690 602 1690 612 L 1690 659 Q 1690 669 1680 669 L 1556 669 Q 1546 669 1546 659 L 1546 612 Q 1546 602 1556 602 Z" stroke-miterlimit="10" stroke-dasharray=""/></g><g><g><path fill="none" stroke="none"/><text fill="#000000" stroke="none" font-family="Arial" font-size="13px" font-style="normal" font-weight="bold" text-decoration="undefined" x="1800.5" y="629.5" text-anchor="middle" dominant-baseline="central" transform="matrix(1 0 0 1 -182 -14)">Persistance en Base</text><text fill="#000000" stroke="none" font-family="Arial" font-size="13px" font-style="normal" font-weight="bold" text-decoration="undefined" x="1800.5" y="642.5" text-anchor="middle" dominant-baseline="central" transform="matrix(1 0 0 1 -182 -14)">de données</text><text fill="#000000" stroke="none" font-family="Arial" font-size="13px" font-style="normal" font-weight="bold" text-decoration="undefined" x="1800.5" y="655.5" text-anchor="middle" dominant-baseline="central" transform="matrix(1 0 0 1 -182 -14)">Atomique</text></g></g><g><path fill="#ffffff" stroke="none" paint-order="stroke fill markers" d=" M 1236 602 L 1352 602 Q 1362 602 1362 612 L 1362 659 Q 1362 669 1352 669 L 1236 669 Q 1226 669 1226 659 L 1226 612 Q 1226 602 1236 602 Z"/></g><g><path fill="none" stroke="#000000" paint-order="fill stroke markers" d=" M 1236 602 L 1352 602 Q 1362 602 1362 612 L 1362 659 Q 1362 669 1352 669 L 1236 669 Q 1226 669 1226 659 L 1226 612 Q 1226 602 1236 602 Z" stroke-miterlimit="10" stroke-dasharray=""/></g><g><g><path fill="none" stroke="none"/><text fill="#000000" stroke="none" font-family="Arial" font-size="13px" font-style="normal" font-weight="bold" text-decoration="undefined" x="1476.5" y="629.5" text-anchor="middle" dominant-baseline="central" transform="matrix(1 0 0 1 -182 -14)">Formuler &amp;</text><text fill="#000000" stroke="none" font-family="Arial" font-size="13px" font-style="normal" font-weight="bold" text-decoration="undefined" x="1476.5" y="642.5" text-anchor="middle" dominant-baseline="central" transform="matrix(1 0 0 1 -182 -14)">Soumettre Tâche</text><text fill="#000000" stroke="none" font-family="Arial" font-size="13px" font-style="normal" font-weight="bold" text-decoration="undefined" x="1476.5" y="655.5" text-anchor="middle" dominant-baseline="central" transform="matrix(1 0 0 1 -182 -14)">d'Écriture</text></g></g><g><path fill="#000000" stroke="none" paint-order="stroke fill markers" d=" M 1173 594 L 1173 594 Q 1176 594 1176 597 L 1176 695 Q 1176 698 1173 698 L 1173 698 Q 1170 698 1170 695 L 1170 597 Q 1170 594 1173 594 Z"/></g><g><path fill="none" stroke="#000000" paint-order="fill stroke markers" d=" M 1176 626 L 1226 626" stroke-miterlimit="10" stroke-dasharray=""/></g><g><path fill="none" stroke="#000000" paint-order="fill stroke markers" d=" M 1215.837325142376 630.209517756016 L 1226 626 L 1215.837325142376 621.790482243984" stroke-miterlimit="10" stroke-dasharray=""/></g><g><path fill="#ffffff" stroke="none" paint-order="stroke fill markers" d=" M 1236 194 L 1352 194 Q 1362 194 1362 204 L 1362 251 Q 1362 261 1352 261 L 1236 261 Q 1226 261 1226 251 L 1226 204 Q 1226 194 1236 194 Z"/></g><g><path fill="none" stroke="#000000" paint-order="fill stroke markers" d=" M 1236 194 L 1352 194 Q 1362 194 1362 204 L 1362 251 Q 1362 261 1352 261 L 1236 261 Q 1226 261 1226 251 L 1226 204 Q 1226 194 1236 194 Z" stroke-miterlimit="10" stroke-dasharray=""/></g><g><g><path fill="none" stroke="none"/><text fill="#000000" stroke="none" font-family="Arial" font-size="13px" font-style="normal" font-weight="bold" text-decoration="undefined" x="1476.5" y="221.5" text-anchor="middle" dominant-baseline="central" transform="matrix(1 0 0 1 -182 -14)">Formuler &amp;</text><text fill="#000000" stroke="none" font-family="Arial" font-size="13px" font-style="normal" font-weight="bold" text-decoration="undefined" x="1476.5" y="234.5" text-anchor="middle" dominant-baseline="central" transform="matrix(1 0 0 1 -182 -14)">Soumettre Tâche</text><text fill="#000000" stroke="none" font-family="Arial" font-size="13px" font-style="normal" font-weight="bold" text-decoration="undefined" x="1476.5" y="247.5" text-anchor="middle" dominant-baseline="central" transform="matrix(1 0 0 1 -182 -14)">d'Écriture</text></g></g><g><path fill="#ffffff" stroke="none" paint-order="stroke fill markers" d=" M 1396 602 L 1512 602 Q 1522 602 1522 612 L 1522 646 Q 1522 656 1512 656 L 1396 656 Q 1386 656 1386 646 L 1386 612 Q 1386 602 1396 602 Z"/></g><g><path fill="none" stroke="#000000" paint-order="fill stroke markers" d=" M 1396 602 L 1512 602 Q 1522 602 1522 612 L 1522 646 Q 1522 656 1512 656 L 1396 656 Q 1386 656 1386 646 L 1386 612 Q 1386 602 1396 602 Z" stroke-miterlimit="10" stroke-dasharray=""/></g><g><g><path fill="none" stroke="none"/><text fill="#000000" stroke="none" font-family="Arial" font-size="13px" font-style="normal" font-weight="bold" text-decoration="undefined" x="1636.5" y="629.5" text-anchor="middle" dominant-baseline="central" transform="matrix(1 0 0 1 -182 -14)">Déléguer au Thread</text><text fill="#000000" stroke="none" font-family="Arial" font-size="13px" font-style="normal" font-weight="bold" text-decoration="undefined" x="1636.5" y="642.5" text-anchor="middle" dominant-baseline="central" transform="matrix(1 0 0 1 -182 -14)">Pool I/O Critical</text></g></g><g><path fill="none" stroke="#000000" paint-order="fill stroke markers" d=" M 1362 626 L 1386 626" stroke-miterlimit="10" stroke-dasharray=""/></g><g><path fill="none" stroke="#000000" paint-order="fill stroke markers" d=" M 1375.837325142376 630.209517756016 L 1386 626 L 1375.837325142376 621.790482243984" stroke-miterlimit="10" stroke-dasharray=""/></g><g><path fill="none" stroke="#000000" paint-order="fill stroke markers" d=" M 1362 226 L 1394 226" stroke-miterlimit="10" stroke-dasharray=""/></g><g><path fill="none" stroke="#000000" paint-order="fill stroke markers" d=" M 1383.837325142376 230.209517756016 L 1394 226 L 1383.837325142376 221.790482243984" stroke-miterlimit="10" stroke-dasharray=""/></g><g><path fill="#ffffff" stroke="none" paint-order="stroke fill markers" d=" M 372 66 L 496 66 Q 506 66 506 76 L 506 110 Q 506 120 496 120 L 372 120 Q 362 120 362 110 L 362 76 Q 362 66 372 66 Z"/></g><g><path fill="none" stroke="#000000" paint-order="fill stroke markers" d=" M 372 66 L 496 66 Q 506 66 506 76 L 506 110 Q 506 120 496 120 L 372 120 Q 362 120 362 110 L 362 76 Q 362 66 372 66 Z" stroke-miterlimit="10" stroke-dasharray=""/></g><g><g><path fill="none" stroke="none"/><text fill="#000000" stroke="none" font-family="Arial" font-size="13px" font-style="normal" font-weight="bold" text-decoration="undefined" x="616.5" y="93.5" text-anchor="middle" dominant-baseline="central" transform="matrix(1 0 0 1 -182 -14)">Surveillance du Flux</text><text fill="#000000" stroke="none" font-family="Arial" font-size="13px" font-style="normal" font-weight="bold" text-decoration="undefined" x="616.5" y="106.5" text-anchor="middle" dominant-baseline="central" transform="matrix(1 0 0 1 -182 -14)">(Timeout/Latence)</text></g></g><g><path fill="none" stroke="#000000" paint-order="fill stroke markers" d=" M 506 98 L 530 98" stroke-miterlimit="10" stroke-dasharray=""/></g><g><path fill="none" stroke="#000000" paint-order="fill stroke markers" d=" M 519.8373251423759 102.20951775601598 L 530 98 L 519.8373251423758 93.79048224398402" stroke-miterlimit="10" stroke-dasharray=""/></g><g><path fill="#ffffff" stroke="none" paint-order="stroke fill markers" d=" M 388 146 L 568 146 Q 578 146 578 156 L 578 177 Q 578 187 568 187 L 388 187 Q 378 187 378 177 L 378 156 Q 378 146 388 146 Z"/></g><g><path fill="none" stroke="#000000" paint-order="fill stroke markers" d=" M 388 146 L 568 146 Q 578 146 578 156 L 578 177 Q 578 187 568 187 L 388 187 Q 378 187 378 177 L 378 156 Q 378 146 388 146 Z" stroke-miterlimit="10" stroke-dasharray=""/></g><g><g><path fill="none" stroke="none"/><text fill="#000000" stroke="none" font-family="Arial" font-size="13px" font-style="normal" font-weight="bold" text-decoration="undefined" x="660.5" y="173.5" text-anchor="middle" dominant-baseline="central" transform="matrix(1 0 0 1 -182 -14)">Générer Snapshot Agrégé</text></g></g><g><path fill="#ffffff" stroke="none" paint-order="stroke fill markers" d=" M 60 266 L 146.0908203125 266 Q 156.0908203125 266 156.0908203125 276 L 156.0908203125 310 Q 156.0908203125 320 146.0908203125 320 L 60 320 Q 50 320 50 310 L 50 276 Q 50 266 60 266 Z"/></g><g><path fill="none" stroke="#000000" paint-order="fill stroke markers" d=" M 60 266 L 146.0908203125 266 Q 156.0908203125 266 156.0908203125 276 L 156.0908203125 310 Q 156.0908203125 320 146.0908203125 320 L 60 320 Q 50 320 50 310 L 50 276 Q 50 266 60 266 Z" stroke-miterlimit="10" stroke-dasharray=""/></g><g><g><path fill="none" stroke="none"/><text fill="#000000" stroke="none" font-family="Arial" font-size="13px" font-style="normal" font-weight="bold" text-decoration="undefined" x="285.54541015625" y="293.5" text-anchor="middle" dominant-baseline="central" transform="matrix(1 0 0 1 -182 -14)">Déclenchement</text><text fill="#000000" stroke="none" font-family="Arial" font-size="13px" font-style="normal" font-weight="bold" text-decoration="undefined" x="285.54541015625" y="306.5" text-anchor="middle" dominant-baseline="central" transform="matrix(1 0 0 1 -182 -14)">Kill Switch</text></g></g><g><path fill="#ffffff" stroke="none" paint-order="stroke fill markers" d=" M 530 98 L 546 82 L 562 98 L 546 114 L 530 98"/></g><g><path fill="none" stroke="#000000" paint-order="fill stroke markers" d=" M 530 98 L 546 82 L 562 98 L 546 114 L 530 98 L 530 98" stroke-miterlimit="10" stroke-dasharray=""/></g><g><path fill="none" stroke="#000000" paint-order="fill stroke markers" d=" M 562 98 L 570 98 L 570 146" stroke-miterlimit="10" stroke-dasharray=""/></g><g><path fill="none" stroke="#000000" paint-order="fill stroke markers" d=" M 565.790482243984 135.83732514237585 L 570 146 L 574.209517756016 135.83732514237585" stroke-miterlimit="10" stroke-dasharray=""/></g><g><rect fill="#ffffff" stroke="none" x="720" y="79" width="44.078125" height="13" transform="matrix(1 0 0 1 -182 -14)"/></g><g><g><path fill="none" stroke="none"/><text fill="#000000" stroke="none" font-family="Arial" font-size="13px" font-style="normal" font-weight="normal" text-decoration="undefined" x="742.0390625" y="85.5" text-anchor="middle" dominant-baseline="central" transform="matrix(1 0 0 1 -182 -14)"> [ELSE]</text></g></g><g><path fill="none" stroke="#000000" paint-order="fill stroke markers" d=" M 538 114 L 538 130 L 354 130 L 354 293 L 156 293" stroke-miterlimit="10" stroke-dasharray=""/></g><g><path fill="none" stroke="#000000" paint-order="fill stroke markers" d=" M 166.16267485762415 288.790482243984 L 156 293 L 166.16267485762415 297.209517756016" stroke-miterlimit="10" stroke-dasharray=""/></g><g><rect fill="#ffffff" stroke="none" x="359" y="310" width="160.39892578125" height="13" transform="matrix(1 0 0 1 -182 -14)"/></g><g><g><path fill="none" stroke="none"/><text fill="#000000" stroke="none" font-family="Arial" font-size="13px" font-style="normal" font-weight="normal" text-decoration="undefined" x="439.199462890625" y="316.5" text-anchor="middle" dominant-baseline="central" transform="matrix(1 0 0 1 -182 -14)"> [IF Latence/Erreur Critique]</text></g></g></g></svg>