<svg version="1.1" xmlns="http://www.w3.org/2000/svg" xmlns:xlink="http://www.w3.org/1999/xlink" width="1396" height="876"><defs/><g><g><rect fill="#ffffff" stroke="none" x="48" y="40" width="1376" height="856" transform="matrix(1 0 0 1 -38 -30)"/></g><g><path fill="none" stroke="#000000" paint-order="fill stroke markers" d=" M 10 10 L 1386 10 L 1386 866 L 10 866 L 10 10 Z Z" stroke-miterlimit="10" stroke-dasharray=""/></g><g><rect fill="#ffffff" stroke="none" x="72" y="88" width="21" height="344" transform="matrix(1 0 0 1 -38 -30)"/></g><g><path fill="none" stroke="#000000" paint-order="fill stroke markers" d=" M 34 58 L 55 58 L 55 402 L 34 402 L 34 58 Z Z" stroke-miterlimit="10" stroke-width="2" stroke-dasharray=""/></g><g><path fill="none" stroke="#000000" paint-order="fill stroke markers" d=" M 1362 58 L 34 58 L 34 402 L 1362 402" stroke-miterlimit="10" stroke-width="2" stroke-dasharray=""/></g><g><g><path fill="none" stroke="none"/><text fill="#000000" stroke="none" font-family="Arial" font-size="13px" font-style="normal" font-weight="normal" text-decoration="undefined" x="0" y="0" text-anchor="middle" dominant-baseline="text-before-edge" transform="matrix(6.123233995736766e-17 -1 1 6.123233995736766e-17 38 230)">System Core</text></g></g><g><rect fill="#ffffff" stroke="none" x="944" y="64" width="312" height="21" transform="matrix(1 0 0 1 -38 -30)"/></g><g><path fill="none" stroke="#000000" paint-order="fill stroke markers" d=" M 906 34 L 1218 34 L 1218 55 L 906 55 L 906 34 Z Z" stroke-miterlimit="10" stroke-width="2" stroke-dasharray=""/></g><g><path fill="none" stroke="#000000" paint-order="fill stroke markers" d=" M 906 842 L 906 34 L 1218 34 L 1218 842" stroke-miterlimit="10" stroke-width="2" stroke-dasharray=""/></g><g><g><path fill="none" stroke="none"/><text fill="#000000" stroke="none" font-family="Arial" font-size="13px" font-style="normal" font-weight="normal" text-decoration="undefined" x="1100" y="68" text-anchor="middle" dominant-baseline="text-before-edge" transform="matrix(1 0 0 1 -38 -30)">Post-Market</text></g></g><g><rect fill="#ffffff" stroke="none" x="560" y="64" width="384" height="21" transform="matrix(1 0 0 1 -38 -30)"/></g><g><path fill="none" stroke="#000000" paint-order="fill stroke markers" d=" M 522 34 L 906 34 L 906 55 L 522 55 L 522 34 Z Z" stroke-miterlimit="10" stroke-width="2" stroke-dasharray=""/></g><g><path fill="none" stroke="#000000" paint-order="fill stroke markers" d=" M 522 842 L 522 34 L 906 34 L 906 842" stroke-miterlimit="10" stroke-width="2" stroke-dasharray=""/></g><g><g><path fill="none" stroke="none"/><text fill="#000000" stroke="none" font-family="Arial" font-size="13px" font-style="normal" font-weight="normal" text-decoration="undefined" x="752" y="68" text-anchor="middle" dominant-baseline="text-before-edge" transform="matrix(1 0 0 1 -38 -30)">In-Market</text></g></g><g><rect fill="#ffffff" stroke="none" x="96" y="64" width="464" height="21" transform="matrix(1 0 0 1 -38 -30)"/></g><g><path fill="none" stroke="#000000" paint-order="fill stroke markers" d=" M 58 34 L 522 34 L 522 55 L 58 55 L 58 34 Z Z" stroke-miterlimit="10" stroke-width="2" stroke-dasharray=""/></g><g><path fill="none" stroke="#000000" paint-order="fill stroke markers" d=" M 58 842 L 58 34 L 522 34 L 522 842" stroke-miterlimit="10" stroke-width="2" stroke-dasharray=""/></g><g><g><path fill="none" stroke="none"/><text fill="#000000" stroke="none" font-family="Arial" font-size="13px" font-style="normal" font-weight="normal" text-decoration="undefined" x="328" y="68" text-anchor="middle" dominant-baseline="text-before-edge" transform="matrix(1 0 0 1 -38 -30)">Pre-Market</text></g></g><g><rect fill="#ffffff" stroke="none" x="1256" y="64" width="144" height="21" transform="matrix(1 0 0 1 -38 -30)"/></g><g><path fill="none" stroke="#000000" paint-order="fill stroke markers" d=" M 1218 34 L 1362 34 L 1362 55 L 1218 55 L 1218 34 Z Z" stroke-miterlimit="10" stroke-width="2" stroke-dasharray=""/></g><g><path fill="none" stroke="#000000" paint-order="fill stroke markers" d=" M 1218 842 L 1218 34 L 1362 34 L 1362 842" stroke-miterlimit="10" stroke-width="2" stroke-dasharray=""/></g><g><g><path fill="none" stroke="none"/><text fill="#000000" stroke="none" font-family="Arial" font-size="13px" font-style="normal" font-weight="normal" text-decoration="undefined" x="1328" y="68" text-anchor="middle" dominant-baseline="text-before-edge" transform="matrix(1 0 0 1 -38 -30)">Off-Cycle</text></g></g><g><rect fill="#ffffff" stroke="none" x="72" y="432" width="21" height="176" transform="matrix(1 0 0 1 -38 -30)"/></g><g><path fill="none" stroke="#000000" paint-order="fill stroke markers" d=" M 34 402 L 55 402 L 55 578 L 34 578 L 34 402 Z Z" stroke-miterlimit="10" stroke-width="2" stroke-dasharray=""/></g><g><path fill="none" stroke="#000000" paint-order="fill stroke markers" d=" M 1362 402 L 34 402 L 34 578 L 1362 578" stroke-miterlimit="10" stroke-width="2" stroke-dasharray=""/></g><g><g><path fill="none" stroke="none"/><text fill="#000000" stroke="none" font-family="Arial" font-size="13px" font-style="normal" font-weight="normal" text-decoration="undefined" x="0" y="0" text-anchor="middle" dominant-baseline="text-before-edge" transform="matrix(6.123233995736766e-17 -1 1 6.123233995736766e-17 38 490)">Trading / Risk Core</text></g></g><g><rect fill="#ffffff" stroke="none" x="72" y="608" width="21" height="264" transform="matrix(1 0 0 1 -38 -30)"/></g><g><path fill="none" stroke="#000000" paint-order="fill stroke markers" d=" M 34 578 L 55 578 L 55 842 L 34 842 L 34 578 Z Z" stroke-miterlimit="10" stroke-width="2" stroke-dasharray=""/></g><g><path fill="none" stroke="#000000" paint-order="fill stroke markers" d=" M 1362 578 L 34 578 L 34 842 L 1362 842" stroke-miterlimit="10" stroke-width="2" stroke-dasharray=""/></g><g><g><path fill="none" stroke="none"/><text fill="#000000" stroke="none" font-family="Arial" font-size="13px" font-style="normal" font-weight="normal" text-decoration="undefined" x="0" y="0" text-anchor="middle" dominant-baseline="text-before-edge" transform="matrix(6.123233995736766e-17 -1 1 6.123233995736766e-17 38 710)">Data Core</text></g></g><g><path fill="#ffffff" stroke="none" paint-order="stroke fill markers" d=" M 84 66 L 360.8125 66 Q 370.8125 66 370.8125 76 L 370.8125 97 Q 370.8125 107 360.8125 107 L 84 107 Q 74 107 74 97 L 74 76 Q 74 66 84 66 Z"/></g><g><path fill="none" stroke="#000000" paint-order="fill stroke markers" d=" M 84 66 L 360.8125 66 Q 370.8125 66 370.8125 76 L 370.8125 97 Q 370.8125 107 360.8125 107 L 84 107 Q 74 107 74 97 L 74 76 Q 74 66 84 66 Z" stroke-miterlimit="10" stroke-dasharray=""/></g><g><g><path fill="none" stroke="none"/><text fill="#000000" stroke="none" font-family="Arial" font-size="13px" font-style="normal" font-weight="bold" text-decoration="undefined" x="260.90625" y="109.5" text-anchor="middle" dominant-baseline="central" transform="matrix(1 0 0 1 -38 -30)">Déclenchement : Réveil (Market Clock)</text></g></g><g><path fill="#ffffff" stroke="none" paint-order="stroke fill markers" d=" M 84 258 L 304 258 Q 314 258 314 268 L 314 302 Q 314 312 304 312 L 84 312 Q 74 312 74 302 L 74 268 Q 74 258 84 258 Z"/></g><g><path fill="none" stroke="#000000" paint-order="fill stroke markers" d=" M 84 258 L 304 258 Q 314 258 314 268 L 314 302 Q 314 312 304 312 L 84 312 Q 74 312 74 302 L 74 268 Q 74 258 84 258 Z" stroke-miterlimit="10" stroke-dasharray=""/></g><g><g><path fill="none" stroke="none"/><text fill="#000000" stroke="none" font-family="Arial" font-size="13px" font-style="normal" font-weight="bold" text-decoration="undefined" x="232.5" y="301.5" text-anchor="middle" dominant-baseline="central" transform="matrix(1 0 0 1 -38 -30)">Vérification du status de la journée</text><text fill="#000000" stroke="none" font-family="Arial" font-size="13px" font-style="normal" font-weight="bold" text-decoration="undefined" x="232.5" y="314.5" text-anchor="middle" dominant-baseline="central" transform="matrix(1 0 0 1 -38 -30)">(System Manager)</text></g></g><g><path fill="#ffffff" stroke="none" paint-order="stroke fill markers" d=" M 84 194 L 443.09716796875 194 Q 453.09716796875 194 453.09716796875 204 L 453.09716796875 225 Q 453.09716796875 235 443.09716796875 235 L 84 235 Q 74 235 74 225 L 74 204 Q 74 194 84 194 Z"/></g><g><path fill="none" stroke="#000000" paint-order="fill stroke markers" d=" M 84 194 L 443.09716796875 194 Q 453.09716796875 194 453.09716796875 204 L 453.09716796875 225 Q 453.09716796875 235 443.09716796875 235 L 84 235 Q 74 235 74 225 L 74 204 Q 74 194 84 194 Z" stroke-miterlimit="10" stroke-dasharray=""/></g><g><g><path fill="none" stroke="none"/><text fill="#000000" stroke="none" font-family="Arial" font-size="13px" font-style="normal" font-weight="bold" text-decoration="undefined" x="302.048583984375" y="237.5" text-anchor="middle" dominant-baseline="central" transform="matrix(1 0 0 1 -38 -30)">Vérification du status des connexions (DB, TWS, IBKR API)</text></g></g><g><path fill="none" stroke="#000000" paint-order="fill stroke markers" d=" M 154 107 L 154 130" stroke-miterlimit="10" stroke-dasharray=""/></g><g><path fill="none" stroke="#000000" paint-order="fill stroke markers" d=" M 149.790482243984 119.83732514237585 L 154 130 L 158.209517756016 119.83732514237585" stroke-miterlimit="10" stroke-dasharray=""/></g><g><path fill="none" stroke="#000000" paint-order="fill stroke markers" d=" M 154 171 L 154 194" stroke-miterlimit="10" stroke-dasharray=""/></g><g><path fill="none" stroke="#000000" paint-order="fill stroke markers" d=" M 149.790482243984 183.83732514237585 L 154 194 L 158.209517756016 183.83732514237585" stroke-miterlimit="10" stroke-dasharray=""/></g><g><path fill="none" stroke="#000000" paint-order="fill stroke markers" d=" M 154 235 L 154 258" stroke-miterlimit="10" stroke-dasharray=""/></g><g><path fill="none" stroke="#000000" paint-order="fill stroke markers" d=" M 149.790482243984 247.83732514237585 L 154 258 L 158.209517756016 247.83732514237585" stroke-miterlimit="10" stroke-dasharray=""/></g><g><path fill="none" stroke="#000000" paint-order="fill stroke markers" d=" M 130 312 L 130 330" stroke-miterlimit="10" stroke-dasharray=""/></g><g><path fill="none" stroke="#000000" paint-order="fill stroke markers" d=" M 125.790482243984 319.83732514237585 L 130 330 L 134.209517756016 319.83732514237585" stroke-miterlimit="10" stroke-dasharray=""/></g><g><path fill="#ffffff" stroke="none" paint-order="stroke fill markers" d=" M 148 418 L 382.9052734375 418 Q 392.9052734375 418 392.9052734375 428 L 392.9052734375 449 Q 392.9052734375 459 382.9052734375 459 L 148 459 Q 138 459 138 449 L 138 428 Q 138 418 148 418 Z"/></g><g><path fill="none" stroke="#000000" paint-order="fill stroke markers" d=" M 148 418 L 382.9052734375 418 Q 392.9052734375 418 392.9052734375 428 L 392.9052734375 449 Q 392.9052734375 459 382.9052734375 459 L 148 459 Q 138 459 138 449 L 138 428 Q 138 418 148 418 Z" stroke-miterlimit="10" stroke-dasharray=""/></g><g><g><path fill="none" stroke="none"/><text fill="#000000" stroke="none" font-family="Arial" font-size="13px" font-style="normal" font-weight="bold" text-decoration="undefined" x="303.95263671875" y="461.5" text-anchor="middle" dominant-baseline="central" transform="matrix(1 0 0 1 -38 -30)">Mise en mémoire des Ordres/Stop-Loss</text></g></g><g><path fill="#ffffff" stroke="none" paint-order="stroke fill markers" d=" M 108 594 L 353.7216796875 594 Q 363.7216796875 594 363.7216796875 604 L 363.7216796875 625 Q 363.7216796875 635 353.7216796875 635 L 108 635 Q 98 635 98 625 L 98 604 Q 98 594 108 594 Z"/></g><g><path fill="none" stroke="#000000" paint-order="fill stroke markers" d=" M 108 594 L 353.7216796875 594 Q 363.7216796875 594 363.7216796875 604 L 363.7216796875 625 Q 363.7216796875 635 353.7216796875 635 L 108 635 Q 98 635 98 625 L 98 604 Q 98 594 108 594 Z" stroke-miterlimit="10" stroke-dasharray=""/></g><g><g><path fill="none" stroke="none"/><text fill="#000000" stroke="none" font-family="Arial" font-size="13px" font-style="normal" font-weight="bold" text-decoration="undefined" x="269.36083984375" y="637.5" text-anchor="middle" dominant-baseline="central" transform="matrix(1 0 0 1 -38 -30)">Démarrage de l'IBKR Gateway</text></g></g><g><path fill="none" stroke="#000000" paint-order="fill stroke markers" d=" M 210 392 L 210 418" stroke-miterlimit="10" stroke-dasharray=""/></g><g><path fill="none" stroke="#000000" paint-order="fill stroke markers" d=" M 205.790482243984 407.83732514237585 L 210 418 L 214.209517756016 407.83732514237585" stroke-miterlimit="10" stroke-dasharray=""/></g><g><path fill="none" stroke="#000000" paint-order="fill stroke markers" d=" M 114 392 L 114 594" stroke-miterlimit="10" stroke-dasharray=""/></g><g><path fill="none" stroke="#000000" paint-order="fill stroke markers" d=" M 109.790482243984 583.8373251423759 L 114 594 L 118.209517756016 583.8373251423759" stroke-miterlimit="10" stroke-dasharray=""/></g><g><path fill="#ffffff" stroke="none" paint-order="stroke fill markers" d=" M 84 130 L 376 130 Q 386 130 386 140 L 386 161 Q 386 171 376 171 L 84 171 Q 74 171 74 161 L 74 140 Q 74 130 84 130 Z"/></g><g><path fill="none" stroke="#000000" paint-order="fill stroke markers" d=" M 84 130 L 376 130 Q 386 130 386 140 L 386 161 Q 386 171 376 171 L 84 171 Q 74 171 74 161 L 74 140 Q 74 130 84 130 Z" stroke-miterlimit="10" stroke-dasharray=""/></g><g><g><path fill="none" stroke="none"/><text fill="#000000" stroke="none" font-family="Arial" font-size="13px" font-style="normal" font-weight="bold" text-decoration="undefined" x="268.5" y="173.5" text-anchor="middle" dominant-baseline="central" transform="matrix(1 0 0 1 -38 -30)">Instanciation des sessions (Session Manager)</text></g></g><g><path fill="none" stroke="#000000" paint-order="fill stroke markers" d=" M 393 438 L 406 438 L 406 376" stroke-miterlimit="10" stroke-dasharray=""/></g><g><path fill="none" stroke="#000000" paint-order="fill stroke markers" d=" M 410.209517756016 386.16267485762415 L 406 376 L 401.790482243984 386.16267485762415" stroke-miterlimit="10" stroke-dasharray=""/></g><g><path fill="none" stroke="#000000" paint-order="fill stroke markers" d=" M 364 614 L 466 614 L 466 376" stroke-miterlimit="10" stroke-dasharray=""/></g><g><path fill="none" stroke="#000000" paint-order="fill stroke markers" d=" M 470.209517756016 386.16267485762415 L 466 376 L 461.790482243984 386.16267485762415" stroke-miterlimit="10" stroke-dasharray=""/></g><g><path fill="none" stroke="#000000" paint-order="fill stroke markers" d=" M 434 370 L 434 338" stroke-miterlimit="10" stroke-dasharray=""/></g><g><path fill="none" stroke="#000000" paint-order="fill stroke markers" d=" M 438.209517756016 348.16267485762415 L 434 338 L 429.790482243984 348.16267485762415" stroke-miterlimit="10" stroke-dasharray=""/></g><g><path fill="none" stroke="#000000" paint-order="fill stroke markers" d=" M 426 298 L 426 278 L 370 278 L 370 322 L 410 322" stroke-miterlimit="10" stroke-dasharray=""/></g><g><path fill="none" stroke="#000000" paint-order="fill stroke markers" d=" M 399.83732514237585 326.209517756016 L 410 322 L 399.83732514237585 317.790482243984" stroke-miterlimit="10" stroke-dasharray=""/></g><g><rect fill="#ffffff" stroke="none" x="416" y="288" width="44.078125" height="13" transform="matrix(1 0 0 1 -38 -30)"/></g><g><g><path fill="none" stroke="none"/><text fill="#000000" stroke="none" font-family="Arial" font-size="13px" font-style="normal" font-weight="normal" text-decoration="undefined" x="438.0390625" y="294.5" text-anchor="middle" dominant-baseline="central" transform="matrix(1 0 0 1 -38 -30)"> [ELSE]</text></g></g><g><path fill="none" stroke="#000000" paint-order="fill stroke markers" d=" M 450 326 L 498 326 L 498 86 L 546 86" stroke-miterlimit="10" stroke-dasharray=""/></g><g><path fill="none" stroke="#000000" paint-order="fill stroke markers" d=" M 535.8373251423759 90.20951775601598 L 546 86 L 535.8373251423758 81.79048224398402" stroke-miterlimit="10" stroke-dasharray=""/></g><g><rect fill="#ffffff" stroke="none" x="623" y="151" width="220.2763671875" height="13" transform="matrix(1 0 0 1 -38 -30)"/></g><g><g><path fill="none" stroke="none"/><text fill="#000000" stroke="none" font-family="Arial" font-size="13px" font-style="normal" font-weight="normal" text-decoration="undefined" x="733.13818359375" y="157.5" text-anchor="middle" dominant-baseline="central" transform="matrix(1 0 0 1 -38 -30)"> [IF current_time ≥ market_open_time]</text></g></g><g><path fill="#ffffff" stroke="none" paint-order="stroke fill markers" d=" M 548 602 L 800 602 Q 810 602 810 612 L 810 646 Q 810 656 800 656 L 548 656 Q 538 656 538 646 L 538 612 Q 538 602 548 602 Z"/></g><g><path fill="none" stroke="#000000" paint-order="fill stroke markers" d=" M 548 602 L 800 602 Q 810 602 810 612 L 810 646 Q 810 656 800 656 L 548 656 Q 538 656 538 646 L 538 612 Q 538 602 548 602 Z" stroke-miterlimit="10" stroke-dasharray=""/></g><g><g><path fill="none" stroke="none"/><text fill="#000000" stroke="none" font-family="Arial" font-size="13px" font-style="normal" font-weight="bold" text-decoration="undefined" x="712.5" y="645.5" text-anchor="middle" dominant-baseline="central" transform="matrix(1 0 0 1 -38 -30)">Traitement du flux Tick Data / Snapshot</text><text fill="#000000" stroke="none" font-family="Arial" font-size="13px" font-style="normal" font-weight="bold" text-decoration="undefined" x="712.5" y="658.5" text-anchor="middle" dominant-baseline="central" transform="matrix(1 0 0 1 -38 -30)">(Live Data Hub)</text></g></g><g><path fill="none" stroke="#000000" paint-order="fill stroke markers" d=" M 858 682 L 858 522 L 834 522" stroke-miterlimit="10" stroke-dasharray=""/></g><g><path fill="none" stroke="#000000" paint-order="fill stroke markers" d=" M 844.1626748576241 517.790482243984 L 834 522 L 844.1626748576241 526.209517756016" stroke-miterlimit="10" stroke-dasharray=""/></g><g><path fill="none" stroke="#000000" paint-order="fill stroke markers" d=" M 640 698 L 690 698" stroke-miterlimit="10" stroke-dasharray=""/></g><g><path fill="none" stroke="#000000" paint-order="fill stroke markers" d=" M 679.8373251423759 702.209517756016 L 690 698 L 679.8373251423758 693.790482243984" stroke-miterlimit="10" stroke-dasharray=""/></g><g><path fill="none" stroke="#000000" paint-order="fill stroke markers" d=" M 640 762 L 690 762" stroke-miterlimit="10" stroke-dasharray=""/></g><g><path fill="none" stroke="#000000" paint-order="fill stroke markers" d=" M 679.8373251423759 766.209517756016 L 690 762 L 679.8373251423758 757.790482243984" stroke-miterlimit="10" stroke-dasharray=""/></g><g><path fill="#ffffff" stroke="none" paint-order="stroke fill markers" d=" M 700 746 L 865.5380859375 746 Q 875.5380859375 746 875.5380859375 756 L 875.5380859375 777 Q 875.5380859375 787 865.5380859375 787 L 700 787 Q 690 787 690 777 L 690 756 Q 690 746 700 746 Z"/></g><g><path fill="none" stroke="#000000" paint-order="fill stroke markers" d=" M 700 746 L 865.5380859375 746 Q 875.5380859375 746 875.5380859375 756 L 875.5380859375 777 Q 875.5380859375 787 865.5380859375 787 L 700 787 Q 690 787 690 777 L 690 756 Q 690 746 700 746 Z" stroke-miterlimit="10" stroke-dasharray=""/></g><g><g><path fill="none" stroke="none"/><text fill="#000000" stroke="none" font-family="Arial" font-size="13px" font-style="normal" font-weight="bold" text-decoration="undefined" x="821.26904296875" y="789.5" text-anchor="middle" dominant-baseline="central" transform="matrix(1 0 0 1 -38 -30)">Buffer I/O Lent (Persistance)</text></g></g><g><path fill="#ffffff" stroke="none" paint-order="stroke fill markers" d=" M 700 682 L 866.99169921875 682 Q 876.99169921875 682 876.99169921875 692 L 876.99169921875 713 Q 876.99169921875 723 866.99169921875 723 L 700 723 Q 690 723 690 713 L 690 692 Q 690 682 700 682 Z"/></g><g><path fill="none" stroke="#000000" paint-order="fill stroke markers" d=" M 700 682 L 866.99169921875 682 Q 876.99169921875 682 876.99169921875 692 L 876.99169921875 713 Q 876.99169921875 723 866.99169921875 723 L 700 723 Q 690 723 690 713 L 690 692 Q 690 682 700 682 Z" stroke-miterlimit="10" stroke-dasharray=""/></g><g><g><path fill="none" stroke="none"/><text fill="#000000" stroke="none" font-family="Arial" font-size="13px" font-style="normal" font-weight="bold" text-decoration="undefined" x="821.995849609375" y="725.5" text-anchor="middle" dominant-baseline="central" transform="matrix(1 0 0 1 -38 -30)">Cache I/O Rapide (Live Data)</text></g></g><g><path fill="#000000" stroke="none" paint-order="stroke fill markers" d=" M 637 674 L 637 674 Q 640 674 640 677 L 640 783 Q 640 786 637 786 L 637 786 Q 634 786 634 783 L 634 677 Q 634 674 637 674 Z"/></g><g><path fill="#ffffff" stroke="none" paint-order="stroke fill markers" d=" M 604 490 L 824 490 Q 834 490 834 500 L 834 547 Q 834 557 824 557 L 604 557 Q 594 557 594 547 L 594 500 Q 594 490 604 490 Z"/></g><g><path fill="none" stroke="#000000" paint-order="fill stroke markers" d=" M 604 490 L 824 490 Q 834 490 834 500 L 834 547 Q 834 557 824 557 L 604 557 Q 594 557 594 547 L 594 500 Q 594 490 604 490 Z" stroke-miterlimit="10" stroke-dasharray=""/></g><g><g><path fill="none" stroke="none"/><text fill="#000000" stroke="none" font-family="Arial" font-size="13px" font-style="normal" font-weight="bold" text-decoration="undefined" x="752.5" y="533.5" text-anchor="middle" dominant-baseline="central" transform="matrix(1 0 0 1 -38 -30)">Execution de la boucle (asynchrone)</text><text fill="#000000" stroke="none" font-family="Arial" font-size="13px" font-style="normal" font-weight="bold" text-decoration="undefined" x="752.5" y="546.5" text-anchor="middle" dominant-baseline="central" transform="matrix(1 0 0 1 -38 -30)">de surveillance (Risk Monitor) et</text><text fill="#000000" stroke="none" font-family="Arial" font-size="13px" font-style="normal" font-weight="bold" text-decoration="undefined" x="752.5" y="559.5" text-anchor="middle" dominant-baseline="central" transform="matrix(1 0 0 1 -38 -30)">décision (Order Manager)</text></g></g><g><path fill="none" stroke="#000000" paint-order="fill stroke markers" d=" M 570 656 L 570 714" stroke-miterlimit="10" stroke-dasharray=""/></g><g><path fill="none" stroke="#000000" paint-order="fill stroke markers" d=" M 565.790482243984 703.8373251423759 L 570 714 L 574.209517756016 703.8373251423759" stroke-miterlimit="10" stroke-dasharray=""/></g><g><path fill="#ffffff" stroke="none" paint-order="stroke fill markers" d=" M 554 730 L 570 714 L 586 730 L 570 746 L 554 730"/></g><g><path fill="none" stroke="#000000" paint-order="fill stroke markers" d=" M 554 730 L 570 714 L 586 730 L 570 746 L 554 730 L 554 730" stroke-miterlimit="10" stroke-dasharray=""/></g><g><path fill="none" stroke="#000000" paint-order="fill stroke markers" d=" M 586 730 L 634 730" stroke-miterlimit="10" stroke-dasharray=""/></g><g><path fill="none" stroke="#000000" paint-order="fill stroke markers" d=" M 623.8373251423759 734.209517756016 L 634 730 L 623.8373251423758 725.790482243984" stroke-miterlimit="10" stroke-dasharray=""/></g><g><rect fill="#ffffff" stroke="none" x="620" y="738" width="44.078125" height="13" transform="matrix(1 0 0 1 -38 -30)"/></g><g><g><path fill="none" stroke="none"/><text fill="#000000" stroke="none" font-family="Arial" font-size="13px" font-style="normal" font-weight="normal" text-decoration="undefined" x="642.0390625" y="744.5" text-anchor="middle" dominant-baseline="central" transform="matrix(1 0 0 1 -38 -30)"> [ELSE]</text></g></g><g><path fill="#ffffff" stroke="none" paint-order="stroke fill markers" d=" M 940 66 L 1080 66 Q 1090 66 1090 76 L 1090 110 Q 1090 120 1080 120 L 940 120 Q 930 120 930 110 L 930 76 Q 930 66 940 66 Z"/></g><g><path fill="none" stroke="#000000" paint-order="fill stroke markers" d=" M 940 66 L 1080 66 Q 1090 66 1090 76 L 1090 110 Q 1090 120 1080 120 L 940 120 Q 930 120 930 110 L 930 76 Q 930 66 940 66 Z" stroke-miterlimit="10" stroke-dasharray=""/></g><g><g><path fill="none" stroke="none"/><text fill="#000000" stroke="none" font-family="Arial" font-size="13px" font-style="normal" font-weight="bold" text-decoration="undefined" x="1048.5" y="109.5" text-anchor="middle" dominant-baseline="central" transform="matrix(1 0 0 1 -38 -30)">Signal de Fermeture du</text><text fill="#000000" stroke="none" font-family="Arial" font-size="13px" font-style="normal" font-weight="bold" text-decoration="undefined" x="1048.5" y="122.5" text-anchor="middle" dominant-baseline="central" transform="matrix(1 0 0 1 -38 -30)">Marché (Market Clock)</text></g></g><g><path fill="none" stroke="#000000" paint-order="fill stroke markers" d=" M 562 107 L 562 602" stroke-miterlimit="10" stroke-dasharray=""/></g><g><path fill="none" stroke="#000000" paint-order="fill stroke markers" d=" M 557.790482243984 591.8373251423759 L 562 602 L 566.209517756016 591.8373251423759" stroke-miterlimit="10" stroke-dasharray=""/></g><g><path fill="none" stroke="#000000" paint-order="fill stroke markers" d=" M 570 746 L 570 802 L 890 802 L 890 98 L 930 98" stroke-miterlimit="10" stroke-dasharray=""/></g><g><path fill="none" stroke="#000000" paint-order="fill stroke markers" d=" M 919.8373251423759 102.209517756016 L 930 98 L 919.8373251423758 93.79048224398402" stroke-miterlimit="10" stroke-dasharray=""/></g><g><rect fill="#ffffff" stroke="none" x="632" y="840" width="221.70458984375" height="13" transform="matrix(1 0 0 1 -38 -30)"/></g><g><g><path fill="none" stroke="none"/><text fill="#000000" stroke="none" font-family="Arial" font-size="13px" font-style="normal" font-weight="normal" text-decoration="undefined" x="742.852294921875" y="846.5" text-anchor="middle" dominant-baseline="central" transform="matrix(1 0 0 1 -38 -30)"> [IF current_time ≥ market_close_time]</text></g></g><g><path fill="#ffffff" stroke="none" paint-order="stroke fill markers" d=" M 924 418 L 1128 418 Q 1138 418 1138 428 L 1138 475 Q 1138 485 1128 485 L 924 485 Q 914 485 914 475 L 914 428 Q 914 418 924 418 Z"/></g><g><path fill="none" stroke="#000000" paint-order="fill stroke markers" d=" M 924 418 L 1128 418 Q 1138 418 1138 428 L 1138 475 Q 1138 485 1128 485 L 924 485 Q 914 485 914 475 L 914 428 Q 914 418 924 418 Z" stroke-miterlimit="10" stroke-dasharray=""/></g><g><g><path fill="none" stroke="none"/><text fill="#000000" stroke="none" font-family="Arial" font-size="13px" font-style="normal" font-weight="bold" text-decoration="undefined" x="1064.5" y="461.5" text-anchor="middle" dominant-baseline="central" transform="matrix(1 0 0 1 -38 -30)">Arrêt ordonné de la surveillance</text><text fill="#000000" stroke="none" font-family="Arial" font-size="13px" font-style="normal" font-weight="bold" text-decoration="undefined" x="1064.5" y="474.5" text-anchor="middle" dominant-baseline="central" transform="matrix(1 0 0 1 -38 -30)">(Risk Monitor) et de la prise de</text><text fill="#000000" stroke="none" font-family="Arial" font-size="13px" font-style="normal" font-weight="bold" text-decoration="undefined" x="1064.5" y="487.5" text-anchor="middle" dominant-baseline="central" transform="matrix(1 0 0 1 -38 -30)">décision (Order Manager)</text></g></g><g><path fill="none" stroke="#000000" paint-order="fill stroke markers" d=" M 1002 120 L 1002 418" stroke-miterlimit="10" stroke-dasharray=""/></g><g><path fill="none" stroke="#000000" paint-order="fill stroke markers" d=" M 997.7904822439841 407.83732514237585 L 1002 418 L 1006.2095177560159 407.83732514237585" stroke-miterlimit="10" stroke-dasharray=""/></g><g><path fill="none" stroke="#000000" paint-order="fill stroke markers" d=" M 1002 485 L 1002 514" stroke-miterlimit="10" stroke-dasharray=""/></g><g><path fill="none" stroke="#000000" paint-order="fill stroke markers" d=" M 997.7904822439841 503.8373251423759 L 1002 514 L 1006.2095177560159 503.8373251423759" stroke-miterlimit="10" stroke-dasharray=""/></g><g><path fill="none" stroke="#000000" paint-order="fill stroke markers" d=" M 1002 568 L 1002 602" stroke-miterlimit="10" stroke-dasharray=""/></g><g><path fill="none" stroke="#000000" paint-order="fill stroke markers" d=" M 997.7904822439841 591.8373251423759 L 1002 602 L 1006.2095177560159 591.8373251423759" stroke-miterlimit="10" stroke-dasharray=""/></g><g><path fill="#ffffff" stroke="none" paint-order="stroke fill markers" d=" M 932 602 L 1088 602 Q 1098 602 1098 612 L 1098 646 Q 1098 656 1088 656 L 932 656 Q 922 656 922 646 L 922 612 Q 922 602 932 602 Z"/></g><g><path fill="none" stroke="#000000" paint-order="fill stroke markers" d=" M 932 602 L 1088 602 Q 1098 602 1098 612 L 1098 646 Q 1098 656 1088 656 L 932 656 Q 922 656 922 646 L 922 612 Q 922 602 932 602 Z" stroke-miterlimit="10" stroke-dasharray=""/></g><g><g><path fill="none" stroke="none"/><text fill="#000000" stroke="none" font-family="Arial" font-size="13px" font-style="normal" font-weight="bold" text-decoration="undefined" x="1048.5" y="645.5" text-anchor="middle" dominant-baseline="central" transform="matrix(1 0 0 1 -38 -30)">Mise à Jour des Données</text><text fill="#000000" stroke="none" font-family="Arial" font-size="13px" font-style="normal" font-weight="bold" text-decoration="undefined" x="1048.5" y="658.5" text-anchor="middle" dominant-baseline="central" transform="matrix(1 0 0 1 -38 -30)">Historiques (via API)</text></g></g><g><path fill="#ffffff" stroke="none" paint-order="stroke fill markers" d=" M 932 682 L 1120 682 Q 1130 682 1130 692 L 1130 726 Q 1130 736 1120 736 L 932 736 Q 922 736 922 726 L 922 692 Q 922 682 932 682 Z"/></g><g><path fill="none" stroke="#000000" paint-order="fill stroke markers" d=" M 932 682 L 1120 682 Q 1130 682 1130 692 L 1130 726 Q 1130 736 1120 736 L 932 736 Q 922 736 922 726 L 922 692 Q 922 682 932 682 Z" stroke-miterlimit="10" stroke-dasharray=""/></g><g><g><path fill="none" stroke="none"/><text fill="#000000" stroke="none" font-family="Arial" font-size="13px" font-style="normal" font-weight="bold" text-decoration="undefined" x="1064.5" y="725.5" text-anchor="middle" dominant-baseline="central" transform="matrix(1 0 0 1 -38 -30)">Génération et Persistance du</text><text fill="#000000" stroke="none" font-family="Arial" font-size="13px" font-style="normal" font-weight="bold" text-decoration="undefined" x="1064.5" y="738.5" text-anchor="middle" dominant-baseline="central" transform="matrix(1 0 0 1 -38 -30)">reporting (Reporting Manager)</text></g></g><g><path fill="none" stroke="#000000" paint-order="fill stroke markers" d=" M 1002 656 L 1002 682" stroke-miterlimit="10" stroke-dasharray=""/></g><g><path fill="none" stroke="#000000" paint-order="fill stroke markers" d=" M 997.7904822439841 671.8373251423759 L 1002 682 L 1006.2095177560159 671.8373251423759" stroke-miterlimit="10" stroke-dasharray=""/></g><g><path fill="none" stroke="#000000" paint-order="fill stroke markers" d=" M 1130 717 L 1154 717 L 1154 226" stroke-miterlimit="10" stroke-dasharray=""/></g><g><path fill="none" stroke="#000000" paint-order="fill stroke markers" d=" M 1158.2095177560159 236.16267485762415 L 1154 226 L 1149.7904822439841 236.16267485762415" stroke-miterlimit="10" stroke-dasharray=""/></g><g><path fill="#ffffff" stroke="none" paint-order="stroke fill markers" d=" M 1044 154 L 1192 154 Q 1202 154 1202 164 L 1202 216 Q 1202 226 1192 226 L 1044 226 Q 1034 226 1034 216 L 1034 164 Q 1034 154 1044 154 Z"/></g><g><path fill="none" stroke="#000000" paint-order="fill stroke markers" d=" M 1044 154 L 1192 154 Q 1202 154 1202 164 L 1202 216 Q 1202 226 1192 226 L 1044 226 Q 1034 226 1034 216 L 1034 164 Q 1034 154 1044 154 Z" stroke-miterlimit="10" stroke-dasharray=""/></g><g><g><path fill="none" stroke="none"/><text fill="#000000" stroke="none" font-family="Arial" font-size="13px" font-style="normal" font-weight="bold" text-decoration="undefined" x="1156.5" y="197.5" text-anchor="middle" dominant-baseline="central" transform="matrix(1 0 0 1 -38 -30)">Vérification du status de</text><text fill="#000000" stroke="none" font-family="Arial" font-size="13px" font-style="normal" font-weight="bold" text-decoration="undefined" x="1156.5" y="210.5" text-anchor="middle" dominant-baseline="central" transform="matrix(1 0 0 1 -38 -30)">la journée suivante </text><text fill="#000000" stroke="none" font-family="Arial" font-size="13px" font-style="normal" font-weight="bold" text-decoration="undefined" x="1156.5" y="223.5" text-anchor="middle" dominant-baseline="central" transform="matrix(1 0 0 1 -38 -30)">(System Manager)</text></g></g><g><path fill="#ffffff" stroke="none" paint-order="stroke fill markers" d=" M 924 514 L 1128 514 Q 1138 514 1138 524 L 1138 558 Q 1138 568 1128 568 L 924 568 Q 914 568 914 558 L 914 524 Q 914 514 924 514 Z"/></g><g><path fill="none" stroke="#000000" paint-order="fill stroke markers" d=" M 924 514 L 1128 514 Q 1138 514 1138 524 L 1138 558 Q 1138 568 1128 568 L 924 568 Q 914 568 914 558 L 914 524 Q 914 514 924 514 Z" stroke-miterlimit="10" stroke-dasharray=""/></g><g><g><path fill="none" stroke="none"/><text fill="#000000" stroke="none" font-family="Arial" font-size="13px" font-style="normal" font-weight="bold" text-decoration="undefined" x="1064.5" y="557.5" text-anchor="middle" dominant-baseline="central" transform="matrix(1 0 0 1 -38 -30)">Réconciliation du Portefeuille Live</text><text fill="#000000" stroke="none" font-family="Arial" font-size="13px" font-style="normal" font-weight="bold" text-decoration="undefined" x="1064.5" y="570.5" text-anchor="middle" dominant-baseline="central" transform="matrix(1 0 0 1 -38 -30)">vs. IBKR (Portfolio State Manager)</text></g></g><g><path fill="#ffffff" stroke="none" paint-order="stroke fill markers" d=" M 1162 330 L 1178 314 L 1194 330 L 1178 346 L 1162 330"/></g><g><path fill="none" stroke="#000000" paint-order="fill stroke markers" d=" M 1162 330 L 1178 314 L 1194 330 L 1178 346 L 1162 330 L 1162 330" stroke-miterlimit="10" stroke-dasharray=""/></g><g><path fill="none" stroke="#000000" paint-order="fill stroke markers" d=" M 1178 226 L 1178 314" stroke-miterlimit="10" stroke-dasharray=""/></g><g><path fill="none" stroke="#000000" paint-order="fill stroke markers" d=" M 1173.7904822439841 303.83732514237585 L 1178 314 L 1182.2095177560159 303.83732514237585" stroke-miterlimit="10" stroke-dasharray=""/></g><g><path fill="#ffffff" stroke="none" paint-order="stroke fill markers" d=" M 1244 66 L 1344 66 Q 1354 66 1354 76 L 1354 123 Q 1354 133 1344 133 L 1244 133 Q 1234 133 1234 123 L 1234 76 Q 1234 66 1244 66 Z"/></g><g><path fill="none" stroke="#000000" paint-order="fill stroke markers" d=" M 1244 66 L 1344 66 Q 1354 66 1354 76 L 1354 123 Q 1354 133 1344 133 L 1244 133 Q 1234 133 1234 123 L 1234 76 Q 1234 66 1244 66 Z" stroke-miterlimit="10" stroke-dasharray=""/></g><g><g><path fill="none" stroke="none"/><text fill="#000000" stroke="none" font-family="Arial" font-size="13px" font-style="normal" font-weight="bold" text-decoration="undefined" x="1332.5" y="109.5" text-anchor="middle" dominant-baseline="central" transform="matrix(1 0 0 1 -38 -30)">Déclenchement :</text><text fill="#000000" stroke="none" font-family="Arial" font-size="13px" font-style="normal" font-weight="bold" text-decoration="undefined" x="1332.5" y="122.5" text-anchor="middle" dominant-baseline="central" transform="matrix(1 0 0 1 -38 -30)">Mise en veille </text><text fill="#000000" stroke="none" font-family="Arial" font-size="13px" font-style="normal" font-weight="bold" text-decoration="undefined" x="1332.5" y="135.5" text-anchor="middle" dominant-baseline="central" transform="matrix(1 0 0 1 -38 -30)">(Market Clock)</text></g></g><g><path fill="none" stroke="#000000" paint-order="fill stroke markers" d=" M 1194 330 L 1266 330 L 1266 133" stroke-miterlimit="10" stroke-dasharray=""/></g><g><path fill="none" stroke="#000000" paint-order="fill stroke markers" d=" M 1270.2095177560159 143.16267485762415 L 1266 133 L 1261.7904822439841 143.16267485762415" stroke-miterlimit="10" stroke-dasharray=""/></g><g><rect fill="#ffffff" stroke="none" x="1264" y="368" width="44.078125" height="13" transform="matrix(1 0 0 1 -38 -30)"/></g><g><g><path fill="none" stroke="none"/><text fill="#000000" stroke="none" font-family="Arial" font-size="13px" font-style="normal" font-weight="normal" text-decoration="undefined" x="1286.0390625" y="374.5" text-anchor="middle" dominant-baseline="central" transform="matrix(1 0 0 1 -38 -30)"> [ELSE]</text></g></g><g><path fill="#ffffff" stroke="none" paint-order="stroke fill markers" d=" M 932 746 L 1128 746 Q 1138 746 1138 756 L 1138 790 Q 1138 800 1128 800 L 932 800 Q 922 800 922 790 L 922 756 Q 922 746 932 746 Z"/></g><g><path fill="none" stroke="#000000" paint-order="fill stroke markers" d=" M 932 746 L 1128 746 Q 1138 746 1138 756 L 1138 790 Q 1138 800 1128 800 L 932 800 Q 922 800 922 790 L 922 756 Q 922 746 932 746 Z" stroke-miterlimit="10" stroke-dasharray=""/></g><g><g><path fill="none" stroke="none"/><text fill="#000000" stroke="none" font-family="Arial" font-size="13px" font-style="normal" font-weight="bold" text-decoration="undefined" x="1068.5" y="789.5" text-anchor="middle" dominant-baseline="central" transform="matrix(1 0 0 1 -38 -30)">Exécution de la stratégie de</text><text fill="#000000" stroke="none" font-family="Arial" font-size="13px" font-style="normal" font-weight="bold" text-decoration="undefined" x="1068.5" y="802.5" text-anchor="middle" dominant-baseline="central" transform="matrix(1 0 0 1 -38 -30)">rebalancement (Strategy Engine)</text></g></g><g><path fill="none" stroke="#000000" paint-order="fill stroke markers" d=" M 1178 346 L 1178 778 L 1138 778" stroke-miterlimit="10" stroke-dasharray=""/></g><g><path fill="none" stroke="#000000" paint-order="fill stroke markers" d=" M 1148.162674857624 773.790482243984 L 1138 778 L 1148.162674857624 782.209517756016" stroke-miterlimit="10" stroke-dasharray=""/></g><g><rect fill="#ffffff" stroke="none" x="960" y="840" width="247" height="13" transform="matrix(1 0 0 1 -38 -30)"/></g><g><g><path fill="none" stroke="none"/><text fill="#000000" stroke="none" font-family="Arial" font-size="13px" font-style="normal" font-weight="normal" text-decoration="undefined" x="1083.5" y="846.5" text-anchor="middle" dominant-baseline="central" transform="matrix(1 0 0 1 -38 -30)"> [IF next_day_type = REBALANCE_DAY]</text></g></g><g><path fill="none" stroke="#000000" paint-order="fill stroke markers" d=" M 1138 794 L 1290 794 L 1290 133" stroke-miterlimit="10" stroke-dasharray=""/></g><g><path fill="none" stroke="#000000" paint-order="fill stroke markers" d=" M 1294.2095177560159 143.16267485762415 L 1290 133 L 1285.7904822439841 143.16267485762415" stroke-miterlimit="10" stroke-dasharray=""/></g><g><path fill="#000000" stroke="none" paint-order="stroke fill markers" d=" M 381 370 L 495 370 Q 498 370 498 373 L 498 373 Q 498 376 495 376 L 381 376 Q 378 376 378 373 L 378 373 Q 378 370 381 370 Z"/></g><g><path fill="#ffffff" stroke="none" paint-order="stroke fill markers" d=" M 410 318 L 430 298 L 450 318 L 430 338 L 410 318"/></g><g><path fill="none" stroke="#000000" paint-order="fill stroke markers" d=" M 410 318 L 430 298 L 450 318 L 430 338 L 410 318 L 410 318" stroke-miterlimit="10" stroke-dasharray=""/></g><g><path fill="#ffffff" stroke="none" paint-order="stroke fill markers" d=" M 556 66 L 823.595703125 66 Q 833.595703125 66 833.595703125 76 L 833.595703125 97 Q 833.595703125 107 823.595703125 107 L 556 107 Q 546 107 546 97 L 546 76 Q 546 66 556 66 Z"/></g><g><path fill="none" stroke="#000000" paint-order="fill stroke markers" d=" M 556 66 L 823.595703125 66 Q 833.595703125 66 833.595703125 76 L 833.595703125 97 Q 833.595703125 107 823.595703125 107 L 556 107 Q 546 107 546 97 L 546 76 Q 546 66 556 66 Z" stroke-miterlimit="10" stroke-dasharray=""/></g><g><g><path fill="none" stroke="none"/><text fill="#000000" stroke="none" font-family="Arial" font-size="13px" font-style="normal" font-weight="bold" text-decoration="undefined" x="728.2978515625" y="109.5" text-anchor="middle" dominant-baseline="central" transform="matrix(1 0 0 1 -38 -30)">Signal d'Ouverture du Marché (Market Clock)</text></g></g><g><path fill="none" stroke="#000000" paint-order="fill stroke markers" d=" M 594 522 L 578 522 L 578 602" stroke-miterlimit="10" stroke-dasharray=""/></g><g><path fill="none" stroke="#000000" paint-order="fill stroke markers" d=" M 573.790482243984 591.8373251423759 L 578 602 L 582.209517756016 591.8373251423759" stroke-miterlimit="10" stroke-dasharray=""/></g><g><path fill="#000000" stroke="none" paint-order="stroke fill markers" d=" M 101 386 L 239 386 Q 242 386 242 389 L 242 389 Q 242 392 239 392 L 101 392 Q 98 392 98 389 L 98 389 Q 98 386 101 386 Z"/></g><g><path fill="#C0C0C0" stroke="none" paint-order="stroke fill markers" d=" M 121 353 L 137 337 L 153 353 L 137 369 L 121 353" fill-opacity="0.2"/></g><g><path fill="#ffffff" stroke="none" paint-order="stroke fill markers" d=" M 114 346 L 130 330 L 146 346 L 130 362 L 114 346"/></g><g><path fill="none" stroke="#000000" paint-order="fill stroke markers" d=" M 114 346 L 130 330 L 146 346 L 130 362 L 114 346 L 114 346" stroke-miterlimit="10" stroke-dasharray=""/></g><g><path fill="none" stroke="#000000" paint-order="fill stroke markers" d=" M 146 346 L 178 346 L 178 386" stroke-miterlimit="10" stroke-dasharray=""/></g><g><path fill="none" stroke="#000000" paint-order="fill stroke markers" d=" M 173.790482243984 375.83732514237585 L 178 386 L 182.209517756016 375.83732514237585" stroke-miterlimit="10" stroke-dasharray=""/></g><g><rect fill="#ffffff" stroke="none" x="223" y="392" width="116.3017578125" height="13" transform="matrix(1 0 0 1 -38 -30)"/></g><g><g><path fill="none" stroke="none"/><text fill="#000000" stroke="none" font-family="Arial" font-size="13px" font-style="normal" font-weight="normal" text-decoration="undefined" x="281.15087890625" y="398.5" text-anchor="middle" dominant-baseline="central" transform="matrix(1 0 0 1 -38 -30)"> [IF IsMarketOpen()]</text></g></g><g><path fill="none" stroke="#000000" paint-order="fill stroke markers" d=" M 114 346 L 74 346 L 74 834 L 1330 834 L 1330 133" stroke-miterlimit="10" stroke-dasharray=""/></g><g><path fill="none" stroke="#000000" paint-order="fill stroke markers" d=" M 1334.2095177560159 143.16267485762415 L 1330 133 L 1325.7904822439841 143.16267485762415" stroke-miterlimit="10" stroke-dasharray=""/></g><g><rect fill="#ffffff" stroke="none" x="104" y="360" width="44.078125" height="13" transform="matrix(1 0 0 1 -38 -30)"/></g><g><g><path fill="none" stroke="none"/><text fill="#000000" stroke="none" font-family="Arial" font-size="13px" font-style="normal" font-weight="normal" text-decoration="undefined" x="126.0390625" y="366.5" text-anchor="middle" dominant-baseline="central" transform="matrix(1 0 0 1 -38 -30)"> [ELSE]</text></g></g></g></svg>