<svg version="1.1" xmlns="http://www.w3.org/2000/svg" xmlns:xlink="http://www.w3.org/1999/xlink" width="1828" height="764"><defs/><g><g><rect fill="#ffffff" stroke="none" x="128" y="72" width="1808" height="744" transform="matrix(1 0 0 1 -118 -62)"/></g><g><path fill="none" stroke="#000000" paint-order="fill stroke markers" d=" M 10 10 L 1818 10 L 1818 754 L 10 754 L 10 10 Z Z" stroke-miterlimit="10" stroke-dasharray=""/></g><g><rect fill="#ffffff" stroke="none" x="152" y="96" width="168" height="21" transform="matrix(1 0 0 1 -118 -62)"/></g><g><path fill="none" stroke="#000000" paint-order="fill stroke markers" d=" M 34 34 L 202 34 L 202 55 L 34 55 L 34 34 Z Z" stroke-miterlimit="10" stroke-width="2" stroke-dasharray=""/></g><g><path fill="none" stroke="#000000" paint-order="fill stroke markers" d=" M 34 722 L 34 34 L 202 34 L 202 722" stroke-miterlimit="10" stroke-width="2" stroke-dasharray=""/></g><g><g><path fill="none" stroke="none"/><text fill="#000000" stroke="none" font-family="Arial" font-size="13px" font-style="normal" font-weight="normal" text-decoration="undefined" x="236" y="100" text-anchor="middle" dominant-baseline="text-before-edge" transform="matrix(1 0 0 1 -118 -62)">System Manager</text></g></g><g><rect fill="#ffffff" stroke="none" x="320" y="96" width="248" height="21" transform="matrix(1 0 0 1 -118 -62)"/></g><g><path fill="none" stroke="#000000" paint-order="fill stroke markers" d=" M 202 34 L 450 34 L 450 55 L 202 55 L 202 34 Z Z" stroke-miterlimit="10" stroke-width="2" stroke-dasharray=""/></g><g><path fill="none" stroke="#000000" paint-order="fill stroke markers" d=" M 202 722 L 202 34 L 450 34 L 450 722" stroke-miterlimit="10" stroke-width="2" stroke-dasharray=""/></g><g><g><path fill="none" stroke="none"/><text fill="#000000" stroke="none" font-family="Arial" font-size="13px" font-style="normal" font-weight="normal" text-decoration="undefined" x="444" y="100" text-anchor="middle" dominant-baseline="text-before-edge" transform="matrix(1 0 0 1 -118 -62)">Portfolio Manager</text></g></g><g><rect fill="#ffffff" stroke="none" x="1656" y="96" width="256" height="21" transform="matrix(1 0 0 1 -118 -62)"/></g><g><path fill="none" stroke="#000000" paint-order="fill stroke markers" d=" M 1538 34 L 1794 34 L 1794 55 L 1538 55 L 1538 34 Z Z" stroke-miterlimit="10" stroke-width="2" stroke-dasharray=""/></g><g><path fill="none" stroke="#000000" paint-order="fill stroke markers" d=" M 1538 722 L 1538 34 L 1794 34 L 1794 722" stroke-miterlimit="10" stroke-width="2" stroke-dasharray=""/></g><g><g><path fill="none" stroke="none"/><text fill="#000000" stroke="none" font-family="Arial" font-size="13px" font-style="normal" font-weight="normal" text-decoration="undefined" x="1784" y="100" text-anchor="middle" dominant-baseline="text-before-edge" transform="matrix(1 0 0 1 -118 -62)">Job Manager</text></g></g><g><rect fill="#ffffff" stroke="none" x="568" y="96" width="208" height="21" transform="matrix(1 0 0 1 -118 -62)"/></g><g><path fill="none" stroke="#000000" paint-order="fill stroke markers" d=" M 450 34 L 658 34 L 658 55 L 450 55 L 450 34 Z Z" stroke-miterlimit="10" stroke-width="2" stroke-dasharray=""/></g><g><path fill="none" stroke="#000000" paint-order="fill stroke markers" d=" M 450 722 L 450 34 L 658 34 L 658 722" stroke-miterlimit="10" stroke-width="2" stroke-dasharray=""/></g><g><g><path fill="none" stroke="none"/><text fill="#000000" stroke="none" font-family="Arial" font-size="13px" font-style="normal" font-weight="normal" text-decoration="undefined" x="672" y="100" text-anchor="middle" dominant-baseline="text-before-edge" transform="matrix(1 0 0 1 -118 -62)">Live Data Hub</text></g></g><g><rect fill="#ffffff" stroke="none" x="1032" y="96" width="208" height="21" transform="matrix(1 0 0 1 -118 -62)"/></g><g><path fill="none" stroke="#000000" paint-order="fill stroke markers" d=" M 914 34 L 1122 34 L 1122 55 L 914 55 L 914 34 Z Z" stroke-miterlimit="10" stroke-width="2" stroke-dasharray=""/></g><g><path fill="none" stroke="#000000" paint-order="fill stroke markers" d=" M 914 722 L 914 34 L 1122 34 L 1122 722" stroke-miterlimit="10" stroke-width="2" stroke-dasharray=""/></g><g><g><path fill="none" stroke="none"/><text fill="#000000" stroke="none" font-family="Arial" font-size="13px" font-style="normal" font-weight="normal" text-decoration="undefined" x="1136" y="100" text-anchor="middle" dominant-baseline="text-before-edge" transform="matrix(1 0 0 1 -118 -62)">Strategy Engine</text></g></g><g><rect fill="#ffffff" stroke="none" x="1240" y="96" width="208" height="21" transform="matrix(1 0 0 1 -118 -62)"/></g><g><path fill="none" stroke="#000000" paint-order="fill stroke markers" d=" M 1122 34 L 1330 34 L 1330 55 L 1122 55 L 1122 34 Z Z" stroke-miterlimit="10" stroke-width="2" stroke-dasharray=""/></g><g><path fill="none" stroke="#000000" paint-order="fill stroke markers" d=" M 1122 722 L 1122 34 L 1330 34 L 1330 722" stroke-miterlimit="10" stroke-width="2" stroke-dasharray=""/></g><g><g><path fill="none" stroke="none"/><text fill="#000000" stroke="none" font-family="Arial" font-size="13px" font-style="normal" font-weight="normal" text-decoration="undefined" x="1344" y="100" text-anchor="middle" dominant-baseline="text-before-edge" transform="matrix(1 0 0 1 -118 -62)">Session Manager</text></g></g><g><path fill="#ffffff" stroke="none" paint-order="stroke fill markers" d=" M 236 74 L 376 74 Q 386 74 386 84 L 386 131 Q 386 141 376 141 L 236 141 Q 226 141 226 131 L 226 84 Q 226 74 236 74 Z"/></g><g><path fill="none" stroke="#000000" paint-order="fill stroke markers" d=" M 236 74 L 376 74 Q 386 74 386 84 L 386 131 Q 386 141 376 141 L 236 141 Q 226 141 226 131 L 226 84 Q 226 74 236 74 Z" stroke-miterlimit="10" stroke-dasharray=""/></g><g><g><path fill="none" stroke="none"/><text fill="#000000" stroke="none" font-family="Arial" font-size="13px" font-style="normal" font-weight="bold" text-decoration="undefined" x="424.5" y="149.5" text-anchor="middle" dominant-baseline="central" transform="matrix(1 0 0 1 -118 -62)">Exécuter Réconciliation</text><text fill="#000000" stroke="none" font-family="Arial" font-size="13px" font-style="normal" font-weight="bold" text-decoration="undefined" x="424.5" y="162.5" text-anchor="middle" dominant-baseline="central" transform="matrix(1 0 0 1 -118 -62)">(PM vs IBKR)</text></g></g><g><path fill="#ffffff" stroke="none" paint-order="stroke fill markers" d=" M 68 74 L 177.49169921875 74 Q 187.49169921875 74 187.49169921875 84 L 187.49169921875 118 Q 187.49169921875 128 177.49169921875 128 L 68 128 Q 58 128 58 118 L 58 84 Q 58 74 68 74 Z"/></g><g><path fill="none" stroke="#000000" paint-order="fill stroke markers" d=" M 68 74 L 177.49169921875 74 Q 187.49169921875 74 187.49169921875 84 L 187.49169921875 118 Q 187.49169921875 128 177.49169921875 128 L 68 128 Q 58 128 58 118 L 58 84 Q 58 74 68 74 Z" stroke-miterlimit="10" stroke-dasharray=""/></g><g><g><path fill="none" stroke="none"/><text fill="#000000" stroke="none" font-family="Arial" font-size="13px" font-style="normal" font-weight="bold" text-decoration="undefined" x="241.245849609375" y="149.5" text-anchor="middle" dominant-baseline="central" transform="matrix(1 0 0 1 -118 -62)">Transition vers</text><text fill="#000000" stroke="none" font-family="Arial" font-size="13px" font-style="normal" font-weight="bold" text-decoration="undefined" x="241.245849609375" y="162.5" text-anchor="middle" dominant-baseline="central" transform="matrix(1 0 0 1 -118 -62)">POST_TRADE</text></g></g><g><path fill="none" stroke="#000000" paint-order="fill stroke markers" d=" M 187 98 L 226 98" stroke-miterlimit="10" stroke-dasharray=""/></g><g><path fill="none" stroke="#000000" paint-order="fill stroke markers" d=" M 215.83732514237585 102.209517756016 L 226 98 L 215.83732514237585 93.790482243984" stroke-miterlimit="10" stroke-dasharray=""/></g><g><path fill="none" stroke="#000000" paint-order="fill stroke markers" d=" M 234 141 L 234 194" stroke-miterlimit="10" stroke-dasharray=""/></g><g><path fill="none" stroke="#000000" paint-order="fill stroke markers" d=" M 229.790482243984 183.83732514237585 L 234 194 L 238.209517756016 183.83732514237585" stroke-miterlimit="10" stroke-dasharray=""/></g><g><path fill="#ffffff" stroke="none" paint-order="stroke fill markers" d=" M 218 210 L 234 194 L 250 210 L 234 226 L 218 210"/></g><g><path fill="none" stroke="#000000" paint-order="fill stroke markers" d=" M 218 210 L 234 194 L 250 210 L 234 226 L 218 210 L 218 210" stroke-miterlimit="10" stroke-dasharray=""/></g><g><rect fill="#ffffff" stroke="none" x="776" y="96" width="256" height="21" transform="matrix(1 0 0 1 -118 -62)"/></g><g><path fill="none" stroke="#000000" paint-order="fill stroke markers" d=" M 658 34 L 914 34 L 914 55 L 658 55 L 658 34 Z Z" stroke-miterlimit="10" stroke-width="2" stroke-dasharray=""/></g><g><path fill="none" stroke="#000000" paint-order="fill stroke markers" d=" M 658 722 L 658 34 L 914 34 L 914 722" stroke-miterlimit="10" stroke-width="2" stroke-dasharray=""/></g><g><g><path fill="none" stroke="none"/><text fill="#000000" stroke="none" font-family="Arial" font-size="13px" font-style="normal" font-weight="normal" text-decoration="undefined" x="904" y="100" text-anchor="middle" dominant-baseline="text-before-edge" transform="matrix(1 0 0 1 -118 -62)">Monitoring Module - Reporting Manager</text></g></g><g><path fill="none" stroke="#000000" paint-order="fill stroke markers" d=" M 250 210 L 298 210" stroke-miterlimit="10" stroke-dasharray=""/></g><g><path fill="none" stroke="#000000" paint-order="fill stroke markers" d=" M 287.83732514237585 214.209517756016 L 298 210 L 287.83732514237585 205.790482243984" stroke-miterlimit="10" stroke-dasharray=""/></g><g><rect fill="#ffffff" stroke="none" x="364" y="247" width="44.078125" height="13" transform="matrix(1 0 0 1 -118 -62)"/></g><g><g><path fill="none" stroke="none"/><text fill="#000000" stroke="none" font-family="Arial" font-size="13px" font-style="normal" font-weight="normal" text-decoration="undefined" x="386.0390625" y="253.5" text-anchor="middle" dominant-baseline="central" transform="matrix(1 0 0 1 -118 -62)"> [ELSE]</text></g></g><g><path fill="#ffffff" stroke="none" paint-order="stroke fill markers" d=" M 308 186 L 386.84814453125 186 Q 396.84814453125 186 396.84814453125 196 L 396.84814453125 230 Q 396.84814453125 240 386.84814453125 240 L 308 240 Q 298 240 298 230 L 298 196 Q 298 186 308 186 Z"/></g><g><path fill="none" stroke="#000000" paint-order="fill stroke markers" d=" M 308 186 L 386.84814453125 186 Q 396.84814453125 186 396.84814453125 196 L 396.84814453125 230 Q 396.84814453125 240 386.84814453125 240 L 308 240 Q 298 240 298 230 L 298 196 Q 298 186 308 186 Z" stroke-miterlimit="10" stroke-dasharray=""/></g><g><g><path fill="none" stroke="none"/><text fill="#000000" stroke="none" font-family="Arial" font-size="13px" font-style="normal" font-weight="bold" text-decoration="undefined" x="465.924072265625" y="261.5" text-anchor="middle" dominant-baseline="central" transform="matrix(1 0 0 1 -118 -62)">Réconciliation</text><text fill="#000000" stroke="none" font-family="Arial" font-size="13px" font-style="normal" font-weight="bold" text-decoration="undefined" x="465.924072265625" y="274.5" text-anchor="middle" dominant-baseline="central" transform="matrix(1 0 0 1 -118 -62)">Complétée</text></g></g><g><path fill="none" stroke="#000000" paint-order="fill stroke markers" d=" M 234 226 L 234 290" stroke-miterlimit="10" stroke-dasharray=""/></g><g><path fill="none" stroke="#000000" paint-order="fill stroke markers" d=" M 229.790482243984 279.83732514237585 L 234 290 L 238.209517756016 279.83732514237585" stroke-miterlimit="10" stroke-dasharray=""/></g><g><rect fill="#ffffff" stroke="none" x="367" y="328" width="108.3671875" height="13" transform="matrix(1 0 0 1 -118 -62)"/></g><g><g><path fill="none" stroke="none"/><text fill="#000000" stroke="none" font-family="Arial" font-size="13px" font-style="normal" font-weight="normal" text-decoration="undefined" x="421.18359375" y="334.5" text-anchor="middle" dominant-baseline="central" transform="matrix(1 0 0 1 -118 -62)"> [IF Écart Détecté ]</text></g></g><g><path fill="#ffffff" stroke="none" paint-order="stroke fill markers" d=" M 476 178 L 640 178 Q 650 178 650 188 L 650 235 Q 650 245 640 245 L 476 245 Q 466 245 466 235 L 466 188 Q 466 178 476 178 Z"/></g><g><path fill="none" stroke="#000000" paint-order="fill stroke markers" d=" M 476 178 L 640 178 Q 650 178 650 188 L 650 235 Q 650 245 640 245 L 476 245 Q 466 245 466 235 L 466 188 Q 466 178 476 178 Z" stroke-miterlimit="10" stroke-dasharray=""/></g><g><g><path fill="none" stroke="none"/><text fill="#000000" stroke="none" font-family="Arial" font-size="13px" font-style="normal" font-weight="bold" text-decoration="undefined" x="676.5" y="253.5" text-anchor="middle" dominant-baseline="central" transform="matrix(1 0 0 1 -118 -62)">Soumettre Ordre de FLUSH</text><text fill="#000000" stroke="none" font-family="Arial" font-size="13px" font-style="normal" font-weight="bold" text-decoration="undefined" x="676.5" y="266.5" text-anchor="middle" dominant-baseline="central" transform="matrix(1 0 0 1 -118 -62)">du Buffer de</text><text fill="#000000" stroke="none" font-family="Arial" font-size="13px" font-style="normal" font-weight="bold" text-decoration="undefined" x="676.5" y="279.5" text-anchor="middle" dominant-baseline="central" transform="matrix(1 0 0 1 -118 -62)">Ticks/Snapshots</text></g></g><g><path fill="none" stroke="#000000" paint-order="fill stroke markers" d=" M 432 202 L 466 202" stroke-miterlimit="10" stroke-dasharray=""/></g><g><path fill="none" stroke="#000000" paint-order="fill stroke markers" d=" M 455.8373251423759 206.209517756016 L 466 202 L 455.8373251423758 197.790482243984" stroke-miterlimit="10" stroke-dasharray=""/></g><g><path fill="none" stroke="#000000" paint-order="fill stroke markers" d=" M 650 210 L 1370 210" stroke-miterlimit="10" stroke-dasharray=""/></g><g><path fill="none" stroke="#000000" paint-order="fill stroke markers" d=" M 1359.837325142376 214.209517756016 L 1370 210 L 1359.837325142376 205.790482243984" stroke-miterlimit="10" stroke-dasharray=""/></g><g><path fill="#ffffff" stroke="none" paint-order="stroke fill markers" d=" M 684 258 L 888 258 Q 898 258 898 268 L 898 302 Q 898 312 888 312 L 684 312 Q 674 312 674 302 L 674 268 Q 674 258 684 258 Z"/></g><g><path fill="none" stroke="#000000" paint-order="fill stroke markers" d=" M 684 258 L 888 258 Q 898 258 898 268 L 898 302 Q 898 312 888 312 L 684 312 Q 674 312 674 302 L 674 268 Q 674 258 684 258 Z" stroke-miterlimit="10" stroke-dasharray=""/></g><g><g><path fill="none" stroke="none"/><text fill="#000000" stroke="none" font-family="Arial" font-size="13px" font-style="normal" font-weight="bold" text-decoration="undefined" x="904.5" y="333.5" text-anchor="middle" dominant-baseline="central" transform="matrix(1 0 0 1 -118 -62)">Génération/Enregistrement</text><text fill="#000000" stroke="none" font-family="Arial" font-size="13px" font-style="normal" font-weight="bold" text-decoration="undefined" x="904.5" y="346.5" text-anchor="middle" dominant-baseline="central" transform="matrix(1 0 0 1 -118 -62)">Rapport de Journée (PnL)</text></g></g><g><path fill="none" stroke="#000000" paint-order="fill stroke markers" d=" M 432 274 L 674 274" stroke-miterlimit="10" stroke-dasharray=""/></g><g><path fill="none" stroke="#000000" paint-order="fill stroke markers" d=" M 663.8373251423759 278.209517756016 L 674 274 L 663.8373251423758 269.790482243984" stroke-miterlimit="10" stroke-dasharray=""/></g><g><path fill="#ffffff" stroke="none" paint-order="stroke fill markers" d=" M 228 290 L 360 290 Q 370 290 370 300 L 370 334 Q 370 344 360 344 L 228 344 Q 218 344 218 334 L 218 300 Q 218 290 228 290 Z"/></g><g><path fill="none" stroke="#000000" paint-order="fill stroke markers" d=" M 228 290 L 360 290 Q 370 290 370 300 L 370 334 Q 370 344 360 344 L 228 344 Q 218 344 218 334 L 218 300 Q 218 290 228 290 Z" stroke-miterlimit="10" stroke-dasharray=""/></g><g><g><path fill="none" stroke="none"/><text fill="#000000" stroke="none" font-family="Arial" font-size="13px" font-style="normal" font-weight="bold" text-decoration="undefined" x="412.5" y="365.5" text-anchor="middle" dominant-baseline="central" transform="matrix(1 0 0 1 -118 -62)">Émettre Alerte Critique</text><text fill="#000000" stroke="none" font-family="Arial" font-size="13px" font-style="normal" font-weight="bold" text-decoration="undefined" x="412.5" y="378.5" text-anchor="middle" dominant-baseline="central" transform="matrix(1 0 0 1 -118 -62)">&amp; Journaliser Incident</text></g></g><g><path fill="#ffffff" stroke="none" paint-order="stroke fill markers" d=" M 228 378 L 392 378 Q 402 378 402 388 L 402 435 Q 402 445 392 445 L 228 445 Q 218 445 218 435 L 218 388 Q 218 378 228 378 Z"/></g><g><path fill="none" stroke="#000000" paint-order="fill stroke markers" d=" M 228 378 L 392 378 Q 402 378 402 388 L 402 435 Q 402 445 392 445 L 228 445 Q 218 445 218 435 L 218 388 Q 218 378 228 378 Z" stroke-miterlimit="10" stroke-dasharray=""/></g><g><g><path fill="none" stroke="none"/><text fill="#000000" stroke="none" font-family="Arial" font-size="13px" font-style="normal" font-weight="bold" text-decoration="undefined" x="428.5" y="453.5" text-anchor="middle" dominant-baseline="central" transform="matrix(1 0 0 1 -118 -62)">Enregistrer</text><text fill="#000000" stroke="none" font-family="Arial" font-size="13px" font-style="normal" font-weight="bold" text-decoration="undefined" x="428.5" y="466.5" text-anchor="middle" dominant-baseline="central" transform="matrix(1 0 0 1 -118 -62)">DATA_INTEGRITY_CHECK</text><text fill="#000000" stroke="none" font-family="Arial" font-size="13px" font-style="normal" font-weight="bold" text-decoration="undefined" x="428.5" y="479.5" text-anchor="middle" dominant-baseline="central" transform="matrix(1 0 0 1 -118 -62)">(CRITIQUE)</text></g></g><g><path fill="none" stroke="#000000" paint-order="fill stroke markers" d=" M 234 344 L 234 378" stroke-miterlimit="10" stroke-dasharray=""/></g><g><path fill="none" stroke="#000000" paint-order="fill stroke markers" d=" M 229.790482243984 367.83732514237585 L 234 378 L 238.209517756016 367.83732514237585" stroke-miterlimit="10" stroke-dasharray=""/></g><g><path fill="#ffffff" stroke="none" paint-order="stroke fill markers" d=" M 1580 178 L 1712 178 Q 1722 178 1722 188 L 1722 222 Q 1722 232 1712 232 L 1580 232 Q 1570 232 1570 222 L 1570 188 Q 1570 178 1580 178 Z"/></g><g><path fill="none" stroke="#000000" paint-order="fill stroke markers" d=" M 1580 178 L 1712 178 Q 1722 178 1722 188 L 1722 222 Q 1722 232 1712 232 L 1580 232 Q 1570 232 1570 222 L 1570 188 Q 1570 178 1580 178 Z" stroke-miterlimit="10" stroke-dasharray=""/></g><g><g><path fill="none" stroke="none"/><text fill="#000000" stroke="none" font-family="Arial" font-size="13px" font-style="normal" font-weight="bold" text-decoration="undefined" x="1764.5" y="253.5" text-anchor="middle" dominant-baseline="central" transform="matrix(1 0 0 1 -118 -62)">Ordonnancer Tâche de</text><text fill="#000000" stroke="none" font-family="Arial" font-size="13px" font-style="normal" font-weight="bold" text-decoration="undefined" x="1764.5" y="266.5" text-anchor="middle" dominant-baseline="central" transform="matrix(1 0 0 1 -118 -62)">Persistance (I/O Bulk)</text></g></g><g><rect fill="#ffffff" stroke="none" x="1448" y="96" width="208" height="21" transform="matrix(1 0 0 1 -118 -62)"/></g><g><path fill="none" stroke="#000000" paint-order="fill stroke markers" d=" M 1330 34 L 1538 34 L 1538 55 L 1330 55 L 1330 34 Z Z" stroke-miterlimit="10" stroke-width="2" stroke-dasharray=""/></g><g><path fill="none" stroke="#000000" paint-order="fill stroke markers" d=" M 1330 722 L 1330 34 L 1538 34 L 1538 722" stroke-miterlimit="10" stroke-width="2" stroke-dasharray=""/></g><g><g><path fill="none" stroke="none"/><text fill="#000000" stroke="none" font-family="Arial" font-size="13px" font-style="normal" font-weight="normal" text-decoration="undefined" x="1552" y="100" text-anchor="middle" dominant-baseline="text-before-edge" transform="matrix(1 0 0 1 -118 -62)">Thread Manager</text></g></g><g><path fill="#ffffff" stroke="none" paint-order="stroke fill markers" d=" M 1380 186 L 1499.2890625 186 Q 1509.2890625 186 1509.2890625 196 L 1509.2890625 217 Q 1509.2890625 227 1499.2890625 227 L 1380 227 Q 1370 227 1370 217 L 1370 196 Q 1370 186 1380 186 Z"/></g><g><path fill="none" stroke="#000000" paint-order="fill stroke markers" d=" M 1380 186 L 1499.2890625 186 Q 1509.2890625 186 1509.2890625 196 L 1509.2890625 217 Q 1509.2890625 227 1499.2890625 227 L 1380 227 Q 1370 227 1370 217 L 1370 196 Q 1370 186 1380 186 Z" stroke-miterlimit="10" stroke-dasharray=""/></g><g><g><path fill="none" stroke="none"/><text fill="#000000" stroke="none" font-family="Arial" font-size="13px" font-style="normal" font-weight="bold" text-decoration="undefined" x="1558.14453125" y="261.5" text-anchor="middle" dominant-baseline="central" transform="matrix(1 0 0 1 -118 -62)">Allouer I/O Bulk Pool</text></g></g><g><path fill="none" stroke="#000000" paint-order="fill stroke markers" d=" M 1509 202 L 1570 202" stroke-miterlimit="10" stroke-dasharray=""/></g><g><path fill="none" stroke="#000000" paint-order="fill stroke markers" d=" M 1559.837325142376 206.209517756016 L 1570 202 L 1559.837325142376 197.790482243984" stroke-miterlimit="10" stroke-dasharray=""/></g><g><path fill="#ffffff" stroke="none" paint-order="stroke fill markers" d=" M 1380 266 L 1504.3291015625 266 Q 1514.3291015625 266 1514.3291015625 276 L 1514.3291015625 297 Q 1514.3291015625 307 1504.3291015625 307 L 1380 307 Q 1370 307 1370 297 L 1370 276 Q 1370 266 1380 266 Z"/></g><g><path fill="none" stroke="#000000" paint-order="fill stroke markers" d=" M 1380 266 L 1504.3291015625 266 Q 1514.3291015625 266 1514.3291015625 276 L 1514.3291015625 297 Q 1514.3291015625 307 1504.3291015625 307 L 1380 307 Q 1370 307 1370 297 L 1370 276 Q 1370 266 1380 266 Z" stroke-miterlimit="10" stroke-dasharray=""/></g><g><g><path fill="none" stroke="none"/><text fill="#000000" stroke="none" font-family="Arial" font-size="13px" font-style="normal" font-weight="bold" text-decoration="undefined" x="1560.66455078125" y="341.5" text-anchor="middle" dominant-baseline="central" transform="matrix(1 0 0 1 -118 -62)">Allouer I/O Audit Pool</text></g></g><g><path fill="#ffffff" stroke="none" paint-order="stroke fill markers" d=" M 1580 266 L 1696 266 Q 1706 266 1706 276 L 1706 310 Q 1706 320 1696 320 L 1580 320 Q 1570 320 1570 310 L 1570 276 Q 1570 266 1580 266 Z"/></g><g><path fill="none" stroke="#000000" paint-order="fill stroke markers" d=" M 1580 266 L 1696 266 Q 1706 266 1706 276 L 1706 310 Q 1706 320 1696 320 L 1580 320 Q 1570 320 1570 310 L 1570 276 Q 1570 266 1580 266 Z" stroke-miterlimit="10" stroke-dasharray=""/></g><g><g><path fill="none" stroke="none"/><text fill="#000000" stroke="none" font-family="Arial" font-size="13px" font-style="normal" font-weight="bold" text-decoration="undefined" x="1756.5" y="341.5" text-anchor="middle" dominant-baseline="central" transform="matrix(1 0 0 1 -118 -62)">Ordonnancer Tâche</text><text fill="#000000" stroke="none" font-family="Arial" font-size="13px" font-style="normal" font-weight="bold" text-decoration="undefined" x="1756.5" y="354.5" text-anchor="middle" dominant-baseline="central" transform="matrix(1 0 0 1 -118 -62)">(I/O Audit)</text></g></g><g><path fill="#000000" stroke="none" paint-order="stroke fill markers" d=" M 429 178 L 429 178 Q 432 178 432 181 L 432 399 Q 432 402 429 402 L 429 402 Q 426 402 426 399 L 426 181 Q 426 178 429 178 Z"/></g><g><path fill="none" stroke="#000000" paint-order="fill stroke markers" d=" M 397 218 L 426 218" stroke-miterlimit="10" stroke-dasharray=""/></g><g><path fill="none" stroke="#000000" paint-order="fill stroke markers" d=" M 415.8373251423759 222.209517756016 L 426 218 L 415.8373251423758 213.790482243984" stroke-miterlimit="10" stroke-dasharray=""/></g><g><path fill="none" stroke="#000000" paint-order="fill stroke markers" d=" M 1514 290 L 1570 290" stroke-miterlimit="10" stroke-dasharray=""/></g><g><path fill="none" stroke="#000000" paint-order="fill stroke markers" d=" M 1559.837325142376 294.209517756016 L 1570 290 L 1559.837325142376 285.790482243984" stroke-miterlimit="10" stroke-dasharray=""/></g><g><path fill="none" stroke="#000000" paint-order="fill stroke markers" d=" M 898 282 L 1370 282" stroke-miterlimit="10" stroke-dasharray=""/></g><g><path fill="none" stroke="#000000" paint-order="fill stroke markers" d=" M 1359.837325142376 286.209517756016 L 1370 282 L 1359.837325142376 277.790482243984" stroke-miterlimit="10" stroke-dasharray=""/></g><g><path fill="#ffffff" stroke="none" paint-order="stroke fill markers" d=" M 52 474 L 176 474 Q 186 474 186 484 L 186 518 Q 186 528 176 528 L 52 528 Q 42 528 42 518 L 42 484 Q 42 474 52 474 Z"/></g><g><path fill="none" stroke="#000000" paint-order="fill stroke markers" d=" M 52 474 L 176 474 Q 186 474 186 484 L 186 518 Q 186 528 176 528 L 52 528 Q 42 528 42 518 L 42 484 Q 42 474 52 474 Z" stroke-miterlimit="10" stroke-dasharray=""/></g><g><g><path fill="none" stroke="none"/><text fill="#000000" stroke="none" font-family="Arial" font-size="13px" font-style="normal" font-weight="bold" text-decoration="undefined" x="232.5" y="549.5" text-anchor="middle" dominant-baseline="central" transform="matrix(1 0 0 1 -118 -62)">Vérifier Jour Suivant</text><text fill="#000000" stroke="none" font-family="Arial" font-size="13px" font-style="normal" font-weight="bold" text-decoration="undefined" x="232.5" y="562.5" text-anchor="middle" dominant-baseline="central" transform="matrix(1 0 0 1 -118 -62)">(TradingCalendar)</text></g></g><g><path fill="#ffffff" stroke="none" paint-order="stroke fill markers" d=" M 940 434 L 1088 434 Q 1098 434 1098 444 L 1098 478 Q 1098 488 1088 488 L 940 488 Q 930 488 930 478 L 930 444 Q 930 434 940 434 Z"/></g><g><path fill="none" stroke="#000000" paint-order="fill stroke markers" d=" M 940 434 L 1088 434 Q 1098 434 1098 444 L 1098 478 Q 1098 488 1088 488 L 940 488 Q 930 488 930 478 L 930 444 Q 930 434 940 434 Z" stroke-miterlimit="10" stroke-dasharray=""/></g><g><g><path fill="none" stroke="none"/><text fill="#000000" stroke="none" font-family="Arial" font-size="13px" font-style="normal" font-weight="bold" text-decoration="undefined" x="1132.5" y="509.5" text-anchor="middle" dominant-baseline="central" transform="matrix(1 0 0 1 -118 -62)">Exécuter Strategy Engine</text><text fill="#000000" stroke="none" font-family="Arial" font-size="13px" font-style="normal" font-weight="bold" text-decoration="undefined" x="1132.5" y="522.5" text-anchor="middle" dominant-baseline="central" transform="matrix(1 0 0 1 -118 -62)">(Calcul Portfolio Target)</text></g></g><g><path fill="#ffffff" stroke="none" paint-order="stroke fill markers" d=" M 1148 338 L 1312 338 Q 1322 338 1322 348 L 1322 395 Q 1322 405 1312 405 L 1148 405 Q 1138 405 1138 395 L 1138 348 Q 1138 338 1148 338 Z"/></g><g><path fill="none" stroke="#000000" paint-order="fill stroke markers" d=" M 1148 338 L 1312 338 Q 1322 338 1322 348 L 1322 395 Q 1322 405 1312 405 L 1148 405 Q 1138 405 1138 395 L 1138 348 Q 1138 338 1148 338 Z" stroke-miterlimit="10" stroke-dasharray=""/></g><g><g><path fill="none" stroke="none"/><text fill="#000000" stroke="none" font-family="Arial" font-size="13px" font-style="normal" font-weight="bold" text-decoration="undefined" x="1348.5" y="413.5" text-anchor="middle" dominant-baseline="central" transform="matrix(1 0 0 1 -118 -62)">Soumettre Tâche :</text><text fill="#000000" stroke="none" font-family="Arial" font-size="13px" font-style="normal" font-weight="bold" text-decoration="undefined" x="1348.5" y="426.5" text-anchor="middle" dominant-baseline="central" transform="matrix(1 0 0 1 -118 -62)">Persistance État Session</text><text fill="#000000" stroke="none" font-family="Arial" font-size="13px" font-style="normal" font-weight="bold" text-decoration="undefined" x="1348.5" y="439.5" text-anchor="middle" dominant-baseline="central" transform="matrix(1 0 0 1 -118 -62)">Final (Config)</text></g></g><g><path fill="none" stroke="#000000" paint-order="fill stroke markers" d=" M 432 362 L 1138 362" stroke-miterlimit="10" stroke-dasharray=""/></g><g><path fill="none" stroke="#000000" paint-order="fill stroke markers" d=" M 1127.837325142376 366.209517756016 L 1138 362 L 1127.837325142376 357.790482243984" stroke-miterlimit="10" stroke-dasharray=""/></g><g><path fill="#ffffff" stroke="none" paint-order="stroke fill markers" d=" M 60 642 L 176 642 Q 186 642 186 652 L 186 686 Q 186 696 176 696 L 60 696 Q 50 696 50 686 L 50 652 Q 50 642 60 642 Z"/></g><g><path fill="none" stroke="#000000" paint-order="fill stroke markers" d=" M 60 642 L 176 642 Q 186 642 186 652 L 186 686 Q 186 696 176 696 L 60 696 Q 50 696 50 686 L 50 652 Q 50 642 60 642 Z" stroke-miterlimit="10" stroke-dasharray=""/></g><g><g><path fill="none" stroke="none"/><text fill="#000000" stroke="none" font-family="Arial" font-size="13px" font-style="normal" font-weight="bold" text-decoration="undefined" x="236.5" y="717.5" text-anchor="middle" dominant-baseline="central" transform="matrix(1 0 0 1 -118 -62)">Basculer en</text><text fill="#000000" stroke="none" font-family="Arial" font-size="13px" font-style="normal" font-weight="bold" text-decoration="undefined" x="236.5" y="730.5" text-anchor="middle" dominant-baseline="central" transform="matrix(1 0 0 1 -118 -62)">OFF_CYCLE (Veille)</text></g></g><g><path fill="none" stroke="#000000" paint-order="fill stroke markers" d=" M 1570 674 L 186 674" stroke-miterlimit="10" stroke-dasharray=""/></g><g><path fill="none" stroke="#000000" paint-order="fill stroke markers" d=" M 196.16267485762415 669.790482243984 L 186 674 L 196.16267485762415 678.209517756016" stroke-miterlimit="10" stroke-dasharray=""/></g><g><path fill="#ffffff" stroke="none" paint-order="stroke fill markers" d=" M 98 582 L 118 562 L 138 582 L 118 602 L 98 582"/></g><g><path fill="none" stroke="#000000" paint-order="fill stroke markers" d=" M 98 582 L 118 562 L 138 582 L 118 602 L 98 582 L 98 582" stroke-miterlimit="10" stroke-dasharray=""/></g><g><path fill="none" stroke="#000000" paint-order="fill stroke markers" d=" M 122 528 L 122 562" stroke-miterlimit="10" stroke-dasharray=""/></g><g><path fill="none" stroke="#000000" paint-order="fill stroke markers" d=" M 117.790482243984 551.8373251423759 L 122 562 L 126.209517756016 551.8373251423759" stroke-miterlimit="10" stroke-dasharray=""/></g><g><path fill="none" stroke="#000000" paint-order="fill stroke markers" d=" M 138 579 L 1014 579 L 1014 488" stroke-miterlimit="10" stroke-dasharray=""/></g><g><path fill="none" stroke="#000000" paint-order="fill stroke markers" d=" M 1018.2095177560159 498.1626748576241 L 1014 488 L 1009.7904822439841 498.1626748576241" stroke-miterlimit="10" stroke-dasharray=""/></g><g><rect fill="#ffffff" stroke="none" x="263" y="624" width="214.97607421875" height="13" transform="matrix(1 0 0 1 -118 -62)"/></g><g><g><path fill="none" stroke="none"/><text fill="#000000" stroke="none" font-family="Arial" font-size="13px" font-style="normal" font-weight="normal" text-decoration="undefined" x="370.488037109375" y="630.5" text-anchor="middle" dominant-baseline="central" transform="matrix(1 0 0 1 -118 -62)"> [IF Jour Suivant = Rebalancement ?]</text></g></g><g><path fill="#ffffff" stroke="none" paint-order="stroke fill markers" d=" M 1372 346 L 1507.18994140625 346 Q 1517.18994140625 346 1517.18994140625 356 L 1517.18994140625 377 Q 1517.18994140625 387 1507.18994140625 387 L 1372 387 Q 1362 387 1362 377 L 1362 356 Q 1362 346 1372 346 Z"/></g><g><path fill="none" stroke="#000000" paint-order="fill stroke markers" d=" M 1372 346 L 1507.18994140625 346 Q 1517.18994140625 346 1517.18994140625 356 L 1517.18994140625 377 Q 1517.18994140625 387 1507.18994140625 387 L 1372 387 Q 1362 387 1362 377 L 1362 356 Q 1362 346 1372 346 Z" stroke-miterlimit="10" stroke-dasharray=""/></g><g><g><path fill="none" stroke="none"/><text fill="#000000" stroke="none" font-family="Arial" font-size="13px" font-style="normal" font-weight="bold" text-decoration="undefined" x="1558.094970703125" y="421.5" text-anchor="middle" dominant-baseline="central" transform="matrix(1 0 0 1 -118 -62)">Allouer I/O Critical Pool</text></g></g><g><path fill="#ffffff" stroke="none" paint-order="stroke fill markers" d=" M 1580 338 L 1696 338 Q 1706 338 1706 348 L 1706 382 Q 1706 392 1696 392 L 1580 392 Q 1570 392 1570 382 L 1570 348 Q 1570 338 1580 338 Z"/></g><g><path fill="none" stroke="#000000" paint-order="fill stroke markers" d=" M 1580 338 L 1696 338 Q 1706 338 1706 348 L 1706 382 Q 1706 392 1696 392 L 1580 392 Q 1570 392 1570 382 L 1570 348 Q 1570 338 1580 338 Z" stroke-miterlimit="10" stroke-dasharray=""/></g><g><g><path fill="none" stroke="none"/><text fill="#000000" stroke="none" font-family="Arial" font-size="13px" font-style="normal" font-weight="bold" text-decoration="undefined" x="1756.5" y="413.5" text-anchor="middle" dominant-baseline="central" transform="matrix(1 0 0 1 -118 -62)">Ordonnancer Tâche</text><text fill="#000000" stroke="none" font-family="Arial" font-size="13px" font-style="normal" font-weight="bold" text-decoration="undefined" x="1756.5" y="426.5" text-anchor="middle" dominant-baseline="central" transform="matrix(1 0 0 1 -118 -62)">(I/O Critical)</text></g></g><g><path fill="none" stroke="#000000" paint-order="fill stroke markers" d=" M 1322 362 L 1362 362" stroke-miterlimit="10" stroke-dasharray=""/></g><g><path fill="none" stroke="#000000" paint-order="fill stroke markers" d=" M 1351.837325142376 366.209517756016 L 1362 362 L 1351.837325142376 357.790482243984" stroke-miterlimit="10" stroke-dasharray=""/></g><g><path fill="none" stroke="#000000" paint-order="fill stroke markers" d=" M 1517 362 L 1570 362" stroke-miterlimit="10" stroke-dasharray=""/></g><g><path fill="none" stroke="#000000" paint-order="fill stroke markers" d=" M 1559.837325142376 366.209517756016 L 1570 362 L 1559.837325142376 357.790482243984" stroke-miterlimit="10" stroke-dasharray=""/></g><g><path fill="#ffffff" stroke="none" paint-order="stroke fill markers" d=" M 1156 434 L 1280 434 Q 1290 434 1290 444 L 1290 491 Q 1290 501 1280 501 L 1156 501 Q 1146 501 1146 491 L 1146 444 Q 1146 434 1156 434 Z"/></g><g><path fill="none" stroke="#000000" paint-order="fill stroke markers" d=" M 1156 434 L 1280 434 Q 1290 434 1290 444 L 1290 491 Q 1290 501 1280 501 L 1156 501 Q 1146 501 1146 491 L 1146 444 Q 1146 434 1156 434 Z" stroke-miterlimit="10" stroke-dasharray=""/></g><g><g><path fill="none" stroke="none"/><text fill="#000000" stroke="none" font-family="Arial" font-size="13px" font-style="normal" font-weight="bold" text-decoration="undefined" x="1336.5" y="509.5" text-anchor="middle" dominant-baseline="central" transform="matrix(1 0 0 1 -118 -62)">Soumettre Tâche :</text><text fill="#000000" stroke="none" font-family="Arial" font-size="13px" font-style="normal" font-weight="bold" text-decoration="undefined" x="1336.5" y="522.5" text-anchor="middle" dominant-baseline="central" transform="matrix(1 0 0 1 -118 -62)">Persistance Target</text><text fill="#000000" stroke="none" font-family="Arial" font-size="13px" font-style="normal" font-weight="bold" text-decoration="undefined" x="1336.5" y="535.5" text-anchor="middle" dominant-baseline="central" transform="matrix(1 0 0 1 -118 -62)">(Atomic Plan)</text></g></g><g><path fill="none" stroke="#000000" paint-order="fill stroke markers" d=" M 1098 458 L 1146 458" stroke-miterlimit="10" stroke-dasharray=""/></g><g><path fill="none" stroke="#000000" paint-order="fill stroke markers" d=" M 1135.837325142376 462.209517756016 L 1146 458 L 1135.837325142376 453.790482243984" stroke-miterlimit="10" stroke-dasharray=""/></g><g><path fill="#ffffff" stroke="none" paint-order="stroke fill markers" d=" M 1372 442 L 1507.18994140625 442 Q 1517.18994140625 442 1517.18994140625 452 L 1517.18994140625 473 Q 1517.18994140625 483 1507.18994140625 483 L 1372 483 Q 1362 483 1362 473 L 1362 452 Q 1362 442 1372 442 Z"/></g><g><path fill="none" stroke="#000000" paint-order="fill stroke markers" d=" M 1372 442 L 1507.18994140625 442 Q 1517.18994140625 442 1517.18994140625 452 L 1517.18994140625 473 Q 1517.18994140625 483 1507.18994140625 483 L 1372 483 Q 1362 483 1362 473 L 1362 452 Q 1362 442 1372 442 Z" stroke-miterlimit="10" stroke-dasharray=""/></g><g><g><path fill="none" stroke="none"/><text fill="#000000" stroke="none" font-family="Arial" font-size="13px" font-style="normal" font-weight="bold" text-decoration="undefined" x="1558.094970703125" y="517.5" text-anchor="middle" dominant-baseline="central" transform="matrix(1 0 0 1 -118 -62)">Allouer I/O Critical Pool</text></g></g><g><path fill="none" stroke="#000000" paint-order="fill stroke markers" d=" M 1290 458 L 1362 458" stroke-miterlimit="10" stroke-dasharray=""/></g><g><path fill="none" stroke="#000000" paint-order="fill stroke markers" d=" M 1351.837325142376 462.209517756016 L 1362 458 L 1351.837325142376 453.790482243984" stroke-miterlimit="10" stroke-dasharray=""/></g><g><path fill="none" stroke="#000000" paint-order="fill stroke markers" d=" M 1517 458 L 1570 458" stroke-miterlimit="10" stroke-dasharray=""/></g><g><path fill="none" stroke="#000000" paint-order="fill stroke markers" d=" M 1559.837325142376 462.209517756016 L 1570 458 L 1559.837325142376 453.790482243984" stroke-miterlimit="10" stroke-dasharray=""/></g><g><path fill="#ffffff" stroke="none" paint-order="stroke fill markers" d=" M 1580 434 L 1696 434 Q 1706 434 1706 444 L 1706 478 Q 1706 488 1696 488 L 1580 488 Q 1570 488 1570 478 L 1570 444 Q 1570 434 1580 434 Z"/></g><g><path fill="none" stroke="#000000" paint-order="fill stroke markers" d=" M 1580 434 L 1696 434 Q 1706 434 1706 444 L 1706 478 Q 1706 488 1696 488 L 1580 488 Q 1570 488 1570 478 L 1570 444 Q 1570 434 1580 434 Z" stroke-miterlimit="10" stroke-dasharray=""/></g><g><g><path fill="none" stroke="none"/><text fill="#000000" stroke="none" font-family="Arial" font-size="13px" font-style="normal" font-weight="bold" text-decoration="undefined" x="1756.5" y="509.5" text-anchor="middle" dominant-baseline="central" transform="matrix(1 0 0 1 -118 -62)">Ordonnancer Tâche</text><text fill="#000000" stroke="none" font-family="Arial" font-size="13px" font-style="normal" font-weight="bold" text-decoration="undefined" x="1756.5" y="522.5" text-anchor="middle" dominant-baseline="central" transform="matrix(1 0 0 1 -118 -62)">(I/O Critical)</text></g></g><g><path fill="none" stroke="#000000" paint-order="fill stroke markers" d=" M 432 386 L 442 386 L 442 498 L 186 498" stroke-miterlimit="10" stroke-dasharray=""/></g><g><path fill="none" stroke="#000000" paint-order="fill stroke markers" d=" M 196.16267485762415 493.790482243984 L 186 498 L 196.16267485762415 502.209517756016" stroke-miterlimit="10" stroke-dasharray=""/></g><g><path fill="#ffffff" stroke="none" paint-order="stroke fill markers" d=" M 1580 650 L 1688 650 Q 1698 650 1698 660 L 1698 681 Q 1698 691 1688 691 L 1580 691 Q 1570 691 1570 681 L 1570 660 Q 1570 650 1580 650 Z"/></g><g><path fill="none" stroke="#000000" paint-order="fill stroke markers" d=" M 1580 650 L 1688 650 Q 1698 650 1698 660 L 1698 681 Q 1698 691 1688 691 L 1580 691 Q 1570 691 1570 681 L 1570 660 Q 1570 650 1580 650 Z" stroke-miterlimit="10" stroke-dasharray=""/></g><g><g><path fill="none" stroke="none"/><text fill="#000000" stroke="none" font-family="Arial" font-size="13px" font-style="normal" font-weight="bold" text-decoration="undefined" x="1752.5" y="725.5" text-anchor="middle" dominant-baseline="central" transform="matrix(1 0 0 1 -118 -62)">Nœud de Jonction</text></g></g><g><path fill="#000000" stroke="none" paint-order="stroke fill markers" d=" M 1757 186 L 1757 186 Q 1760 186 1760 189 L 1760 479 Q 1760 482 1757 482 L 1757 482 Q 1754 482 1754 479 L 1754 189 Q 1754 186 1757 186 Z"/></g><g><path fill="none" stroke="#000000" paint-order="fill stroke markers" d=" M 1722 202 L 1754 202" stroke-miterlimit="10" stroke-dasharray=""/></g><g><path fill="none" stroke="#000000" paint-order="fill stroke markers" d=" M 1743.837325142376 206.209517756016 L 1754 202 L 1743.837325142376 197.790482243984" stroke-miterlimit="10" stroke-dasharray=""/></g><g><path fill="none" stroke="#000000" paint-order="fill stroke markers" d=" M 1760 322 L 1778 322 L 1778 670 L 1698 670" stroke-miterlimit="10" stroke-dasharray=""/></g><g><path fill="none" stroke="#000000" paint-order="fill stroke markers" d=" M 1708.162674857624 665.790482243984 L 1698 670 L 1708.162674857624 674.209517756016" stroke-miterlimit="10" stroke-dasharray=""/></g><g><path fill="none" stroke="#000000" paint-order="fill stroke markers" d=" M 1706 290 L 1754 290" stroke-miterlimit="10" stroke-dasharray=""/></g><g><path fill="none" stroke="#000000" paint-order="fill stroke markers" d=" M 1743.837325142376 294.209517756016 L 1754 290 L 1743.837325142376 285.790482243984" stroke-miterlimit="10" stroke-dasharray=""/></g><g><path fill="none" stroke="#000000" paint-order="fill stroke markers" d=" M 1706 362 L 1754 362" stroke-miterlimit="10" stroke-dasharray=""/></g><g><path fill="none" stroke="#000000" paint-order="fill stroke markers" d=" M 1743.837325142376 366.209517756016 L 1754 362 L 1743.837325142376 357.790482243984" stroke-miterlimit="10" stroke-dasharray=""/></g><g><path fill="none" stroke="#000000" paint-order="fill stroke markers" d=" M 1706 458 L 1754 458" stroke-miterlimit="10" stroke-dasharray=""/></g><g><path fill="none" stroke="#000000" paint-order="fill stroke markers" d=" M 1743.837325142376 462.209517756016 L 1754 458 L 1743.837325142376 453.790482243984" stroke-miterlimit="10" stroke-dasharray=""/></g><g><path fill="none" stroke="#000000" paint-order="fill stroke markers" d=" M 118 602 L 118 618 L 1626 618 L 1626 650" stroke-miterlimit="10" stroke-dasharray=""/></g><g><path fill="none" stroke="#000000" paint-order="fill stroke markers" d=" M 1621.7904822439841 639.8373251423759 L 1626 650 L 1630.2095177560159 639.8373251423759" stroke-miterlimit="10" stroke-dasharray=""/></g><g><rect fill="#ffffff" stroke="none" x="248" y="663" width="44.078125" height="13" transform="matrix(1 0 0 1 -118 -62)"/></g><g><g><path fill="none" stroke="none"/><text fill="#000000" stroke="none" font-family="Arial" font-size="13px" font-style="normal" font-weight="normal" text-decoration="undefined" x="270.0390625" y="669.5" text-anchor="middle" dominant-baseline="central" transform="matrix(1 0 0 1 -118 -62)"> [ELSE]</text></g></g></g></svg>