<svg version="1.1" xmlns="http://www.w3.org/2000/svg" xmlns:xlink="http://www.w3.org/1999/xlink" width="1524" height="892"><defs/><g><g><path fill="none" stroke="#000000" paint-order="fill stroke markers" d=" M 10 10 L 1226 10 L 1226 882 L 10 882 L 10 10" stroke-miterlimit="10" stroke-dasharray=""/></g><g><path fill="#ffffff" stroke="none" paint-order="stroke fill markers" d=" M 10 10 L 10 33 L 191.4833984375 33 L 202.9833984375 21.5 L 202.9833984375 10 L 10 10"/></g><g><path fill="none" stroke="#000000" paint-order="fill stroke markers" d=" M 10 10 L 10 33 L 191.4833984375 33 L 202.9833984375 21.5 L 202.9833984375 10 L 10 10 L 10 10" stroke-miterlimit="10" stroke-dasharray=""/></g><g><g><path fill="none" stroke="none"/><text fill="#000000" stroke="none" font-family="Arial" font-size="13px" font-style="normal" font-weight="normal" text-decoration="undefined" x="116.606689453125" y="19.5" text-anchor="middle" dominant-baseline="central" transform="matrix(1 0 0 1 -6 2)">Rebalance_OrderCreation</text></g></g><g><g><path fill="none" stroke="none"/><text fill="#000000" stroke="none" font-family="Arial" font-size="13px" font-style="normal" font-weight="bold" text-decoration="undefined" x="27.864990234375" y="19.5" text-anchor="middle" dominant-baseline="central" transform="matrix(1 0 0 1 -6 2)">sd</text></g></g><g><rect fill="#C0C0C0" stroke="none" x="23" y="47" width="115.3544921875" height="40" transform="matrix(1 0 0 1 -6 2)" fill-opacity="0.2"/></g><g><rect fill="#ffffff" stroke="none" x="16" y="40" width="115.3544921875" height="40" transform="matrix(1 0 0 1 -6 2)"/></g><g><path fill="none" stroke="#000000" paint-order="fill stroke markers" d=" M 10 42 L 125.3544921875 42 L 125.3544921875 82 L 10 82 L 10 42 Z Z" stroke-miterlimit="10" stroke-dasharray=""/></g><g><g><path fill="none" stroke="none"/><text fill="#000000" stroke="none" font-family="Arial" font-size="13px" font-style="normal" font-weight="bold" text-decoration="undefined" x="74.17724609375" y="53.5" text-anchor="middle" dominant-baseline="central" transform="matrix(1 0 0 1 -6 2)">StrategyEngine</text></g></g><g><path fill="none" stroke="#000000" paint-order="fill stroke markers" d=" M 68.5 83 L 68.5 882" stroke-miterlimit="10" stroke-dasharray="3"/></g><g><rect fill="#C0C0C0" stroke="none" x="495" y="47" width="112.47265625" height="40" transform="matrix(1 0 0 1 -6 2)" fill-opacity="0.2"/></g><g><rect fill="#ffffff" stroke="none" x="488" y="40" width="112.47265625" height="40" transform="matrix(1 0 0 1 -6 2)"/></g><g><path fill="none" stroke="#000000" paint-order="fill stroke markers" d=" M 482 42 L 594.47265625 42 L 594.47265625 82 L 482 82 L 482 42 Z Z" stroke-miterlimit="10" stroke-dasharray=""/></g><g><g><path fill="none" stroke="none"/><text fill="#000000" stroke="none" font-family="Arial" font-size="13px" font-style="normal" font-weight="bold" text-decoration="undefined" x="544.736328125" y="53.5" text-anchor="middle" dominant-baseline="central" transform="matrix(1 0 0 1 -6 2)">Order Manager</text></g></g><g><path fill="none" stroke="#000000" paint-order="fill stroke markers" d=" M 538.5 83 L 538.5 882" stroke-miterlimit="10" stroke-dasharray="3"/></g><g><rect fill="#C0C0C0" stroke="none" x="831" y="243" width="72.736328125" height="40" transform="matrix(1 0 0 1 -6 2)" fill-opacity="0.2"/></g><g><rect fill="#ffffff" stroke="none" x="824" y="236" width="72.736328125" height="40" transform="matrix(1 0 0 1 -6 2)"/></g><g><path fill="none" stroke="#000000" paint-order="fill stroke markers" d=" M 818 238 L 890.736328125 238 L 890.736328125 278 L 818 278 L 818 238 Z Z" stroke-miterlimit="10" stroke-dasharray=""/></g><g><g><path fill="none" stroke="none"/><text fill="#000000" stroke="none" font-family="Arial" font-size="13px" font-style="normal" font-weight="bold" text-decoration="undefined" x="860.8681640625" y="249.5" text-anchor="middle" dominant-baseline="central" transform="matrix(1 0 0 1 -6 2)">Order</text></g></g><g><path fill="none" stroke="#000000" paint-order="fill stroke markers" d=" M 854.5 279 L 854.5 882" stroke-miterlimit="10" stroke-dasharray="3"/></g><g><rect fill="#C0C0C0" stroke="none" x="911" y="47" width="152.2216796875" height="40" transform="matrix(1 0 0 1 -6 2)" fill-opacity="0.2"/></g><g><rect fill="#ffffff" stroke="none" x="904" y="40" width="152.2216796875" height="40" transform="matrix(1 0 0 1 -6 2)"/></g><g><path fill="none" stroke="#000000" paint-order="fill stroke markers" d=" M 898 42 L 1050.2216796875 42 L 1050.2216796875 82 L 898 82 L 898 42 Z Z" stroke-miterlimit="10" stroke-dasharray=""/></g><g><g><path fill="none" stroke="none"/><text fill="#000000" stroke="none" font-family="Arial" font-size="13px" font-style="normal" font-weight="bold" text-decoration="undefined" x="980.61083984375" y="53.5" text-anchor="middle" dominant-baseline="central" transform="matrix(1 0 0 1 -6 2)">Data Feeder Interface</text></g></g><g><path fill="none" stroke="#000000" paint-order="fill stroke markers" d=" M 974.5 83 L 974.5 882" stroke-miterlimit="10" stroke-dasharray="3"/></g><g><rect fill="#C0C0C0" stroke="none" x="1103" y="47" width="112.47265625" height="40" transform="matrix(1 0 0 1 -6 2)" fill-opacity="0.2"/></g><g><rect fill="#ffffff" stroke="none" x="1096" y="40" width="112.47265625" height="40" transform="matrix(1 0 0 1 -6 2)"/></g><g><path fill="none" stroke="#000000" paint-order="fill stroke markers" d=" M 1090 42 L 1202.47265625 42 L 1202.47265625 82 L 1090 82 L 1090 42 Z Z" stroke-miterlimit="10" stroke-dasharray=""/></g><g><g><path fill="none" stroke="none"/><text fill="#000000" stroke="none" font-family="Arial" font-size="13px" font-style="normal" font-weight="bold" text-decoration="undefined" x="1152.736328125" y="53.5" text-anchor="middle" dominant-baseline="central" transform="matrix(1 0 0 1 -6 2)">Log Service</text></g></g><g><path fill="none" stroke="#000000" paint-order="fill stroke markers" d=" M 1146.5 83 L 1146.5 882" stroke-miterlimit="10" stroke-dasharray="3"/></g><g><rect fill="#ffffff" stroke="none" x="920" y="208" width="256" height="64" transform="matrix(1 0 0 1 -6 2)"/></g><g><path fill="none" stroke="#000000" paint-order="fill stroke markers" d=" M 914 210 L 1170 210 L 1170 274 L 914 274 L 914 210 Z Z" stroke-miterlimit="10" stroke-dasharray=""/></g><g><g><path fill="none" stroke="none"/><text fill="#000000" stroke="none" font-family="Arial" font-size="13px" font-style="normal" font-weight="normal" text-decoration="undefined" x="925" y="213" text-anchor="start" dominant-baseline="text-before-edge" transform="matrix(1 0 0 1 -6 2)">NB : Lors de l’initialisation de l’objet Ordre,</text><text fill="#000000" stroke="none" font-family="Arial" font-size="13px" font-style="normal" font-weight="normal" text-decoration="undefined" x="925" y="226" text-anchor="start" dominant-baseline="text-before-edge" transform="matrix(1 0 0 1 -6 2)">une méthode vérifie l’intégrité des</text><text fill="#000000" stroke="none" font-family="Arial" font-size="13px" font-style="normal" font-weight="normal" text-decoration="undefined" x="925" y="239" text-anchor="start" dominant-baseline="text-before-edge" transform="matrix(1 0 0 1 -6 2)">données. Si cette vérification échoue, elle</text><text fill="#000000" stroke="none" font-family="Arial" font-size="13px" font-style="normal" font-weight="normal" text-decoration="undefined" x="925" y="252" text-anchor="start" dominant-baseline="text-before-edge" transform="matrix(1 0 0 1 -6 2)">renvoie une erreur.</text></g></g><g><rect fill="#ffffff" stroke="none" x="1264" y="600" width="256" height="80" transform="matrix(1 0 0 1 -6 2)"/></g><g><path fill="none" stroke="#000000" paint-order="fill stroke markers" d=" M 1258 602 L 1514 602 L 1514 682 L 1258 682 L 1258 602 Z Z" stroke-miterlimit="10" stroke-dasharray=""/></g><g><g><path fill="none" stroke="none"/><text fill="#000000" stroke="none" font-family="Arial" font-size="13px" font-style="normal" font-weight="normal" text-decoration="undefined" x="1269" y="605" text-anchor="start" dominant-baseline="text-before-edge" transform="matrix(1 0 0 1 -6 2)">NB : Si ERR_DB_PERSISTENCE</text><text fill="#000000" stroke="none" font-family="Arial" font-size="13px" font-style="normal" font-weight="normal" text-decoration="undefined" x="1269" y="618" text-anchor="start" dominant-baseline="text-before-edge" transform="matrix(1 0 0 1 -6 2)">survient, une méthode adaptée retire la</text><text fill="#000000" stroke="none" font-family="Arial" font-size="13px" font-style="normal" font-weight="normal" text-decoration="undefined" x="1269" y="631" text-anchor="start" dominant-baseline="text-before-edge" transform="matrix(1 0 0 1 -6 2)">fonction après avoir vérifié en amont que</text><text fill="#000000" stroke="none" font-family="Arial" font-size="13px" font-style="normal" font-weight="normal" text-decoration="undefined" x="1269" y="644" text-anchor="start" dominant-baseline="text-before-edge" transform="matrix(1 0 0 1 -6 2)">la connexion à la base de données est</text><text fill="#000000" stroke="none" font-family="Arial" font-size="13px" font-style="normal" font-weight="normal" text-decoration="undefined" x="1269" y="657" text-anchor="start" dominant-baseline="text-before-edge" transform="matrix(1 0 0 1 -6 2)">correcte.</text></g></g><g><rect fill="#ffffff" stroke="none" x="1280" y="480" width="208" height="51" transform="matrix(1 0 0 1 -6 2)"/></g><g><path fill="none" stroke="#000000" paint-order="fill stroke markers" d=" M 1274 482 L 1482 482 L 1482 533 L 1274 533 L 1274 482 Z Z" stroke-miterlimit="10" stroke-dasharray=""/></g><g><g><path fill="none" stroke="none"/><text fill="#000000" stroke="none" font-family="Arial" font-size="13px" font-style="normal" font-weight="normal" text-decoration="undefined" x="1285" y="485" text-anchor="start" dominant-baseline="text-before-edge" transform="matrix(1 0 0 1 -6 2)">NB : Ajouter un attribut d’ordre de</text><text fill="#000000" stroke="none" font-family="Arial" font-size="13px" font-style="normal" font-weight="normal" text-decoration="undefined" x="1285" y="498" text-anchor="start" dominant-baseline="text-before-edge" transform="matrix(1 0 0 1 -6 2)">priorité dans le data class Order</text><text fill="#000000" stroke="none" font-family="Arial" font-size="13px" font-style="normal" font-weight="normal" text-decoration="undefined" x="1285" y="511" text-anchor="start" dominant-baseline="text-before-edge" transform="matrix(1 0 0 1 -6 2)">et dans la documentation.</text></g></g><g><path fill="none" stroke="#000000" paint-order="fill stroke markers" d=" M 69 130 L 531 130" stroke-miterlimit="10" stroke-dasharray=""/></g><g><path fill="#000000" stroke="none" paint-order="stroke fill markers" d=" M 520.8373251423759 134.209517756016 L 531 130 L 520.8373251423758 125.79048224398402"/></g><g><path fill="none" stroke="#000000" paint-order="fill stroke markers" d=" M 520.8373251423759 134.209517756016 L 531 130 L 520.8373251423758 125.79048224398402 L 520.8373251423759 134.209517756016" stroke-miterlimit="10" stroke-dasharray=""/></g><g><rect fill="#ffffff" stroke="none" x="80" y="111" width="424.62646484375" height="13" transform="matrix(1 0 0 1 -6 2)"/></g><g><g><path fill="none" stroke="none"/><text fill="#000000" stroke="none" font-family="Arial" font-size="13px" font-style="normal" font-weight="normal" text-decoration="undefined" x="292.313232421875" y="117.5" text-anchor="middle" dominant-baseline="central" transform="matrix(1 0 0 1 -6 2)">1 : queueStrategyOrder(REBALANCE, List&lt;OrderRequestDTO&gt;, batchId)</text></g></g><g><rect fill="#ffffff" stroke="none" x="537" y="128" width="14" height="680" transform="matrix(1 0 0 1 -6 2)"/></g><g><path fill="none" stroke="#000000" paint-order="fill stroke markers" d=" M 531 130 L 545 130 L 545 810 L 531 810 L 531 130 Z Z" stroke-miterlimit="10" stroke-dasharray=""/></g><g><path fill="none" stroke="#00D600" paint-order="fill stroke markers" d=" M 545 258 L 818 258" stroke-miterlimit="10" stroke-dasharray="3"/></g><g><path fill="none" stroke="#00D600" paint-order="fill stroke markers" d=" M 807.8373251423759 262.209517756016 L 818 258 L 807.8373251423758 253.790482243984" stroke-miterlimit="10" stroke-dasharray=""/></g><g><rect fill="#ffffff" stroke="none" x="576" y="239" width="215.693359375" height="13" transform="matrix(1 0 0 1 -6 2)"/></g><g><g><path fill="none" stroke="none"/><text fill="#00AD00" stroke="none" font-family="Arial" font-size="13px" font-style="normal" font-weight="normal" text-decoration="undefined" x="683.8466796875" y="245.5" text-anchor="middle" dominant-baseline="central" transform="matrix(1 0 0 1 -6 2)">2 : new Order(requestData + batchId)</text></g></g><g><rect fill="#ffffff" stroke="none" x="662" y="225" width="50.5908203125" height="13" transform="matrix(1 0 0 1 -6 2)"/></g><g><g><path fill="none" stroke="none"/><text fill="#000000" stroke="none" font-family="Arial" font-size="13px" font-style="normal" font-weight="normal" text-decoration="undefined" x="687.29541015625" y="231.5" text-anchor="middle" dominant-baseline="central" transform="matrix(1 0 0 1 -6 2)">«create»</text></g></g><g><path fill="none" stroke="#000000" paint-order="fill stroke markers" d=" M 545 370 L 1146 370" stroke-miterlimit="10" stroke-dasharray=""/></g><g><path fill="none" stroke="#000000" paint-order="fill stroke markers" d=" M 1135.837325142376 374.209517756016 L 1146 370 L 1135.837325142376 365.790482243984" stroke-miterlimit="10" stroke-dasharray=""/></g><g><rect fill="#ffffff" stroke="none" x="576" y="351" width="185.4404296875" height="13" transform="matrix(1 0 0 1 -6 2)"/></g><g><g><path fill="none" stroke="none"/><text fill="#000000" stroke="none" font-family="Arial" font-size="13px" font-style="normal" font-weight="normal" text-decoration="undefined" x="668.72021484375" y="357.5" text-anchor="middle" dominant-baseline="central" transform="matrix(1 0 0 1 -6 2)">3 : LogEvent(ORDER_INVALID)</text></g></g><g><path fill="none" stroke="#000000" paint-order="fill stroke markers" d=" M 531 378 L 69 378" stroke-miterlimit="10" stroke-dasharray="3"/></g><g><path fill="none" stroke="#000000" paint-order="fill stroke markers" d=" M 79.16267485762415 373.790482243984 L 69 378 L 79.16267485762415 382.209517756016" stroke-miterlimit="10" stroke-dasharray=""/></g><g><rect fill="#ffffff" stroke="none" x="88" y="359" width="429.42529296875" height="13" transform="matrix(1 0 0 1 -6 2)"/></g><g><g><path fill="none" stroke="none"/><text fill="#000000" stroke="none" font-family="Arial" font-size="13px" font-style="normal" font-weight="normal" text-decoration="undefined" x="302.712646484375" y="365.5" text-anchor="middle" dominant-baseline="central" transform="matrix(1 0 0 1 -6 2)">4 : BatchQueueResult(status:&#160;VALIDATION_ERROR,&#160;batchId,&#160;orderCount)</text></g></g><g><path fill="none" stroke="#000000" paint-order="fill stroke markers" d=" M 545 442 L 847 442" stroke-miterlimit="10" stroke-dasharray=""/></g><g><path fill="#000000" stroke="none" paint-order="stroke fill markers" d=" M 836.8373251423759 446.209517756016 L 847 442 L 836.8373251423758 437.790482243984"/></g><g><path fill="none" stroke="#000000" paint-order="fill stroke markers" d=" M 836.8373251423759 446.209517756016 L 847 442 L 836.8373251423758 437.790482243984 L 836.8373251423759 446.209517756016" stroke-miterlimit="10" stroke-dasharray=""/></g><g><rect fill="#ffffff" stroke="none" x="576" y="423" width="177.01708984375" height="13" transform="matrix(1 0 0 1 -6 2)"/></g><g><g><path fill="none" stroke="none"/><text fill="#000000" stroke="none" font-family="Arial" font-size="13px" font-style="normal" font-weight="normal" text-decoration="undefined" x="664.508544921875" y="429.5" text-anchor="middle" dominant-baseline="central" transform="matrix(1 0 0 1 -6 2)">5 : updateStatus(INITIALIZED)</text></g></g><g><rect fill="#ffffff" stroke="none" x="853" y="440" width="14" height="28" transform="matrix(1 0 0 1 -6 2)"/></g><g><path fill="none" stroke="#000000" paint-order="fill stroke markers" d=" M 847 442 L 861 442 L 861 470 L 847 470 L 847 442 Z Z" stroke-miterlimit="10" stroke-dasharray=""/></g><g><path fill="none" stroke="#0000D1" paint-order="fill stroke markers" d=" M 545 506 L 967 506" stroke-miterlimit="10" stroke-dasharray=""/></g><g><path fill="#0000D1" stroke="none" paint-order="stroke fill markers" d=" M 956.8373251423759 510.209517756016 L 967 506 L 956.8373251423758 501.790482243984"/></g><g><path fill="none" stroke="#0000D1" paint-order="fill stroke markers" d=" M 956.8373251423759 510.209517756016 L 967 506 L 956.8373251423758 501.790482243984 L 956.8373251423759 510.209517756016" stroke-miterlimit="10" stroke-dasharray=""/></g><g><rect fill="#ffffff" stroke="none" x="576" y="487" width="164.7216796875" height="13" transform="matrix(1 0 0 1 -6 2)"/></g><g><g><path fill="none" stroke="none"/><text fill="#0000D1" stroke="none" font-family="Arial" font-size="13px" font-style="normal" font-weight="normal" text-decoration="undefined" x="658.36083984375" y="493.5" text-anchor="middle" dominant-baseline="central" transform="matrix(1 0 0 1 -6 2)">6 : Persist Order(Order.data)</text></g></g><g><rect fill="#ffffff" stroke="none" x="973" y="504" width="14" height="28" transform="matrix(1 0 0 1 -6 2)"/></g><g><path fill="none" stroke="#000000" paint-order="fill stroke markers" d=" M 967 506 L 981 506 L 981 534 L 967 534 L 967 506 Z Z" stroke-miterlimit="10" stroke-dasharray=""/></g><g><path fill="none" stroke="#000000" paint-order="fill stroke markers" d=" M 545 618 L 1146 618" stroke-miterlimit="10" stroke-dasharray=""/></g><g><path fill="none" stroke="#000000" paint-order="fill stroke markers" d=" M 1135.837325142376 622.209517756016 L 1146 618 L 1135.837325142376 613.790482243984" stroke-miterlimit="10" stroke-dasharray=""/></g><g><rect fill="#ffffff" stroke="none" x="576" y="597" width="233.365234375" height="13" transform="matrix(1 0 0 1 -6 2)"/></g><g><g><path fill="none" stroke="none"/><text fill="#000000" stroke="none" font-family="Arial" font-size="13px" font-style="normal" font-weight="normal" text-decoration="undefined" x="692.6826171875" y="603.5" text-anchor="middle" dominant-baseline="central" transform="matrix(1 0 0 1 -6 2)">7 : LogEvent(ERR_DB_PERSISTENCE)</text></g></g><g><path fill="none" stroke="#000000" paint-order="fill stroke markers" d=" M 545 650 L 967 650" stroke-miterlimit="10" stroke-dasharray=""/></g><g><path fill="#000000" stroke="none" paint-order="stroke fill markers" d=" M 956.8373251423759 654.209517756016 L 967 650 L 956.8373251423758 645.790482243984"/></g><g><path fill="none" stroke="#000000" paint-order="fill stroke markers" d=" M 956.8373251423759 654.209517756016 L 967 650 L 956.8373251423758 645.790482243984 L 956.8373251423759 654.209517756016" stroke-miterlimit="10" stroke-dasharray=""/></g><g><rect fill="#ffffff" stroke="none" x="576" y="631" width="216.28369140625" height="13" transform="matrix(1 0 0 1 -6 2)"/></g><g><g><path fill="none" stroke="none"/><text fill="#000000" stroke="none" font-family="Arial" font-size="13px" font-style="normal" font-weight="normal" text-decoration="undefined" x="684.141845703125" y="637.5" text-anchor="middle" dominant-baseline="central" transform="matrix(1 0 0 1 -6 2)">8 : rollbackBatchTransaction(batchId)</text></g></g><g><rect fill="#ffffff" stroke="none" x="973" y="648" width="14" height="28" transform="matrix(1 0 0 1 -6 2)"/></g><g><path fill="none" stroke="#000000" paint-order="fill stroke markers" d=" M 967 650 L 981 650 L 981 678 L 967 678 L 967 650 Z Z" stroke-miterlimit="10" stroke-dasharray=""/></g><g><path fill="none" stroke="#000000" paint-order="fill stroke markers" d=" M 531 666 L 69 666" stroke-miterlimit="10" stroke-dasharray="3"/></g><g><path fill="none" stroke="#000000" paint-order="fill stroke markers" d=" M 79.16267485762415 661.790482243984 L 69 666 L 79.16267485762415 670.209517756016" stroke-miterlimit="10" stroke-dasharray=""/></g><g><rect fill="#ffffff" stroke="none" x="80" y="647" width="445.80224609375" height="13" transform="matrix(1 0 0 1 -6 2)"/></g><g><g><path fill="none" stroke="none"/><text fill="#000000" stroke="none" font-family="Arial" font-size="13px" font-style="normal" font-weight="normal" text-decoration="undefined" x="302.901123046875" y="653.5" text-anchor="middle" dominant-baseline="central" transform="matrix(1 0 0 1 -6 2)">9 : BatchQueueResult(status:&#160;PERSISTENCE_ERROR,&#160;batchId,&#160;orderCount)</text></g></g><g><path fill="none" stroke="#000000" paint-order="fill stroke markers" d=" M 545 738 L 1146 738" stroke-miterlimit="10" stroke-dasharray=""/></g><g><path fill="none" stroke="#000000" paint-order="fill stroke markers" d=" M 1135.837325142376 742.209517756016 L 1146 738 L 1135.837325142376 733.790482243984" stroke-miterlimit="10" stroke-dasharray=""/></g><g><rect fill="#ffffff" stroke="none" x="573" y="718" width="275.7294921875" height="13" transform="matrix(1 0 0 1 -6 2)"/></g><g><g><path fill="none" stroke="none"/><text fill="#000000" stroke="none" font-family="Arial" font-size="13px" font-style="normal" font-weight="normal" text-decoration="undefined" x="710.86474609375" y="724.5" text-anchor="middle" dominant-baseline="central" transform="matrix(1 0 0 1 -6 2)">10 : LogEvent(ORDER_CREATED &amp; QUEUED)</text></g></g><g><path fill="none" stroke="#000000" paint-order="fill stroke markers" d=" M 545 794 L 575 794 L 575 814 L 545 814" stroke-miterlimit="10" stroke-dasharray=""/></g><g><path fill="#000000" stroke="none" paint-order="stroke fill markers" d=" M 555.1626748576241 809.790482243984 L 545 814 L 555.1626748576241 818.209517756016"/></g><g><path fill="none" stroke="#000000" paint-order="fill stroke markers" d=" M 555.1626748576241 809.790482243984 L 545 814 L 555.1626748576241 818.209517756016 L 555.1626748576241 809.790482243984" stroke-miterlimit="10" stroke-dasharray=""/></g><g><rect fill="#ffffff" stroke="none" x="576" y="776" width="187.8779296875" height="13" transform="matrix(1 0 0 1 -6 2)"/></g><g><g><path fill="none" stroke="none"/><text fill="#000000" stroke="none" font-family="Arial" font-size="13px" font-style="normal" font-weight="normal" text-decoration="undefined" x="669.93896484375" y="782.5" text-anchor="middle" dominant-baseline="central" transform="matrix(1 0 0 1 -6 2)">11 : addOrderToQueue(Order.id)</text></g></g><g><rect fill="#ffffff" stroke="none" x="537" y="812" width="14" height="28" transform="matrix(1 0 0 1 -6 2)"/></g><g><path fill="none" stroke="#000000" paint-order="fill stroke markers" d=" M 531 814 L 545 814 L 545 842 L 531 842 L 531 814 Z Z" stroke-miterlimit="10" stroke-dasharray=""/></g><g><path fill="none" stroke="#000000" paint-order="fill stroke markers" d=" M 538 858 L 69 858" stroke-miterlimit="10" stroke-dasharray="3"/></g><g><path fill="none" stroke="#000000" paint-order="fill stroke markers" d=" M 79.16267485762415 853.790482243984 L 69 858 L 79.16267485762415 862.209517756016" stroke-miterlimit="10" stroke-dasharray=""/></g><g><rect fill="#ffffff" stroke="none" x="88" y="838" width="432.80859375" height="13" transform="matrix(1 0 0 1 -6 2)"/></g><g><g><path fill="none" stroke="none"/><text fill="#000000" stroke="none" font-family="Arial" font-size="13px" font-style="normal" font-weight="normal" text-decoration="undefined" x="304.404296875" y="844.5" text-anchor="middle" dominant-baseline="central" transform="matrix(1 0 0 1 -6 2)">12 : BatchQueueResult(status:&#160;QUEUED_SUCCESS,&#160;batchId,&#160;orderCount)</text></g></g><g><path fill="none" stroke="#D63500" paint-order="fill stroke markers" d=" M 530 138 L 1194 138 L 1194 842 L 530 842 L 530 138" stroke-miterlimit="10" stroke-dasharray=""/></g><g><path fill="#ffffff" stroke="none" paint-order="stroke fill markers" d=" M 530 138 L 530 161 L 570.578125 161 L 582.078125 149.5 L 582.078125 138 L 530 138"/></g><g><path fill="none" stroke="#D63500" paint-order="fill stroke markers" d=" M 530 138 L 530 161 L 570.578125 161 L 582.078125 149.5 L 582.078125 138 L 530 138 L 530 138" stroke-miterlimit="10" stroke-dasharray=""/></g><g><g><path fill="none" stroke="none"/><text fill="#000000" stroke="none" font-family="Arial" font-size="13px" font-style="normal" font-weight="bold" text-decoration="undefined" x="553.2890625" y="147.5" text-anchor="middle" dominant-baseline="central" transform="matrix(1 0 0 1 -6 2)">loop</text></g></g><g><g><path fill="none" stroke="none"/><text fill="#000000" stroke="none" font-family="Arial" font-size="13px" font-style="normal" font-weight="normal" text-decoration="undefined" x="674.139404296875" y="180.5" text-anchor="middle" dominant-baseline="central" transform="matrix(1 0 0 1 -6 2)">[For each order in queueStrategyOrder()]</text></g></g><g><path fill="none" stroke="#00D369" paint-order="fill stroke markers" d=" M 538 290 L 1186 290 L 1186 474 L 538 474 L 538 290" stroke-miterlimit="10" stroke-dasharray=""/></g><g><path fill="#ffffff" stroke="none" paint-order="stroke fill markers" d=" M 538 290 L 538 313 L 567.72998046875 313 L 579.22998046875 301.5 L 579.22998046875 290 L 538 290"/></g><g><path fill="none" stroke="#00D369" paint-order="fill stroke markers" d=" M 538 290 L 538 313 L 567.72998046875 313 L 579.22998046875 301.5 L 579.22998046875 290 L 538 290 L 538 290" stroke-miterlimit="10" stroke-dasharray=""/></g><g><g><path fill="none" stroke="none"/><text fill="#000000" stroke="none" font-family="Arial" font-size="13px" font-style="normal" font-weight="bold" text-decoration="undefined" x="555.864990234375" y="299.5" text-anchor="middle" dominant-baseline="central" transform="matrix(1 0 0 1 -6 2)">alt</text></g></g><g><g><path fill="none" stroke="none"/><text fill="#000000" stroke="none" font-family="Arial" font-size="13px" font-style="normal" font-weight="normal" text-decoration="undefined" x="626.502197265625" y="332.5" text-anchor="middle" dominant-baseline="central" transform="matrix(1 0 0 1 -6 2)">[Order creation failed]</text></g></g><g><path fill="none" stroke="#00D369" paint-order="fill stroke markers" d=" M 538 386 L 1185 386" stroke-miterlimit="10" stroke-dasharray="10,3"/></g><g><g><path fill="none" stroke="none"/><text fill="#000000" stroke="none" font-family="Arial" font-size="13px" font-style="normal" font-weight="normal" text-decoration="undefined" x="635.173095703125" y="405.5" text-anchor="middle" dominant-baseline="central" transform="matrix(1 0 0 1 -6 2)">[Order creation succeed]</text></g></g><g><path fill="none" stroke="#0000FF" paint-order="fill stroke markers" d=" M 538 539 L 1186 539 L 1186 755 L 538 755 L 538 539" stroke-miterlimit="10" stroke-dasharray=""/></g><g><path fill="#ffffff" stroke="none" paint-order="stroke fill markers" d=" M 538 539 L 538 562 L 567.72998046875 562 L 579.22998046875 550.5 L 579.22998046875 539 L 538 539"/></g><g><path fill="none" stroke="#0000FF" paint-order="fill stroke markers" d=" M 538 539 L 538 562 L 567.72998046875 562 L 579.22998046875 550.5 L 579.22998046875 539 L 538 539 L 538 539" stroke-miterlimit="10" stroke-dasharray=""/></g><g><g><path fill="none" stroke="none"/><text fill="#000000" stroke="none" font-family="Arial" font-size="13px" font-style="normal" font-weight="bold" text-decoration="undefined" x="555.864990234375" y="548.5" text-anchor="middle" dominant-baseline="central" transform="matrix(1 0 0 1 -6 2)">alt</text></g></g><g><g><path fill="none" stroke="none"/><text fill="#000000" stroke="none" font-family="Arial" font-size="13px" font-style="normal" font-weight="normal" text-decoration="undefined" x="636.6171875" y="581.5" text-anchor="middle" dominant-baseline="central" transform="matrix(1 0 0 1 -6 2)">[Order persistance failed]</text></g></g><g><path fill="none" stroke="#0000FF" paint-order="fill stroke markers" d=" M 538 683 L 1185 683" stroke-miterlimit="10" stroke-dasharray="10,3"/></g><g><g><path fill="none" stroke="none"/><text fill="#000000" stroke="none" font-family="Arial" font-size="13px" font-style="normal" font-weight="normal" text-decoration="undefined" x="645.2880859375" y="702.5" text-anchor="middle" dominant-baseline="central" transform="matrix(1 0 0 1 -6 2)">[Order persistance succeed]</text></g></g></g></svg>